<?xml version="1.0" encoding="utf-8"?>
<!-- Generator: Adobe Illustrator 21.0.0, SVG Export Plug-In . SVG Version: 6.00 Build 0)  -->
<svg version="1.1" id="图层_1" xmlns="http://www.w3.org/2000/svg" xmlns:xlink="http://www.w3.org/1999/xlink" x="0px" y="0px"
	 viewBox="0 0 530.8 654.1" style="enable-background:new 0 0 530.8 654.1;" xml:space="preserve">
<style type="text/css">
	.st0{fill:#3E3A39;}
</style>
<g>
	<path class="st0" d="M88.4,18c2,1.3,2.7,2.2,2.2,3c-0.2,0.6-1.6,0.8-4,0.4c-0.8-0.2-2.6,1.3-5.2,4.4c-7.5,9.3-15.8,17.7-24.7,25.2
		v25.8c-0.5,6,2.4,8.8,8.7,8.5c4.6,0.2,9.9,0.2,16.1-0.1c4.5,0.2,6.9-1.7,7.1-5.8c0.4-3.2,0.9-8.4,1.5-15.8l1.9,0.1
		c-0.2,5.9-0.3,10.3-0.1,13.1c0.1,2.7,0.3,4.4,0.8,5.2c0.2,0.4,0.6,0.9,1.2,1.5c0.8,1.1,1.2,1.9,0.9,2.5c-0.1,1.8-3.5,2.9-10.1,3.2
		c-3.1,0.1-7.2,0.2-12.2,0.2c-4.3,0.1-7.4,0-9.3-0.1c-7.7,0.1-11.3-3.6-10.9-11V54.8c-4.2,3.3-12.1,8.7-23.8,16.1l-1.3-1.6
		c8.4-5.6,16.7-12,25.1-19.4V9.6c0-2.5-0.1-5.6-0.2-9.5C56.2,0.8,59,1.5,60.6,2C61.5,2.4,62,2.9,62,3.3c0.1,0.6-0.1,0.9-0.7,1.2
		c-0.2,0.1-0.6,0.2-1,0.4c-0.8,0.3-1.5,0.5-2,0.7c-1,0.2-1.5,3.3-1.5,9.4v30.9c7.2-6.8,14.5-15.3,21.7-25.3c1.2-1.6,2.5-3.6,3.8-5.9
		C84.9,15.9,87,17.1,88.4,18L88.4,18z M29,0c-1.1,4.2-2.6,8.7-4.5,13.6C17.5,30.4,9.4,45.5,0,58.8L1.3,60
		c6.3-7.7,12.6-16.8,18.8-27.5c-0.1,5.2-0.2,15-0.2,29.4c-0.2,10.3-0.5,20.8-0.8,31.5c0.1,0.6,0.5,1,1.2,1c1.3-0.1,2.3-0.5,3.3-1.2
		c0.3-0.4,0.6-1.1,0.6-2.2c0-2.6,0-7.9-0.1-15.9c0-7.1,0-11.6,0-13.6c0-3.6,0-9.9,0.1-18.7c0-9.4,0-15.4,0.1-18l0.3-0.6
		c1.5-2.8,3.2-6.2,5.1-10.1C32,8.6,33.8,6,34.8,6.4c2.3-0.2,3.4-0.7,3.4-1.4c0.4-0.8-0.7-1.7-3.2-2.7C32.8,1.3,30.8,0.6,29,0L29,0z
		 M198,32.5h-13.1c-1.4,0.3-2.1,0.9-2.1,1.9c-0.9,5.6-2,11-3.2,16.1c-1.7,6.8-4.1,12.9-7.2,18.1c0.4,0.3,1,0.6,1.9,1.1
		c1.1,0.6,1.9,1.1,2.4,1.5c7,4.2,11.9,8.3,15,12.2c1.9,2.9,2.2,5.3,0.8,7.2c-1.4,1.1-2.9,0.3-4.6-2.2c-2.5-3.7-5.1-6.9-7.8-9.5
		c-3-2.5-6.1-5-9.5-7.5c-6.9,9.9-18.9,17.5-35.9,22.7l-0.6-1.4c15.3-6.3,26.3-14.2,32.8-23.7c-2-1.3-4.3-2.8-7-4.4
		c-4.8-3-9.6-5.5-14.1-7.5c2.2-6,4.7-14.2,7.5-24.6c-6,0.2-11.3,0.6-15.9,1.4l-4-4c4.5,0.4,8.5,0.6,11.9,0.6h8.4
		c0.1,0,0.1-0.1,0.1-0.1c2.7-10.5,4.6-19.9,5.7-28.4c4.5,1.3,7.3,2.1,8.3,2.6c1.3,0.6,1.8,1.2,1.5,1.8c-0.1,0.4-0.6,0.8-1.6,1.1
		c-0.2,0.1-0.5,0.2-0.9,0.2c-0.6,0.1-1,0.3-1.4,0.4c-1,0.3-1.9,2.1-2.6,5.5c-0.1,0.5-0.3,1.2-0.5,2.2c-1.1,4.4-2.3,9.3-3.8,14.6
		h29.1c2.8-3.7,4.4-5.5,4.8-5.6c1.6,0.6,3.9,2.4,7,5.4c0.6,0.7,0.8,1.3,0.6,1.8C199.9,32.3,199.2,32.5,198,32.5L198,32.5z
		 M150.4,56.7c1.1,0.6,2.8,1.5,5.2,2.6c5.6,2.9,9.9,5.3,13.1,7.1c2.4-3.9,4.3-8.3,5.6-13.2c1.8-7.2,3-14.1,3.7-20.8h-20.1
		C155.4,41.5,152.9,49.6,150.4,56.7L150.4,56.7z M131.5,65.2c0-4.4,0-12.8-0.1-25.2c-0.1-13.7-0.1-21.9,0-24.6
		c0.1-5.6,0.4-8.6,1-8.9c0.1-0.1,0.3-0.2,0.6-0.3c0.8-0.3,1.3-0.5,1.7-0.7c0,0,0,0,0.1,0c0.5-0.4,0.7-0.7,0.7-1
		c-0.1-0.5-0.6-0.9-1.6-1.3c-1.7-0.6-4.2-1.3-7.4-2c0.4,6.6,0.5,12.1,0.5,16.5v28c-4.7,3.8-9.7,7.6-15,11.4c-3.2,2.3-6.8,4.7-11,7.3
		c2.2,3,3.7,4.9,4.5,5.8c1,0.8,1.7,1,2.1,0.4c0.2-0.3,0.3-0.8,0.3-1.7c-0.1-1,1-2.7,3.3-4.8c2.8-2.8,7.1-7.2,13.2-13.5
		c1.3-1.3,2.1-2.1,2.5-2.7c0,5.8,0,11.7,0.1,17.7c0,3.4-0.1,10.3-0.3,20.9c-0.1,3.4-0.1,5.4-0.1,5.7c-0.1,0.7,0.2,1.1,0.8,1.3
		c1.3,0.1,2.5-0.3,3.5-1.3c0.4-0.6,0.6-1.3,0.5-2.1c0-0.2,0-1.4,0-3.5C131.6,76.3,131.5,69.2,131.5,65.2L131.5,65.2z M105,19.9
		c3.8,2.3,7.2,4.4,10.1,6.5c3.8,2.8,5.7,5.8,5.7,9c0,2.2-0.8,3.4-2.5,3.8c-1.1,0-2.1-1-2.9-3.2c-0.6-1.8-1.9-4.3-4.1-7.4
		c-1.3-1.9-3.7-4.5-7.3-7.8L105,19.9L105,19.9z M276,14.8v10.5c0,1,0.1,3.8,0.2,8.3c0.1,2.4,0.1,3.7,0.1,4c0,1.2-0.2,1.9-0.5,2.2
		c-0.9,0.6-2,0.9-3.2,0.8c-0.7-0.1-1-0.5-1-1.1v-4.6h-39.5v3.6c0,1-0.2,1.7-0.6,2c-1,0.9-2,1.3-3.2,1c-0.7-0.1-1-0.6-0.9-1.4
		c0-0.6,0-2.8,0.1-6.8c0.2-5.6,0.2-8.9,0.2-9.9V12.8c0-2,0-5.1-0.1-9.4c2.7,1.8,4.7,3.2,6,4.2h36.2c2.3-2.5,3.6-3.8,3.9-3.9
		c1.5,0.6,3.5,2,5.9,4.2c1,1.1,1,1.9-0.1,2.4c-0.3,0.1-0.6,0.3-1.1,0.5c-0.4,0.2-0.8,0.4-1.3,0.6C276.3,11.8,275.9,12.9,276,14.8
		L276,14.8z M290.6,59.2v13.2c0,0.9,0.1,4.8,0.3,11.8c0.1,3.7,0.1,5.6,0.1,5.9c0.1,0.7-0.1,1.3-0.5,1.7c-1,0.9-2.2,1.3-3.5,1.3
		c-0.6-0.1-0.9-0.5-0.9-1v-7.8h-22.2v7.6c0.1,0.7-0.1,1.3-0.5,1.7c-0.8,0.8-1.9,1.3-3.2,1.3c-0.7,0-1.1-0.4-1.1-1
		c0-0.4,0-2.7,0.1-6.9c0.2-6,0.2-9.4,0.2-10.3V56.8c0-1.7,0-4.7-0.1-9c2.8,1.8,4.9,3.3,6.3,4.5h18.6c2.2-2.7,3.4-4,3.7-4.1
		c1.2,0.5,3.1,1.9,5.7,4.2c0.7,0.9,0.7,1.6,0,2.1c-0.4,0.2-0.8,0.5-1.4,0.8c-0.4,0.2-0.7,0.4-0.9,0.5
		C290.8,56,290.6,57.1,290.6,59.2L290.6,59.2z M243.6,59.1v13.3c0,0.9,0.1,4.9,0.3,11.8c0.1,3.7,0.1,5.6,0.1,5.9
		c0.1,0.7-0.1,1.3-0.5,1.7c-1,0.9-2.2,1.3-3.5,1.3c-0.6-0.1-0.9-0.5-0.9-1v-7.9H217V92c0.1,0.7-0.1,1.3-0.5,1.7
		c-0.8,0.8-1.9,1.3-3.2,1.3c-0.7,0-1.1-0.4-1.1-1c0-0.4,0-2.7,0.1-6.9c0.2-6,0.2-9.4,0.2-10.3V56.7c0-1.7,0-4.7-0.1-9
		c2.8,1.8,4.9,3.3,6.3,4.5h18.5c2.2-2.7,3.4-4,3.7-4.1c1.2,0.5,3.1,1.9,5.7,4.2c0.7,0.9,0.7,1.6,0,2.1c-0.4,0.2-0.8,0.5-1.4,0.8
		c-0.4,0.2-0.7,0.4-0.9,0.5C243.8,55.9,243.6,57,243.6,59.1L243.6,59.1z M231.9,23.2v9.5h39.6V9.8h-38.7c-0.7,0.2-1,1.7-1,4.5V23.2
		L231.9,23.2z M263.8,57v25.3h22.2V54.5h-21.4C264.1,54.7,263.8,55.6,263.8,57L263.8,57z M217,56.9v25.3h22.1V54.4h-21.3
		C217.2,54.6,216.9,55.5,217,56.9z"/>
	<g>
		<path class="st0" d="M2.7,146.6c1.7,0.2,2.7,1.1,2.9,2.8c-0.2,1.7-1.1,2.6-2.9,2.8c-1.6-0.1-2.5-1.1-2.7-2.8
			C0.1,147.7,1,146.7,2.7,146.6L2.7,146.6z M78.7,188v-17.2H68.1c-0.2,7.1-0.9,12.3-2.2,15.4c-1.1,3.2-3.6,6.7-7.4,10.5l-0.8-0.7
			c3.4-4.1,5.5-8.1,6.3-12c0.9-3.6,1.5-10.7,1.6-21.4c0.1-3.7,0.1-9.7,0.1-17.9c0-1.3,0-2.1,0-2.5c0-1.5-0.1-3.2-0.2-5.1
			c1.7,1.3,3.1,2.4,4.2,3.4h7.9c1.5-1.6,2.3-2.5,2.4-2.5c1,0.4,2.3,1.3,3.9,2.8c0.6,0.6,0.6,1.1-0.1,1.4c-0.2,0.1-0.5,0.2-0.8,0.4
			c-0.3,0.1-0.6,0.3-0.8,0.3c-0.4,0.2-0.6,1.1-0.6,2.7v32.1c0,1.4,0,3.5,0.1,6.3c0,3.1,0,5.2,0.1,6c0.1,1.6-0.3,2.8-1.3,3.5
			c-0.6,0.5-1.4,1-2.4,1.3c-0.7,0.2-1.2,0.1-1.5-0.3c-0.1-0.1-0.2-0.4-0.4-0.8c0-0.1-0.1-0.2-0.1-0.3c-0.2-0.7-0.8-1.2-1.8-1.5
			c-1-0.3-2.7-0.7-5.1-1l0.1-1.2c3.4,0.4,6,0.6,7.9,0.6C78.3,190.6,78.9,189.8,78.7,188L78.7,188z M117,152c0.8,0,1.2-0.1,1.3-0.4
			c0.2-0.3,0.1-0.7-0.3-1.3c-1.8-1.8-3.3-3-4.4-3.4c-0.2,0-1.3,1.2-3.2,3.5h-9.4c0-1.9,0.1-3.3,0.2-4.1c0-0.4,0.1-0.8,0.1-1.4
			c0-4,0.3-6.2,0.8-6.4c0.1-0.1,0.4-0.2,0.8-0.3c0.5-0.2,0.8-0.3,1-0.4c0.3-0.2,0.4-0.4,0.4-0.8c0-0.3-0.3-0.6-0.7-0.8
			c-0.9-0.4-2.7-0.9-5.5-1.3c0.1,3.4,0.1,6,0.1,7.7c0,2.3-0.1,4-0.1,5c0,1,0,1.9-0.1,2.9h-4.4c-2.5,0-5.8-0.1-9.7-0.3l2.7,2.8
			c3.7-0.7,7.3-1,10.7-0.9h0.7v0.7c0,4.7-0.2,8.9-0.5,12.5h-5.8c-2.6,0-5.8-0.1-9.7-0.4l2.7,2.9c3.3-0.7,6.9-1,10.6-0.9h2.1
			c-0.3,14.1-6.8,24.2-19.5,30.4l0.4,0.8c14.3-5.4,21.6-15.8,21.9-31.2h0.1c0.7,6.9,2,12.5,4.2,16.6c2.1,4.2,4.7,7.6,7.7,10.1
			c1.5,1.3,2.5,1.8,3,1.8c0.3,0,0.6-0.2,0.9-0.5c0.3-0.3,0.6-0.6,1.1-0.7c1.2-0.3,2.6-0.3,4.1-0.1l0.3-0.9
			c-4.6-1.4-8.4-3.5-11.4-6.4c-4.3-4.1-7.3-10.7-8.9-19.8h17.2c0.8,0,1.3-0.1,1.4-0.4c0.1-0.3,0-0.7-0.4-1.2
			c-1.8-1.9-3.3-3.1-4.4-3.5c-0.3,0.1-1.4,1.2-3.3,3.6h-11.5c0.2-3.6,0.4-7.6,0.4-12V152H117L117,152z M78.7,142h-9.8
			c-0.4,0.4-0.6,0.9-0.6,1.6c0,0.7,0,4.6-0.1,11.6h10.5V142L78.7,142z M68.1,166.6c0,1,0,2-0.1,3h10.7v-13H68.2
			C68.2,159.4,68.1,162.8,68.1,166.6L68.1,166.6z M181.5,189.7c0-1.5,0.1-3.5,0.1-5.9c0-1.2,0-2.6,0-4.3c0-1.4,0-3.7,0-7.1h-18.4
			v3.2c0,3.6,0.1,8.7,0.1,15.4c0,1.4,0.1,2.4,0.1,3.1c0,0.6-0.1,1.1-0.6,1.4c-0.6,0.5-1.4,0.7-2.3,0.8c-0.5-0.1-0.8-0.3-0.8-0.8
			c0-0.6,0-1.8,0.1-3.7c0.2-7.4,0.4-12.7,0.4-16v-3.4h-17.5v0.8c-0.1,11.1-4.4,19.7-12.8,25.9l-0.6-0.8c7-7.6,10.5-16.8,10.3-27.4
			V141c-0.1-0.9-0.1-2.4-0.1-4.4c1.7,1.1,3.2,2.1,4.3,2.9h36.5c1.5-1.8,2.5-2.7,2.8-2.7c0.8,0.2,2.2,1.3,4.2,3.1
			c0.6,0.7,0.6,1.2,0,1.6c-0.2,0.1-0.5,0.2-0.9,0.4c-0.4,0.2-0.8,0.3-1,0.5c-0.4,0.1-0.6,1.5-0.6,4.3v26.2
			c0.1,6.9,0.1,11.7,0.1,14.4c0,2.1,0.1,3.5,0.1,4.2c0.2,2.4-1.1,4.1-4,5c-1.5,0.6-2.4,0.7-2.7,0.3c-0.2-0.2-0.4-0.5-0.4-0.7
			c0-0.3-0.2-0.6-0.3-0.8c-0.4-0.6-1.1-1-2.2-1.4c-1.2-0.3-3.1-0.7-5.7-1.1l0.3-1.4c4.6,0.6,7.9,0.9,9.8,0.8
			C180.9,192.2,181.6,191.4,181.5,189.7L181.5,189.7z M181.6,141.1h-17.7c-0.5,0.2-0.7,1-0.6,2.5v11.8h18.4V141.1L181.6,141.1z
			 M181.6,170.9v-0.6v-13.5h-18.4v14.1H181.6L181.6,170.9z M142.8,143.3c-0.1,1.4-0.1,3.1-0.1,5c0,0.9,0,1.9,0,2.9c0,1,0,2.4,0,4.1
			h17.6v-12.7v-1.6h-16.1C143.2,141.3,142.8,142.1,142.8,143.3L142.8,143.3z M142.6,156.8c0,2.4,0,5.4,0.1,9.2c0,2.4,0,4,0,4.9h17.5
			v-14.1H142.6L142.6,156.8z M258.5,146.6c1.3,0.8,1.8,1.5,1.5,2c-0.1,0.4-1,0.5-2.7,0.3c-0.6-0.1-1.7,0.8-3.4,3
			c-5,6.2-10.5,11.8-16.5,16.8v17.2c-0.3,4,1.6,5.9,5.8,5.6c3.1,0.1,6.6,0.1,10.8-0.1c3,0.1,4.6-1.1,4.7-3.9c0.3-2.1,0.6-5.6,1-10.5
			l1.3,0.1c-0.1,3.9-0.2,6.9-0.1,8.7c0,1.8,0.2,2.9,0.6,3.4c0.1,0.3,0.4,0.6,0.8,1c0.6,0.7,0.8,1.3,0.6,1.7
			c-0.1,1.2-2.3,1.9-6.8,2.1c-2.1,0.1-4.8,0.1-8.2,0.1c-2.9,0-4.9,0-6.2-0.1c-5.1,0-7.5-2.4-7.2-7.3v-15.7
			c-2.8,2.2-8.1,5.8-15.9,10.8l-0.8-1.1c5.6-3.7,11.2-8,16.7-12.9V141c0-1.6,0-3.7-0.1-6.3c2.7,0.5,4.6,0.9,5.7,1.3
			c0.6,0.3,0.9,0.6,0.9,0.8c0.1,0.4-0.1,0.6-0.5,0.8c-0.1,0-0.4,0.1-0.7,0.3c-0.6,0.2-1,0.3-1.3,0.5c-0.7,0.1-1,2.2-1,6.3v20.6
			c4.8-4.5,9.7-10.2,14.5-16.9c0.8-1.1,1.6-2.4,2.5-3.9C256.2,145.2,257.6,145.9,258.5,146.6L258.5,146.6z M219,134.6
			c-0.7,2.8-1.7,5.8-3,9.1c-4.6,11.2-10.1,21.2-16.3,30.1l0.8,0.8c4.2-5.1,8.4-11.2,12.5-18.4c-0.1,3.5-0.1,10-0.1,19.6
			c-0.1,6.8-0.3,13.9-0.6,21c0,0.4,0.3,0.7,0.8,0.7c0.8,0,1.6-0.3,2.2-0.8c0.2-0.3,0.4-0.8,0.4-1.5c0-1.7,0-5.3-0.1-10.6
			c0-4.7,0-7.8,0-9.1c0-2.4,0-6.6,0.1-12.4c0-6.2,0-10.2,0.1-12l0.2-0.4c1-1.9,2.1-4.1,3.4-6.8c1.6-3.7,2.8-5.4,3.5-5.1
			c1.5-0.1,2.3-0.4,2.2-0.9c0.2-0.5-0.5-1.1-2.1-1.8C221.5,135.5,220.1,134.9,219,134.6L219,134.6z M335.5,156.2h-8.7
			c-0.9,0.2-1.4,0.6-1.4,1.3c-0.6,3.7-1.3,7.3-2.1,10.8c-1.1,4.5-2.7,8.6-4.8,12.1c0.3,0.2,0.7,0.4,1.3,0.7c0.7,0.4,1.2,0.7,1.6,1
			c4.6,2.8,8,5.5,10,8.2c1.3,1.9,1.4,3.5,0.6,4.8c-0.9,0.7-2,0.2-3.1-1.5c-1.6-2.5-3.4-4.6-5.2-6.3c-2-1.7-4.1-3.4-6.3-5
			c-4.6,6.6-12.6,11.6-23.9,15.1l-0.4-0.9c10.2-4.2,17.5-9.5,21.9-15.8c-1.3-0.8-2.9-1.8-4.6-3c-3.2-2-6.4-3.7-9.4-5
			c1.5-4,3.2-9.5,5-16.4c-4,0.1-7.5,0.4-10.6,0.9l-2.7-2.7c3,0.3,5.6,0.4,8,0.4h5.6c0,0,0.1,0,0.1-0.1c1.8-7,3-13.3,3.8-18.9
			c3,0.8,4.8,1.4,5.6,1.8c0.8,0.4,1.2,0.8,1,1.2c-0.1,0.3-0.4,0.5-1.1,0.8c-0.1,0-0.3,0.1-0.6,0.1c-0.4,0.1-0.7,0.2-0.9,0.3
			c-0.7,0.2-1.2,1.4-1.8,3.7c-0.1,0.3-0.2,0.8-0.3,1.5c-0.7,3-1.6,6.2-2.5,9.7h19.4c1.9-2.4,2.9-3.7,3.2-3.7c1,0.4,2.6,1.6,4.6,3.6
			c0.4,0.5,0.5,0.9,0.4,1.2C336.8,156.1,336.3,156.2,335.5,156.2L335.5,156.2z M303.8,172.4c0.7,0.4,1.9,1,3.4,1.8
			c3.7,1.9,6.6,3.5,8.7,4.7c1.6-2.6,2.8-5.5,3.7-8.8c1.2-4.8,2-9.4,2.5-13.9h-13.4C307.1,162.2,305.4,167.6,303.8,172.4L303.8,172.4
			z M291.2,178c0-3,0-8.6-0.1-16.8c-0.1-9.1-0.1-14.6,0-16.4c0-3.8,0.3-5.7,0.7-5.9c0,0,0.2-0.1,0.4-0.2c0.5-0.2,0.9-0.3,1.1-0.5
			c0,0,0,0,0.1,0c0.3-0.2,0.5-0.5,0.5-0.7c0-0.3-0.4-0.6-1-0.8c-1.1-0.4-2.8-0.9-4.9-1.3c0.2,4.4,0.4,8.1,0.4,11v18.6
			c-3.2,2.5-6.5,5.1-10,7.6c-2.1,1.5-4.5,3.1-7.3,4.8c1.5,2,2.5,3.3,3,3.9c0.7,0.6,1.1,0.7,1.4,0.3c0.1-0.2,0.2-0.6,0.2-1.1
			c-0.1-0.7,0.7-1.8,2.2-3.2c1.8-1.8,4.8-4.8,8.8-9c0.8-0.8,1.4-1.4,1.7-1.8c0,3.9,0,7.8,0.1,11.8c0,2.2-0.1,6.9-0.2,13.9
			c0,2.3-0.1,3.6-0.1,3.8c0,0.5,0.1,0.8,0.6,0.8c0.9,0.1,1.7-0.2,2.3-0.8c0.3-0.4,0.4-0.8,0.3-1.4c0-0.1,0-0.9,0-2.3
			C291.2,185.4,291.2,180.7,291.2,178L291.2,178z M273.5,147.9c2.5,1.5,4.8,3,6.8,4.4c2.5,1.9,3.8,3.9,3.8,6c0,1.5-0.6,2.3-1.7,2.5
			c-0.7,0-1.4-0.7-1.9-2.1c-0.4-1.2-1.3-2.9-2.7-4.9c-0.8-1.3-2.5-3-4.9-5.2L273.5,147.9L273.5,147.9z M391.4,144.4v7
			c0,0.7,0,2.6,0.1,5.6c0,1.6,0.1,2.5,0.1,2.7c0,0.8-0.1,1.3-0.3,1.5c-0.6,0.4-1.3,0.6-2.1,0.6c-0.5,0-0.7-0.3-0.7-0.8v-3.1h-26.3
			v2.4c0,0.7-0.1,1.1-0.4,1.3c-0.7,0.6-1.4,0.8-2.1,0.7c-0.5-0.1-0.7-0.4-0.6-0.9c0-0.4,0-1.9,0.1-4.5c0.1-3.7,0.1-5.9,0.1-6.6v-7.2
			c0-1.3,0-3.4-0.1-6.3c1.8,1.2,3.1,2.1,4,2.8h24.2c1.6-1.7,2.4-2.6,2.6-2.6c1,0.4,2.3,1.3,3.9,2.8c0.7,0.7,0.7,1.2-0.1,1.6
			c-0.2,0.1-0.4,0.2-0.7,0.3c-0.2,0.1-0.5,0.2-0.8,0.4C391.6,142.4,391.3,143.1,391.4,144.4L391.4,144.4z M401.1,174v8.8
			c0,0.6,0.1,3.2,0.2,7.9c0,2.4,0.1,3.8,0.1,3.9c0.1,0.5-0.1,0.8-0.3,1.1c-0.7,0.6-1.5,0.9-2.3,0.8c-0.4-0.1-0.6-0.3-0.6-0.7v-5.2
			h-14.8v5.1c0,0.5-0.1,0.8-0.3,1.1c-0.6,0.6-1.3,0.8-2.1,0.8c-0.5,0-0.7-0.2-0.7-0.7c0-0.3,0-1.8,0.1-4.6c0.1-4,0.1-6.3,0.1-6.9
			v-13.2c0-1.1,0-3.1-0.1-6c1.9,1.2,3.3,2.2,4.2,3h12.4c1.5-1.8,2.3-2.7,2.5-2.7c0.8,0.3,2.1,1.3,3.8,2.8c0.5,0.6,0.5,1.1,0,1.4
			c-0.2,0.1-0.5,0.3-0.9,0.6c-0.3,0.1-0.5,0.3-0.6,0.3C401.3,171.9,401.1,172.6,401.1,174L401.1,174z M369.8,174v8.9
			c0,0.6,0.1,3.2,0.2,7.9c0,2.4,0.1,3.8,0.1,3.9c0.1,0.5-0.1,0.8-0.3,1.1c-0.7,0.6-1.5,0.9-2.3,0.8c-0.4-0.1-0.6-0.3-0.6-0.7v-5.3
			H352v5.3c0,0.5-0.1,0.8-0.3,1.1c-0.6,0.6-1.3,0.8-2.1,0.8c-0.5,0-0.7-0.2-0.7-0.7c0-0.3,0-1.8,0.1-4.6c0.1-4,0.1-6.3,0.1-6.9
			v-13.4c0-1.1,0-3.1-0.1-6c1.9,1.2,3.3,2.2,4.2,3h12.3c1.5-1.8,2.3-2.7,2.5-2.7c0.8,0.3,2.1,1.3,3.8,2.8c0.5,0.6,0.5,1.1,0,1.4
			c-0.2,0.1-0.5,0.3-0.9,0.6c-0.3,0.1-0.5,0.3-0.6,0.3C369.9,171.8,369.8,172.6,369.8,174L369.8,174z M362,150v6.3h26.4v-15.3h-25.8
			c-0.5,0.1-0.7,1.1-0.6,3V150L362,150z M383.3,172.6v16.9h14.8v-18.6h-14.2C383.4,171.1,383.2,171.6,383.3,172.6L383.3,172.6z
			 M352,172.5v16.9h14.7v-18.6h-14.2C352.2,171,352,171.6,352,172.5L352,172.5z M2.7,236.5c1.7,0.2,2.7,1.1,2.9,2.8
			c-0.2,1.7-1.1,2.6-2.9,2.8C1,242,0.1,241.1,0,239.4C0.1,237.6,1,236.7,2.7,236.5L2.7,236.5z M51.8,242.1h14
			c1.4-6.1,2.3-12,2.9-17.5c0,0,0.1,0,0.3,0.1c0.3,0,1.5,0.4,3.5,1.1c2.2,0.6,3.1,1.2,2.9,1.8c0,0.3-0.2,0.6-0.7,0.7
			c-0.2,0.1-0.5,0.2-1,0.3c-0.4,0.1-0.7,0.2-0.9,0.3c-0.6,0-1.1,1.2-1.6,3.4c0,0.2-0.1,0.6-0.2,1c-0.8,4-1.4,7-1.9,9H97
			c2-2.6,3.1-3.9,3.4-3.9c1.3,0.8,2.7,1.9,4.2,3.6c0.6,0.7,0.8,1.1,0.6,1.4c-0.1,0.2-0.5,0.4-1.1,0.4H68.7c-0.8,3.3-1.7,6.4-2.7,9.3
			l-0.2,0.6h21c1.8-1.7,2.9-2.6,3.4-2.7c0.7,0.1,2.1,1.3,4.2,3.3c0.5,0.6,0.7,1,0.4,1.4c-0.1,0.3-0.9,0.6-2.3,0.7
			c-0.7,0.2-1.2,0.6-1.6,1.3c-2.6,6.4-5.8,11.6-9.5,15.6c0.1,0.1,0.4,0.3,0.7,0.5c0.6,0.5,1.1,0.8,1.4,1c6.5,4.2,14.1,6.8,22.8,7.9
			l-0.3,1.1c-1.6-0.1-3.1,0.1-4.5,0.5c-0.7,0.2-1.2,0.5-1.6,1.1c-0.3,0.4-0.7,0.7-1.1,0.7c-0.8,0.3-3.4-0.6-7.7-2.7
			c-4.5-2.3-8.4-4.9-11.8-8.1c-6.4,5.2-15.7,9.5-28.1,12.8l-0.4-1c12.7-4.4,21.6-9,26.7-13.8c-4.1-5-7-11.1-8.7-18.4h-3.4
			c-3.8,12.7-11.5,23.6-22.9,32.8l-0.8-0.8c12.1-11.7,19.9-25.5,23.3-41.5c0.1-0.2,0.1-0.5,0.2-0.9c0.1-0.4,0.2-0.7,0.2-0.8H52.5
			c-1.2,1.4-2,2.2-2.5,2.2c-1-0.3-2.3-1.4-3.9-3.5c-0.2-0.3,0.6-0.8,2.5-1.5c0.4-0.1,1.1-1.2,2.1-3.2c1.2-2.5,2.5-6.1,3.9-10.8
			c1.6,0.6,3,1.2,4.1,1.7c0.9,0.5,1.3,0.9,1.3,1.3c0,0.3-0.3,0.5-0.8,0.6c-0.5,0.1-0.8,0.1-1.1,0.1c-0.8,0-1.4,0.6-2,2
			C55.5,234,54,237.1,51.8,242.1L51.8,242.1z M70.3,254.7c1.6,6.7,4.6,12.2,9.1,16.5c3.9-4.4,6.9-9.9,8.8-16.5H70.3L70.3,254.7z
			 M81.8,227.6l-0.5,0.8c2.4,1.5,4.3,2.8,5.5,3.8c1.6,1.4,2.9,2.8,3.8,4.2c0.8,1.2,1.6,1.6,2.4,1.3c0.8-0.3,1.2-1.1,1.1-2.6
			c0-1.9-1.9-3.6-5.6-5C85.9,229.1,83.7,228.3,81.8,227.6L81.8,227.6z M166,279.7c0-1.5,0.1-3.5,0.1-5.9c0-1.2,0-2.6,0-4.3
			c0-1.4,0-3.7,0-7.1h-18.4v3.2c0,3.6,0.1,8.7,0.1,15.4c0,1.4,0.1,2.4,0.1,3.1c0,0.6-0.1,1.1-0.6,1.4c-0.6,0.5-1.4,0.7-2.3,0.8
			c-0.5-0.1-0.8-0.3-0.8-0.8c0-0.6,0-1.8,0.1-3.7c0.2-7.4,0.4-12.7,0.4-16v-3.4h-17.5v0.8c-0.1,11.1-4.4,19.7-12.8,25.9l-0.6-0.8
			c7-7.6,10.5-16.8,10.3-27.4v-30.1c-0.1-0.9-0.1-2.4-0.1-4.4c1.7,1.1,3.2,2.1,4.3,2.9h36.5c1.5-1.8,2.5-2.7,2.8-2.7
			c0.8,0.2,2.2,1.3,4.2,3.1c0.6,0.7,0.6,1.2,0,1.6c-0.2,0.1-0.5,0.2-0.9,0.4c-0.4,0.2-0.8,0.3-1,0.5c-0.4,0.1-0.6,1.5-0.6,4.3v26.2
			c0.1,6.9,0.1,11.7,0.1,14.4c0,2.1,0.1,3.5,0.1,4.2c0.2,2.4-1.1,4.1-4,5c-1.5,0.6-2.4,0.7-2.7,0.3c-0.2-0.2-0.4-0.5-0.4-0.7
			c0-0.3-0.2-0.6-0.3-0.8c-0.4-0.6-1.1-1-2.2-1.4c-1.2-0.3-3.1-0.7-5.7-1.1l0.3-1.4c4.6,0.6,7.9,0.9,9.8,0.8
			C165.4,282.1,166.1,281.3,166,279.7L166,279.7z M166.1,231.1h-17.7c-0.5,0.2-0.7,1-0.6,2.5v11.8h18.4V231.1L166.1,231.1z
			 M166.1,260.9v-0.6v-13.5h-18.4v14.1H166.1L166.1,260.9z M127.2,233.3c-0.1,1.4-0.1,3.1-0.1,5c0,0.9,0,1.9,0,2.9c0,1,0,2.4,0,4.1
			h17.6v-12.7v-1.6h-16.1C127.7,231.3,127.2,232,127.2,233.3L127.2,233.3z M127.1,246.8c0,2.4,0,5.4,0.1,9.2c0,2.4,0,4,0,4.9h17.5
			v-14.1H127.1L127.1,246.8z M243,236.5c1.3,0.8,1.8,1.5,1.5,2c-0.1,0.4-1,0.5-2.7,0.3c-0.6-0.1-1.7,0.8-3.4,3
			c-5,6.2-10.5,11.8-16.5,16.8v17.2c-0.3,4,1.6,5.9,5.8,5.6c3.1,0.1,6.6,0.1,10.8-0.1c3,0.1,4.6-1.1,4.7-3.9c0.3-2.1,0.6-5.6,1-10.5
			l1.3,0.1c-0.1,3.9-0.2,6.9-0.1,8.7c0,1.8,0.2,2.9,0.6,3.4c0.1,0.3,0.4,0.6,0.8,1c0.6,0.7,0.8,1.3,0.6,1.7
			c-0.1,1.2-2.3,1.9-6.8,2.1c-2.1,0.1-4.8,0.1-8.2,0.1c-2.9,0-4.9,0-6.2-0.1c-5.1,0-7.5-2.4-7.2-7.3V261c-2.8,2.2-8.1,5.8-15.9,10.8
			l-0.8-1.1c5.6-3.7,11.2-8,16.7-12.9v-26.9c0-1.6,0-3.7-0.1-6.3c2.7,0.5,4.6,0.9,5.7,1.3c0.6,0.3,0.9,0.6,0.9,0.8
			c0.1,0.4-0.1,0.6-0.5,0.8c-0.1,0-0.4,0.1-0.7,0.3c-0.6,0.2-1,0.3-1.3,0.5c-0.7,0.1-1,2.2-1,6.3v20.6c4.8-4.5,9.7-10.2,14.5-16.9
			c0.8-1.1,1.6-2.4,2.5-3.9C240.7,235.1,242.1,235.9,243,236.5L243,236.5z M203.4,224.5c-0.7,2.8-1.7,5.8-3,9.1
			c-4.6,11.2-10.1,21.2-16.3,30.1l0.8,0.8c4.2-5.1,8.4-11.2,12.5-18.4c-0.1,3.5-0.1,10-0.1,19.6c-0.1,6.8-0.3,13.9-0.6,21
			c0,0.4,0.3,0.7,0.8,0.7c0.8,0,1.6-0.3,2.2-0.8c0.2-0.3,0.4-0.8,0.4-1.5c0-1.7,0-5.3-0.1-10.6c0-4.7,0-7.8,0-9.1
			c0-2.4,0-6.6,0.1-12.4c0-6.2,0-10.2,0.1-12l0.2-0.4c1-1.9,2.1-4.1,3.4-6.8c1.6-3.7,2.8-5.4,3.5-5.1c1.5-0.1,2.3-0.4,2.2-0.9
			c0.2-0.5-0.5-1.1-2.1-1.8C205.9,225.4,204.6,224.9,203.4,224.5L203.4,224.5z M320,246.2h-8.7c-0.9,0.2-1.4,0.6-1.4,1.3
			c-0.6,3.7-1.3,7.3-2.1,10.8c-1.1,4.5-2.7,8.6-4.8,12.1c0.3,0.2,0.7,0.4,1.3,0.7c0.7,0.4,1.2,0.7,1.6,1c4.6,2.8,8,5.5,10,8.2
			c1.3,1.9,1.4,3.5,0.6,4.8c-0.9,0.7-2,0.2-3.1-1.5c-1.6-2.5-3.4-4.6-5.2-6.3c-2-1.7-4.1-3.4-6.3-5c-4.6,6.6-12.6,11.6-23.9,15.1
			l-0.4-0.9c10.2-4.2,17.5-9.5,21.9-15.8c-1.3-0.8-2.9-1.8-4.6-3c-3.2-2-6.4-3.7-9.4-5c1.5-4,3.2-9.5,5-16.4
			c-4,0.1-7.5,0.4-10.6,0.9l-2.7-2.7c3,0.3,5.6,0.4,8,0.4h5.6c0,0,0.1,0,0.1-0.1c1.8-7,3-13.3,3.8-18.9c3,0.8,4.8,1.4,5.6,1.8
			c0.8,0.4,1.2,0.8,1,1.2c-0.1,0.3-0.4,0.5-1.1,0.8c-0.1,0-0.3,0.1-0.6,0.1c-0.4,0.1-0.7,0.2-0.9,0.3c-0.7,0.2-1.2,1.4-1.8,3.7
			c-0.1,0.3-0.2,0.8-0.3,1.5c-0.7,3-1.6,6.2-2.5,9.7h19.4c1.9-2.4,2.9-3.7,3.2-3.7c1,0.4,2.6,1.6,4.6,3.6c0.4,0.5,0.5,0.9,0.4,1.2
			C321.2,246.1,320.8,246.2,320,246.2L320,246.2z M288.3,262.3c0.7,0.4,1.9,1,3.4,1.8c3.7,1.9,6.6,3.5,8.7,4.7
			c1.6-2.6,2.8-5.5,3.7-8.8c1.2-4.8,2-9.4,2.5-13.9h-13.4C291.6,252.2,289.9,257.6,288.3,262.3L288.3,262.3z M275.7,268
			c0-3,0-8.6-0.1-16.8c-0.1-9.1-0.1-14.6,0-16.4c0-3.8,0.3-5.7,0.7-5.9c0,0,0.2-0.1,0.4-0.2c0.5-0.2,0.9-0.3,1.1-0.5c0,0,0,0,0.1,0
			c0.3-0.2,0.5-0.5,0.5-0.7c0-0.3-0.4-0.6-1-0.8c-1.1-0.4-2.8-0.9-4.9-1.3c0.2,4.4,0.4,8.1,0.4,11v18.6c-3.2,2.5-6.5,5.1-10,7.6
			c-2.1,1.5-4.5,3.1-7.3,4.8c1.5,2,2.5,3.3,3,3.9c0.7,0.6,1.1,0.7,1.4,0.3c0.1-0.2,0.2-0.6,0.2-1.1c-0.1-0.7,0.7-1.8,2.2-3.2
			c1.8-1.8,4.8-4.8,8.8-9c0.8-0.8,1.4-1.4,1.7-1.8c0,3.9,0,7.8,0.1,11.8c0,2.2-0.1,6.9-0.2,13.9c0,2.3-0.1,3.6-0.1,3.8
			c0,0.5,0.1,0.8,0.6,0.8c0.9,0.1,1.7-0.2,2.3-0.8c0.3-0.4,0.4-0.8,0.3-1.4c0-0.1,0-0.9,0-2.3C275.7,275.4,275.7,270.7,275.7,268
			L275.7,268z M257.9,237.8c2.5,1.5,4.8,3,6.8,4.4c2.5,1.9,3.8,3.9,3.8,6c0,1.5-0.6,2.3-1.7,2.5c-0.7,0-1.4-0.7-1.9-2.1
			c-0.4-1.2-1.3-2.9-2.7-4.9c-0.8-1.3-2.5-3-4.9-5.2L257.9,237.8z"/>
		<path class="st0" d="M375.8,234.4v7c0,0.7,0,2.6,0.1,5.6c0,1.6,0.1,2.5,0.1,2.7c0,0.8-0.1,1.3-0.3,1.5c-0.6,0.4-1.3,0.6-2.1,0.6
			c-0.5,0-0.7-0.3-0.7-0.8v-3.1h-26.3v2.4c0,0.7-0.1,1.1-0.4,1.3c-0.7,0.6-1.4,0.8-2.1,0.7c-0.5-0.1-0.7-0.4-0.6-0.9
			c0-0.4,0-1.9,0.1-4.5c0.1-3.7,0.1-5.9,0.1-6.6V233c0-1.3,0-3.4-0.1-6.3c1.8,1.2,3.1,2.1,4,2.8h24.2c1.6-1.7,2.4-2.6,2.6-2.6
			c1,0.4,2.3,1.3,3.9,2.8c0.7,0.7,0.7,1.2-0.1,1.6c-0.2,0.1-0.4,0.2-0.7,0.3c-0.2,0.1-0.5,0.2-0.8,0.4
			C376.1,232.4,375.8,233.1,375.8,234.4L375.8,234.4z M385.6,264v8.8c0,0.6,0.1,3.2,0.2,7.9c0,2.4,0.1,3.8,0.1,3.9
			c0.1,0.5-0.1,0.8-0.3,1.1c-0.7,0.6-1.5,0.9-2.3,0.8c-0.4-0.1-0.6-0.3-0.6-0.7v-5.2h-14.8v5.1c0,0.5-0.1,0.8-0.3,1.1
			c-0.6,0.6-1.3,0.8-2.1,0.8c-0.5,0-0.7-0.2-0.7-0.7c0-0.3,0-1.8,0.1-4.6c0.1-4,0.1-6.3,0.1-6.9v-13.2c0-1.1,0-3.1-0.1-6
			c1.9,1.2,3.3,2.2,4.2,3h12.4c1.5-1.8,2.3-2.7,2.5-2.7c0.8,0.3,2.1,1.3,3.8,2.8c0.5,0.6,0.5,1.1,0,1.4c-0.2,0.1-0.5,0.3-0.9,0.6
			c-0.3,0.1-0.5,0.3-0.6,0.3C385.7,261.9,385.6,262.6,385.6,264L385.6,264z M354.2,263.9v8.9c0,0.6,0.1,3.2,0.2,7.9
			c0,2.4,0.1,3.8,0.1,3.9c0.1,0.5-0.1,0.8-0.3,1.1c-0.7,0.6-1.5,0.9-2.3,0.8c-0.4-0.1-0.6-0.3-0.6-0.7v-5.3h-14.7v5.3
			c0,0.5-0.1,0.8-0.3,1.1c-0.6,0.6-1.3,0.8-2.1,0.8c-0.5,0-0.7-0.2-0.7-0.7c0-0.3,0-1.8,0.1-4.6c0.1-4,0.1-6.3,0.1-6.9v-13.4
			c0-1.1,0-3.1-0.1-6c1.9,1.2,3.3,2.2,4.2,3H350c1.5-1.8,2.3-2.7,2.5-2.7c0.8,0.3,2.1,1.3,3.8,2.8c0.5,0.6,0.5,1.1,0,1.4
			c-0.2,0.1-0.5,0.3-0.9,0.6c-0.3,0.1-0.5,0.3-0.6,0.3C354.4,261.8,354.2,262.5,354.2,263.9L354.2,263.9z M346.5,240v6.3h26.4v-15.3
			h-25.8c-0.5,0.1-0.7,1.1-0.6,3V240L346.5,240z M367.7,262.5v16.9h14.8v-18.6h-14.2C367.9,261,367.7,261.6,367.7,262.5L367.7,262.5
			z M336.5,262.5v16.9h14.7v-18.6H337C336.6,260.9,336.4,261.5,336.5,262.5L336.5,262.5z M2.7,326.5c1.7,0.2,2.7,1.1,2.9,2.8
			c-0.2,1.7-1.1,2.6-2.9,2.8C1,332,0.1,331,0,329.3C0.1,327.6,1,326.6,2.7,326.5L2.7,326.5z M48.4,322.9c1.4,0.2,2.7,0.5,3.9,0.9
			c0.9,0.3,1.3,0.6,1.2,1c0,0.3-0.4,0.6-1.1,0.8c-0.7,0-1.3,1.3-2.1,4c-0.1,0.5-0.3,1.1-0.6,2c-0.2,0.7-0.4,1.1-0.5,1.5h6.9
			c0-2.3,0-3.8,0-4.5c0-0.9,0-1.5,0.1-1.7c0.1-4.9,0-9-0.3-12.3c2.4,0.5,4.2,0.9,5.1,1.3c0.5,0.2,0.7,0.5,0.7,0.8
			c0,0.4-0.1,0.6-0.4,0.7c-0.1,0.1-0.4,0.2-0.7,0.3c-0.4,0.2-0.7,0.3-0.8,0.4c-0.4,0.2-0.6,0.6-0.6,1.2c-0.1,0.5-0.2,1.9-0.2,4.3
			c-0.1,3.7-0.1,6.8-0.1,9.4h5.3c1.6-2.1,2.4-3.1,2.7-3.1c0.8,0.4,2.1,1.4,3.7,3c0.4,0.4,0.5,0.8,0.4,1.1c-0.2,0.2-0.7,0.3-1.4,0.3
			H58.8c0,1.9-0.1,4-0.1,6.1c0,1.1,0,2.2,0,3.4c0,1,0,2.6,0,4.6c3.3-1.4,6.6-2.8,9.9-4.3l0.5,1.1l-10.4,5.5v7.9
			c0,6.1,0.1,11.8,0.2,16.9c0,0.6-0.1,1.1-0.3,1.5c-0.6,0.5-1.3,0.8-2.3,0.8c-0.4,0-0.6-0.3-0.6-0.8c0-0.2,0-1.2,0.1-3
			c0.2-6.7,0.3-11.6,0.3-14.7v-7.1c-2.1,1.1-4.3,2.3-6.6,3.5c-1.3,0.7-2,1.3-2.3,2c-0.1,0.5-0.3,0.8-0.6,1.1c-0.4,0.1-0.8,0-1.3-0.5
			c-1.2-1.2-2.3-2.3-3.2-3.4c2.5-0.8,4.9-1.6,7.1-2.5c0.4-0.2,1.1-0.4,1.9-0.8c2.2-0.8,3.8-1.5,4.9-2c0-3.9,0-7,0-9.1
			c0-2.4,0-4.4,0.1-6.2h-7.3c-1.9,5.6-3.8,10.3-5.7,13.9l-0.8-0.3c2.6-7.2,4.5-13.8,5.5-19.9C48,326.1,48.3,324.4,48.4,322.9
			L48.4,322.9z M105.4,340.9c0.8,0,1.3-0.1,1.3-0.4c0.1-0.2,0-0.6-0.3-1.2c-2.4-2.3-4-3.6-4.7-3.8c-0.3,0.1-1.4,1.4-3.4,3.9H85.3
			v-12.2h16c0.8,0,1.2-0.1,1.3-0.4c0.1-0.3,0-0.7-0.4-1.2c-1.8-1.9-3.3-3.1-4.3-3.5c-0.3,0-1.3,1.3-3.1,3.6h-9.6v-1.5
			c0-4.3,0.2-6.6,0.6-6.9c0.1,0,0.3-0.2,0.7-0.3c0.5-0.2,0.9-0.4,1.1-0.5c0.3-0.1,0.5-0.3,0.5-0.7c0-0.2-0.3-0.5-0.8-0.7
			c-1.1-0.4-2.9-0.8-5.2-1.2c0.2,3.8,0.3,6.1,0.3,7.1v4.8h-8c-2.2,0-4.8-0.1-7.8-0.3l2.2,2.7c2.8-0.6,6.1-0.9,10-0.9h3.7v12.2h-11
			c-2.1,0-4.7-0.1-7.8-0.3l2.4,2.7c2.5-0.6,5.7-0.9,9.8-0.9H105.4L105.4,340.9z M104.6,352.8c0.7,0,1.1-0.1,1.3-0.4
			c0.1-0.3,0-0.7-0.3-1.2c-1.9-2-3.2-3.1-3.9-3.4c-0.3,0-1.3,1.2-3,3.4h-4.8v-1.7c0-2.7,0.2-4,0.7-4.1c0.1-0.1,0.3-0.2,0.7-0.4
			c0.2-0.1,0.4-0.2,0.6-0.3c0.5-0.2,0.7-0.4,0.6-0.8c-0.1-0.2-0.4-0.4-0.9-0.7c-0.9-0.3-2.5-0.8-4.8-1.3c0.1,4.3,0.1,7.1,0.1,8.5
			v0.7H70.8c-2.2,0-4.9-0.1-8.2-0.3l2.5,2.7c1.7-0.6,4.9-0.8,9.4-0.8H91v18.1c0.1,1.6-0.6,2.5-2.2,2.5c-1.7,0.1-5-0.1-9.9-0.7
			l-0.2,1.3c3.3,0.4,5.6,0.8,6.7,1.1c0.8,0.3,1.5,0.7,2,1.4c0.2,0.3,0.3,0.6,0.3,0.8c0,0.2,0.2,0.5,0.3,0.7c0.4,0.3,1.2,0.2,2.5-0.3
			c2.5-1,3.7-2.7,3.6-5.1c0-0.8,0-3.1-0.1-6.6c0-4.9-0.1-8.2-0.1-9.8v-3.5H104.6L104.6,352.8z M77.5,358.6c2.7,1.8,3.9,3.7,3.5,5.7
			c-0.2,1.1-0.8,1.8-1.8,2c-0.9-0.1-1.5-0.7-1.8-1.8c-0.4-1.6-1.2-3.3-2.6-5c-1-1.3-2.2-2.6-3.7-4l0.6-0.6
			C73.6,356,75.6,357.3,77.5,358.6L77.5,358.6z M148.4,320.8c1,0.3,1.6,0.7,1.7,1.1c0.1,0.4-0.4,0.7-1.5,0.8c-0.4-0.3-1,0.8-1.8,3.4
			c-0.1,0.3-0.2,0.7-0.4,1.3c-0.2,0.8-0.4,1.4-0.6,1.8h8.2v-3.7c0-3.8-0.1-7.3-0.4-10.5c2.5,0.5,4.3,0.9,5.3,1.2
			c0.6,0.2,0.9,0.5,0.9,0.8c0,0.3-0.2,0.5-0.6,0.7c-0.2,0.1-0.6,0.3-1.1,0.5c-0.4,0.2-0.7,0.3-0.8,0.4c-0.2,0.1-0.4,1-0.5,2.5
			c-0.1,1.4-0.1,4.1-0.1,8.2h8.2c1.9-2.4,2.9-3.7,3.2-3.7c1.1,0.4,2.6,1.6,4.6,3.7c0.4,0.5,0.6,0.9,0.4,1.1
			c-0.2,0.2-0.6,0.4-1.3,0.4h-15v0.3v12.8h11.2c1.7-2.4,2.7-3.6,3-3.7c1.1,0.5,2.6,1.7,4.5,3.7c0.4,0.4,0.5,0.8,0.4,1.2
			c-0.1,0.2-0.6,0.3-1.4,0.3h-15.2c1.6,6.5,4.7,11.8,9.4,16c2.9,2.9,6.1,4.8,9.7,5.9l-0.2,0.8c-1.6-0.1-2.9-0.1-3.9,0.2
			c-0.3,0.1-0.7,0.4-1.1,0.7c-0.2,0.2-0.5,0.3-0.7,0.3c-0.3,0-0.8-0.3-1.7-1.1c-0.3-0.2-0.5-0.3-0.6-0.5c-2.6-2.4-4.9-5.4-7-8.9
			c-2.6-4.1-4.2-8.6-4.7-13.5h-1.7v12.3c0,6.7,0.1,12.6,0.2,17.7c0,0.7-0.1,1.1-0.4,1.3c-0.6,0.5-1.3,0.8-2.2,0.8
			c-0.4-0.1-0.6-0.3-0.6-0.7c0.2-6.4,0.3-12.5,0.3-18.4v-13h-0.5c-1.8,5.2-4.6,10.3-8.4,15.1c-4.4,5.3-9.1,9.4-14,12.1l-0.6-0.6
			c5.2-4.2,9.4-8.5,12.7-13.1c3.3-4.7,5.6-9.2,7-13.5h-1.3c-3.9,0-7.2,0.3-9.7,0.9c-0.1,0-0.1,0-0.1,0l-2.5-2.7
			c3.2,0.2,5.9,0.3,8,0.3h9.4v-13h-8.7c-1.6,4.3-3.3,8-4.8,11l-1-0.4c1.8-4.6,3.2-9.5,4.3-14.8c0.3-1.8,0.7-4,1.1-6.5
			C146,320.2,147.2,320.5,148.4,320.8L148.4,320.8z M140,323c0.8,0,1.2-0.1,1.3-0.3c0.1-0.2,0-0.6-0.4-1.1c-1.4-1.5-2.5-2.4-3.3-2.8
			c-0.3,0-1.1,1-2.5,2.9h-14.8c-1.6,0-3.6-0.1-6.1-0.3l1.7,2.2c1.4-0.4,3.2-0.6,5.3-0.6h3.2c-0.5,4.4-1.7,9.6-3.7,15.7
			c-1.8,5.3-4.4,10.8-7.7,16.7l1,0.7c2.6-3.6,5-7.7,7.2-12.5c0.8,0.8,1.5,1.8,2.3,2.9c0.9,1.4,1.5,2.8,1.8,4.4
			c0.3,1,0.8,1.5,1.5,1.5c0.8,0,1.3-0.6,1.6-1.8c0.3-1.5-0.4-3-2.3-4.6c-1.6-1.3-3.1-2.4-4.6-3.3c0.4-0.8,0.7-1.6,1.1-2.5
			c0.6-1.4,1.1-2.9,1.5-4.4h8.9c-0.8,7.8-2.2,14.1-4.1,18.8c-2.9,7.5-8,14.2-15.3,20.1l0.7,0.6c8-5,13.7-11.7,17.1-20.2
			c1.7-4.2,3-9.4,3.9-15.8c0.2-1.3,0.6-2.1,1.1-2.4c0.3-0.2,0.8-0.4,1.5-0.5c0,0,0.1,0,0.1,0c0.7-0.3,0.7-0.8,0.2-1.5
			c-1.6-1.6-2.9-2.4-3.7-2.5c-0.2,0-1.1,0.7-2.5,2h-7.6c1-3.2,1.9-6.7,2.7-10.5c0.1-0.4,0.2-0.7,0.4-0.8H140L140,323z M226.2,323.6
			c0,0.2,0,0.6-0.1,1c-0.1,3.5-0.3,6.2-0.4,8l13.2-0.2c1.5-1.6,2.4-2.5,2.7-2.5c0.5,0,1.8,1,4,2.8c0.7,0.7,0.7,1.3,0,1.7
			c-0.4,0.2-0.8,0.4-1.4,0.6c-0.2,0.1-0.3,0.2-0.4,0.2c-0.5,0.2-0.8,1-0.8,2.6c-0.9,16.6-1.6,26.6-2.2,30c-0.6,4.3-2.6,7-5.9,8.2
			c-1.7,0.7-2.8,0.8-3.2,0.4c-0.2-0.2-0.4-0.5-0.5-0.8c0-0.3-0.1-0.6-0.3-0.8c-0.3-0.7-1.3-1.2-3-1.6c-1.6-0.5-3.6-0.9-6-1.2
			l0.3-1.4c4.2,0.8,7.7,1.1,10.3,1.2c3.1,0.3,4.9-1.6,5.2-5.5c0.9-8.3,1.7-19.1,2.2-32.2l-14.6,0.2c-0.2,3.3-0.4,6.3-0.8,9.1
			c-0.5,17.1-8.7,28.7-24.4,35l-0.7-0.9c13.8-7.4,21.1-18.2,21.9-32.6c0.2-2.2,0.5-5.7,0.8-10.6l-6.1,0.1c-3.1,0.1-5.2,0.4-6.3,0.8
			l-2.2-2.5c3.3,0.2,6,0.3,8.2,0.2l6.5-0.1c0.2-3.9,0.4-8.3,0.5-12.9V314c2.8,0.5,4.7,0.9,5.7,1.2c0.7,0.2,1,0.5,0.9,0.8
			c0,0.3-0.2,0.6-0.6,0.8c-0.2,0.1-0.6,0.2-1.1,0.4c-0.3,0.1-0.5,0.2-0.6,0.2C226.7,317.7,226.4,319.8,226.2,323.6L226.2,323.6z
			 M200.9,328.8c0-0.8,0.1-1.3,0.4-1.6h12.3c0.9,0,1.5-0.1,1.5-0.4c0.1-0.2,0-0.5-0.4-1c-1.9-2-3.3-3.2-4.1-3.5
			c-0.2,0-1.2,1.1-3,3.4h-14.4c-2.6,0-5.4-0.1-8.4-0.3l2,2.5c1.4-0.4,3.5-0.6,6.2-0.7h4.9v30.5c-4.8,1.6-9.2,2.9-13.2,4
			c0.9,1.4,1.8,2.6,2.8,3.6c0.6,0.6,1.1,0.8,1.5,0.4c0.2-0.1,0.5-0.5,0.8-1c0.1-0.2,0.3-0.4,0.3-0.5c0.1-0.3,1.2-0.9,3.1-1.8
			c0.3-0.2,1.2-0.6,2.7-1.2c2.8-1.2,9.1-4.1,18.8-8.7l-0.1-0.9c-3.7,1.5-8.3,3.1-13.8,5.1V328.8L200.9,328.8z M265.8,367
			c0,0.6,0,2.5,0.1,5.6c0,1.7,0,2.7,0,2.9c0,0.8-0.1,1.3-0.4,1.5c-0.6,0.6-1.3,0.9-2,0.9c-0.5-0.1-0.7-0.4-0.6-0.8
			c0.1-4.9,0.2-9.5,0.3-13.7v-18.6c0-1.2,0-3.2-0.1-5.9c1.5,0.8,2.6,1.6,3.4,2.2h13.3c1.3-1.4,2.1-2.1,2.3-2.2
			c0.8,0.3,2,1.1,3.5,2.5c0.6,0.6,0.6,1.1-0.1,1.5c-0.2,0.1-0.5,0.3-0.7,0.3c-0.1,0.1-0.3,0.2-0.5,0.3c-0.4,0.2-0.6,1.1-0.6,2.7
			v18.6c0,1.8,0,4.2,0.1,7.1c0-0.1,0,0,0,0.5c0.1,1.9-0.5,3.2-1.7,3.9c-0.5,0.4-1.4,0.8-2.7,1.2c-0.8,0.3-1.4,0.3-1.7-0.1
			c-0.1-0.1-0.2-0.3-0.3-0.7c0-0.4-0.2-0.8-0.3-1c-0.5-0.5-1.3-0.9-2.5-1.3c-1-0.3-2.4-0.5-4.1-0.8l0.2-1.2c2.4,0.3,4.1,0.5,5,0.6
			c1.2,0.1,2.3,0.2,3.2,0.1c1.4,0.1,2.1-0.7,2-2.5c0-0.2-0.1-1.1-0.1-2.6c0-0.8,0-1.8,0-2.9c0-1,0-2.6,0-4.6h-15V367L265.8,367z
			 M312.3,349.1c0.9,0.4,1.9,1,3.1,1.8c1.2,0.7,1.7,1.4,1.7,1.8c0,0.3-0.6,0.4-1.7,0.3c-0.9-0.2-3.3,0.8-7.1,2.8
			c-4.9,2.5-9.1,4.6-12.7,6.3v5.9c0,1.9,0.3,3.1,1,3.6c0.7,0.6,2.3,1,4.9,1.1c4.4,0.2,7.6,0.1,9.8-0.1c1.7-0.2,2.8-0.5,3.2-1
			c0.5-0.4,0.9-1.3,1.2-2.7c0.3-2.1,0.7-5.4,1-10.1h1.1c-0.1,3.6-0.1,6.3-0.1,8.2c0.1,1.6,0.2,2.8,0.6,3.4c0.1,0.3,0.4,0.7,0.8,1.1
			c0.5,0.6,0.7,1,0.6,1.5c0,1.2-2.3,1.9-7,2.1c-1.7,0.1-3.8,0.1-6.3,0.1c-2.6,0-4.7,0-6.2-0.1c-5.2,0-7.5-2-7.2-6.1v-18.4
			c0-1.1,0-2.9-0.1-5.3c2.5,0.5,4.3,1,5.2,1.5c0.4,0.2,0.5,0.4,0.4,0.7c0,0.2-0.3,0.5-0.9,0.7c-1.5,0.3-2.1,1.5-2,3.6v9.1
			c4.3-2.5,8.1-4.9,11.5-7.4C308.6,352.5,310.3,351,312.3,349.1L312.3,349.1z M310.9,319.4c0.9,0.5,2,1.1,3.2,1.8
			c1.2,0.8,1.8,1.3,1.7,1.8c0,0.3-0.6,0.5-1.8,0.4c-0.8-0.3-3.3,0.6-7.2,2.7c-3.5,1.8-7.1,3.6-10.8,5.3c-0.3,0.2-0.6,0.3-0.7,0.3
			v4.6c0,2,0.3,3.3,1,3.8c0.6,0.6,2.2,0.9,4.9,1c2.7,0.1,5.5,0.1,8.6-0.1c2.9,0,4.4-1.2,4.4-3.9c0.3-2,0.5-4.5,0.7-7.5l1.1,0.1
			c0,1.8,0,3.7,0,5.5c0,1.7,0.2,2.9,0.6,3.5c0.1,0.3,0.4,0.6,0.7,1.1c0.6,0.6,0.8,1.1,0.6,1.5c0,1.2-2.3,1.9-7,2
			c-1.6,0.1-3.4,0.2-5.5,0.2c-2.1,0-4,0-5.6-0.1c-2.9-0.1-4.8-0.6-5.7-1.5c-1-0.8-1.5-2.4-1.5-4.8v-17c0-1.2-0.1-2.9-0.2-5.3
			c2.6,0.5,4.4,1,5.3,1.5c0.3,0.1,0.4,0.4,0.4,0.7c-0.1,0.3-0.5,0.5-1,0.6c-1.4,0.3-2.1,1.8-2,4.3v8.2c3.3-2,6.8-4.3,10.3-6.8
			C307.1,322.7,308.9,321.3,310.9,319.4L310.9,319.4z M278.1,323.3c2,1.5,4,3.1,6,5c3,2.8,4.4,5.1,4.2,7.1c-0.1,1.2-0.5,1.8-1.5,1.8
			c-0.7-0.1-1.4-0.9-2-2.5c-0.1-0.2-0.3-0.6-0.5-1.2c-0.1-0.2-0.2-0.4-0.3-0.6c-12.1,1.1-19.1,1.9-21.1,2.3
			c-0.9,0.2-1.6,0.4-1.8,0.6c0,0-0.1,0.1-0.1,0.1c-0.1,0.2-0.4,0.3-0.6,0.3c-0.3,0.1-0.8-0.3-1.5-1.2c-0.9-1.2-1.3-2-1.2-2.3
			c0.1-0.3,0.6-0.5,1.5-0.6c0.1,0,0.2-0.1,0.2-0.1c1.1-0.2,2.1-0.9,2.9-1.9c1.5-1.7,3.9-5.1,7.2-10c1.1-1.7,2.2-3.6,3.2-5.8
			c1.5,0.7,2.7,1.3,3.7,1.8c1.2,0.8,1.7,1.3,1.4,1.6c0,0.3-0.7,0.5-2.2,0.4c-0.5-0.4-2.2,1.2-5.1,5c-2.6,3.1-5.3,6.2-8.1,9.2
			c5.1-0.1,12.1-0.4,21-0.8c-0.5-0.9-1.1-1.9-1.8-2.8c-1-1.5-2.4-3.2-4.2-5.1L278.1,323.3L278.1,323.3z M280.8,359.2
			c0-2.5,0-5.1,0.1-7.6v-0.2h-15.1v7.8H280.8L280.8,359.2z M280.8,342.3h-14.4c-0.5,0.2-0.7,0.8-0.7,1.7v6h15.1V342.3L280.8,342.3z
			 M385.8,326.5c1.3,0.8,1.8,1.5,1.5,2c-0.1,0.4-1,0.5-2.7,0.3c-0.6-0.1-1.7,0.8-3.4,3c-5,6.2-10.5,11.8-16.5,16.8v17.2
			c-0.3,4,1.6,5.9,5.8,5.6c3.1,0.1,6.6,0.1,10.8-0.1c3,0.1,4.6-1.1,4.7-3.9c0.3-2.1,0.6-5.6,1-10.5l1.3,0.1
			c-0.1,3.9-0.2,6.9-0.1,8.7c0,1.8,0.2,2.9,0.6,3.4c0.1,0.3,0.4,0.6,0.8,1c0.6,0.7,0.8,1.3,0.6,1.7c-0.1,1.2-2.3,1.9-6.8,2.1
			c-2.1,0.1-4.8,0.1-8.2,0.1c-2.9,0-4.9,0-6.2-0.1c-5.1,0-7.5-2.4-7.2-7.3V351c-2.8,2.2-8.1,5.8-15.9,10.8l-0.8-1.1
			c5.6-3.7,11.2-8,16.7-12.9v-26.9c0-1.6,0-3.7-0.1-6.3c2.7,0.5,4.6,0.9,5.7,1.3c0.6,0.3,0.9,0.6,0.9,0.8c0.1,0.4-0.1,0.6-0.5,0.8
			c-0.1,0-0.4,0.1-0.7,0.3c-0.6,0.2-1,0.3-1.3,0.5c-0.7,0.1-1,2.2-1,6.3v20.6c4.8-4.5,9.7-10.2,14.5-16.9c0.8-1.1,1.6-2.4,2.5-3.9
			C383.5,325.1,384.9,325.8,385.8,326.5L385.8,326.5z M346.2,314.5c-0.7,2.8-1.7,5.8-3,9.1c-4.6,11.2-10.1,21.2-16.3,30.1l0.8,0.8
			c4.2-5.1,8.4-11.2,12.5-18.4c-0.1,3.5-0.1,10-0.1,19.6c-0.1,6.8-0.3,13.9-0.6,21c0,0.4,0.3,0.7,0.8,0.7c0.8,0,1.6-0.3,2.2-0.8
			c0.2-0.3,0.4-0.8,0.4-1.5c0-1.7,0-5.3-0.1-10.6c0-4.7,0-7.8,0-9.1c0-2.4,0-6.6,0.1-12.4c0-6.2,0-10.2,0.1-12l0.2-0.4
			c1-1.9,2.1-4.1,3.4-6.8c1.6-3.7,2.8-5.4,3.5-5.1c1.5-0.1,2.3-0.4,2.2-0.9c0.2-0.5-0.5-1.1-2.1-1.8
			C348.7,315.4,347.4,314.9,346.2,314.5z"/>
		<path class="st0" d="M462.8,336.1H454c-0.9,0.2-1.4,0.6-1.4,1.3c-0.6,3.7-1.3,7.3-2.1,10.8c-1.1,4.5-2.7,8.6-4.8,12.1
			c0.3,0.2,0.7,0.4,1.3,0.7c0.7,0.4,1.2,0.7,1.6,1c4.6,2.8,8,5.5,10,8.2c1.3,1.9,1.4,3.5,0.6,4.8c-0.9,0.7-2,0.2-3.1-1.5
			c-1.6-2.5-3.4-4.6-5.2-6.3c-2-1.7-4.1-3.4-6.3-5c-4.6,6.6-12.6,11.6-23.9,15.1l-0.4-0.9c10.2-4.2,17.5-9.5,21.9-15.8
			c-1.3-0.8-2.9-1.8-4.6-3c-3.2-2-6.4-3.7-9.4-5c1.5-4,3.2-9.5,5-16.4c-4,0.1-7.5,0.4-10.6,0.9l-2.7-2.7c3,0.3,5.6,0.4,8,0.4h5.6
			c0,0,0.1,0,0.1-0.1c1.8-7,3-13.3,3.8-18.9c3,0.8,4.8,1.4,5.6,1.8c0.8,0.4,1.2,0.8,1,1.2c-0.1,0.3-0.4,0.5-1.1,0.8
			c-0.1,0-0.3,0.1-0.6,0.1c-0.4,0.1-0.7,0.2-0.9,0.3c-0.7,0.2-1.2,1.4-1.8,3.7c-0.1,0.3-0.2,0.8-0.3,1.5c-0.7,3-1.6,6.2-2.5,9.7
			h19.4c1.9-2.4,2.9-3.7,3.2-3.7c1,0.4,2.6,1.6,4.6,3.6c0.4,0.5,0.5,0.9,0.4,1.2C464,336,463.6,336.1,462.8,336.1L462.8,336.1z
			 M431.1,352.3c0.7,0.4,1.9,1,3.4,1.8c3.7,1.9,6.6,3.5,8.7,4.7c1.6-2.6,2.8-5.5,3.7-8.8c1.2-4.8,2-9.4,2.5-13.9H436
			C434.3,342.1,432.7,347.5,431.1,352.3L431.1,352.3z M418.5,357.9c0-3,0-8.6-0.1-16.8c-0.1-9.1-0.1-14.6,0-16.4
			c0-3.8,0.3-5.7,0.7-5.9c0,0,0.2-0.1,0.4-0.2c0.5-0.2,0.9-0.3,1.1-0.5c0,0,0,0,0.1,0c0.3-0.2,0.5-0.5,0.5-0.7c0-0.3-0.4-0.6-1-0.8
			c-1.1-0.4-2.8-0.9-4.9-1.3c0.2,4.4,0.4,8.1,0.4,11v18.6c-3.2,2.5-6.5,5.1-10,7.6c-2.1,1.5-4.5,3.1-7.3,4.8c1.5,2,2.5,3.3,3,3.9
			c0.7,0.6,1.1,0.7,1.4,0.3c0.1-0.2,0.2-0.6,0.2-1.1c-0.1-0.7,0.7-1.8,2.2-3.2c1.8-1.8,4.8-4.8,8.8-9c0.8-0.8,1.4-1.4,1.7-1.8
			c0,3.9,0,7.8,0.1,11.8c0,2.2-0.1,6.9-0.2,13.9c0,2.3-0.1,3.6-0.1,3.8c0,0.5,0.1,0.8,0.6,0.8c0.9,0.1,1.7-0.2,2.3-0.8
			c0.3-0.4,0.4-0.8,0.3-1.4c0-0.1,0-0.9,0-2.3C418.5,365.3,418.5,360.6,418.5,357.9L418.5,357.9z M400.7,327.8
			c2.5,1.5,4.8,3,6.8,4.4c2.5,1.9,3.8,3.9,3.8,6c0,1.5-0.6,2.3-1.7,2.5c-0.7,0-1.4-0.7-1.9-2.1c-0.4-1.2-1.3-2.9-2.7-4.9
			c-0.8-1.3-2.5-3-4.9-5.2L400.7,327.8L400.7,327.8z M518.6,324.3v7c0,0.7,0,2.6,0.1,5.6c0,1.6,0.1,2.5,0.1,2.7
			c0,0.8-0.1,1.3-0.3,1.5c-0.6,0.4-1.3,0.6-2.1,0.6c-0.5,0-0.7-0.3-0.7-0.8v-3.1h-26.3v2.4c0,0.7-0.1,1.1-0.4,1.3
			c-0.7,0.6-1.4,0.8-2.1,0.7c-0.5-0.1-0.7-0.4-0.6-0.9c0-0.4,0-1.9,0.1-4.5c0.1-3.7,0.1-5.9,0.1-6.6V323c0-1.3,0-3.4-0.1-6.3
			c1.8,1.2,3.1,2.1,4,2.8h24.2c1.6-1.7,2.4-2.6,2.6-2.6c1,0.4,2.3,1.3,3.9,2.8c0.7,0.7,0.7,1.2-0.1,1.6c-0.2,0.1-0.4,0.2-0.7,0.3
			c-0.2,0.1-0.5,0.2-0.8,0.4C518.9,322.3,518.6,323,518.6,324.3L518.6,324.3z M528.4,353.9v8.8c0,0.6,0.1,3.2,0.2,7.9
			c0,2.4,0.1,3.8,0.1,3.9c0.1,0.5-0.1,0.8-0.3,1.1c-0.7,0.6-1.5,0.9-2.3,0.8c-0.4-0.1-0.6-0.3-0.6-0.7v-5.2h-14.8v5.1
			c0,0.5-0.1,0.8-0.3,1.1c-0.6,0.6-1.3,0.8-2.1,0.8c-0.5,0-0.7-0.2-0.7-0.7c0-0.3,0-1.8,0.1-4.6c0.1-4,0.1-6.3,0.1-6.9v-13.2
			c0-1.1,0-3.1-0.1-6c1.9,1.2,3.3,2.2,4.2,3h12.4c1.5-1.8,2.3-2.7,2.5-2.7c0.8,0.3,2.1,1.3,3.8,2.8c0.5,0.6,0.5,1.1,0,1.4
			c-0.2,0.1-0.5,0.3-0.9,0.6c-0.3,0.1-0.5,0.3-0.6,0.3C528.5,351.8,528.4,352.5,528.4,353.9L528.4,353.9z M497,353.9v8.9
			c0,0.6,0.1,3.2,0.2,7.9c0,2.4,0.1,3.8,0.1,3.9c0.1,0.5-0.1,0.8-0.3,1.1c-0.7,0.6-1.5,0.9-2.3,0.8c-0.4-0.1-0.6-0.3-0.6-0.7v-5.3
			h-14.7v5.3c0,0.5-0.1,0.8-0.3,1.1c-0.6,0.6-1.3,0.8-2.1,0.8c-0.5,0-0.7-0.2-0.7-0.7c0-0.3,0-1.8,0.1-4.6c0.1-4,0.1-6.3,0.1-6.9
			v-13.4c0-1.1,0-3.1-0.1-6c1.9,1.2,3.3,2.2,4.2,3h12.3c1.5-1.8,2.3-2.7,2.5-2.7c0.8,0.3,2.1,1.3,3.8,2.8c0.5,0.6,0.5,1.1,0,1.4
			c-0.2,0.1-0.5,0.3-0.9,0.6c-0.3,0.1-0.5,0.3-0.6,0.3C497.2,351.7,497,352.5,497,353.9L497,353.9z M489.3,329.9v6.3h26.4V321h-25.8
			c-0.5,0.1-0.7,1.1-0.6,3V329.9L489.3,329.9z M510.5,352.5v16.9h14.8v-18.6h-14.2C510.7,351,510.5,351.5,510.5,352.5L510.5,352.5z
			 M479.3,352.4v16.9H494v-18.6h-14.2C479.4,350.9,479.2,351.5,479.3,352.4z"/>
	</g>
</g>
</svg>
