<?xml version="1.0" encoding="utf-8"?>
<!-- Generator: Adobe Illustrator 21.0.0, SVG Export Plug-In . SVG Version: 6.00 Build 0)  -->
<svg version="1.1" id="图层_1" xmlns="http://www.w3.org/2000/svg" xmlns:xlink="http://www.w3.org/1999/xlink" x="0px" y="0px"
	 viewBox="0 0 654.1 654.1" style="enable-background:new 0 0 654.1 654.1;" xml:space="preserve">
<style type="text/css">
	.st0{fill:#FFFFFF;}
</style>
<g>
	<path class="st0" d="M216.3,169.6c3.9,1.4,8.2,3.5,12.7,6.2c4.9,2.9,8.8,5.5,11.5,8c1-1.8,2.1-3.9,3.1-5.8
		c-7-4.3-14.8-8.8-23.4-13.8C218.6,166.7,217.2,168.6,216.3,169.6z"/>
	<path class="st0" d="M210.8,153.4h6.4c-0.2-2.7-0.4-5.8-0.6-9.4v-7.2h86.1v6.6c0,4.1-0.4,7.2-0.8,9.7h6.4c-0.4-2.1-0.6-5.1-0.6-9.4
		v-4.1c0.2-2.7,0.4-5.1,0.6-7.8c-2.9,0.2-5.8,0.6-8.6,0.8H220c-0.6,0-2.3-0.2-4.5-0.4c-0.8-0.4-2.3-0.4-4.7-0.6
		c0.2,2.3,0.2,3.7,0.4,4.3c0.2,2.3,0.4,3.5,0.4,4.1v3.9C211.6,148.7,211.2,151.9,210.8,153.4z"/>
	<path class="st0" d="M232.2,218.9c-11.1,4.9-20.1,8-27.1,9c2.7,2.3,4.7,4.1,5.8,5.3c20.7-7.2,34.9-14.6,42.7-22.2
		c4.5-4.3,8.6-9.9,12.1-16.4h39.4c4.5,0.2,7.4,0.4,8.4,0.8v-6c-1.2,0.2-3.9,0.4-8.4,0.6h-38.2c1.2-5.3,2.1-9.7,2.3-12.7
		c0.6-5.3,1-10.9,1.2-16.8c0.2-6.8,0.4-10.7,0.6-11.7c0.2-2.1,1-3.9,2.3-5.8l-8.4-0.4c0.4,4.7,0.6,8.4,0.6,11.3
		c0,12.9-1.4,25.1-4.1,35.9h-46.6c-4.3,0-7.2-0.2-8.6-0.6v6c1.4-0.2,4.3-0.6,8.6-0.8h44.8C253.5,204.9,244.5,213,232.2,218.9z"/>
	<path class="st0" d="M356.6,166.5c1-2.5,1.8-4.7,2.7-6.6v63.9c-0.2,4.9-0.4,7.8-0.6,8.6h6.2c-0.2-1-0.4-3.9-0.6-8.6V163
		c7.2,6.2,11.5,11.5,13.6,15.8c1.2-2.1,2.9-3.7,4.5-5.3c-1.4-1.6-4.9-5.3-10.7-10.9c-3.7-3.3-6.2-5.5-7.4-6.6v-8.2h7.8
		c6,0.2,9.2,0.4,10.3,0.8v-6c-0.8,0.4-3.7,0.6-8.6,0.6h-9.4v-19.7c0.2-3.5,0.8-6.4,2.1-8.4h-7.6c0.4,1,0.6,3.9,0.6,8.4v19.7h-14.2
		c-4.1-0.2-6.8-0.4-8-0.6v6c1-0.4,3.7-0.6,8-0.8h12.5c-0.2,1.8-0.6,3.7-1.2,5.8c-1.8,5.8-3.9,11.3-6.4,16.4
		c-3.1,6.6-5.5,11.3-7.4,14.4c-3.7,5.8-6.6,9.2-8.8,10.7c2.5,0.8,4.7,1.8,6.8,3.3C347.8,186.7,353.1,176,356.6,166.5z"/>
	<path class="st0" d="M409.6,132.6c-1.2-1.8-3.7-4.9-7-9.4c-2.5-3.1-4.5-5.5-6-7.2c-0.8,1-2.3,2.3-4.1,3.5
		c4.9,4.7,9.2,10.5,12.9,16.8C406.5,135.3,408,133.9,409.6,132.6z"/>
	<path class="st0" d="M354.4,247.9c-0.2,0-0.6-0.2-1.2-0.2v6.2c2.5-0.4,5.1-0.6,8-0.6h63.1c3.9,0.2,6,0.2,6.4,0.4
		c1,0.2,1.6,0.2,2.3,0.4v-6.2c-1.4,0.2-4.3,0.4-8.4,0.8h-63.3C357.9,248.3,355.6,248.1,354.4,247.9z"/>
	<path class="st0" d="M265.8,130.8c1.4-1.8,2.9-3.5,4.1-4.9c-2.1-1.6-4.9-3.7-8.6-6.2c-1-0.6-3.9-2.7-8.4-5.8
		c-1.4,1.8-2.9,3.3-4.3,4.7c4.1,2.5,6.8,4.1,8.2,4.9C259.5,125.2,262.6,127.7,265.8,130.8z"/>
	<path class="st0" d="M256,160c-7-4.3-14.4-8.6-22.4-13.4c-1.2,1.8-2.5,3.7-3.9,5.1c5.1,2.3,8.8,3.9,11.1,5.3
		c5.8,3.5,9.7,6.2,11.9,8.2C253.9,163.2,255,161.4,256,160z"/>
	<path class="st0" d="M345.1,281.6c-3.3-0.2-5.5-0.4-6.8-0.6c-0.2,0-0.6-0.2-1.2-0.2v6.2c2.3-0.4,4.9-0.6,8-0.6h48.1v52.6
		c0,3.3-0.8,5.1-2.5,6c-1.6,0.8-4.1,1.2-7.4,1.2c-1.2,0-3.3-0.2-6-0.4c-0.6,0-1.6-0.2-3.5-0.4c1,2.5,1.8,4.7,2.7,7
		c5.3-0.2,9.4-0.6,12.3-1c3.5-0.6,5.8-1.8,7.2-3.3c1.4-1.4,2.3-4.7,2.5-10.1v-51.3h42.7c3.9,0.2,6,0.2,6.2,0.4
		c1,0.2,1.6,0.4,2.3,0.4v-6.2c-1.4,0.2-4.3,0.4-8.4,0.8h-96.1V281.6z"/>
	<path class="st0" d="M416.2,301.9c7.2,7.4,16.6,18.3,28.1,32.9c0.6-0.6,1.2-1.2,1.8-1.6c0.8-0.6,1.4-1.4,2.3-2.1
		c-11.3-13.6-20.5-24.4-27.9-32.7C419.3,299.2,417.8,300.5,416.2,301.9z"/>
	<path class="st0" d="M266.3,206.4c7,2.5,14.4,6.2,22.6,10.9c7.8,4.5,15,9.7,21.4,15.4c0.8-1.4,1.6-2.7,2.7-3.9
		c0.2-0.2,0.6-0.8,1.4-1.8c-15.8-10.9-30.6-19.7-44-26.5C269.5,202.3,268.1,204.1,266.3,206.4z"/>
	<path class="st0" d="M444.7,194.3h-24.2v-23.2h14.2c4.9,0.2,7.8,0.4,8.8,0.8v-6c-0.8,0.4-3.9,0.6-8.8,0.6h-14.2v-23h21.2
		c4.9,0.2,7.8,0.4,8.6,0.8v-6c-0.8,0.4-3.7,0.6-8.6,0.6h-16.4c2.1-3.3,4.1-6.4,6.2-9.4c2.1-3.1,3.5-5.1,4.1-6.2c2.1-2.9,3.9-5.3,6-7
		c-3.3-1.2-5.8-2.5-7.6-3.5c-1,4.3-6,12.9-14.8,26.1h-24.2c-4.1-0.2-6.6-0.2-7.4-0.4l-0.8-0.2v6c1-0.4,3.7-0.6,8-0.8h20.1v23h-15
		c-4.3-0.2-7-0.4-8-0.6v6c1-0.4,3.7-0.6,8-0.8h15.4v23h-25.5c-3.3,0-5.5-0.2-6.4-0.4s-1.2-0.2-1.6-0.4v6c0.8-0.4,3.5-0.6,8-0.8h25.5
		v25.5c-0.2,4.9-0.4,7.8-0.6,8.6h6.6c-0.4-1.2-0.6-4.9-0.8-10.7v-23.2h24.2c5.1,0.2,8,0.4,8.6,0.8v-6
		C452.1,193.8,449.3,194.3,444.7,194.3z"/>
	<path class="st0" d="M314.9,351c1-1.8,2.7-3.9,5.1-6.4c-6.8-0.2-14.6-2.5-23.6-7c-2.7-1.2-6-3.5-10.1-6.8c1.6-1.4,4.3-4.1,8.4-8
		c2.9-2.7,6-4.9,8.8-6.4c-1.8-1.2-3.9-3.1-6.2-5.1c-1.6,4.1-6.6,9.7-15,16.6c-6.8-5.8-12.1-12.1-15.6-18.7h40.9
		c4.1,0.2,6.4,0.4,6.6,0.4c0.4,0.2,1,0.2,1.4,0.4v-6c-1.4,0.4-4.1,0.6-8,0.6h-23.8v-15.2h14c4.1,0.2,6.4,0.2,6.8,0.4
		c0.4,0.2,1,0.2,1.4,0.4v-6c-1.4,0.4-4.3,0.6-8.2,0.6h-14v-5.8c0.2-2.9,0.8-5.5,1.8-8h-7.4c0.2,0.6,0.6,3.3,0.8,8v5.8h-25.3v-5.8
		c0-0.4,0.2-1.4,0.4-3.3c0.4-2.1,0.8-3.7,1.2-4.9h-7.2c0.2,1.6,0.4,4.3,0.6,8.2v5.8h-10.9c-4.1,0-6.8-0.4-8.2-0.6v6
		c0.6-0.4,3.5-0.6,8.2-0.8H249V305h-27.5c0.4-11.5,0.6-23.8,0.8-36.6h77.8c0.4,0,1.2,0,2.3,0.2c0.8,0.2,2.3,0.2,4.7,0.4
		c-0.2-2.5-0.4-4.1-0.6-4.9c-0.2-1.2-0.2-1.8-0.2-2.3v-13.6c0-0.6,0.2-1.6,0.4-3.1c0.2-0.6,0.2-2.1,0.4-4.1
		c-2.1,0.2-3.3,0.2-3.9,0.4c-1.4,0.2-2.5,0.4-2.9,0.4h-76c-0.4,0-1.2,0-2.5-0.2c-0.8-0.2-2.7-0.2-5.3-0.4c1,8.8,1.4,18.7,1.4,29.6
		c0,18.9-0.4,32.2-1.4,39.6c-1.4,10.5-4.5,20.1-9,29c-1.6,3.1-3.9,6.2-6.6,8.8c2.5,1,4.7,2.1,6.4,3.1c2.3-4.5,4.9-10.3,7.8-17.5
		c2.9-7.8,4.9-15.8,6.2-24.2h17.3v33.9c0,2.9-0.4,4.9-1,6c-0.2,0.4-0.8,1.2-1.8,2.3l3.7,4.3c7.8-6.4,17.3-12.9,27.9-19.5
		c-0.2-1.6-0.2-3.7-0.4-6c-10.5,7.8-18.5,13.1-23.8,16.2v-37.4h18.1c1.8,3.3,3.9,6.4,6.2,9.2c4.3,5.5,8.8,10.3,13.4,14.2
		c8.6,7,18.9,12.5,30.6,16.6C311.6,349.7,313.1,350.2,314.9,351z M222.3,246.2h79.3v17.7h-79.3V246.2z M253.9,305v-15.4h25.3V305
		H253.9z"/>
	<path class="st0" d="M366.9,297.4c-1.2,4.1-4.1,9.2-8.2,15.8c-7.4,11.5-14,18.7-19.7,21.8c2.9,1.2,5.3,2.3,7,3.3
		c9.9-11.5,16.6-21,20.3-27.9c2.1-3.7,3.5-6,4.5-6.6c1-0.8,2.5-1.6,4.3-2.1C372,300,369.4,298.6,366.9,297.4z"/>
	<polygon class="st0" points="302.8,442 301.6,443.2 350.1,491.7 301.6,540.2 302.8,541.2 352.3,491.7 352.3,491.7 352.3,491.7 	"/>
</g>
</svg>
