<?xml version="1.0" encoding="utf-8"?>
<!-- Generator: Adobe Illustrator 21.0.0, SVG Export Plug-In . SVG Version: 6.00 Build 0)  -->
<svg version="1.1" id="图层_1" xmlns="http://www.w3.org/2000/svg" xmlns:xlink="http://www.w3.org/1999/xlink" x="0px" y="0px"
	 viewBox="0 0 530.8 654.1" style="enable-background:new 0 0 530.8 654.1;" xml:space="preserve">
<style type="text/css">
	.st0{fill:#3E3A39;}
</style>
<g>
	<path class="st0" d="M2.7,147.3c1.7,0.2,2.7,1.1,2.9,2.8c-0.2,1.7-1.1,2.6-2.9,2.8c-1.6-0.1-2.5-1.1-2.7-2.8
		C0.1,148.4,1,147.4,2.7,147.3L2.7,147.3z M73.4,151.8c-0.7,5.9-2,11.3-3.7,16.2c-4.5,13.4-13.6,23.8-27.4,31.2l-0.6-0.8
		c12.5-8.9,20.5-18.4,24-28.5c2-5.2,3.5-12.1,4.7-20.7c0.6-4.1,0.9-7.7,1-10.6c0-0.5,0-1.1,0-1.9c0-0.3,0-0.6,0-0.8
		c2,0.3,3.7,0.7,5.1,1.1c1.5,0.4,2.2,0.9,2,1.3c0.1,0.2-0.3,0.5-1.3,0.9c-0.1,0-0.3,0.1-0.6,0.3c-0.6,0.2-1,0.4-1.3,0.6
		c0.9,16,4.9,29.2,12,39.5c5.1,6.8,11.7,11.4,19.9,14l-0.2,1.1c-1.6-0.1-3.1,0-4.4,0.3c-0.4,0.1-0.8,0.4-1.3,0.8
		c-0.3,0.3-0.5,0.5-0.8,0.6c-0.6,0.1-1.8-0.5-3.6-1.8c-4.7-3.5-8.9-8-12.5-13.6c-6.5-9.9-9.8-23-10-39.4c0-0.2-0.1-0.2-0.1,0
		C74.4,143.7,74,147.2,73.4,151.8L73.4,151.8z M174,159.8h-19.7c1.9,3.5,4.3,6.4,7.2,8.6c4.6,3.6,10,5.8,16.2,6.7l-0.1,1.1
		c-1.8-0.1-3.3-0.1-4.3,0.2c-0.8,0.2-1.3,0.6-1.6,1.1c-0.2,0.2-0.5,0.4-0.8,0.4c-0.6,0.1-2.2-0.7-4.9-2.4c-3.4-2.1-6.3-4.8-8.6-8.1
		c-2.1-2.8-3.5-5.4-4.4-7.7h-13.8c-0.7,0.8-1.9,2.3-3.9,4.4c-0.4,0.4-0.7,0.8-0.9,1c-5.4,6-12.4,11.4-20.8,16.2l-0.6-0.8
		c9-6.4,16.1-12.8,21.2-19.2c0.1-0.2,0.3-0.5,0.6-0.8s0.5-0.6,0.6-0.8h-6.8c-4.2,0-8.1,0.3-11.5,0.9l-2.1-2.7
		c2.8,0.2,5.3,0.3,7.5,0.3h13.9c2-2.7,3.5-5.2,4.6-7.4c-4.7,0.3-8.2,0.6-10.6,0.8c-1.2,0.2-1.8,0.4-2,0.6c0,0.1-0.1,0.1-0.3,0.1
		c-0.2,0.1-0.4,0.2-0.8,0.3c-0.3,0.1-0.9-0.3-1.8-1.2c-1-1.3-1.5-2-1.4-2.3c0.1-0.2,0.7-0.5,1.8-0.7c0.3,0,0.5-0.1,0.6-0.1
		c1.2-0.2,2.4-0.8,3.6-1.8c3.2-2.7,6-5.2,8.2-7.4c1.7-1.8,3-3.4,3.9-4.8c1.9,0.7,3.1,1.3,3.8,1.7c1,0.6,1.4,1.2,1.2,1.8
		c-0.2,0.4-0.9,0.6-2,0.4c-1.2,0.1-2.5,0.7-4,1.8c-4.9,4-8.6,6.9-11.1,8.7c0.5,0,1.4,0,2.6-0.1c14.7-0.2,24.1-0.4,28.3-0.6
		c-0.3-0.3-0.9-0.8-1.6-1.6c-0.4-0.4-0.7-0.7-0.8-0.8c-1.6-1.3-3.8-3-6.7-5.1l0.6-0.8c2.6,1.3,5.3,2.7,8.1,4.4
		c4.3,2.5,6.5,4.7,6.7,6.5c0.3,1.7-0.1,2.8-1.1,3.2c-0.8,0.2-1.8-0.7-2.9-2.5c-0.3-0.7-0.7-1.3-1.1-1.9c-7.6,0.3-14.6,0.7-21.1,1.1
		c0.8,0.2,2,0.6,3.5,1.3c1.1,0.5,1.6,1,1.6,1.4c0,0.5-0.7,0.8-2,0.8c-0.7,0-1.9,1.1-3.6,3.2c-0.2,0.3-0.4,0.5-0.6,0.6h26.4
		c1.9-2.5,3-3.7,3.3-3.8c0.9,0.4,2.6,1.6,5,3.7c0.4,0.5,0.5,0.9,0.4,1.2C175.3,159.7,174.8,159.8,174,159.8L174,159.8z M167.2,182.2
		c-0.9-0.8-2-1.5-3.2-2.2c-1.2,1.1-2.7,2.3-4.7,3.6c-8.8,6-21.7,11-38.7,15.1l0.3,1c14.6-2.4,27.1-6.4,37.5-12
		c5-2.8,7.6-3.9,7.8-3.5c1.3,0.4,2,0.3,2.2-0.1C168.5,183.5,168.1,182.9,167.2,182.2L167.2,182.2z M154.1,172.8
		c-1.2,1.1-2.5,2.2-3.8,3.2c-6.4,4.6-14.7,9-24.8,13.3l0.6,0.8c9.6-3.1,18.3-7.1,26.2-11.7c2.1-1.3,3.4-1.9,4.1-1.8
		c1.5,0.1,2.2,0,2.1-0.4c0.1-0.2-0.3-0.6-1.2-1.3C156.6,174.3,155.5,173.6,154.1,172.8L154.1,172.8z M147.2,164.9
		c-1.1,1.2-2.3,2.3-3.5,3.4c-6,4.9-12.7,9.3-20.3,13.2l0.6,0.8c7.1-2.8,14.4-6.8,21.8-11.9c2-1.4,3.3-2,3.9-1.8
		c1.3,0,1.9-0.1,1.8-0.6c0.1-0.3-0.3-0.7-1.1-1.3C149.6,166.2,148.5,165.6,147.2,164.9L147.2,164.9z M2.7,237.2
		c1.7,0.2,2.7,1.1,2.9,2.8c-0.2,1.7-1.1,2.6-2.9,2.8c-1.7-0.1-2.6-1-2.7-2.8C0.1,238.3,1,237.4,2.7,237.2L2.7,237.2z M104.7,234.5
		H73.9c-0.9,0.4-1.5,1-1.8,1.8c-3.2,6.5-6.6,12.2-10.1,17.3c0.8,0.5,1.5,1,2.2,1.6h25.6c1.6-1.8,2.4-2.8,2.6-2.8
		c0.7,0.2,2.1,1.2,4.2,3c0.5,0.6,0.6,1.1,0.1,1.4c-0.2,0.1-0.6,0.3-1.2,0.6c-0.4,0.2-0.7,0.3-0.8,0.4c-0.4,0.1-0.6,1-0.6,2.5v16.6
		c0,1.9,0.1,4.6,0.3,8.1c0,0.6-0.1,1.1-0.4,1.3c-0.6,0.6-1.3,0.8-2.1,0.8c-0.4,0-0.7-0.3-0.7-0.8c0.1-0.7,0.1-2.7,0.1-6H62.9v1.8
		c0,0.8,0,1.9,0,3.4c0,0.4,0,0.6,0,0.8c0,0.6-0.1,1.1-0.3,1.4c-0.6,0.6-1.2,0.8-2,0.8c-0.4,0-0.7-0.2-0.7-0.7c0-0.3,0-1.7,0.1-4.2
		c0.1-3.4,0.1-5.5,0.1-6.1v-19.1c0-0.9,0-1.7-0.1-2.3c-4.5,5.9-10.2,11.5-17.2,17l-0.6-0.7c12.3-11.7,21.2-24.3,26.6-38H57.6
		c-4.3,0-8.5,0.3-12.6,1l-2.7-2.9c3.9,0.3,7.2,0.4,9.7,0.4h45.1c2.1-2.9,3.4-4.3,3.6-4.4c0.9,0.3,2.6,1.8,5.1,4.3
		c0.4,0.5,0.5,0.9,0.4,1.3C106,234.4,105.6,234.5,104.7,234.5L104.7,234.5z M62.9,258.8V279h28.4v-22.3H63.6
		C63,256.9,62.8,257.6,62.9,258.8L62.9,258.8z M141.9,281.5v-15h-8.3v7c0,2.4,0,5,0.1,7.9c0,0.5,0,0.8,0,1.1c0,0.6-0.1,1.1-0.3,1.3
		c-0.6,0.4-1.2,0.7-1.8,0.7c-0.5,0-0.8-0.2-0.8-0.7c0.1-2.9,0.2-6.3,0.2-10.3v-7.1h-8.2v0.2c-0.1,9.3-3.1,16.7-9,22.1l-0.7-0.6
		c4.7-6,7.1-13.4,7.2-22.1c0.2-6.2,0.4-12.7,0.4-19.4c0-1.5,0-2.8-0.1-4.1c-2.6,3.5-4.7,6.2-6.3,8l-0.8-0.6
		c5.3-7.5,9.5-14.4,12.4-21c0.7-1.5,1.3-2.9,1.8-4.3c1.4,0.4,2.7,1,3.9,1.6c1,0.4,1.4,0.8,1.1,1.3c-0.1,0.3-0.7,0.6-1.9,0.7
		c-0.5-0.2-1.4,0.8-2.8,3c-0.1,0.2-0.3,0.5-0.6,0.9c-0.4,0.6-0.7,1-0.8,1.3h8.8c1.3-1.3,2.1-1.9,2.4-2c1.1,0.5,2.3,1.4,3.6,2.5
		c0.4,0.4,0.6,0.8,0.6,1.1c-0.1,0.3-0.4,0.5-0.8,0.6c-1.6,0.1-2.8,0.7-3.5,1.8c-1.1,1.3-2.7,3.3-4.9,6.1c-0.2,0.3-0.4,0.6-0.5,0.7
		h8.3c1.4-1.5,2.2-2.3,2.4-2.3c1,0.4,2.2,1.2,3.7,2.5c0.6,0.7,0.5,1.1-0.1,1.4c-0.2,0.1-0.4,0.2-0.8,0.4c-0.3,0.1-0.6,0.3-0.8,0.3
		c-0.4,0.2-0.6,1.1-0.6,2.6v25.1c0,3.2,0,6.4,0.1,9.6c0,1.1-0.3,1.9-1,2.6c-0.6,0.6-1.4,1.1-2.3,1.4c-0.7,0.2-1.1,0.1-1.4-0.1
		c-0.2-0.1-0.4-0.5-0.6-1.1c-0.2-0.4-0.8-0.7-1.7-1s-2.1-0.5-3.5-0.8l0.1-1.1c2.3,0.2,4.4,0.3,6.1,0.3
		C141.5,284,142,283.2,141.9,281.5L141.9,281.5z M167.1,269.2v-4.8l9.9-1.8c0.8-0.1,1.2-0.3,1.3-0.5c0.1-0.3-0.1-0.6-0.6-1
		c-2.2-1.6-3.7-2.6-4.8-2.9c-0.5,0.5-1.2,1.8-2.1,3.9l-3.8,0.7c0-1.4,0-3.5,0-6.5c0-10.3,0-17.6,0.1-21.9c0-2.3,0.1-3.8,0.3-4.3
		c0.1-0.6,0.3-1,0.7-1.1c0.1-0.1,0.4-0.2,0.9-0.4c0.3-0.1,0.6-0.3,0.7-0.3c0.3-0.1,0.5-0.4,0.5-0.7s-0.3-0.6-0.8-0.8
		c-1-0.4-2.8-0.8-5.4-1.3c0.3,4.1,0.4,8.1,0.4,12.2c0,11.4,0,20-0.1,25.7l-11.2,2c-2.5,0.5-5,0.8-7.2,1l2.6,2.2
		c1-0.7,3.6-1.4,7.9-2.2l7.9-1.4v4.9c0,3.1-0.1,8.2-0.3,15.1c0,1.8-0.1,2.8-0.1,3c0,0.5,0.3,0.8,0.8,0.9c0.6,0.1,1.3-0.2,2.2-0.8
		c0.3-0.2,0.4-0.7,0.4-1.5C167.2,281.5,167.1,275.7,167.1,269.2L167.1,269.2z M125.8,234.9c-1.6,2.4-3.2,4.7-4.9,7.1
		c1.3,0.7,2.4,1.4,3.3,2.2h6.9c2.4-4.1,4-7.2,4.8-9.3H125.8L125.8,234.9z M133.6,255.8v9.4h8.3v-9.4L133.6,255.8L133.6,255.8z
		 M123.1,255.8c0,0.5,0,1.3-0.1,2.3c0,3.3-0.1,5.7-0.1,7.1h8.2v-9.4L123.1,255.8L123.1,255.8z M141.9,245.7h-8.1
		c-0.1,0.2-0.2,0.6-0.2,1.2v7.6h8.3V245.7L141.9,245.7z M123.2,247.2c0,2.6,0,5-0.1,7.2h7.9v-7.2v-1.5h-7.2
		C123.4,246,123.2,246.5,123.2,247.2L123.2,247.2z M149.3,246.5c2.1,1.4,4.1,2.8,5.9,4.2c2.6,1.9,3.8,3.7,3.6,5.5
		c-0.1,1.2-0.6,1.9-1.4,2.2c-0.8,0-1.4-0.6-1.9-1.8c-0.5-1.5-1.3-3-2.4-4.4c-0.8-1.2-2.3-2.9-4.4-5.1L149.3,246.5L149.3,246.5z
		 M151.2,231.8c1.7,1.2,3.5,2.7,5.3,4.4c2.2,1.8,3.1,3.6,2.9,5.4c-0.1,1.2-0.6,1.8-1.5,1.9c-0.8,0-1.4-0.7-1.7-2
		c-0.3-1.4-1-2.8-1.9-4.2c-0.7-1.2-1.9-2.8-3.7-5L151.2,231.8L151.2,231.8z M2.7,327.2c1.7,0.2,2.7,1.1,2.9,2.8
		c-0.2,1.7-1.1,2.6-2.9,2.8C1,332.7,0.1,331.7,0,330C0.1,328.3,1,327.3,2.7,327.2L2.7,327.2z M86,339.1v13.7c0,0.6,0,1.9,0.1,4
		c0,1.2,0.1,1.8,0.1,2c0,0.6-0.1,1-0.4,1.2c-0.5,0.4-1.1,0.5-1.9,0.5c-0.4,0-0.6-0.3-0.6-0.7c0-0.2,0-0.6,0-1.3
		c0-1.2-0.1-2.2-0.1-2.9H72.6v4.3c0.1,0.6,0,1-0.3,1.2c-0.5,0.4-1.1,0.6-2,0.6c-0.4-0.1-0.6-0.4-0.6-0.9c0-0.3,0-1.3,0.1-2.8
		c0-2.1,0.1-3.5,0.1-4.1V338c0-1.2,0-3.2-0.1-6c2.1,1.2,3.6,2.1,4.5,2.7h7.9c1.3-1.5,2-2.3,2.2-2.3c1.1,0.5,2.3,1.3,3.7,2.6
		c0.6,0.6,0.5,1.1-0.2,1.5c-0.1,0.1-0.4,0.2-0.7,0.4c-0.2,0.1-0.4,0.2-0.5,0.2C86.2,337.2,86,337.9,86,339.1L86,339.1z M50.5,358.3
		c0,7.1,0.1,13.3,0.2,18.4c0,0.7-0.1,1.2-0.4,1.4c-0.6,0.6-1.3,0.8-2.3,0.8c-0.4,0-0.6-0.3-0.6-0.8c0-0.2,0-1.3,0.1-3.3
		c0.1-7.5,0.2-12.8,0.2-15.8v-33.3c0-3.8,0-6.9-0.1-9.1c1.5,1.1,2.9,2,4.1,2.9h8c1.4-1.3,2.3-2,2.6-2c0.9,0.2,2.1,1.2,3.7,2.9
		c0.3,0.4,0.5,0.8,0.4,1.1c-0.1,0.3-0.4,0.4-0.8,0.5c-1.2,0.1-1.9,0.4-2.2,0.8c-0.4,0.5-1.3,2.4-2.9,5.7c-0.3,0.6-0.5,1-0.6,1.3
		c-1.1,2.3-2.3,4.5-3.7,6.9c5.4,5.6,7.9,10.9,7.7,15.9c-0.2,3.5-1.6,6.1-4.2,7.6c-1.3,0.8-2.3,1.1-2.9,0.9c-0.3-0.1-0.5-0.5-0.7-1.3
		c-0.3-0.8-0.9-1.3-1.8-1.6c-1-0.3-2.1-0.5-3.2-0.6l0.3-1.3c2.7,0.4,4.8,0.6,6.4,0.4c2.2-0.5,3.3-2.3,3.3-5.5
		c-0.3-4.6-2.3-9.4-6-14.3c2.3-5.8,4-11.1,5.2-16h-9.4c-0.3,0.1-0.5,0.9-0.4,2.4L50.5,358.3L50.5,358.3z M105.1,322.2
		c0.7,0,1.2-0.1,1.4-0.4c0-0.4-0.1-0.7-0.4-1.1c-2.2-2.3-3.5-3.5-4-3.6c-0.3,0-1.3,1.3-3.1,3.6H74.7c-2.1,0-4.6-0.1-7.5-0.4l2.4,2.7
		c3.1-0.5,6.9-0.8,11.4-0.8h13.8c0,0.2,0,1.6,0,4.1c0,9.3,0.1,15.7,0.1,19.1c0,4.6,0,8.1,0,10.3c0,2.6,0,4.9,0,6.8
		c0,3.8,0,6.6-0.1,8.2c0,1.9-0.6,2.8-2,2.8c-2.6,0-6.3-0.4-11.2-1.1l-0.3,1.3c3.4,0.5,5.8,1,7.1,1.5c0.9,0.4,1.6,0.8,2.1,1.4
		c0.2,0.3,0.3,0.6,0.3,1c0,0.3,0.2,0.5,0.3,0.8c0.5,0.4,1.4,0.3,2.7-0.3c2.7-0.9,4-2.7,3.8-5.3c0-0.9,0-3.7-0.1-8.3
		c-0.1-7.4-0.1-13.2-0.1-17.6c0-4,0-7,0-8.8c0-2.2,0-4.1,0-5.7c0-3.3,0-5.7,0.1-7.3c0-1.4,0.2-2.3,0.6-2.7h7V322.2z M83.2,336.1
		h-9.9c-0.5,0.1-0.8,1-0.7,2.8v15.4h10.6c0-0.1,0-0.2,0.1-0.5c0-0.2,0-0.3,0-0.4L83.2,336.1L83.2,336.1z M132.9,369.4v-17.7h-9.6
		c-0.1,7.7-0.8,13.2-2,16.5c-1.1,3.3-3.6,6.9-7.6,10.8l-0.8-0.7c3.3-4.1,5.4-8.1,6.3-12c0.9-3.6,1.5-10.7,1.6-21.4
		c0.1-3.8,0.1-10.4,0.1-19.8c0-1.3,0-2.2,0-2.5c0-1.5-0.1-3.2-0.2-5.1c1.6,1.2,3,2.3,4,3.3h6.8c1.5-1.6,2.3-2.5,2.5-2.5
		c1.1,0.5,2.4,1.4,3.9,2.7c0.7,0.6,0.6,1.1-0.1,1.4c-0.3,0.2-0.8,0.4-1.3,0.6c-0.1,0-0.2,0.1-0.3,0.1c-0.4,0.2-0.6,1.1-0.6,2.7
		c-0.1,5.6-0.1,16.7,0,33.3c0,3.7,0,6.4,0,8.1c0,2,0,3.4,0.1,4.3c0.1,1.6-0.3,2.8-1.3,3.5c-0.8,0.6-1.7,1.1-2.5,1.3
		c-0.7,0.2-1.2,0.1-1.5-0.3c-0.1-0.1-0.2-0.3-0.2-0.6c0-0.2-0.1-0.4-0.1-0.5c-0.3-0.7-0.9-1.2-1.8-1.5c-1-0.3-2.7-0.7-5-1l0.1-1.3
		c3.3,0.5,5.9,0.7,7.8,0.6C132.4,372,133,371.2,132.9,369.4L132.9,369.4z M177.9,372.5c-6.8-1-12.7-3.6-17.7-7.8
		c-0.9-0.7-1.8-1.6-2.7-2.6c0.8-1.2,1.5-2.4,2.1-3.6c1.4-2.6,3-6.6,4.8-12c0.4-1.2,1-1.8,1.8-1.8c0.7,0,1.1-0.2,1.1-0.6
		c0.1-0.4-0.3-0.8-1.2-1.1c-0.9-0.4-2.1-0.8-3.6-1.3c-0.4,2.1-0.8,3.7-1.1,5.1c-1,3.7-2.2,7-3.6,9.8c-0.6,1.2-1.2,2.3-1.8,3.3
		c-3.8-5.3-6.2-11-7.2-17.2l-0.8,0.1c0.5,6.8,2.7,13.2,6.8,19.2c-3.8,5.9-10.7,11.1-20.5,15.5l0.3,1c9.8-3.5,17.1-8.3,21.7-14.4
		c0.1,0.1,0.3,0.4,0.6,0.6c0.5,0.6,0.8,1,1.1,1.2c3.6,3.7,7.9,6.7,12.9,8.9c1,0.5,1.7,0.6,2,0.3c0.1,0,0.2-0.2,0.3-0.3
		c0.5-0.5,1-0.8,1.5-0.9c0.8-0.2,2-0.4,3.6-0.6v-0.8H177.9z M123.4,348.8c0,0.2,0,0.5-0.1,0.8c0,0.3,0,0.6,0,0.7h9.6v-13.5h-9.4
		C123.4,343.5,123.4,347.5,123.4,348.8L123.4,348.8z M132.9,322.2h-8.4c-0.6,0.3-0.9,0.9-0.9,1.8c0,0.3,0,1.1,0,2.5
		c0,3.8-0.1,6.9-0.1,9.2h9.4V322.2L132.9,322.2z M175.8,328.9c0.7,0,1.2-0.1,1.4-0.4c0.1-0.4-0.1-0.8-0.4-1.2c-2-2-3.5-3.2-4.6-3.7
		c-0.2,0-1.3,1.3-3.2,3.8h-24.1c-2.2,0-4.9-0.1-8-0.3l2.2,2.7c2.6-0.7,6-1,10.2-0.9H175.8L175.8,328.9z M149.8,331.6
		c-1,2-2.2,3.9-3.4,5.9c-4,6.3-7.2,10.7-9.4,13.3l0.6,0.5c2.3-2.1,5.3-5.4,9-10c2.6-3.2,4.2-5.1,4.7-5.8c0.4-0.5,1.1-0.8,2-0.7
		c0.7,0,1-0.2,1.1-0.6c0.2-0.3-0.3-0.8-1.5-1.4C152.1,332.5,151.1,332.1,149.8,331.6L149.8,331.6z M160.9,332.5c3.4,2,6,3.6,7.7,4.8
		c3.7,2.6,5.7,4.7,5.7,6.2c0.1,1.5-0.3,2.5-1.4,2.7c-0.8,0.1-1.5-0.6-2.2-2c-0.4-0.8-1.2-2.1-2.6-3.7c-0.1-0.1-0.2-0.2-0.3-0.3
		c-1.3-1.5-3.8-3.8-7.5-7L160.9,332.5L160.9,332.5z M157.7,318.8c1.6,1.3,2.4,2.6,2.5,3.9c0,1.7-0.5,2.7-1.5,3
		c-0.9,0.1-1.6-0.5-2-1.9c-0.4-1.5-1.1-2.8-1.9-3.9c-0.9-1.2-2.1-2.6-3.5-4l0.7-0.8C154.2,316.3,156.1,317.6,157.7,318.8
		L157.7,318.8z M2.7,417.1c1.7,0.2,2.7,1.1,2.9,2.8c-0.2,1.7-1.1,2.6-2.9,2.8c-1.7-0.1-2.6-1-2.7-2.7C0.1,418.2,1,417.3,2.7,417.1
		L2.7,417.1z M105.8,450.7H55.7c-4.5,0-8.5,0.3-12,0.8l-2.3-2.6c3.9,0.2,6.9,0.3,9.1,0.3h9.3v-32.1h-1.7c-4.6,0-8.6,0.3-11.9,0.9
		l-2.3-2.7c3.9,0.2,6.9,0.3,9.1,0.3h6.8v-5.3c0-1.2-0.1-3.1-0.2-5.6c2.6,0.4,4.4,0.8,5.4,1.2c0.6,0.2,0.9,0.4,0.9,0.8
		c0.1,0.3-0.1,0.6-0.6,0.7c-0.8,0.3-1.4,0.6-1.9,0.7c-0.5-0.1-0.7,2.2-0.6,6.9v0.6h23v-5.1c0-1.2-0.1-3-0.2-5.6
		c2.5,0.4,4.3,0.8,5.3,1.1c0.6,0.2,0.9,0.5,1,0.8s-0.1,0.6-0.6,0.7c-0.1,0-0.3,0.1-0.6,0.2c-0.7,0.3-1.2,0.4-1.3,0.5
		c-0.5-0.2-0.7,2.1-0.6,6.9v0.5H97c1.9-2.5,2.9-3.7,3.2-3.8c0.8,0.3,2.2,1.5,4.4,3.7c0.4,0.5,0.6,0.9,0.4,1.1
		c-0.1,0.2-0.6,0.4-1.4,0.4H88.8v32.1h10c2-2.6,3.1-4,3.4-4c1,0.4,2.5,1.7,4.6,3.9c0.4,0.5,0.5,0.8,0.3,1.1
		C107.1,450.6,106.6,450.7,105.8,450.7L105.8,450.7z M62.8,438.9v10.4h23v-10.4H62.8L62.8,438.9z M62.8,428.1v9.5h23v-9.5H62.8
		L62.8,428.1z M62.8,417.3v9.4h23v-9.4H62.8L62.8,417.3z M64.2,453.1c1,0.7,2.1,1.4,3.2,2.2c1.3,1.1,1.8,1.8,1.5,2.3
		c-0.2,0.3-0.8,0.3-1.8,0.1c-0.7-0.1-1.6,0-2.5,0.6c-7.2,3.8-14.5,7.3-21.9,10.3l-0.4-0.8c6.7-3.6,12.6-7.2,17.9-11
		C61.7,455.5,63,454.3,64.2,453.1L64.2,453.1z M95.2,463.6c-3.9-2.9-8.8-5.7-14.6-8.2l0.5-1c8.5,2.6,14.3,4.7,17.3,6.1
		c2.6,1.6,3.7,3.4,3.3,5.5c-0.3,1-0.9,1.4-1.8,1.3c-0.6-0.1-1.4-0.7-2.5-1.8C96.5,464.7,95.8,464.1,95.2,463.6L95.2,463.6z
		 M161.8,429.9c1.5,0.9,2.8,1.9,4.2,2.9c0.8,0.6,1.1,1.2,0.8,1.8c-0.2,0.5-0.8,0.6-1.8,0.4c-0.9-0.4-3.6,0.3-8,2.3
		c-9,3.9-17.1,7.2-24.3,9.9v8.8c-0.1,2.7,0.4,4.5,1.3,5.2c0.8,0.9,2.6,1.4,5.4,1.5c2.3,0.1,5.7,0.2,10.2,0.2c5,0,9.1-0.2,12.5-0.3
		c2.1-0.1,3.5-0.5,4.2-1s1.1-1.5,1.3-3c0.4-2.9,0.7-6.3,1-10.3l1.3,0.1c-0.1,3.5-0.1,6.3,0,8.4c0,1.7,0.3,2.9,0.7,3.7
		c0.2,0.2,0.5,0.6,0.8,1c0.7,0.6,0.9,1.1,0.7,1.6c-0.1,1.3-2.7,2.1-8,2.2c-3.5,0.2-7.8,0.3-12.9,0.3c-5.1,0-9.5,0-13.3-0.1
		c-5.7,0-8.5-2.8-8.3-8.5v-25c0-1.3-0.1-3.7-0.2-7.4c2.6,0.3,4.4,0.7,5.3,1.1c0.6,0.2,0.9,0.5,1,0.8c0,0.3-0.2,0.5-0.6,0.8
		c-0.1,0.1-0.4,0.2-1,0.4c-0.3,0.1-0.5,0.2-0.6,0.2c-0.4,0.2-0.6,0.6-0.7,1.3c-0.1,0.6-0.1,2-0.1,4.3v12.2
		c6.9-2.8,14.5-6.6,22.9-11.4C157.4,433.3,159.5,431.8,161.8,429.9L161.8,429.9z M164.5,426.2c0.3-0.3,0.8-0.8,1.3-1.3
		c1.5-1.6,2.9-3,4.3-4c1-0.9,2.7-1.3,5.1-1.4c0.7,0,1.1-0.3,1.2-0.6c0-0.4-0.2-0.9-0.8-1.5c-2.3-2.2-3.8-3.4-4.4-3.6
		c-0.3,0-1.5,0.9-3.4,2.6h-44.2c0-0.9,0-1.9-0.1-2.9h-0.9c-0.3,2.9-0.8,4.9-1.3,6c-1,1.8-2.4,3.3-4.2,4.6c-1.3,0.9-1.6,2-0.9,3.1
		c0.7,0.8,1.8,0.8,3.3,0.2c2-1,3.3-3,3.8-6.1c0.2-1.1,0.2-1.2,0-0.2c0.2-1.4,0.3-2.4,0.3-3h44.9c-1.2,2.2-2.7,4.8-4.6,7.8
		L164.5,426.2L164.5,426.2z M145.7,407.6c2.8,1.6,4,3.3,3.5,5.3c-0.3,1.6-1,2.4-2.3,2.3c-0.8,0-1.3-0.6-1.6-1.9
		c-0.4-1.4-1.1-2.8-2.2-4.3c-0.8-1.1-1.9-2.3-3.2-3.8l0.6-0.7C142,405.4,143.7,406.4,145.7,407.6z"/>
	<path class="st0" d="M97.1,52.7H68.7c2.2,6.8,6.2,12.9,11.9,18.1c5.2,4.7,12,7.9,20.3,9.6l-0.3,1.6c0.1,0-0.1,0-0.4,0
		c-1-0.1-1.9,0-2.8,0.1c-1,0.1-1.8,0.2-2.5,0.4c-0.8,0.2-1.5,0.6-2.1,1.1c-0.4,0.2-0.8,0.4-1,0.4c-1.2,0.4-3.5-0.6-6.9-3.2
		c-9-7.3-14.9-16.7-17.8-28.2h-2.8v15.9c0,3.7,0.1,11.8,0.3,24.5c0.1,0.8-0.2,1.5-0.7,1.9c-1.1,0.8-2.1,1.1-3.2,1
		c-0.8-0.1-1.2-0.5-1.2-1.3C59.9,83.1,60,74.4,60,68.8c0-5.8,0-11.2,0.1-16.1h-1.4C52,67,40.7,78.9,25,88.4l-0.8-1
		c14.1-11.2,23.8-22.8,29-34.7h-8.7c-5.8,0-11,0.5-15.6,1.4l-4-4.2c5.9,0.4,10.8,0.6,14.5,0.6h20.7V36.1v-1.8h-16V37
		c0,0.9-0.2,1.6-0.6,2c-0.9,0.8-2,1.2-3.3,0.9c-0.6-0.1-0.9-0.6-0.9-1.3c0-0.6,0-2.6,0.1-6c0.2-5,0.2-8,0.2-9.1V13.3
		c0-2-0.1-5.1-0.2-9.5C42.2,5.5,44.2,7,45.7,8h33.1c2.3-2.5,3.7-3.8,4-3.9c1.6,0.7,3.6,2.1,5.8,4.2c1.1,1.1,1,1.9-0.1,2.4
		c-0.2,0.1-0.5,0.2-0.7,0.4c-0.6,0.2-1,0.5-1.5,0.7c-0.8,0.2-1.1,1.3-1.1,3.3v9.2c0,1,0.1,3.6,0.1,7.8c0.1,2.4,0.1,3.7,0.1,4
		c0,1.1-0.2,1.8-0.6,2.1c-1,0.7-2,1-3.2,1c-0.7-0.1-1.1-0.5-1.1-1.3c0-0.2,0-0.5,0-1.1c0.1-1,0.1-1.9,0.1-2.6H64.8
		c-0.4,0.4-0.5,1.4-0.5,3.1c0,4.4,0,8.8,0.1,13h21.4c3.2-4.1,5.1-6.1,5.5-6.2c1.7,0.8,4.2,2.8,7.4,6.1c0.6,0.6,0.8,1.2,0.6,1.8
		C98.9,52.5,98.2,52.7,97.1,52.7L97.1,52.7z M43.9,23.2c0,3.5,0,6.4,0.1,8.7h36.6v-6.2V10.3H44.9c-0.7,0.2-1,1.7-1,4.5V23.2
		L43.9,23.2z M24.3,0.3C23.4,4.4,22,9,20.1,14.2C13.9,31.1,7.2,45.6,0,57.8L1.1,59c4.6-6.1,9.5-14.4,14.8-24.9
		c-0.1,6.3-0.2,15.7-0.2,28.5c-0.1,8.3-0.3,18.9-0.7,31.6c0,0.8,0.3,1.3,1,1.3c1.1,0.1,2.2-0.3,3.3-1.1c0.5-0.4,0.7-1.2,0.7-2.3
		c0-1.9-0.1-5.6-0.1-11.1c-0.1-9.8-0.1-16,0-18.6V25.8c0.1-0.1,0.2-0.2,0.2-0.4c0.1-0.1,0.1-0.2,0.1-0.3c7-15.2,10.3-21.5,9.9-18.9
		c2,0,3-0.4,3-1.1c0.3-0.9-0.7-1.9-3.1-2.8C27.7,1.3,25.8,0.7,24.3,0.3L24.3,0.3z M195.2,69.5h-23.6c0,5.6,0.1,9.7,0.2,12.6
		c0.1,1,0,1.7-0.5,2c-0.7,0.8-1.7,1.2-3,1.3c-0.7,0.1-1.1-0.4-1.1-1.3c0-0.4,0.1-2.8,0.2-7.2c0.1-3.2,0.1-5.6,0.2-7.4h-6.9
		c-4.7,0-8.2,0.4-10.4,1.1l-3.1-3.4c3.5,0.2,7.1,0.3,10.8,0.3h9.7c0-0.9,0-2.3,0.1-4c0-1.8,0-3.2,0-4v-3.2h-3.6
		c-4.4,0-7.8,0.4-10.3,1.1l-3.2-3.4c3.5,0.2,7.1,0.3,10.8,0.3h6.3V42.8h-3.5c-3.6,0.1-6.8,0.4-9.3,1l-3.2-3.4
		c3.7,0.3,6.8,0.4,9.2,0.4h6.8V29.4h-6.2c-4.6,0-8.1,0.3-10.4,1l-3.2-3.3c3.5,0.2,7.1,0.3,10.8,0.3h9.1v-7.6V16h-3.3
		c-3.7,0.1-6.7,0.4-9.1,1l-3.1-3.4c3.6,0.3,6.5,0.4,8.9,0.4h6.5c-0.1-5.4-0.2-9.9-0.4-13.5c3.2,0.6,5.5,1.1,6.9,1.8
		c0.8,0.4,1.2,0.7,1.2,1.2c0,0.6-0.3,0.9-0.7,1c-0.8,0.4-1.5,0.7-1.9,0.9c-0.9,0-1.3,2.9-1.3,8.6h11.8c2-2.3,3.2-3.4,3.4-3.5
		c1,0.3,2.8,1.6,5.3,3.8c0.8,0.9,0.8,1.5-0.1,2c-0.3,0.1-0.7,0.4-1.3,0.6c-0.5,0.2-0.8,0.4-0.9,0.5c-0.7,0.1-1,1.1-1,2.9v7.1h3
		c1.9-2.8,3.1-4.2,3.6-4.2c0.6,0.1,2.2,1.4,4.6,4.1c0.7,0.7,0.9,1.2,0.6,1.6c-0.1,0.4-0.9,0.5-2.3,0.5h-9.5v4.2
		c0,1.5,0.1,3.8,0.2,6.8c0.1,1.4,0.1,2.4,0.1,3.2c0,1-0.2,1.7-0.6,2c-0.7,0.7-1.6,1.1-2.5,1.2c-0.5-0.2-0.8-0.5-0.8-1v-3h-13.5v11.4
		H184c2-2.5,3.2-3.7,3.6-3.8c0.9,0.2,2.5,1.4,4.8,3.7c0.7,0.8,0.9,1.4,0.6,1.7c-0.1,0.3-0.8,0.4-2.3,0.4h-19.1v2.1v9.1h16.2
		c2.1-2.8,3.4-4.3,3.8-4.3c1.1,0.4,2.9,1.8,5.4,4.2c0.7,0.8,0.9,1.3,0.6,1.6C197.5,69.4,196.7,69.5,195.2,69.5L195.2,69.5z
		 M151.2,43.5c-1.6-1.8-3.2-3-4.6-3.7c-0.4,0-1.7,0.9-3.7,2.6h-7.3c4-8.7,7.3-15.9,9.8-21.7c0.5-1.3,1.8-2.1,3.9-2.4
		c0.7-0.1,1.1-0.4,1.2-0.8c0.1-0.5-0.2-1.1-0.8-1.7c-2.5-2.4-4.2-3.7-5.1-4c-0.2,0.1-1.5,1.4-4,3.9h-4.3c-2.4,0.1-5.7,0-9.9-0.2
		l3.2,3.3c2.7-0.6,5.8-1,9.3-1.1h3.6c-2.7,7.1-5.5,13.7-8.3,19.9c-1.1,2.3-2,3.6-2.8,3.9c-0.4,0.1-0.9,0.3-1.6,0.5
		c-1,0.4-1.5,0.7-1.6,1c1,1.9,2.6,3.4,4.7,4.4c0.6,0,1.7-0.9,3.4-2.8h7.7c-0.6,7.2-1.7,13.9-3.3,19.9c-0.6,2.4-1.4,4.7-2.3,6.9
		c-3.2-4.8-6.2-11.1-9-18.7l-1.4,0.4c2.4,8.6,5.4,15.8,9,21.6c-3,6.2-7.8,12.9-14.7,20.1l1,1C130.1,90,135.4,84,139,77.9
		c5.2,6.9,11.8,11.2,19.7,12.9c6.5,1.3,17.2,1.9,32,2c1.8,0.1,2.9-0.4,3.3-1.5c0.7-1.3,1.8-2.1,3.4-2.4c1.3-0.4,2.8-0.7,4.2-1
		l-0.1-1.4c-5.6,0.4-10.1,0.7-13.4,0.7c-4.3,0.1-8.1,0.2-11.5,0.1c-3.6-0.1-7.6-0.3-11.9-0.5c-9.8-0.6-17.8-4.6-23.9-12.2
		c0.4-0.8,0.8-1.6,1-2.4c2.4-5.6,4.2-12.7,5.4-21.5c0.4-2.2,0.8-3.5,1.5-3.9c0.2-0.2,0.7-0.5,1.5-0.7c0.4-0.2,0.8-0.4,1-0.5
		C152,45.1,152,44.4,151.2,43.5L151.2,43.5z M124,0c1.6,0.3,3.4,0.9,5.6,1.9c2,0.8,3,1.7,3,2.4c0.1,0.6-0.8,1-2.7,1.3
		c0.1-2.5-2.8,3.7-8.8,18.7c0,10.6-0.1,24-0.2,40c0,1.9,0,6.3,0,13.1c0.1,7.7,0.1,12.9,0.1,15.4c0,1-0.2,1.8-0.6,2.1
		c-0.8,0.8-1.8,1.2-2.8,1.3c-0.6,0.1-1-0.3-1.1-1.2c0.4-12.5,0.7-22.6,0.7-30.5c0.1-14.8,0.1-25.4,0.2-31.5
		c-4.8,10.4-9.2,18.5-13.3,24.3l-1.2-0.9c6.4-11.8,12.3-26,17.6-42.6C122.1,8.5,123.2,4,124,0L124,0z M185.1,40.8V29.4h-13.5v11.5
		h13.5V40.8z M185.1,15.9h-13.5v11.5h13.5V15.9L185.1,15.9z M277.6,15.3v10.5c0,1,0.1,3.8,0.2,8.3c0.1,2.4,0.1,3.7,0.1,4
		c0,1.2-0.2,1.9-0.5,2.2c-0.9,0.6-2,0.9-3.2,0.8c-0.7-0.1-1-0.5-1-1.1v-4.6h-39.5V39c0,1-0.2,1.7-0.6,2c-1,0.9-2,1.3-3.2,1
		c-0.7-0.1-1-0.6-0.9-1.4c0-0.6,0-2.8,0.1-6.8c0.2-5.6,0.2-8.9,0.2-9.9V13.3c0-2,0-5.1-0.1-9.4c2.7,1.8,4.7,3.2,6,4.2h36.2
		c2.3-2.5,3.6-3.8,3.9-3.9c1.5,0.6,3.5,2,5.9,4.2c1,1.1,1,1.9-0.1,2.4c-0.3,0.1-0.6,0.3-1.1,0.5c-0.4,0.2-0.8,0.4-1.3,0.6
		C277.9,12.3,277.5,13.4,277.6,15.3L277.6,15.3z M292.2,59.7v13.2c0,0.9,0.1,4.8,0.3,11.8c0.1,3.7,0.1,5.6,0.1,5.9
		c0.1,0.7-0.1,1.3-0.5,1.7c-1,0.9-2.2,1.3-3.5,1.3c-0.6-0.1-0.9-0.5-0.9-1v-7.8h-22.2v7.6c0.1,0.7-0.1,1.3-0.5,1.7
		c-0.8,0.8-1.9,1.3-3.2,1.3c-0.7,0-1.1-0.4-1.1-1c0-0.4,0-2.7,0.1-6.9c0.2-6,0.2-9.4,0.2-10.3V57.3c0-1.7,0-4.7-0.1-9
		c2.8,1.8,4.9,3.3,6.3,4.5h18.6c2.2-2.7,3.4-4,3.7-4.1c1.2,0.5,3.1,1.9,5.7,4.2c0.7,0.9,0.7,1.6,0,2.1c-0.4,0.2-0.8,0.5-1.4,0.8
		c-0.4,0.2-0.7,0.4-0.9,0.5C292.4,56.5,292.2,57.6,292.2,59.7L292.2,59.7z M245.2,59.6v13.3c0,0.9,0.1,4.9,0.3,11.8
		c0.1,3.7,0.1,5.6,0.1,5.9c0.1,0.7-0.1,1.3-0.5,1.7c-1,0.9-2.2,1.3-3.5,1.3c-0.6-0.1-0.9-0.5-0.9-1v-7.9h-22.1v7.9
		c0.1,0.7-0.1,1.3-0.5,1.7c-0.8,0.8-1.9,1.3-3.2,1.3c-0.7,0-1.1-0.4-1.1-1c0-0.4,0-2.7,0.1-6.9c0.2-6,0.2-9.4,0.2-10.3V57.2
		c0-1.7,0-4.7-0.1-9c2.8,1.8,4.9,3.3,6.3,4.5h18.5c2.2-2.7,3.4-4,3.7-4.1c1.2,0.5,3.1,1.9,5.7,4.2c0.7,0.9,0.7,1.6,0,2.1
		c-0.4,0.2-0.8,0.5-1.4,0.8c-0.4,0.2-0.7,0.4-0.9,0.5C245.4,56.4,245.2,57.5,245.2,59.6L245.2,59.6z M233.5,23.7v9.5h39.6V10.3
		h-38.7c-0.7,0.2-1,1.7-1,4.5L233.5,23.7L233.5,23.7z M265.4,57.5v25.3h22.2V55h-21.4C265.6,55.3,265.4,56.1,265.4,57.5L265.4,57.5z
		 M218.5,57.4v25.3h22.1V54.9h-21.3C218.8,55.2,218.5,56,218.5,57.4z"/>
</g>
</svg>
