<?xml version="1.0" encoding="utf-8"?>
<!-- Generator: Adobe Illustrator 21.0.0, SVG Export Plug-In . SVG Version: 6.00 Build 0)  -->
<svg version="1.1" id="图层_1" xmlns="http://www.w3.org/2000/svg" xmlns:xlink="http://www.w3.org/1999/xlink" x="0px" y="0px"
	 viewBox="0 0 530.8 654.1" style="enable-background:new 0 0 530.8 654.1;" xml:space="preserve">
<style type="text/css">
	.st0{fill:#3E3A39;}
</style>
<g>
	<path class="st0" d="M88,17.1v53.5c0,1.6,0,5.8,0.1,12.7c0.1,4.1,0.1,6.4,0.1,7c0,1-0.2,1.7-0.6,2.1c-1,0.8-1.9,1.2-2.8,1.2
		c-0.6-0.1-0.9-0.4-0.9-1.1v-8H44.6c0,1.4,0,3.1,0.1,5.2c0,0.6,0,0.9,0,1c0.1,0.9-0.1,1.5-0.5,1.8c-0.9,0.8-1.9,1.3-3,1.3
		c-0.6-0.1-1-0.5-1-1.1c0-0.5,0.1-3,0.1-7.5c0.1-6.2,0.2-9.8,0.2-10.8V15.5c0-1.9,0-5-0.1-9.3c2.6,1.9,4.5,3.4,5.8,4.4h35.5
		c2.3-2.2,3.5-3.4,3.8-3.5c1.2,0.5,3.1,1.8,5.6,3.9c0.9,1,0.9,1.7-0.1,2.2c-0.3,0.1-0.7,0.3-1.3,0.5c-0.5,0.2-0.8,0.4-0.9,0.4
		C88.2,14.4,87.9,15.4,88,17.1L88,17.1z M44.6,73.9v8.5h39.2V12.7H45.7c-0.8,0.4-1.1,1.3-1,2.6v58.6H44.6z M33.2,20.1
		c1.6,0.9,2.9,1.7,3.9,2.4c1.4,1.1,2,1.8,1.7,2.3c-0.1,0.5-0.8,0.7-2.3,0.5c0.1-0.9-2.4,1.2-7.6,6.2c-3,2.8-5.3,4.8-6.9,5.9
		c0,0.5-0.1,1.2-0.1,2.2c-0.1,5.2-0.2,9.6-0.3,13.3c-0.1,1.8-0.2,3.5-0.3,5.2c0.5,0.5,1.5,1.4,3,2.8c2.2,2.1,4,3.8,5.2,5
		c4.1,4,6.2,7.4,6.2,10c0.1,2.1-0.4,3.4-1.6,4c-1.3,0.1-2.5-1-3.5-3.3c-1-2.9-2.5-6-4.4-9.3c-1.5-2.4-3.2-4.8-5.2-7.2
		C19.2,74,12.5,85.5,1.1,94.5l-1.1-1c11.8-11,17.8-26,17.8-44.9c0.3-6.5,0.5-15.5,0.6-27c0-2.4,0-4.2,0-5.4c0.1-3.1,0-8.1-0.2-14.9
		c2,0.4,4,1,6.1,1.6c1.8,0.6,2.7,1.3,2.8,1.9c0.1,0.6-0.2,0.9-0.9,1.1c-0.1,0.1-0.3,0.2-0.5,0.2C25,6.7,24.3,6.9,23.6,7
		c-0.5,0-0.8,2.9-1,8.8c-0.1,7.2-0.2,13.7-0.4,19.4c0.1-0.2,0.4-0.5,0.7-0.8c2.2-2.7,4.1-5,5.6-7.1C29.9,25.4,31.5,23,33.2,20.1
		L33.2,20.1z M61.3,16.8c0.1,2.8,0.1,7.4,0,13.8c-0.2,1.7-0.2,3.3-0.2,4.8H55c-2.8,0-5.8-0.1-8.9-0.3l2.6,3.5c1.6-0.7,4.3-1,7.9-1
		H61C60.8,54,55.5,66.9,45.1,76.4l1.1,1.1c9.3-7.1,15-15.9,16.9-26.3c2.3,3.2,4.3,6.1,5.8,8.7c1.9,3.7,3.1,6.5,3.6,8.6
		c0.8,3.2,1.7,4.7,2.9,4.5c1.5,0.1,2.2-1.2,2.1-3.8c0.2-2.5-1.4-5.8-4.9-10.1c-2.2-2.8-5.3-6.1-9.1-9.9c0.6-3.4,1.1-7.2,1.4-11.6
		h15.3c1.1,0,1.7-0.2,1.9-0.5c0.2-0.4,0-0.9-0.5-1.6c-0.4-0.3-1-0.8-1.9-1.7c-1.8-1.6-2.7-2.5-3-2.5s-1.3,1.1-3.2,3.4
		c-0.4,0.4-0.6,0.7-0.6,0.8H65c0.1-0.3,0.1-0.8,0.1-1.5c0.1-0.6,0.1-1.1,0.1-1.5c0.3-8.2,0.7-12,1.2-11.3c0.3-0.2,0.8-0.4,1.6-0.6
		c0.5-0.2,0.8-0.4,1-0.4c0.4-0.1,0.6-0.4,0.6-0.8c0.1-0.5-0.8-1-2.8-1.6C65.5,17.4,63.7,17,61.3,16.8L61.3,16.8z M8.8,22
		c-0.2,4.2-0.7,8-1.4,11.5c-0.8,3.7-2.4,6.9-4.7,9.6c-1.6,2-1.9,3.5-1.2,4.7C3.3,49,5.3,48.4,7.4,46c1.8-2,2.8-5.5,3.1-10.4
		c0.2-3.9,0.2-8.5,0-13.6L8.8,22L8.8,22z M195.4,10.7h-21.5c-0.1,0.1-0.3,0.2-0.5,0.2c-0.6,0.1-1,1-1,2.5v14.3h11.7
		c2-2.3,3.1-3.5,3.4-3.6c1.7,0.7,3.6,2.1,5.9,4.2c0.9,0.9,0.8,1.6-0.2,2.1c-0.2,0.1-0.5,0.2-0.7,0.3c-0.6,0.3-1.1,0.5-1.3,0.6
		c-0.8,0.4-1.2,1.4-1.2,3.3v45c0,1,0,3.6,0.1,7.7c0,2.1,0,3.3,0,3.6c0,0.9-0.2,1.5-0.6,1.9c-1,0.7-1.9,1-2.7,0.8
		c-0.7-0.1-1-0.4-1-1.1c0.1-1.2,0.1-3.7,0.1-7.7v-1.3h-45.7c0,1.3,0,3.3,0.1,6c0,1.2,0,1.9,0,2.1c0.1,1.1-0.2,1.7-0.6,2
		c-0.8,0.7-1.8,1-2.8,1c-0.6-0.2-0.9-0.6-0.8-1.2c0-0.6,0-2.2,0.1-4.9c0.1-3.6,0.1-6,0.1-7V32.9c0-1.9,0-4.9-0.1-9.1
		c2.3,1.7,4.2,3,5.5,3.9H153v-17h-2.3c-6,0-11.5,0.5-16.7,1.4l-3.5-4c4.3,0.4,8,0.5,11.3,0.5h43.1c3-3.8,4.6-5.7,5.1-5.8
		c1.6,0.7,3.9,2.6,6.9,5.7c0.6,0.8,0.8,1.4,0.6,1.8C197.2,10.6,196.5,10.7,195.4,10.7L195.4,10.7z M140.1,34.5v32.4h45.7V56.3h-10.4
		c-4.9,0.4-7.2-2.2-6.9-7.8V29.9h-11.8c0,0.6,0,1.6-0.1,3c0,1.3,0,2.2,0,2.7c-0.3,11.7-5.3,21.1-15,28.4l-0.7-1
		c8.1-8.1,12.1-17.7,12-28.7V30h-11.5C140.5,29.9,140.1,31.5,140.1,34.5L140.1,34.5z M140.1,81.6v0.2h45.7V69h-45.7V81.6L140.1,81.6
		z M131.8,17.4c-5.8,16-9.9,27.9-12.2,35.4c-1.8,6.3-4,9.6-6.4,10.1c-1.3,0.4-4.2,0.6-8.5,0.4l-0.3,1.6c3.9,0.5,6.8,1.1,8.7,1.8
		c2.4,0.8,3.5,2.7,3.5,5.5c0,4-0.3,7.7-0.9,11.1c-0.8,3.9-0.8,6.3,0.2,7.1c2.1,2.6,4,2.9,5.8,0.8c0.4-0.8,0.5-1.8,0.4-3
		c-0.1-0.8-0.4-2.8-0.9-6.1c-0.6-3.7-0.9-8.2-0.8-13.5c0.1-4.3,1.8-11.7,4.8-22.4c2-6.7,4.8-16,8.1-28.1L131.8,17.4L131.8,17.4z
		 M185.8,29.9h-13.5v17.6c-0.1,2.7,0.2,4.2,0.7,4.5c0.3,0.6,1.7,0.8,4.2,0.8h8.6V29.9L185.8,29.9z M156.9,12.6
		c-0.1,1.2-0.1,3.7-0.1,7.4c-0.1,3.4-0.1,6-0.1,7.7h11.8v-17h-10.7C157.2,11.1,156.9,11.8,156.9,12.6L156.9,12.6z M111.8,4.4
		c2.7,1.3,5.6,2.7,8.9,4.3c4.6,2,6.8,4.4,6.3,7.2c0,2-0.7,3.2-2,3.5c-1.3,0.2-2.3-0.6-3.1-2.4c-0.6-1.5-1.9-3.3-4-5.6
		c-1.3-1.5-3.6-3.4-6.9-5.9L111.8,4.4L111.8,4.4z M103.2,25.1c3.1,1.5,6.2,3.1,9.3,4.7c2.7,1.4,4.5,2.5,5.2,3.4c0.8,1,1.2,2.3,1,3.8
		c-0.2,2-0.9,3.2-2,3.4c-1.3,0.1-2.3-0.7-3-2.3c-0.7-1.7-2-3.6-3.9-5.7c-1.4-1.5-3.8-3.6-7.3-6.2L103.2,25.1L103.2,25.1z
		 M252.8,59.7c-0.1,0.6-0.2,1-0.4,1.5H288c2.8-3.6,4.4-5.4,4.8-5.5c1.6,0.7,3.8,2.5,6.7,5.4c0.6,0.8,0.8,1.4,0.6,1.8
		c-0.2,0.4-0.9,0.6-2.1,0.6h-43.5c4.3,8.3,11.3,14.5,21.1,18.8c6,2.3,14.5,3.7,25.4,4.4l-0.1,1.5c-2.9,0.1-5.3,0.5-7.2,1.2
		c-0.8,0.4-1.5,0.9-1.9,1.7c-0.4,0.6-1,1-1.8,1.1c-1.1,0-3.3-0.5-6.7-1.4c-7.2-2-13.6-5.5-19.4-10.3c-4.8-3.9-8.6-9.6-11.5-16.9
		h-0.8c-0.8,2.3-1.7,4.6-2.6,6.9c-5,11.8-19.4,20.4-43.2,25.8l-0.6-1.5c20.7-6.6,33.4-14.3,38.3-23.2c1.3-2.3,2.5-4.9,3.4-8h-19
		c-6.9,0-13.2,0.5-19,1.4l-4-4.4c5.8,0.5,10.7,0.7,14.5,0.7h28c0.3-1,0.5-2.1,0.7-3.3c0.3-1.9,0.5-4.3,0.7-7.3
		c2.2,0.4,4.6,0.8,7.2,1.5c0.8,0.2,1.3,0.5,1.5,0.9c0.1,0.4-0.1,0.8-0.7,1.2c-0.3,0.1-0.8,0.3-1.5,0.6c-0.4,0.1-0.6,0.3-0.8,0.3
		C254,55,253.5,56.5,252.8,59.7L252.8,59.7z M276.8,3.4c-1.2,2.3-2.5,4.5-4,6.7c-3.7,5.2-7.7,10.2-12.2,15h-6.1V9.8
		c0.1-2.7,0.6-4.3,1.6-4.7l2.1-1c0.7-0.4,1-0.7,0.9-1.1c0-0.4-0.5-0.8-1.4-1.2c-1.7-0.5-4.4-1.1-8-1.8c0.3,3.8,0.4,8.4,0.4,13.8V25
		H220c-3.3,0-7.8-0.2-13.6-0.5l3.5,4c4.6-0.8,10.5-1.3,17.7-1.3h15.5c-2.9,3.5-7.1,7.4-12.7,11.6c-7,5.4-15.6,10.6-25.9,15.5
		l0.6,1.4c10.3-3.7,19.5-8.3,27.7-13.9c6.5-4.4,12.1-9.3,16.6-14.5h0.6v3.9c-0.1,5.6-0.3,10.5-0.5,15c-0.1,0.4-0.1,0.7-0.1,0.8
		c0.2,0.8,0.6,1.2,1.5,1.3c1.2-0.1,2.3-0.5,3.4-1.1c0.4-0.5,0.6-1.2,0.4-2.1c0-0.2,0-0.5,0-1c-0.2-5.1-0.3-9.8-0.3-13.9v-2.8h40.8
		c1.2,0,1.9-0.2,2.1-0.6c0.1-0.5-0.1-1-0.6-1.7c-3.1-3-5.3-4.8-6.8-5.5c-0.3,0.1-2.1,1.9-5.2,5.6h-22.3c3.7-2.9,7.5-6.4,11.6-10.4
		c3.8-3.8,6.3-5.5,7.4-5.2c1.6,0.2,2.4-0.1,2.5-0.7c0.4-0.7-0.5-1.7-2.5-2.9C280.4,5.2,278.9,4.4,276.8,3.4L276.8,3.4z M286.2,48
		c3.4,3.2,5.8,4.5,7,3.7c1.3-0.7,1.7-2,1.1-4c-0.6-1.8-2-3.2-4.1-4.3c-7.9-4.1-17.9-7.7-29.8-10.8l-0.5,1.3
		C271,38,279.8,42.7,286.2,48L286.2,48z M221.5,5.2c1,0.4,4.3,2.1,10,5.1c4.4,2.1,6.4,4.5,6.2,7.3c0.1,1.8-0.6,2.9-2,3.3
		c-1.2,0.2-2.3-0.6-3.3-2.5c-0.9-2-2.6-4.2-5-6.4c-1.5-1.5-3.9-3.3-7-5.5L221.5,5.2z"/>
	<g>
		<path class="st0" d="M2.7,147c1.7,0.2,2.7,1.1,2.9,2.8c-0.2,1.7-1.1,2.6-2.9,2.8c-1.6-0.1-2.5-1.1-2.7-2.8
			C0.1,148.1,1,147.1,2.7,147L2.7,147z M103.6,141.7H89.2c-0.1,0.1-0.2,0.1-0.3,0.1c-0.4,0.1-0.7,0.7-0.7,1.7v9.5H96
			c1.3-1.5,2-2.3,2.2-2.4c1.1,0.5,2.4,1.4,3.9,2.8c0.6,0.6,0.6,1.1-0.1,1.4c-0.1,0-0.3,0.1-0.5,0.2c-0.4,0.2-0.7,0.3-0.8,0.4
			c-0.6,0.2-0.8,1-0.8,2.2v30c0,0.7,0,2.4,0.1,5.1c0,1.4,0,2.2,0,2.4c0,0.6-0.1,1-0.4,1.3c-0.7,0.5-1.2,0.7-1.8,0.6
			c-0.5,0-0.7-0.3-0.7-0.7c0-0.8,0.1-2.5,0.1-5.1v-0.8H66.7c0,0.8,0,2.2,0.1,4c0,0.8,0,1.3,0,1.4c0,0.7-0.1,1.2-0.4,1.3
			c-0.6,0.5-1.2,0.7-1.9,0.6c-0.4-0.1-0.6-0.4-0.6-0.8c0-0.4,0-1.4,0.1-3.2c0-2.4,0.1-4,0.1-4.6v-32.6c0-1.3,0-3.3-0.1-6.1
			c1.6,1.1,2.8,2,3.7,2.6h7.7v-11.3h-1.6c-4,0-7.7,0.3-11.1,0.9l-2.3-2.7c2.9,0.2,5.4,0.3,7.5,0.3h28.7c2-2.5,3.1-3.8,3.4-3.9
			c1.1,0.5,2.6,1.7,4.6,3.8c0.4,0.5,0.6,0.9,0.4,1.2C104.8,141.6,104.3,141.7,103.6,141.7L103.6,141.7z M66.7,157.6v21.6h30.5v-7.1
			h-6.9c-3.3,0.3-4.8-1.5-4.6-5.2v-12.4h-7.9c0,0.4,0,1.1-0.1,2c0,0.8,0,1.5,0,1.8c-0.2,7.8-3.5,14.1-10,18.9l-0.5-0.7
			c5.4-5.4,8.1-11.8,8-19.1v-2.9h-7.7C66.9,154.5,66.7,155.5,66.7,157.6L66.7,157.6z M66.7,189v0.1h30.5v-8.5H66.7V189L66.7,189z
			 M61.1,146.2c-3.9,10.7-6.6,18.6-8.2,23.6c-1.2,4.2-2.7,6.4-4.3,6.8c-0.9,0.3-2.8,0.4-5.7,0.3l-0.2,1.1c2.6,0.3,4.5,0.7,5.8,1.2
			c1.6,0.6,2.4,1.8,2.3,3.7c0,2.7-0.2,5.1-0.6,7.4c-0.6,2.6-0.5,4.2,0.1,4.7c1.4,1.7,2.7,1.9,3.9,0.6c0.2-0.6,0.3-1.2,0.3-2
			c0-0.5-0.3-1.9-0.6-4.1c-0.4-2.5-0.6-5.5-0.6-9c0.1-2.9,1.2-7.8,3.2-14.9c1.4-4.4,3.2-10.7,5.4-18.7L61.1,146.2L61.1,146.2z
			 M97.2,154.5h-9v11.7c-0.1,1.8,0.1,2.8,0.5,3c0.2,0.4,1.1,0.6,2.8,0.6h5.7V154.5L97.2,154.5z M77.9,143c0,0.8-0.1,2.5-0.1,4.9
			c0,2.3-0.1,4-0.1,5.1h7.9v-11.3h-7.1C78.1,142,77.9,142.4,77.9,143L77.9,143z M47.8,137.5c1.8,0.8,3.8,1.8,5.9,2.9
			c3.1,1.3,4.5,2.9,4.2,4.8c0,1.4-0.4,2.1-1.3,2.3c-0.8,0.1-1.5-0.4-2-1.6c-0.4-1-1.3-2.2-2.7-3.7c-0.9-1-2.4-2.3-4.6-3.9
			L47.8,137.5L47.8,137.5z M42.1,151.3c2.1,1,4.1,2,6.2,3.2c1.8,0.9,3,1.7,3.4,2.2c0.6,0.7,0.8,1.5,0.7,2.5
			c-0.1,1.4-0.6,2.1-1.3,2.3c-0.8,0-1.5-0.5-2-1.6s-1.3-2.4-2.6-3.8c-0.9-1-2.6-2.4-4.8-4.1L42.1,151.3L42.1,151.3z M145.7,174.4
			c0,0.4-0.1,0.7-0.3,1h23.8c1.9-2.4,2.9-3.6,3.2-3.7c1.1,0.5,2.6,1.7,4.4,3.6c0.4,0.6,0.6,1,0.4,1.2c-0.1,0.3-0.6,0.4-1.4,0.4h-29
			c2.9,5.5,7.5,9.7,14.1,12.5c4,1.5,9.6,2.5,17,3l-0.1,1c-1.9,0-3.5,0.3-4.8,0.8c-0.6,0.2-1,0.6-1.3,1.1c-0.3,0.4-0.7,0.7-1.2,0.7
			c-0.7,0-2.2-0.3-4.4-0.9c-4.8-1.4-9.1-3.7-12.9-6.9c-3.2-2.6-5.7-6.4-7.7-11.3H145c-0.5,1.5-1.1,3.1-1.8,4.6
			c-3.3,7.9-12.9,13.6-28.8,17.2l-0.4-1c13.8-4.4,22.3-9.6,25.5-15.5c0.9-1.5,1.6-3.3,2.3-5.3h-12.7c-4.6,0-8.8,0.3-12.7,0.9l-2.7-3
			c3.9,0.3,7.1,0.5,9.7,0.5H142c0.2-0.7,0.3-1.4,0.5-2.2c0.2-1.3,0.4-2.9,0.5-4.8c1.4,0.2,3,0.6,4.8,1c0.5,0.1,0.8,0.3,1,0.6
			c0.1,0.3-0.1,0.5-0.5,0.8c-0.2,0.1-0.5,0.2-1,0.4c-0.2,0.1-0.4,0.2-0.6,0.2C146.5,171.2,146.1,172.2,145.7,174.4L145.7,174.4z
			 M161.7,136.8c-0.8,1.6-1.7,3-2.7,4.4c-2.4,3.5-5.2,6.8-8.2,10h-4.1v-10.1c0-1.8,0.4-2.9,1.1-3.2l1.4-0.7c0.5-0.2,0.7-0.5,0.6-0.7
			c0-0.3-0.3-0.5-0.9-0.8c-1.1-0.3-2.9-0.7-5.3-1.2c0.2,2.5,0.3,5.6,0.3,9.2v7.4h-20c-2.2,0-5.2-0.1-9.1-0.3l2.3,2.7
			c3-0.6,7-0.8,11.8-0.8h10.3c-1.9,2.3-4.7,4.9-8.4,7.7c-4.6,3.6-10.4,7.1-17.3,10.3l0.4,0.9c6.9-2.4,13-5.5,18.5-9.3
			c4.4-2.9,8-6.2,11-9.7h0.4v2.6c0,3.7-0.2,7-0.3,10c-0.1,0.3-0.1,0.5-0.1,0.6c0.1,0.5,0.4,0.8,1,0.8c0.8,0,1.5-0.3,2.3-0.8
			c0.3-0.3,0.4-0.8,0.3-1.4c0-0.1,0-0.4,0-0.6c-0.1-3.4-0.2-6.5-0.2-9.3v-1.9H174c0.8,0,1.3-0.1,1.4-0.4c0.1-0.3,0-0.7-0.4-1.1
			c-2.1-2-3.6-3.2-4.5-3.7c-0.2,0-1.4,1.3-3.4,3.7h-14.8c2.4-1.9,5-4.2,7.7-7c2.5-2.5,4.2-3.7,4.9-3.5c1,0.1,1.6-0.1,1.7-0.5
			c0.2-0.5-0.3-1.1-1.7-1.9C164.1,138,163.1,137.5,161.7,136.8L161.7,136.8z M168,166.6c2.3,2.1,3.8,3,4.6,2.5
			c0.9-0.5,1.1-1.4,0.7-2.7c-0.4-1.2-1.3-2.1-2.7-2.9c-5.3-2.7-11.9-5.1-19.8-7.2l-0.3,0.8C157.8,159.9,163.7,163,168,166.6
			L168,166.6z M124.9,138.1c0.7,0.3,2.9,1.4,6.7,3.4c2.9,1.4,4.3,3,4.2,4.9c0,1.2-0.4,1.9-1.3,2.2c-0.8,0.1-1.5-0.4-2.2-1.7
			c-0.6-1.4-1.7-2.8-3.3-4.3c-1-1-2.6-2.2-4.6-3.7L124.9,138.1L124.9,138.1z M218.5,187.5c0,0.6,0,2.5,0.1,5.6c0,1.6,0,2.6,0,2.7
			c0,0.6-0.1,1-0.3,1.3c-0.6,0.5-1.2,0.8-2,0.8c-0.3-0.1-0.5-0.3-0.6-0.8c0.1-3.3,0.2-6.4,0.2-9.4v-16.8c0-1.2,0-3.1-0.1-5.7
			c1.5,0.9,2.7,1.7,3.4,2.3H237c1.1-1.2,1.8-1.9,2.2-2.1c1.1,0.4,2.3,1.2,3.5,2.4c0.5,0.7,0.5,1.1-0.1,1.4c-0.7,0.3-1.1,0.5-1.3,0.7
			c-0.4,0.3-0.6,1.1-0.6,2.5V186c0,1.5,0,3.5,0.1,5.8c0,0.5,0.1,0.9,0.1,1.2c0.1,1.9-0.4,3.1-1.5,3.8c-0.3,0.3-1.1,0.6-2.4,1.1
			c0.1,0,0,0-0.2,0.1c-0.8,0.3-1.3,0.3-1.6-0.1c-0.1-0.1-0.2-0.3-0.3-0.6s-0.3-0.6-0.6-0.9c-0.3-0.4-1-0.8-2.3-1
			c-1.2-0.3-2.5-0.5-3.9-0.6l0.1-1.1c3.1,0.4,5.7,0.6,7.8,0.6c1.6,0.1,2.3-0.8,2-2.7V184h-19.5V187.5L218.5,187.5z M199.8,180
			c0,1.8,0,5.4,0.1,11c0,2.9,0,4.7,0,5.1c0.1,0.6,0,1.1-0.3,1.3c-0.6,0.6-1.2,0.8-1.7,0.8c-0.6,0-0.9-0.2-0.9-0.7
			c0.2-5.9,0.3-11.5,0.3-16.9c0-4.6,0-9.2,0.1-13.7c-1.1,3-2.6,6-4.4,9c-2.3,3.8-4.9,7.2-8,10.3l-0.6-0.6c2.8-3.9,5.4-8.3,7.9-13.1
			c2-3.8,3.6-7.9,4.8-12.2h-3.2c-2.8,0.1-5,0.3-6.7,0.8l-1.9-2.3c2.9,0.1,5.2,0.2,7,0.2h5.1c0-4.2,0.1-8.5,0.1-12.8
			c0-4.6-0.1-8.3-0.2-11c2.2,0.5,3.8,0.9,4.8,1.2c0.4,0.2,0.6,0.5,0.6,0.7c0,0.3-0.1,0.5-0.4,0.7c-0.1,0-0.2,0.1-0.4,0.1
			c-0.7,0.3-1,0.5-1.1,0.6c-0.4,0.1-0.6,0.5-0.7,1c-0.1,0.4-0.2,1.7-0.2,3.8c0,1.5-0.1,3.5-0.1,5.9c0,1.2,0,2.5,0,3.9
			c0,1.3,0,3.3,0,5.8h4.6c1.4-1.9,2.3-2.8,2.5-2.9c0.8,0.2,1.9,1.2,3.4,2.8c0.3,0.5,0.4,0.9,0.4,1.1c-0.1,0.2-0.5,0.3-1.3,0.3h-9.6
			v4.9c1.9,0.9,3.7,2,5.4,3.2c2.7,1.6,4,3.2,3.9,4.7c0.1,1.3-0.3,2.2-1.3,2.5c-0.7,0.1-1.4-0.6-2.2-2.1c-0.6-1.4-1.4-2.6-2.5-3.9
			c-0.8-0.9-1.9-2-3.4-3.2L199.8,180L199.8,180z M243.1,153.2c0.7,0,1.2-0.1,1.3-0.3c0.1-0.3,0-0.7-0.3-1.2
			c-1.6-1.6-2.8-2.5-3.7-2.8c-0.3,0-1.2,1.1-2.7,3h-8v-6.4h16.5c0.7,0,1.2-0.1,1.3-0.3c0-0.3-0.1-0.6-0.4-1.1
			c-1.7-1.7-3.1-2.8-4.1-3.2c-0.2,0-1.2,1.1-2.9,3.3h-10.5v-0.8c0-3.6,0.1-5.3,0.6-5.3c0.1-0.1,0.5-0.2,0.9-0.4
			c0.3-0.1,0.5-0.2,0.6-0.3c0.4-0.2,0.6-0.4,0.5-0.7c0-0.2-0.3-0.4-0.8-0.6c-0.9-0.3-2.5-0.6-4.9-1c0.1,2.1,0.2,3.7,0.2,4.7v4.5H219
			c-2.1,0-4.5-0.1-7.4-0.3l2.5,2.6c2.2-0.7,5.2-1,9.1-1h3.6v6.4h-6c-2,0-4.5-0.1-7.5-0.4l2.7,2.5c2.1-0.6,5.2-0.8,9-0.8h1.8v6.7
			h-8.7c-2,0-4.5-0.1-7.4-0.3l2.8,2.6c2.7-0.7,5.6-1,8.8-1h25.4c0.8,0,1.2-0.1,1.3-0.3c0.1-0.3,0-0.7-0.4-1.2
			c-1.8-1.9-3.2-2.9-4-3.2c-0.3,0-1.3,1.2-3,3.4h-12v-6.7L243.1,153.2L243.1,153.2z M238.1,182.6v-6.3h-19.5v6.3H238.1L238.1,182.6z
			 M238.1,168.8h-19c-0.4,0.2-0.6,0.7-0.6,1.5v4.7H238v-6.2H238.1z M207,141.5c-0.4,1.3-0.8,2.5-1.3,3.7c-1.3,3.2-2.9,6.7-4.9,10.4
			l0.8,0.3c2.3-3.1,4.1-5.7,5.3-7.8c1.4-2.6,2.5-3.9,3.4-3.7c0.8-0.2,1.1-0.4,1.1-0.7c0-0.4-0.5-0.8-1.5-1.2
			c-0.5-0.2-1.3-0.5-2.3-0.8C207.3,141.6,207.1,141.6,207,141.5L207,141.5z M191.9,146.4c-1.2-1.6-2.7-3.1-4.3-4.6l-0.7,0.4
			c1.1,1.5,2,3.1,2.9,4.6c0.8,1.5,1.4,3.4,1.9,5.6c0.4,1.7,0.9,2.6,1.7,2.5s1.3-1,1.4-2.5C194.8,150.9,193.9,148.9,191.9,146.4
			L191.9,146.4z M275.7,135.1c1.5,0.4,2.8,0.9,3.9,1.6c1.4,0.8,2,1.4,1.9,1.8c0,0.5-0.9,0.7-2.5,0.7c-0.5-0.3-1.6,1.2-3.4,4.4
			c-0.6,0.9-1,1.7-1.3,2.2H306c1.4-1.6,2.3-2.4,2.6-2.5c0.8,0.2,2.2,1.1,3.9,2.7c0.8,0.7,0.8,1.2,0,1.6c-0.1,0-0.2,0.1-0.4,0.2
			c-0.6,0.3-1,0.5-1.2,0.6c-0.3,0.1-0.5,1-0.6,2.5c0,2.6-0.1,7.6-0.2,14.8c-0.1,5.8-0.1,9-0.1,9.8c0,3.9-1.8,6.5-5.3,7.8
			c-1.6,0.7-2.7,0.8-3.1,0.4c-0.1-0.1-0.3-0.4-0.4-0.7c0-0.2-0.1-0.4-0.2-0.6c-0.2-0.5-1-1-2.4-1.5c-1.3-0.4-3-0.8-5.1-1.1l0.2-1.1
			c4.4,0.7,7.3,1,8.7,1c2.9,0.3,4.4-1.6,4.5-5.5c0.2-4.7,0.3-13.7,0.3-27h-34c-0.4,0.7-1.2,2-2.3,3.6c-0.3,0.4-0.5,0.8-0.6,1
			c-0.8,1.2-1.6,2.4-2.4,3.6c0.1,0,0.1,0,0.1,0.1c1.5,0.8,2.7,1.6,3.5,2.3H288c1.6-1.7,2.6-2.6,2.7-2.6c0.8,0.2,2,1.2,3.9,3
			c0.6,0.7,0.6,1.1-0.1,1.4c-0.6,0.3-1.1,0.6-1.7,0.8c-0.5,0.1-0.7,1.1-0.6,2.9v4.5c0,1.5,0,4.1,0.1,7.7c0,0.6-0.1,1-0.5,1.3
			c-0.7,0.5-1.3,0.7-2,0.7c-0.4,0-0.6-0.2-0.6-0.7c0-0.1,0-0.3,0-0.7c0-0.8,0.1-1.4,0.1-1.8h-18.7V186c0,2.6,0.4,4.3,1.3,5.1
			c0.8,0.8,2.6,1.4,5.5,1.5c3.5,0.3,8.4,0.4,14.7,0.4c6.1,0,11.6-0.3,16.4-0.6c2.4-0.1,4-0.5,4.6-1.1c0.8-0.5,1.2-1.6,1.5-3.4
			c0.3-2.5,0.7-6.2,1-11.2l1.2,0.1c0-0.7,0,1.1-0.1,5.5c0,1.6,0,2.9,0,3.8c0,2,0.2,3.3,0.6,3.9c0.2,0.3,0.5,0.8,1,1.3
			c0.6,0.6,0.9,1.1,0.8,1.6c0.2,1.4-2.7,2.1-8.6,2.2c-4.5,0.2-10.3,0.3-17.4,0.3c-8.3,0-14,0-17-0.1c-5.7-0.2-8.5-3-8.2-8.4v-25.3
			c0-1.4-0.1-3.3-0.2-5.8c-3.2,4.4-6.9,8.8-11,13.3l-0.8-0.8c5.8-7.3,10.9-15.3,15.6-23.8C273.7,140.4,275.1,137.3,275.7,135.1
			L275.7,135.1z M270.9,161.7v11.2h18.7c0-1,0.1-2.2,0.1-3.6v-10h-17.9C271.2,159.5,270.9,160.3,270.9,161.7L270.9,161.7z
			 M389.5,172.6h-29c1.8,4.3,4.3,7.8,7.3,10.4c0.2-0.1,0.5-0.3,1-0.6c2.5-1.5,4.5-2.8,5.8-3.7c1.3-0.8,2.5-1.7,3.4-2.7
			c1,0.5,1.9,1,2.8,1.5c1.2,0.7,1.7,1.2,1.6,1.6c-0.1,0.4-0.7,0.5-2,0.3c-0.7-0.1-1.3,0-1.9,0.1c-0.6,0.2-1.8,0.7-3.6,1.5
			c-3,1.3-5.1,2.3-6.3,2.7c2,1.6,4.3,3,7,4.2c4.4,1.8,9.9,2.9,16.6,3.2l-0.1,1.2c-1.8,0-3.4,0.1-4.8,0.6c-0.7,0.2-1.3,0.6-1.8,1.1
			c-0.2,0.3-0.5,0.5-0.8,0.6c-1.2,0-3.5-0.7-7-2.1c-4.5-1.9-8.1-4.2-11-7c-3.2-3.2-5.7-7.3-7.4-12.3c0,0-0.1,0-0.1,0.1
			c-0.1,0-0.2,0.1-0.2,0.1c-3.3,3-6.5,5.5-9.6,7.4l-0.1,12.5c3.6-1,8.2-2.4,13.9-4.2l0.4,1c-1.3,0.5-3.1,1.3-5.5,2.3
			c-2.9,1.2-4.9,2.1-6,2.5c-1.5,0.6-2.6,1.3-3.6,2.2c-0.3,0.2-0.5,0.5-0.8,0.8c-0.1,0.2-0.3,0.4-0.4,0.4c-0.4,0.1-0.7,0-1.1-0.3
			c-1.2-1.3-1.8-2.2-1.8-2.7c0-0.1,0.2-0.4,0.6-0.8c0.3-0.3,0.6-0.5,0.7-0.7c0.6-0.5,0.8-1.5,0.8-3c0-0.7,0.1-3.5,0.1-8.4
			c0,0-0.1,0-0.1,0.1c0,0-0.1,0-0.1,0.1c-5.9,3.4-12.2,6.3-18.8,8.6l-0.5-1c7-3.2,12.9-6.3,17.7-9.4c4.9-3.2,8.4-6,10.7-8.4h-18.6
			c-3,0-5.2,0.2-6.5,0.6l-2-2.3c3.1,0.2,5.6,0.3,7.3,0.3h46.8c2-2.5,3.2-3.7,3.4-3.8c1.1,0.6,2.6,1.8,4.5,3.7
			c0.4,0.4,0.5,0.8,0.4,1.1C390.8,172.5,390.3,172.6,389.5,172.6L389.5,172.6z M388.7,148.3h-16.9v11.5h6.6c1.9-2.3,3-3.6,3.5-3.7
			c1,0.3,2.5,1.5,4.5,3.6c0.4,0.5,0.5,0.9,0.3,1.2c-0.1,0.2-0.6,0.3-1.3,0.3H367c-3.8,0-7.1,0.3-10,1l-2.1-2.7
			c3.1,0.2,5.6,0.3,7.8,0.3h6.4v-11.5h-4.7c-3.9,0-7.1,0.3-9.5,0.9l-2.3-2.6c3.2,0.2,5.8,0.3,8.1,0.3h8.4v-4.6c0-2-0.1-4.4-0.3-7.2
			c2.2,0.4,3.8,0.8,4.9,1.2c0.5,0.2,0.7,0.5,0.8,0.8c0,0.3-0.2,0.6-0.5,0.7c-0.1,0-0.4,0.2-0.8,0.4s-0.7,0.4-0.8,0.4
			c-0.3,0-0.5,2.3-0.5,6.8v1.5h9.6c2-2.7,3.1-4,3.3-4.1c1.2,0.5,2.8,1.9,4.9,4c0.4,0.5,0.5,0.8,0.4,1.1
			C389.8,148.1,389.4,148.3,388.7,148.3L388.7,148.3z M349.8,153.8c0,0.7,0,2.4,0.1,5.3c0,2.6,0.1,4.2,0.1,4.8
			c0,0.4-0.1,0.8-0.3,1.1c-0.6,0.5-1.3,0.7-2,0.7c-0.5,0-0.8-0.2-0.7-0.8c0-0.2,0-1.1,0.1-2.7c0.1-4.1,0.1-6.8,0.1-8.1v-1.8
			c-2,1.2-5.2,3.1-9.6,5.6c-1,0.6-1.7,1-2.1,1.3c-1.2,0.8-2,1.6-2.4,2.5c0,0-0.1,0.2-0.1,0.3c-0.1,0.5-0.3,0.7-0.5,0.8
			c-0.3,0.1-0.7-0.1-1.1-0.5c-1-1-1.9-2.1-2.7-3.2c1.3-0.4,3.1-1.1,5.5-2.2c2.5-1.1,6.1-2.6,10.6-4.6c1.2-0.5,1.9-0.9,2.3-1.1v-10.8
			c0-1,0-2.8-0.1-5.5c1.8,0.4,3.2,0.7,4.2,1c0.8,0.2,1.1,0.5,1.1,0.8s-0.1,0.5-0.5,0.6c-0.1,0.1-0.4,0.2-0.7,0.3
			c-0.3,0.1-0.6,0.3-0.8,0.3c-0.5-0.2-0.7,1.5-0.6,5.1v10.8H349.8z M333.2,138.8l-0.6,0.6c1.9,2,3.3,3.5,4.1,4.6
			c1.1,1.4,1.8,2.8,2.3,4.1c0.5,1.2,1.1,1.7,1.8,1.5c0.9-0.2,1.3-1.1,1.1-2.6c-0.1-1.3-1-2.5-2.7-3.8c-1.2-0.8-2.9-2.1-5.2-3.7
			C333.5,139.1,333.2,138.8,333.2,138.8L333.2,138.8z M356.2,162.6l-0.5,0.6c1,0.9,2,1.9,2.9,2.8c0.8,1,1.5,2.1,1.9,3.2
			c0.5,1.1,1,1.6,1.5,1.5c1-0.2,1.5-0.9,1.4-2.2c0-1.3-0.9-2.4-2.8-3.5C359.4,164.2,357.9,163.4,356.2,162.6L356.2,162.6z M2.7,237
			c1.7,0.2,2.7,1.1,2.9,2.8c-0.2,1.7-1.1,2.6-2.9,2.8c-1.6-0.1-2.5-1.1-2.7-2.8C0.1,238,1,237.1,2.7,237L2.7,237z M60.4,281.9
			c0,0.7,0,1.9,0,3.4c0,0.4,0,0.6,0,0.8c0,0.6-0.1,1.1-0.3,1.4c-0.6,0.6-1.2,0.8-2,0.8c-0.4,0-0.7-0.2-0.7-0.7c0-0.3,0-1.7,0.1-4.2
			c0.1-3.4,0.1-5.5,0.1-6.1v-10.7c0-2,0-3.8-0.1-5.6c-4.5,1.9-9.5,3.6-14.8,5.1l-0.3-1c12.9-4.6,23-9.5,30.3-15c0,0,0.1,0,0.1-0.1
			c-4.5-4.1-8.1-8.8-10.6-14.1c-4.7,6-9.7,11.3-15.1,16l-0.7-0.7c6.8-7.1,12.2-14.4,16.3-21.7c1-1.8,2-3.5,2.9-5.1
			c1.3,0.4,2.6,0.8,3.7,1.3s1.6,1,1.6,1.5c0,0.6-0.7,0.8-2.2,0.8c-0.3-0.3-1.7,1.2-4,4.6c-0.1,0-0.1,0.1-0.1,0.2h22.7
			c1.8-1.5,2.9-2.3,3.2-2.4c0.9,0.1,2.4,1.2,4.6,3.1c0.6,0.5,0.7,1,0.4,1.4c-0.1,0.2-0.6,0.4-1.3,0.4c-0.5,0-0.8,0.1-1.1,0.1
			c-1,0.2-1.8,0.7-2.6,1.6c-4.4,5.1-8.8,9.5-13.2,13.1c0.8,0.6,1.7,1.1,2.6,1.5c6.8,3.9,15.8,6.2,26.9,6.8v1c-1.3,0-2.6,0.3-3.9,0.8
			c-0.8,0.3-1.3,0.7-1.6,1.1c-0.2,0.3-0.4,0.5-0.8,0.6c-1.5,0.1-5.1-0.8-10.8-2.7c-5.9-2.2-10.7-4.6-14.4-7.3c-0.1,0-0.1,0-0.1-0.1
			l-0.8,0.6c-4.2,3-9.5,5.8-15.9,8.4c0.1,0.1,0.4,0.3,0.8,0.6c1.2,0.8,2.1,1.5,2.7,2h24c1.5-1.8,2.4-2.8,2.6-2.8
			c0.7,0.2,2.1,1.2,4.2,3c0.5,0.6,0.6,1.1,0.1,1.4c-0.2,0.1-0.6,0.3-1.2,0.6c-0.4,0.2-0.7,0.3-0.8,0.4c-0.4,0.1-0.6,1-0.6,2.5v9.4
			c0,1.9,0.1,4.6,0.3,8.1c0,0.6-0.1,1-0.4,1.3c-0.7,0.6-1.4,0.8-2.3,0.8c-0.4,0-0.7-0.3-0.7-0.8c0-0.6,0.1-2.5,0.1-5.7h-27v0.3H60.4
			z M60.4,266.8v13.4h27V280v-15.4H61.2C60.6,264.8,60.3,265.5,60.4,266.8L60.4,266.8z M88.2,234.1H63.3c-0.1,0.2-0.3,0.4-0.4,0.6
			c2.9,5.3,6.8,9.9,11.7,13.6C80.2,243.7,84.7,238.9,88.2,234.1z"/>
		<path class="st0" d="M145.7,264.3c0,0.4-0.1,0.7-0.3,1h23.8c1.9-2.4,2.9-3.6,3.2-3.7c1.1,0.5,2.6,1.7,4.4,3.6
			c0.4,0.6,0.6,1,0.4,1.2c-0.1,0.3-0.6,0.4-1.4,0.4h-29c2.9,5.5,7.5,9.7,14.1,12.5c4,1.5,9.6,2.5,17,3l-0.1,1
			c-1.9,0-3.5,0.3-4.8,0.8c-0.6,0.2-1,0.6-1.3,1.1c-0.3,0.4-0.7,0.7-1.2,0.7c-0.7,0-2.2-0.3-4.4-0.9c-4.8-1.4-9.1-3.7-12.9-6.9
			c-3.2-2.6-5.7-6.4-7.7-11.3H145c-0.5,1.5-1.1,3.1-1.8,4.6c-3.3,7.9-12.9,13.6-28.8,17.2l-0.4-1c13.8-4.4,22.3-9.6,25.5-15.5
			c0.9-1.5,1.6-3.3,2.3-5.3h-12.7c-4.6,0-8.8,0.3-12.7,0.9l-2.7-3c3.9,0.3,7.1,0.5,9.7,0.5H142c0.2-0.7,0.3-1.4,0.5-2.2
			c0.2-1.3,0.4-2.9,0.5-4.8c1.4,0.2,3,0.6,4.8,1c0.5,0.1,0.8,0.3,1,0.6c0.1,0.3-0.1,0.5-0.5,0.8c-0.2,0.1-0.5,0.2-1,0.4
			c-0.2,0.1-0.4,0.2-0.6,0.2C146.5,261.2,146.1,262.2,145.7,264.3L145.7,264.3z M161.7,226.8c-0.8,1.6-1.7,3-2.7,4.4
			c-2.4,3.5-5.2,6.8-8.2,10h-4.1v-10.1c0-1.8,0.4-2.9,1.1-3.2l1.4-0.7c0.5-0.2,0.7-0.5,0.6-0.7c0-0.3-0.3-0.5-0.9-0.8
			c-1.1-0.3-2.9-0.7-5.3-1.2c0.2,2.5,0.3,5.6,0.3,9.2v7.4h-20c-2.2,0-5.2-0.1-9.1-0.3l2.3,2.7c3-0.6,7-0.8,11.8-0.8h10.3
			c-1.9,2.3-4.7,4.9-8.4,7.7c-4.6,3.6-10.4,7.1-17.3,10.3l0.4,0.9c6.9-2.4,13-5.5,18.5-9.3c4.4-2.9,8-6.2,11-9.7h0.4v2.6
			c0,3.7-0.2,7-0.3,10c-0.1,0.3-0.1,0.5-0.1,0.6c0.1,0.5,0.4,0.8,1,0.8c0.8,0,1.5-0.3,2.3-0.8c0.3-0.3,0.4-0.8,0.3-1.4
			c0-0.1,0-0.4,0-0.6c-0.1-3.4-0.2-6.5-0.2-9.3v-1.9H174c0.8,0,1.3-0.1,1.4-0.4c0.1-0.3,0-0.7-0.4-1.1c-2.1-2-3.6-3.2-4.5-3.7
			c-0.2,0-1.4,1.3-3.4,3.7h-14.8c2.4-1.9,5-4.2,7.7-7c2.5-2.5,4.2-3.7,4.9-3.5c1,0.1,1.6-0.1,1.7-0.5c0.2-0.5-0.3-1.1-1.7-1.9
			C164.1,228,163.1,227.4,161.7,226.8L161.7,226.8z M168,256.5c2.3,2.1,3.8,3,4.6,2.5c0.9-0.5,1.1-1.4,0.7-2.7
			c-0.4-1.2-1.3-2.1-2.7-2.9c-5.3-2.7-11.9-5.1-19.8-7.2l-0.3,0.8C157.8,249.8,163.7,253,168,256.5L168,256.5z M124.9,228
			c0.7,0.3,2.9,1.4,6.7,3.4c2.9,1.4,4.3,3,4.2,4.9c0,1.2-0.4,1.9-1.3,2.2c-0.8,0.1-1.5-0.4-2.2-1.7c-0.6-1.4-1.7-2.8-3.3-4.3
			c-1-1-2.6-2.2-4.6-3.7L124.9,228L124.9,228z M242.2,235.9v35.6c0,1,0,3.8,0.1,8.4c0,2.7,0.1,4.3,0.1,4.6c0,0.7-0.1,1.1-0.4,1.4
			c-0.7,0.6-1.3,0.8-1.8,0.8c-0.4,0-0.6-0.3-0.6-0.7v-5.3h-26.2c0,0.9,0,2.1,0.1,3.4c0,0.4,0,0.6,0,0.6c0,0.6-0.1,1-0.3,1.2
			c-0.6,0.6-1.3,0.8-2,0.8c-0.4-0.1-0.6-0.3-0.6-0.7c0-0.3,0-2,0.1-5c0.1-4.1,0.1-6.5,0.1-7.2v-39.2c0-1.3,0-3.3-0.1-6.2
			c1.7,1.3,3,2.2,3.9,2.9h23.7c1.5-1.5,2.4-2.3,2.5-2.3c0.8,0.3,2,1.2,3.7,2.6c0.6,0.7,0.6,1.1-0.1,1.5c-0.2,0.1-0.5,0.2-0.8,0.3
			s-0.5,0.2-0.6,0.3C242.4,234.1,242.2,234.8,242.2,235.9L242.2,235.9z M213.3,273.8v5.7h26.2V233H214c-0.5,0.3-0.7,0.9-0.7,1.8
			V273.8L213.3,273.8z M205.7,237.9c1.1,0.6,1.9,1.1,2.6,1.6c0.9,0.7,1.3,1.2,1.1,1.6c0,0.3-0.6,0.4-1.5,0.3
			c0.1-0.6-1.6,0.8-5.1,4.2c-2,1.9-3.5,3.2-4.6,3.9c0,0.3,0,0.8-0.1,1.5c0,3.5-0.1,6.4-0.2,8.9c-0.1,1.2-0.1,2.3-0.2,3.4
			c0.3,0.3,1,1,2,1.9c1.5,1.4,2.6,2.5,3.4,3.3c2.7,2.7,4.1,4.9,4.2,6.7c0.1,1.4-0.3,2.3-1.1,2.7c-0.9,0.1-1.7-0.7-2.3-2.2
			c-0.7-1.9-1.6-4-3-6.2c-1-1.6-2.1-3.2-3.4-4.8c-1.2,9.3-5.6,16.9-13.3,22.9l-0.7-0.7c7.9-7.3,11.8-17.3,11.9-30
			c0.2-4.3,0.3-10.3,0.4-18c0-1.6,0-2.8,0-3.6c0-2.1,0-5.4-0.1-9.9c1.3,0.3,2.7,0.6,4.1,1.1c1.2,0.4,1.8,0.8,1.8,1.3
			c0,0.4-0.1,0.6-0.6,0.8c-0.1,0-0.2,0.1-0.3,0.1c-0.5,0.2-1,0.4-1.4,0.5c-0.3,0-0.6,1.9-0.7,5.8c0,4.8-0.1,9.1-0.3,12.9
			c0.1-0.1,0.3-0.3,0.5-0.6c1.5-1.8,2.7-3.4,3.7-4.7C203.5,241.5,204.6,239.9,205.7,237.9L205.7,237.9z M224.5,235.7
			c0.1,1.8,0.1,4.9,0,9.2c-0.1,1.1-0.1,2.2-0.1,3.2h-4.1c-1.9,0-3.8-0.1-5.9-0.2l1.8,2.3c1.1-0.5,2.8-0.7,5.3-0.7h2.9
			c-0.1,11-3.7,19.6-10.6,25.9l0.7,0.7c6.2-4.7,10-10.6,11.3-17.5c1.5,2.2,2.8,4.1,3.9,5.8c1.3,2.4,2.1,4.3,2.4,5.7
			c0.5,2.2,1.1,3.2,1.9,3c1,0,1.5-0.8,1.4-2.5c0.1-1.6-0.9-3.9-3.2-6.8c-1.5-1.9-3.5-4.1-6-6.6c0.4-2.2,0.7-4.8,0.9-7.7h9.9
			c0.7,0,1.1-0.1,1.3-0.4c0.1-0.3,0-0.6-0.3-1.1c-0.2-0.2-0.7-0.6-1.3-1.1c-1.2-1.1-1.8-1.6-2-1.7c-0.2,0-0.9,0.7-2.1,2.2
			c-0.2,0.3-0.4,0.5-0.4,0.6h-5.3c0-0.2,0.1-0.6,0.1-1s0.1-0.8,0.1-1c0.2-5.5,0.4-8,0.8-7.5c0.2-0.1,0.5-0.2,1-0.4
			c0.3-0.1,0.5-0.2,0.6-0.3c0.3-0.1,0.4-0.3,0.4-0.6c0.1-0.3-0.5-0.7-1.8-1.1C227.3,236.1,226,235.9,224.5,235.7L224.5,235.7z
			 M189.4,239.2c-0.1,2.8-0.4,5.3-0.9,7.7c-0.5,2.5-1.6,4.6-3.2,6.4c-1,1.3-1.3,2.4-0.8,3.2c1.2,0.8,2.5,0.4,3.9-1.2
			c1.2-1.3,1.8-3.6,2-7c0.1-2.6,0.1-5.6,0-9.1H189.4L189.4,239.2z M275.7,225c1.5,0.4,2.8,0.9,3.9,1.6c1.4,0.8,2,1.4,1.9,1.8
			c0,0.5-0.9,0.7-2.5,0.7c-0.5-0.3-1.6,1.2-3.4,4.4c-0.6,0.9-1,1.7-1.3,2.2H306c1.4-1.6,2.3-2.4,2.6-2.5c0.8,0.2,2.2,1.1,3.9,2.7
			c0.8,0.7,0.8,1.2,0,1.6c-0.1,0-0.2,0.1-0.4,0.2c-0.6,0.3-1,0.5-1.2,0.6c-0.3,0.1-0.5,1-0.6,2.5c0,2.6-0.1,7.6-0.2,14.8
			c-0.1,5.8-0.1,9-0.1,9.8c0,3.9-1.8,6.5-5.3,7.8c-1.6,0.7-2.7,0.8-3.1,0.4c-0.1-0.1-0.3-0.4-0.4-0.7c0-0.2-0.1-0.4-0.2-0.6
			c-0.2-0.5-1-1-2.4-1.5c-1.3-0.4-3-0.8-5.1-1.1l0.2-1.1c4.4,0.7,7.3,1,8.7,1c2.9,0.3,4.4-1.6,4.5-5.5c0.2-4.7,0.3-13.7,0.3-27h-34
			c-0.4,0.7-1.2,2-2.3,3.6c-0.3,0.4-0.5,0.8-0.6,1c-0.8,1.2-1.6,2.4-2.4,3.6c0.1,0,0.1,0,0.1,0.1c1.5,0.8,2.7,1.6,3.5,2.3H288
			c1.6-1.7,2.6-2.6,2.7-2.6c0.8,0.2,2,1.2,3.9,3c0.6,0.7,0.6,1.1-0.1,1.4c-0.6,0.3-1.1,0.6-1.7,0.8c-0.5,0.1-0.7,1.1-0.6,2.9v4.5
			c0,1.5,0,4.1,0.1,7.7c0,0.6-0.1,1-0.5,1.3c-0.7,0.5-1.3,0.7-2,0.7c-0.4,0-0.6-0.2-0.6-0.7c0-0.1,0-0.3,0-0.7
			c0-0.8,0.1-1.4,0.1-1.8h-18.7v11.6c0,2.6,0.4,4.3,1.3,5.1c0.8,0.8,2.6,1.4,5.5,1.5c3.5,0.3,8.4,0.4,14.7,0.4
			c6.1,0,11.6-0.3,16.4-0.6c2.4-0.1,4-0.5,4.6-1.1c0.8-0.5,1.2-1.6,1.5-3.4c0.3-2.5,0.7-6.2,1-11.2l1.2,0.1c0-0.7,0,1.1-0.1,5.5
			c0,1.6,0,2.9,0,3.8c0,2,0.2,3.3,0.6,3.9c0.2,0.3,0.5,0.8,1,1.3c0.6,0.6,0.9,1.1,0.8,1.6c0.2,1.4-2.7,2.1-8.6,2.2
			c-4.5,0.2-10.3,0.3-17.4,0.3c-8.3,0-14,0-17-0.1c-5.7-0.2-8.5-3-8.2-8.4v-25.3c0-1.4-0.1-3.3-0.2-5.8c-3.2,4.4-6.9,8.8-11,13.3
			l-0.8-0.8c5.8-7.3,10.9-15.3,15.6-23.8C273.7,230.4,275.1,227.2,275.7,225L275.7,225z M270.9,251.7v11.2h18.7c0-1,0.1-2.2,0.1-3.6
			v-10h-17.9C271.2,249.5,270.9,250.3,270.9,251.7z"/>
	</g>
</g>
</svg>
