<?xml version="1.0" encoding="utf-8"?>
<!-- Generator: Adobe Illustrator 21.0.0, SVG Export Plug-In . SVG Version: 6.00 Build 0)  -->
<svg version="1.1" id="图层_1" xmlns="http://www.w3.org/2000/svg" xmlns:xlink="http://www.w3.org/1999/xlink" x="0px" y="0px"
	 viewBox="0 0 530.8 654.1" style="enable-background:new 0 0 530.8 654.1;" xml:space="preserve">
<style type="text/css">
	.st0{fill:#3E3A39;}
</style>
<g>
	<path class="st0" d="M36.9,19.9v44.5c0,1.4,0.1,5.8,0.2,13.2c0.1,3.2,0.1,4.9,0.1,5.2c0.1,0.7-0.1,1.3-0.6,1.8
		c-0.8,0.6-1.8,0.9-3,0.9c-0.6-0.1-0.9-0.5-0.9-1.2v-8.7H12.5c0,2,0,4.8,0.1,8.2c0,0.8,0,1.3,0,1.5c0,1-0.2,1.7-0.6,2
		c-1,0.7-2,1-3,1c-0.7-0.1-1-0.5-1-1.2c0-0.5,0-2.6,0.1-6.4c0.1-5.7,0.2-9.1,0.2-10.1V18.1c0-1.9-0.1-5-0.2-9.3c2.6,1.6,4.6,3,6,4.1
		h16.7c2.2-2.6,3.5-3.9,4-4c0.8,0.2,2.6,1.6,5.5,4.2c0.8,0.8,0.8,1.6-0.2,2.1c-0.8,0.6-1.6,1-2.3,1.4C37.1,16.8,36.8,17.9,36.9,19.9
		L36.9,19.9z M74.9,14.2v13.5H50.2c-3.2,0-6.9-0.2-11.3-0.6l3.6,4c4.7-0.8,10.4-1.2,17.1-1.3h15.3v14.5c0,3.9,0,9.4,0,16.7
		c0.1,11.5,0.1,18.6,0,21.4c0.1,2.7-0.9,4-3,4c-3.9,0-9.5-0.6-16.8-1.7l-0.4,2c5.1,0.8,8.6,1.5,10.7,2.2c1.4,0.6,2.5,1.3,3.2,2.1
		c0.3,0.4,0.5,0.9,0.5,1.5c0.1,0.4,0.3,0.8,0.5,1.2c0.7,0.6,2.1,0.4,4.1-0.5c4.1-1.4,6-4.1,5.7-8c0-1.3,0-5.5-0.1-12.5
		c-0.1-11-0.2-19.8-0.2-26.4V29.8h15.6c1.1,0,1.8-0.2,2.1-0.5c0.1-0.6-0.1-1.1-0.6-1.7c-3.3-3.5-5.3-5.3-6-5.4
		c-0.4,0.1-2,1.9-4.6,5.5h-6.4V15.9c-0.1-6,0.4-9,1.3-9.1c0.1-0.1,0.5-0.2,0.9-0.4c0.6-0.2,1-0.4,1.4-0.6c0.6-0.3,0.9-0.7,0.8-1.1
		c-0.1-0.6-0.5-1-1.4-1.4c-1.4-0.5-3.9-1.1-7.6-1.9C74.8,7.8,74.9,12.1,74.9,14.2L74.9,14.2z M12.5,70.2v3.2h20.2V44.8H12.5V70.2
		L12.5,70.2z M32.6,15.1H13.7c-0.8,0.3-1.3,1.8-1.3,4.5v22.9h20.2V15.1L32.6,15.1z M47.2,39c2.3,1.6,5.3,3.9,8.9,7
		c4.9,3.9,7.1,7.4,6.7,10.4c0.1,2.5-0.7,4-2.3,4.3c-1.3,0.1-2.4-1.1-3.3-3.8c-0.9-3.4-2.6-6.7-5.1-10c-1.7-2.3-3.7-4.5-5.9-6.9
		L47.2,39L47.2,39z M131.6,37.7c-8.2,0.1-14.4,0.6-18.9,1.5l-4-4.3c5,0.4,9.8,0.6,14.5,0.6h51.5c2.1-2.4,3.4-3.6,3.9-3.7
		c0.8,0.1,2.6,1.4,5.5,4c1.1,1.1,1.1,1.9,0,2.4c-0.2,0.1-0.4,0.2-0.6,0.3c-0.8,0.4-1.4,0.7-1.8,0.9c-0.5,0.4-0.8,1.7-0.9,3.9
		c-0.2,6.5-0.3,12.9-0.4,19.3c-0.1,0.8-0.1,1.4-0.1,1.8c0,6-2.5,10-7.4,11.7c-2.5,1-4.1,1.2-4.7,0.5c-0.2-0.2-0.4-0.6-0.5-1
		s-0.2-0.6-0.3-0.8c-0.4-0.8-1.6-1.5-3.6-2.2c-2-0.6-4.6-1.2-7.8-1.7l0.3-1.7c6.8,1,11.1,1.5,13.2,1.5c4.4,0.4,6.6-2.4,6.8-8.3
		c0.3-5.5,0.5-13.7,0.5-24.7h-30.3c-0.8,0.7-1.2,2.1-1.2,4.2v32c0,1.9,0.1,6,0.1,12.4c0.1,3.9,0.1,6.2,0.1,7c0,1-0.2,1.7-0.6,2
		c-0.8,0.8-2,1.3-3.5,1.4c-0.8-0.1-1.1-0.5-1-1.2c0-0.4,0-2.2,0.1-5.3c0.2-7.8,0.3-13,0.3-15.5v-37H131.6L131.6,37.7z M136.8,20.1
		c0,0.6,0,1.8,0.1,3.7c0.1,1.4,0.1,2.2,0.1,2.5c0,0.9-0.2,1.5-0.5,1.9c-0.7,0.8-1.8,1.3-3.2,1.5c-0.7,0-1.1-0.4-1.1-1.3
		c0.2-3.8,0.3-6.7,0.3-8.8v-3.4h-16c-5.8,0.1-10,0.4-12.5,0.9l-2.8-3.8c3.8,0.4,7.6,0.5,11.5,0.5h19.8V8.4c0-1.8-0.1-4.6-0.3-8.4
		c2.9,0.6,5,1.2,6.4,1.8c0.9,0.4,1.4,0.7,1.4,1.1c0.1,0.4-0.2,0.8-0.8,1l-1.5,0.7c-0.7,0.1-1,1.8-0.9,5.3v4h23.9V8.7
		c0-1.8-0.1-4.6-0.3-8.4c3.1,0.6,5.4,1.1,6.8,1.7c0.9,0.4,1.4,0.7,1.5,1.1s-0.2,0.7-0.9,1.1c-0.3,0.2-0.7,0.4-1.3,0.6
		c-0.2,0.1-0.4,0.2-0.4,0.2c-0.8,0.1-1.1,1.8-1.1,5.2V14h19.9c0,0,0.3-0.4,0.8-1c2.4-3,3.7-4.4,4-4.4c1.3,0.4,3.5,2.2,6.7,5.5
		c0.6,0.8,0.8,1.4,0.6,1.8c-0.1,0.4-0.8,0.5-2.1,0.5h-30v3.7c0,0.6,0,1.7,0.1,3.4c0.1,1.3,0.1,2,0.1,2.3c0.1,0.8-0.1,1.5-0.5,1.9
		c-0.9,1-2,1.5-3.2,1.5c-0.6-0.1-1-0.6-1-1.3c0.2-2.3,0.2-4.8,0.2-7.5v-4h-23.9L136.8,20.1L136.8,20.1z M250.9,59.7
		c-0.1,0.6-0.2,1-0.4,1.5h35.7c2.8-3.6,4.4-5.4,4.8-5.5c1.6,0.7,3.8,2.5,6.7,5.4c0.6,0.8,0.8,1.4,0.6,1.8c-0.2,0.4-0.9,0.6-2.1,0.6
		h-43.5C257,71.8,264,78,273.8,82.3c6,2.3,14.5,3.7,25.4,4.4l-0.1,1.5c-2.9,0.1-5.3,0.5-7.2,1.2c-0.8,0.4-1.5,0.9-1.9,1.7
		c-0.4,0.6-1,1-1.8,1.1c-1.1,0-3.3-0.5-6.7-1.4c-7.2-2-13.6-5.5-19.4-10.3c-4.8-3.9-8.6-9.6-11.5-16.9h-0.8
		c-0.8,2.3-1.7,4.6-2.6,6.9c-5,11.8-19.4,20.4-43.2,25.8l-0.6-1.5c20.7-6.6,33.4-14.3,38.3-23.2c1.3-2.3,2.5-4.9,3.4-8h-19
		c-6.9,0-13.2,0.5-19,1.4l-4-4.4c5.8,0.5,10.7,0.7,14.5,0.7h28c0.3-1,0.5-2.1,0.7-3.3c0.3-1.9,0.5-4.3,0.7-7.3
		c2.2,0.4,4.6,0.8,7.2,1.5c0.8,0.2,1.3,0.5,1.5,0.9c0.1,0.4-0.1,0.8-0.7,1.2c-0.3,0.1-0.8,0.3-1.5,0.6c-0.4,0.1-0.6,0.3-0.8,0.3
		C252.1,55.1,251.6,56.6,250.9,59.7L250.9,59.7z M274.9,3.4c-1.2,2.3-2.5,4.5-4,6.7c-3.7,5.2-7.7,10.2-12.2,15h-6.1V9.9
		c0.1-2.7,0.6-4.3,1.6-4.7l2.1-1c0.7-0.4,1-0.7,0.9-1.1c0-0.4-0.5-0.8-1.4-1.2c-1.7-0.5-4.4-1.1-8-1.8c0.3,3.8,0.4,8.4,0.4,13.8
		v11.2h-30.1c-3.3,0-7.8-0.2-13.6-0.5l3.5,4c4.6-0.8,10.5-1.3,17.7-1.3h15.5c-2.9,3.5-7.1,7.4-12.7,11.6c-7,5.4-15.6,10.6-25.9,15.5
		l0.6,1.4c10.3-3.7,19.5-8.3,27.7-13.9c6.5-4.4,12.1-9.3,16.6-14.5h0.6v3.9c-0.1,5.6-0.3,10.5-0.5,15c-0.1,0.4-0.1,0.7-0.1,0.8
		c0.2,0.8,0.6,1.2,1.5,1.3c1.2-0.1,2.3-0.5,3.4-1.1c0.4-0.5,0.6-1.2,0.4-2.1c0-0.2,0-0.5,0-1c-0.2-5.1-0.3-9.8-0.3-13.9v-2.8h40.8
		c1.2,0,1.9-0.2,2.1-0.6c0.1-0.5-0.1-1-0.6-1.7c-3.1-3-5.3-4.8-6.8-5.5c-0.3,0.1-2.1,1.9-5.2,5.6h-22.3c3.7-2.9,7.5-6.4,11.6-10.4
		c3.8-3.8,6.3-5.5,7.4-5.2c1.6,0.2,2.4-0.1,2.5-0.7c0.4-0.7-0.5-1.7-2.5-2.9C278.6,5.2,277,4.4,274.9,3.4L274.9,3.4z M284.3,48.1
		c3.4,3.2,5.8,4.5,7,3.7c1.3-0.7,1.7-2,1.1-4c-0.6-1.8-2-3.2-4.1-4.3c-7.9-4.1-17.9-7.7-29.8-10.8L258,34
		C269.1,38.1,277.9,42.8,284.3,48.1L284.3,48.1z M219.6,5.3c1,0.4,4.3,2.1,10,5.1c4.4,2.1,6.4,4.5,6.2,7.3c0.1,1.8-0.6,2.9-2,3.3
		c-1.2,0.2-2.3-0.6-3.3-2.5c-0.9-2-2.6-4.2-5-6.4c-1.5-1.5-3.9-3.3-7-5.5L219.6,5.3z"/>
	<g>
		<path class="st0" d="M2.7,147c1.7,0.2,2.7,1.1,2.9,2.8c-0.2,1.7-1.1,2.6-2.9,2.8c-1.6-0.1-2.5-1.1-2.7-2.8
			C0.1,148.1,1,147.2,2.7,147L2.7,147z M76,172.2v0.5h11.4c1.8-2.3,2.8-3.5,3.1-3.6c0.8,0.3,2.3,1.5,4.5,3.5
			c0.4,0.5,0.5,0.9,0.3,1.1c-0.1,0.2-0.6,0.4-1.3,0.4H76c0.1,8.8,0.1,14,0.1,15.7c0,1.4,0,2.5,0,3.2c0.1,2.4-1.1,4.1-3.7,5.1
			c-1.4,0.6-2.3,0.7-2.7,0.3c-0.2-0.2-0.4-0.5-0.4-0.8s-0.2-0.6-0.3-0.9c-0.4-0.6-1.1-1-2.1-1.3c-1.2-0.4-3.1-0.7-5.6-1.1l0.2-1.3
			c5.2,0.8,8.4,1.1,9.8,0.9c1.4,0.1,2-0.9,1.9-2.9v-16.7h-6.9c-4.6,0-8.6,0.3-11.9,0.9l-2.3-2.7c3.9,0.2,6.9,0.3,9.1,0.3h12v-0.6
			c0-3.3-0.1-6.8-0.3-10.5c2.5,0.4,4.4,0.8,5.5,1.2c0.7,0.2,1,0.5,1,0.8c0,0.4-0.2,0.6-0.6,0.8c-0.8,0.3-1.5,0.6-2,0.8
			C76.3,165.3,76,167.6,76,172.2L76,172.2z M65.4,146.8c0,0.4,0,1.1,0.1,2.1c0.1,0.8,0.1,1.3,0.1,1.5c0,0.6-0.1,1-0.4,1.3
			c-0.6,0.5-1.3,0.8-2.2,1c-0.5,0-0.7-0.3-0.7-0.8c0-0.1,0-0.3,0-0.5c0.1-2.1,0.2-3.7,0.2-4.8v-1.7H52.3c-3.9,0-6.7,0.2-8.3,0.6
			l-1.9-2.5c3,0.2,5.5,0.3,7.7,0.3h12.8v-3.2c0-1.2-0.1-3.1-0.2-5.6c2,0.4,3.4,0.8,4.4,1.2c0.6,0.2,0.9,0.5,0.9,0.7
			c0,0.3-0.1,0.5-0.6,0.7l-1,0.5c-0.5,0-0.7,1.2-0.6,3.5v2.2h18v-2.7c0-1.2-0.1-3.1-0.2-5.6c2.2,0.4,3.7,0.7,4.6,1.1
			c0.6,0.2,0.9,0.5,1,0.8c0.1,0.2-0.1,0.5-0.6,0.7c-0.2,0.1-0.5,0.3-0.8,0.4c-0.1,0.1-0.2,0.1-0.3,0.1c-0.5,0-0.8,1.2-0.7,3.4v1.8
			H98c0,0,0.1-0.2,0.4-0.5c1.8-2.2,2.8-3.3,3-3.3c0.8,0.3,2.3,1.5,4.4,3.7c0.4,0.4,0.5,0.8,0.4,1.3c-0.1,0.2-0.6,0.3-1.4,0.3H86.3v1
			c0,0.4,0,1.2,0.1,2.5c0,1,0.1,1.6,0.1,1.8c0,0.6-0.1,1-0.3,1.3c-0.7,0.7-1.4,1-2.3,1c-0.4-0.1-0.6-0.4-0.6-0.8
			c0.1-1.6,0.1-3.4,0.1-5.4V145h-18L65.4,146.8L65.4,146.8z M73.6,147.2c-1.8,2.9-4.3,5.8-7.5,8.7c-5.7,5.3-13.7,10.9-24.2,16.9
			l0.6,0.8c10.1-4.6,18.3-9.6,24.6-14.8c1.5-1.3,3.4-2.9,5.5-4.9c1.3-1.2,2.2-2,2.7-2.4c2.4,3.3,5.2,6.4,8.4,9.1
			c2.9,2.5,6.4,4.8,10.5,6.8c3,1.4,5.3,2.2,6.8,2.2c0.5-0.1,0.8-0.3,1.1-0.8c0.4-0.5,0.8-0.8,1.4-1.1c0.8-0.3,1.9-0.6,3.5-0.7v-1
			c-6.8-0.4-12.7-2-17.8-4.8c-5.1-2.9-9.3-6.3-12.8-10.3c0.2-0.1,0.2-0.1,0.1-0.1c0.2,0,0.3-0.1,0.4-0.1c1.3,0,1.9-0.3,1.9-0.7
			c0.1-0.3-0.5-0.8-1.7-1.4C76.5,148.3,75.4,147.8,73.6,147.2L73.6,147.2z M95,191.1c2.1,3.3,3.6,4.6,4.4,3.9c1-0.5,1.3-1.7,1-3.6
			c-0.3-1.3-1.2-2.5-2.6-3.6c-2.2-1.6-6.9-4.5-14.3-8.6l-0.6,0.8C88.5,184.2,92.6,187.8,95,191.1L95,191.1z M59.7,178.7
			c-0.8,1.6-1.8,3.1-2.9,4.6c-3.5,4.6-7.7,9.1-12.5,13.3l0.6,0.8c3.7-2.6,7.7-6,12-10.1c0.6-0.6,1.4-1.4,2.2-2.3c1.9-2,3.2-3,3.7-3
			c1.3,0,1.9-0.1,1.9-0.3c0.2-0.5-0.4-1.1-2-1.8C61.9,179.4,60.9,179,59.7,178.7L59.7,178.7z M135.3,149.7v23.1c0,0.7,0,2.5,0.1,5.3
			c0.1,1.4,0.1,2.3,0.1,2.5c0,0.6-0.1,1-0.4,1.3c-0.5,0.5-1.2,0.7-2,0.6c-0.4,0-0.6-0.3-0.6-0.8c0-2.7,0-4.9,0.1-6.5H121v8.2
			c0,0.7-0.1,1.1-0.3,1.3c-0.6,0.4-1.3,0.6-2.1,0.6c-0.4-0.1-0.6-0.4-0.6-0.8c0-0.3,0-1.8,0.1-4.4c0.1-3.9,0.1-6.2,0.1-6.9v-24.8
			c0-1.3,0-3.3-0.1-6.2c1.8,1.2,3.1,2.1,4,2.7h9.2c1.5-1.6,2.4-2.5,2.6-2.5c0.8,0.4,2.1,1.4,3.7,2.9c0.6,0.6,0.6,1.1-0.1,1.5
			c-0.2,0.1-0.4,0.2-0.7,0.3s-0.6,0.2-0.7,0.3C135.5,147.6,135.3,148.3,135.3,149.7L135.3,149.7z M121,173.7h11.4v-0.3v-26.9h-10.8
			c-0.5,0.3-0.7,1.3-0.6,3L121,173.7L121,173.7z M159.2,178.4v-17.6h17.2c0.8,0,1.3-0.1,1.3-0.3c0.1-0.2,0-0.6-0.4-1.1
			c-2.3-2.1-4.1-3.5-5.3-4c-0.2,0-1.4,1.4-3.6,4.1H159v-8.4c0-0.2,0-0.6,0-1c0-7.4,0.3-11.3,0.8-11.7c0.1-0.1,0.5-0.2,1.4-0.6
			c0.4-0.2,0.7-0.3,0.9-0.4c0.4-0.2,0.6-0.4,0.6-0.7c-0.1-0.4-0.4-0.7-1-0.8c-1.2-0.4-3.3-0.8-6.3-1.3c0.3,5.2,0.5,9.8,0.5,13.8v11
			h-9.1c-2.2,0-5.2-0.1-9-0.4l2.3,2.7c3.3-0.6,7.2-0.9,11.8-0.9h4V179c0,3.1-0.1,8.3-0.2,15.7c0,1.9-0.1,3-0.1,3.2
			c0,0.5,0.2,0.8,0.6,0.8c0.9,0.1,1.8-0.2,2.6-0.9c0.4-0.2,0.5-0.7,0.5-1.4C159.4,193.2,159.3,187.1,159.2,178.4L159.2,178.4z
			 M193.9,151c-2.7,0.1-4.7,0.4-6,0.8l-2.2-2.3c2.6,0.1,4.8,0.2,6.5,0.1l13.7-0.2c1.5-1.5,2.5-2.3,2.7-2.3c1.1,0.4,2.4,1.3,3.9,2.7
			c0.5,0.6,0.4,1-0.1,1.3c-0.6,0.2-1.2,0.3-1.8,0.5c-0.4,0.1-0.8,0.5-1.2,1.1c-2.3,3.9-4.5,7.2-6.7,9.8v0.2c1.2,0.5,3.3,1.6,6.4,3.2
			c3.4,1.9,5.1,3.5,5.1,4.9c0.2,1.5-0.1,2.5-1.1,2.9c-1,0.3-1.9-0.4-2.8-2.1c-0.7-1.4-1.7-2.7-3.1-4.2c-1.4-1.3-2.9-2.5-4.6-3.7
			c0,1.2-0.1,2.6-0.1,4.3c0,0.8,0,1.7,0,2.7c0,0.8,0,2.3,0,4.2c0,1.4,0,4.5,0,9.4c0,5.7,0.1,9.4,0.1,11.2c0,0.7-0.2,1.3-0.5,1.5
			c-0.7,0.5-1.4,0.8-2.2,0.8c-0.5,0-0.8-0.3-0.7-0.8c0-0.5,0-1.5,0.1-3.2c0.2-8.7,0.3-15,0.3-18.7c0.1-3.1,0.1-6.2,0.1-9.3
			c-3.8,4.6-8.7,9-14.6,13.1l-0.6-0.8c6.2-5.5,11.1-10.6,14.5-15.3c3-4.2,5.6-8.3,7.5-12.2C199.5,150.8,195.2,150.9,193.9,151
			L193.9,151z M225.9,145.6v40.6c-0.3,4,1.6,5.9,5.8,5.6c1.8,0.1,4.6,0.1,8.4-0.1c3,0.1,4.6-1.2,4.7-3.9c0.3-2.1,0.6-5.6,1-10.5
			l1.3,0.1c-0.1,3.9-0.2,6.9-0.1,8.8c0,1.7,0.2,2.9,0.6,3.4c0.1,0.3,0.4,0.6,0.8,1c0.6,0.7,0.8,1.3,0.6,1.7c-0.2,1.3-2.4,2-6.8,2.1
			c-2.3,0.1-4.6,0.1-7,0.1c-2.2,0-3.8,0-4.9-0.1c-5.1,0-7.5-2.4-7.2-7.3V142c0-1.6,0-3.7-0.1-6.3c2.7,0.5,4.6,0.9,5.7,1.3
			c0.5,0.2,0.8,0.5,0.9,0.8c0.1,0.3-0.1,0.5-0.5,0.8c-0.2,0-0.5,0.2-0.9,0.3c-0.5,0.1-0.8,0.3-1.1,0.3
			C226.2,139.5,225.9,141.6,225.9,145.6L225.9,145.6z M196.5,134.7c2,1.2,3.9,2.5,5.8,3.7c2.3,1.5,3.3,3.1,3.2,4.7
			c-0.1,1.5-0.6,2.4-1.5,2.5c-0.8,0.1-1.5-0.5-1.8-1.7c-0.5-1.5-1.2-2.9-2.3-4.3c-1-1.4-2.3-2.9-3.9-4.4L196.5,134.7L196.5,134.7z
			 M2.7,237c1.7,0.2,2.7,1.1,2.9,2.8c-0.2,1.7-1.1,2.6-2.9,2.8c-1.6-0.1-2.5-1.1-2.7-2.8C0.1,238.1,1,237.1,2.7,237L2.7,237z
			 M57,270c0,7.3,0,12.8,0.1,16.3c0,0.6,0,1.1-0.3,1.5c-0.6,0.5-1.3,0.7-2.1,0.8c-0.5,0-0.7-0.3-0.8-0.8c0-0.7,0.2-6.4,0.4-17.2
			c0.1-4,0.1-8.3,0.1-12.8c-1.3,3.2-3,6.7-5,10.3c-2.3,4-4.7,7.5-7.2,10.4l-0.7-0.5c3-4.9,5.5-9.6,7.6-14.1c2.3-4.9,3.9-9.2,4.9-13
			h-3.8c-1.8,0.1-3.7,0.3-5.8,0.6l-2.1-2.3c2.6,0.2,5,0.4,7.2,0.4h4.9c0-3.7,0-6.3,0-7.9c0-1.8,0-3.3-0.1-4.4
			c-0.1-4.8-0.2-8.8-0.3-11.9c2.3,0.5,4,0.9,5,1.3c0.5,0.2,0.7,0.4,0.8,0.8c0,0.3-0.2,0.6-0.5,0.7c-0.1,0.1-0.4,0.2-0.7,0.4
			c-0.4,0.2-0.7,0.3-0.8,0.4c-0.4,0.1-0.7,0.5-0.8,1.2c-0.1,0.6-0.2,1.9-0.2,4.2c0,1.6-0.1,3.6-0.1,6c0,1.1,0,2.4,0,3.9
			c0,1.2,0,3,0,5.5h5.7c1.6-2.1,2.4-3.1,2.7-3.2c0.8,0.4,2.1,1.5,3.7,3.1c0.4,0.4,0.5,0.7,0.4,1.1c-0.2,0.2-0.6,0.3-1.3,0.3H57v4.9
			c0.2,0.1,0.5,0.3,1,0.6c2.3,1.5,3.8,2.6,4.6,3.2c2.6,1.9,3.8,3.5,3.5,4.9c0,1.3-0.5,2.1-1.3,2.3c-0.7,0-1.3-0.5-1.8-1.8
			c-0.4-1-1.4-2.5-2.9-4.5c-0.8-1-1.8-2.1-3.1-3.4L57,270L57,270z M104.8,261.7c0.7,0,1.2-0.1,1.4-0.4c0.2-0.2,0-0.6-0.4-1.1
			c-2.1-2.2-3.6-3.4-4.4-3.7c-0.4,0.3-1.5,1.5-3.2,3.7H74.5c-2.1,0-4.5-0.1-7.1-0.3l2,2.5c2.6-0.5,5.5-0.8,8.7-0.8h6.1v18.8
			c0.3,2.3-0.6,3.3-2.5,3c-0.8,0-1.8,0-2.9-0.1c-0.9-0.1-2.6-0.3-5.1-0.6l-0.3,1.4c2.6,0.4,4.5,0.7,5.6,1c0.8,0.2,1.5,0.7,1.8,1.5
			c0.1,0.2,0.3,0.5,0.3,0.8c0.1,0.3,0.3,0.5,0.5,0.6c0.5,0.3,1.2,0.2,2.3-0.4c2.1-0.9,3-2.4,3-4.6c0-2.4-0.1-9-0.1-20.1
			c0-0.7,0.1-1.1,0.4-1.4h17.6V261.7z M74.6,233l-1-0.1c-0.2,1.6-0.7,3.1-1.3,4.2c-0.7,1.4-1.7,2.6-3.1,3.6c-1,0.8-1.3,1.6-0.9,2.5
			c0.5,0.7,1.3,0.8,2.6,0.3c1.6-0.8,2.7-2.5,3.2-5.1c0.1-0.3,0.1-0.6,0.1-0.9h24.7c-0.8,1.5-1.8,3.3-3.1,5.4l0.8,0.6
			c0.1-0.1,0.4-0.3,0.7-0.6c1.1-1,1.9-1.8,2.5-2.2c1.4-1.4,3.1-2,5.1-1.8c0.6,0,1-0.2,1.1-0.6c0.1-0.4-0.1-0.9-0.6-1.5
			c-1.6-1.5-3-2.5-4.2-3c-0.3,0-1.3,0.8-3,2.3H74.4C74.6,235,74.6,234,74.6,233L74.6,233z M74.7,267c-0.7,1.7-1.7,3.6-3,5.6
			c-2.4,3.9-5.4,7.9-8.9,11.9l0.7,0.7c3.6-3.2,6.5-6.3,8.9-9.2c3.1-4.2,5-6,5.6-5.3c1.1,0,1.6-0.1,1.7-0.6c0.2-0.4-0.4-1-1.7-1.6
			C76.9,267.9,75.8,267.4,74.7,267L74.7,267z M98.2,249.9H82.6c-3.3,0-6.1,0.2-8.4,0.7l-2-2.4c2.5,0.2,4.8,0.3,6.8,0.3h12.7
			c1.6-2,2.7-3.1,3.1-3.4c0.9,0.3,2.3,1.4,4.2,3.3c0.5,0.4,0.6,0.8,0.4,1.1C99.3,249.8,98.9,249.9,98.2,249.9L98.2,249.9z
			 M100.3,279.3c-1.3-2.7-4.3-6.3-9-10.8l0.6-0.6c5.9,4.1,9.7,7.1,11.3,8.9c0.9,1,1.4,2.2,1.4,3.5c0,1.4-0.5,2.1-1.4,2.1
			C102.5,282.8,101.5,281.7,100.3,279.3L100.3,279.3z M64.5,231.6c-0.4,1.4-0.8,2.7-1.2,4.1c-1,2.8-2.6,6.2-4.6,10.3l0.8,0.5
			c2.1-3,3.7-5.6,4.9-7.8c1.5-2.8,2.6-4.1,3.4-3.9c0.7-0.1,1.1-0.3,1.2-0.7s-0.4-0.8-1.5-1.3C66.4,232.2,65.4,231.8,64.5,231.6
			L64.5,231.6z M48.6,236.7c-1.3-1.7-2.7-3.4-4.3-4.8l-0.7,0.6c1.1,1.5,2,3.1,2.7,4.7c1,1.9,1.6,3.8,1.9,5.8
			c0.3,1.6,0.8,2.5,1.7,2.6c0.9-0.2,1.4-1,1.5-2.5C51.5,241.2,50.5,239.1,48.6,236.7L48.6,236.7z M81.2,224.7c1.4,0.9,2.9,1.9,4.4,3
			c2.3,1.5,3.3,3.1,2.9,4.6c-0.2,1.4-0.7,2.1-1.5,2.1s-1.4-0.6-1.7-1.6c-0.3-1.3-0.8-2.6-1.6-3.7c-0.7-1-1.7-2.2-3.2-3.7L81.2,224.7
			L81.2,224.7z M175.4,256.7h-28.1c0,1.3,0,3.7,0,7.1c0,2.6,0,4.8,0,6.5s0,4.1,0.1,7.1c0.1,2.2,0.1,3.7,0.1,4.5
			c0.1,2.6-1.1,4.4-3.8,5.3c-1.3,0.6-2.2,0.7-2.7,0.3c-0.2-0.2-0.4-0.5-0.4-0.8s-0.2-0.6-0.3-0.9c-0.5-0.6-1.2-1-2.1-1.4
			c-1.2-0.4-3.6-0.9-7-1.3l0.2-1.5c4.1,0.7,7.8,1.1,10.9,1.1c1.4,0,2.1-1,2.2-2.9c0-1.8,0.1-3.4,0.1-5c0-0.8,0-1.6,0-2.4
			c0-0.7,0-1.8,0-3.3c0-3.8,0-6.4,0-7.9c0-1.8,0-3.3-0.1-4.5H129c-4.7,0-8.9,0.3-12.6,1l-2.7-2.9c3.9,0.3,7.1,0.4,9.6,0.4h21.1v-3
			c0-1.4-0.1-4-0.2-7.8c1.3,0.3,2.4,0.6,3.3,0.8c5.6-4.4,10.7-8.5,15.3-12.5h-28.9c-3.7,0.1-6.9,0.4-9.6,0.9l-2.8-2.6
			c4.8,0.2,8,0.3,9.6,0.3h31.3c2.5-1.5,3.9-2.2,4.2-2.3c0.8,0.1,2.3,1.2,4.4,3.4c0.4,0.5,0.6,0.9,0.4,1.2c-0.2,0.3-0.6,0.5-1.3,0.5
			c-0.1,0-0.3,0-0.6,0c-1.2,0-2.2,0.1-3,0.4c-1.4,0.5-3.7,1.9-6.9,4.1c-1.4,1-4.2,2.8-8.3,5.5c-1.1,0.8-1.9,1.3-2.4,1.6
			c0.6,0.3,0.9,0.5,0.9,0.8c0.1,0.3-0.4,0.7-1.8,1c-0.3,0.1-0.5,0.5-0.6,1.3c-0.1,0.7-0.1,2.2-0.1,4.6c0,0.2,0,0.5,0,0.9
			s-0.1,0.7-0.1,1h20.5c2.1-2.9,3.4-4.4,3.6-4.4c1,0.4,2.7,1.9,5.1,4.4c0.4,0.6,0.5,1,0.3,1.3C176.6,256.6,176.2,256.7,175.4,256.7
			L175.4,256.7z M247.6,283.3h-48.3c-4.4,0.1-8.4,0.4-12.2,0.9l-2.3-2.6c2.9,0.2,5.4,0.4,7.5,0.4h3.9v-11.5c0-1.2,0-3.2-0.1-6
			c1.7,1.1,3,2.1,3.9,2.8h33.9c1.3-1.5,2-2.3,2.2-2.3c1.1,0.4,2.3,1.3,3.6,2.5c0.7,0.6,0.6,1-0.1,1.4c-0.1,0.1-0.2,0.1-0.4,0.1
			c-0.5,0.2-0.8,0.4-1,0.5c-0.4,0.2-0.6,1.1-0.6,2.8v9.6h3.4c1.8-2.5,2.9-3.8,3.2-3.8c0.5,0.1,1.9,1.3,4.3,3.7
			c0.4,0.5,0.5,0.9,0.3,1.1C248.9,283.2,248.5,283.3,247.6,283.3L247.6,283.3z M231.7,254.3v2.6c0,0.6,0,1.5,0.1,2.6
			c0,0.6,0.1,0.9,0.1,1.1c0,0.7-0.1,1.1-0.4,1.3c-0.4,0.4-1,0.7-1.8,0.7c-0.4,0-0.6-0.3-0.6-0.8V260h-24.3v1.1c0,0.6-0.1,1-0.4,1.2
			c-0.6,0.4-1.2,0.5-1.9,0.5c-0.4-0.1-0.6-0.3-0.6-0.8c0-0.3,0-1,0.1-2.1c0.1-1.6,0.1-2.8,0.1-3.4v-3.9c0-1.1,0-2.7-0.1-4.8
			c1.5,0.9,2.7,1.6,3.5,2.3H228c1.2-1.4,1.9-2.1,2.1-2.1c1.1,0.4,2.3,1.2,3.4,2.4c0.6,0.6,0.6,1-0.1,1.3c-0.1,0-0.3,0.1-0.6,0.3
			c-0.4,0.1-0.6,0.3-0.7,0.3C231.8,252.6,231.7,253.3,231.7,254.3L231.7,254.3z M217.3,224.5c-2.5,3.3-5.1,6.3-7.9,9
			c-7,6.6-14.6,12.1-22.7,16.5l0.6,0.7c8-3.3,15.6-8,22.9-14.1c2.4-2.1,4.7-4.2,6.8-6.5c0.7-0.7,1.1-1.1,1.3-1.3
			c2.6,3.8,5.3,7,8.2,9.6c3.4,3.1,6.8,5.5,10.3,7.1c3.1,1.7,5.3,2.6,6.5,2.6c0.4,0,0.8-0.2,1.1-0.6c0.4-0.5,1-0.8,1.8-1
			s2-0.2,3.6-0.1l0.1-0.9c-6.2-0.8-12.1-2.8-17.7-5.9c-5.4-3.1-9.7-6.9-12.9-11.5c0.5-0.2,0.9-0.3,1.3-0.3c1.4,0,2.1-0.2,2.2-0.7
			c0.1-0.4-0.5-0.8-1.8-1.3C220,225.3,218.8,224.9,217.3,224.5L217.3,224.5z M204.8,253.1v5.6h24.3v-3v-4.3h-23.6
			C204.9,251.7,204.7,252.3,204.8,253.1L204.8,253.1z M211.9,268.8V282h10.5v-13.2H211.9L211.9,268.8z M199,270.6V282h10.1v-13.2
			h-9.6C199.1,268.9,199,269.5,199,270.6L199,270.6z M235,268.8h-9.9V282h9.9V268.8L235,268.8z M228.7,244.4h-16.2
			c-3.2,0-5.5,0.2-6.8,0.6l-2-2.1c2.1,0.2,4.4,0.3,6.6,0.3h12.9c1.6-2,2.4-3,2.7-3c1,0.4,2.2,1.4,3.8,3c0.4,0.5,0.6,0.8,0.4,1
			C229.9,244.3,229.4,244.4,228.7,244.4L228.7,244.4z M2.7,326.9c1.7,0.2,2.7,1.1,2.9,2.8c-0.2,1.7-1.1,2.6-2.9,2.8
			c-1.6-0.1-2.5-1.1-2.7-2.8C0.1,328,1,327.1,2.7,326.9L2.7,326.9z M90.1,369.9v-17.5H61.7c-0.3,5.5-1.3,9.8-3,12.9
			c-2.3,4.6-7.4,9.2-15.5,13.5l-0.6-1c6.3-4.5,10.6-8.7,12.9-12.7c1.3-2.2,2.1-4.8,2.5-7.9c0.5-2.6,0.8-7.2,0.8-13.7
			c0.1-4.8,0.1-11.9,0.1-21.3c0-1.5-0.1-3.3-0.2-5.3c1.8,1.3,3.3,2.5,4.5,3.4h25.5c1.6-1.9,2.6-2.9,2.8-2.9c1.1,0.5,2.5,1.5,4.4,3.2
			c0.6,0.6,0.5,1.1-0.2,1.4c-0.3,0.1-0.7,0.3-1.2,0.6c-0.3,0.1-0.5,0.2-0.6,0.3c-0.5,0.3-0.7,1.2-0.7,2.6v39c0,1.8,0,4.3,0.1,7.4
			c0-0.1,0,0,0,0.5c0,1.7-0.5,2.9-1.6,3.6c-0.8,0.6-1.8,1.1-3.1,1.5c-1,0.3-1.7,0.2-2.2-0.3c-0.1-0.1-0.2-0.3-0.3-0.6
			c-0.1-0.3-0.2-0.5-0.2-0.6c-0.4-0.8-1.2-1.4-2.4-1.7c-1.3-0.3-3.5-0.7-6.5-1.1l0.2-1.4c5.7,0.7,9.4,0.9,11,0.8
			C89.6,372.5,90.2,371.7,90.1,369.9L90.1,369.9z M61.8,347.4c0,0.4,0,1-0.1,1.8c0,0.8,0,1.3,0,1.7H90V337H61.9c0,1.1,0,1.5,0,1.1
			C61.9,343.1,61.8,346.2,61.8,347.4L61.8,347.4z M90.1,321.7h-27c-0.7,0.3-1,0.9-1.1,1.8c0,0.9,0,4.5-0.1,10.8c0-0.4,0,0,0,1.3H90
			L90.1,321.7L90.1,321.7z"/>
		<path class="st0" d="M176.5,349.5h-11.4v8.2c0,1.7,0.1,5.3,0.1,11c0,4.2,0.1,6.7,0.1,7.7c0,0.7-0.2,1.1-0.5,1.5
			c-0.6,0.5-1.2,0.8-2,0.8c-0.7,0-1-0.3-0.9-0.8c0.2-8.9,0.3-15.5,0.3-19.9v-8.4h-11.8v0.4c0.3,13.1-5.2,22.7-16.7,28.7L133,378
			c10-7.4,14.8-16.8,14.3-28.4H145c-4.6-0.1-7.7,0.2-9.2,0.9l-2.5-2.7c2.9,0.2,5.4,0.3,7.5,0.3h6.5c0-0.3,0-0.8,0-1.5
			s0.1-1.2,0.1-1.6c0.1-1.6,0.1-3.6,0.1-6c0-1.1,0-2.4,0-3.8c0-1.3,0-3,0-5.2c-2.1,0.1-3.9,0.4-5.4,0.8l-2.5-2.7
			c2.9,0.3,5.4,0.4,7.6,0.4h10.6c1.6-2.7,3.2-5.5,4.7-8.5c0.8-1.5,1.5-3.2,2.3-5.3c1.5,0.5,2.6,0.9,3.5,1.4c1.3,0.7,2,1.2,2,1.8
			c-0.1,0.4-0.8,0.6-1.8,0.6c-0.3-0.5-1.9,1-4.6,4.6c-1.8,2.2-3.4,4-4.8,5.5h10.3c1.7-2.2,2.7-3.3,3-3.4c0.8,0.2,2.1,1.3,3.9,3.3
			c0.4,0.5,0.5,0.9,0.3,1.1c-0.1,0.2-0.6,0.4-1.3,0.4H166c-0.6,0.7-0.8,1.5-0.8,2.3v15.8h5.1c0.1-0.1,0.2-0.3,0.5-0.6
			c1.7-2,2.7-3,2.9-3c0.7,0.1,2,1.3,3.9,3.5c0.4,0.5,0.6,0.9,0.4,1.1C177.8,349.4,177.3,349.5,176.5,349.5L176.5,349.5z
			 M150.7,331.9c0,2.5,0,6.6-0.1,12.3c-0.1,1.8-0.1,3.2-0.1,3.9h11.7V330h-10.9C150.9,330.6,150.7,331.3,150.7,331.9L150.7,331.9z
			 M122.6,369.2c-0.2,0.3-0.5,0.6-0.9,1c-0.3,0.3-0.5,0.5-0.5,0.6c0.3,0.6,1.1,1.6,2.4,2.9c0.4,0.4,0.8,0.5,1.1,0.3
			c0.2,0,0.4-0.4,0.7-1.1c0.1-0.2,0.2-0.4,0.3-0.6c0.6-0.9,1.5-1.9,2.7-2.9c1.2-1.1,4.6-4.2,10.3-9.2l-0.6-1
			c-0.3,0.2-1.2,0.8-2.6,1.8c-3.7,2.7-6.8,4.9-9.1,6.5v-19.8c0-2.5,0-4.1,0.1-4.9s0.2-1.3,0.4-1.4c0,0,0.2-0.1,0.6-0.2
			c0.5-0.2,0.8-0.3,1-0.3c0.4-0.2,0.5-0.4,0.5-0.7c0-0.2-0.3-0.5-0.8-0.7c-0.8-0.3-2.3-0.7-4.6-1c0.1,2.2,0.1,3.8,0.1,4.9v21.2
			C123.7,367,123.4,368.5,122.6,369.2L122.6,369.2z M124.4,315.1c-0.1,1.5-0.6,3.6-1.3,6.5c-2.6,9.3-6,18.3-10.2,27.1l0.8,0.4
			c3.5-5.2,6.8-11.8,9.9-19.7h9.8c-2,4.8-3.2,7.4-3.4,7.9l0.8,0.4c0.2-0.4,0.6-1,1.2-1.8c0.8-1.1,1.3-1.9,1.7-2.5
			c0.8-1.2,1.8-2.1,2.7-2.7c0.6-0.4,1.2-0.6,1.8-0.6c0.9-0.1,1.2-0.6,0.7-1.4c-1.4-1.5-2.5-2.4-3.4-2.7c-0.2,0-1.1,0.8-2.6,2.1H124
			c0.1-0.3,0.3-0.8,0.6-1.6c0.1-0.5,0.3-0.8,0.4-1.1c1.7-5,3-7.3,3.7-6.9c1-0.1,1.6-0.4,1.7-0.8c0-0.5-0.6-0.9-1.8-1.4
			C127.3,315.8,125.8,315.5,124.4,315.1L124.4,315.1z M143.6,315.2l-0.6,0.6c1.6,1.8,2.9,3.4,3.9,4.8c1,1.6,1.8,3.2,2.3,4.8
			c0.4,1.3,1.1,1.8,2,1.5c0.9-0.4,1.4-1.4,1.3-2.9c0.2-1.2-0.8-2.6-3.1-4.3C147.8,318.1,145.8,316.7,143.6,315.2L143.6,315.2z
			 M247.6,373.3h-48.3c-4.4,0.1-8.4,0.4-12.2,0.9l-2.3-2.6c2.9,0.2,5.4,0.4,7.5,0.4h3.9v-11.5c0-1.2,0-3.2-0.1-6
			c1.7,1.1,3,2.1,3.9,2.8h33.9c1.3-1.5,2-2.3,2.2-2.3c1.1,0.4,2.3,1.3,3.6,2.5c0.7,0.6,0.6,1-0.1,1.4c-0.1,0.1-0.2,0.1-0.4,0.1
			c-0.5,0.2-0.8,0.4-1,0.5c-0.4,0.2-0.6,1.1-0.6,2.8v9.6h3.4c1.8-2.5,2.9-3.8,3.2-3.8c0.5,0.1,1.9,1.3,4.3,3.7
			c0.4,0.5,0.5,0.9,0.3,1.1C248.9,373.2,248.5,373.3,247.6,373.3L247.6,373.3z M231.7,344.3v2.6c0,0.6,0,1.5,0.1,2.6
			c0,0.6,0.1,0.9,0.1,1.1c0,0.7-0.1,1.1-0.4,1.3c-0.4,0.4-1,0.7-1.8,0.7c-0.4,0-0.6-0.3-0.6-0.8V350h-24.3v1.1c0,0.6-0.1,1-0.4,1.2
			c-0.6,0.4-1.2,0.5-1.9,0.5c-0.4-0.1-0.6-0.3-0.6-0.8c0-0.3,0-1,0.1-2.1c0.1-1.6,0.1-2.8,0.1-3.4v-3.9c0-1.1,0-2.7-0.1-4.8
			c1.5,0.9,2.7,1.6,3.5,2.3H228c1.2-1.4,1.9-2.1,2.1-2.1c1.1,0.4,2.3,1.2,3.4,2.4c0.6,0.6,0.6,1-0.1,1.3c-0.1,0-0.3,0.1-0.6,0.3
			c-0.4,0.1-0.6,0.3-0.7,0.3C231.8,342.6,231.7,343.2,231.7,344.3L231.7,344.3z M217.3,314.4c-2.5,3.3-5.1,6.3-7.9,9
			c-7,6.6-14.6,12.1-22.7,16.5l0.6,0.7c8-3.3,15.6-8,22.9-14.1c2.4-2.1,4.7-4.2,6.8-6.5c0.7-0.7,1.1-1.1,1.3-1.3
			c2.6,3.8,5.3,7,8.2,9.6c3.4,3.1,6.8,5.5,10.3,7.1c3.1,1.7,5.3,2.6,6.5,2.6c0.4,0,0.8-0.2,1.1-0.6c0.4-0.5,1-0.8,1.8-1
			s2-0.2,3.6-0.1l0.1-0.9c-6.2-0.8-12.1-2.8-17.7-5.9c-5.4-3.1-9.7-6.9-12.9-11.5c0.5-0.2,0.9-0.3,1.3-0.3c1.4,0,2.1-0.2,2.2-0.7
			c0.1-0.4-0.5-0.8-1.8-1.3C220,315.3,218.8,314.9,217.3,314.4L217.3,314.4z M204.8,343.1v5.6h24.3v-3v-4.3h-23.6
			C204.9,341.7,204.7,342.2,204.8,343.1L204.8,343.1z M211.9,358.7v13.2h10.5v-13.2H211.9L211.9,358.7z M199,360.5v11.4h10.1v-13.2
			h-9.6C199.1,358.9,199,359.5,199,360.5L199,360.5z M235,358.7h-9.9v13.2h9.9V358.7L235,358.7z M228.7,334.3h-16.2
			c-3.2,0-5.5,0.2-6.8,0.6l-2-2.1c2.1,0.2,4.4,0.3,6.6,0.3h12.9c1.6-2,2.4-3,2.7-3c1,0.4,2.2,1.4,3.8,3c0.4,0.5,0.6,0.8,0.4,1
			C229.9,334.2,229.4,334.3,228.7,334.3L228.7,334.3z M2.7,416.9c1.7,0.2,2.7,1.1,2.9,2.8c-0.2,1.7-1.1,2.6-2.9,2.8
			c-1.6-0.1-2.5-1.1-2.7-2.8C0.1,418,1,417,2.7,416.9L2.7,416.9z M71.8,457.5c0,0.6,0,2.5,0.1,5.8c0,1.8,0,2.8,0,3
			c0,0.6-0.1,1-0.3,1.3c-0.6,0.6-1.3,0.8-2.1,0.8c-0.4,0-0.6-0.3-0.6-0.8c0.2-4.2,0.3-7.5,0.3-9.8v-17.5c0-1.2,0-3.2-0.1-5.9
			c1.6,0.9,2.8,1.7,3.6,2.3h21.1c1.3-1.5,2.1-2.2,2.3-2.3c1.1,0.4,2.3,1.2,3.7,2.5c0.6,0.7,0.5,1.2-0.1,1.5c-0.5,0.2-1,0.5-1.3,0.8
			c-0.4,0.3-0.6,1.1-0.6,2.5v14.1c0,1.6,0,3.6,0.1,6c0,0.6,0.1,1,0.1,1.3c0.1,2-0.4,3.3-1.6,3.9c-0.6,0.4-1.5,0.8-2.7,1.2
			c-0.8,0.3-1.4,0.3-1.7-0.1c-0.1-0.1-0.2-0.3-0.3-0.6c-0.1-0.4-0.3-0.7-0.6-1c-0.4-0.5-1.2-0.8-2.4-1.1c-1.2-0.3-2.6-0.5-4.1-0.6
			l0.1-1.2c3.2,0.4,5.9,0.6,8.2,0.6c1.6,0.1,2.4-0.8,2.2-2.8v-7.2h-23v3.3H71.8z M99.6,423.2H84.7v6.6h14.1c1.8-2.3,2.9-3.5,3.2-3.5
			c0.9,0.3,2.4,1.4,4.2,3.3c0.4,0.5,0.5,0.9,0.4,1.2c-0.1,0.2-0.6,0.3-1.4,0.3H72.7c-3.3,0-6.4,0.3-9.2,1l-3-2.6
			c3.1,0.2,5.7,0.3,7.8,0.3h13.6v-6.6h-4c-4,0-7.2,0.3-9.4,0.8l-2.8-2.5c3.1,0.2,5.7,0.4,7.8,0.4h8.4v-6.4h-7.2
			c-4.1,0-7.3,0.3-9.6,1l-2.6-2.6c3.1,0.2,5.6,0.3,7.8,0.3h11.6v-4.5c0-1.1-0.1-2.7-0.2-4.9c2.4,0.4,4.1,0.7,5,1.1
			c0.5,0.2,0.8,0.4,0.8,0.6c0.1,0.3-0.1,0.5-0.5,0.8c-0.1,0-0.3,0.1-0.5,0.2c-0.6,0.2-1,0.4-1.1,0.5c-0.5,0-0.8,1.9-0.7,5.6v0.6h12
			c1.8-2.3,2.8-3.4,3-3.5c1.1,0.5,2.6,1.6,4.3,3.3c0.4,0.4,0.5,0.8,0.4,1.1c-0.1,0.2-0.6,0.3-1.4,0.3H84.7v6.4h9.2
			c1.6-2.1,2.5-3.1,2.8-3.2c1,0.4,2.3,1.4,3.8,3c0.4,0.4,0.5,0.8,0.4,1.2C100.8,423.1,100.3,423.2,99.6,423.2L99.6,423.2z
			 M60.5,420.8c-3-1.3-4.7-2-5.2-2.3c0-2.6,0-4.2,0.1-4.8c0.1-2.8,0.2-4.4,0.3-4.6c0-0.6,0.2-0.9,0.6-1.1c0.4-0.1,0.8-0.3,1.3-0.6
			c0.4-0.1,0.6-0.4,0.6-0.7c0-0.2-0.3-0.5-0.8-0.8c-1-0.4-2.7-0.8-5-1.3c0.2,3.3,0.3,7.4,0.3,12.2c0,3.1,0,11.2-0.1,24.2
			c0,8.2-0.2,17-0.6,26.4c0,0.6,0.3,0.9,0.8,1c0.8,0,1.5-0.2,2.3-0.8c0.3-0.3,0.4-0.8,0.4-1.4s0-2.7,0-6.1c0-8.2-0.1-14-0.1-17.4
			c0-1.2,0-3.5-0.1-7.1c0-7.7,0-13.2,0-16.3c0.3,0.2,0.4,0.3,0.3,0.2c1.3,1,2.2,1.8,2.8,2.3c1.4,1.2,2.4,2.4,3.2,3.6
			c0.6,0.9,1.2,1.3,1.8,1.3c0.8-0.2,1.2-0.8,1.2-2C64.5,423.2,63.1,421.9,60.5,420.8L60.5,420.8z M94.8,452.9V446h-23v6.8h23V452.9z
			 M94.8,437.9H72.6c-0.6,0.2-0.8,0.8-0.8,1.7v5.1h23L94.8,437.9L94.8,437.9z M46.9,418.5l1.1,0.1c0.2,3.1,0.2,6.1,0.1,8.8
			c0,3.1-0.5,5.3-1.5,6.9c-1.2,1.9-2.5,2.5-3.8,1.8c-0.8-0.7-0.8-1.8,0.3-3.2c1.6-2,2.5-4.1,3-6.3C46.4,425.2,46.7,422.5,46.9,418.5
			L46.9,418.5z M144.8,421.4c-0.7,5.9-2,11.3-3.7,16.2c-4.5,13.4-13.6,23.8-27.4,31.2l-0.6-0.8c12.5-8.9,20.5-18.4,24-28.5
			c2-5.2,3.5-12.1,4.7-20.7c0.6-4.1,0.9-7.7,1-10.6c0-0.5,0-1.1,0-1.9c0-0.3,0-0.6,0-0.8c2,0.3,3.7,0.7,5.1,1.1
			c1.5,0.4,2.2,0.9,2,1.3c0.1,0.2-0.3,0.5-1.3,0.9c-0.1,0-0.3,0.1-0.6,0.3c-0.6,0.2-1,0.4-1.3,0.6c0.9,16,4.9,29.2,12,39.5
			c5.1,6.8,11.7,11.4,19.9,14l-0.2,1.1c-1.6-0.1-3.1,0-4.4,0.3c-0.4,0.1-0.8,0.4-1.3,0.8c-0.3,0.3-0.5,0.5-0.8,0.6
			c-0.6,0.1-1.8-0.5-3.6-1.8c-4.7-3.5-8.9-8-12.5-13.6c-6.5-9.9-9.8-23-10-39.4c0-0.2-0.1-0.2-0.1,0
			C145.8,413.3,145.4,416.8,144.8,421.4L144.8,421.4z M205.1,429.6c-5.4,0-9.6,0.4-12.6,1l-2.7-2.9c3.3,0.3,6.6,0.4,9.7,0.4h34.3
			c1.4-1.6,2.3-2.4,2.6-2.5c0.5,0,1.7,0.9,3.7,2.7c0.7,0.7,0.7,1.2,0,1.6c-0.1,0-0.2,0.1-0.4,0.2c-0.6,0.3-1,0.5-1.2,0.6
			c-0.3,0.2-0.5,1.1-0.6,2.6c-0.1,4.3-0.2,8.6-0.3,12.9c0,0.6-0.1,1-0.1,1.2c0,4-1.6,6.6-4.9,7.8c-1.7,0.7-2.7,0.8-3.2,0.3
			c-0.1-0.1-0.3-0.4-0.3-0.7c-0.1-0.2-0.1-0.4-0.2-0.6c-0.2-0.5-1-1-2.4-1.5c-1.4-0.4-3.1-0.8-5.2-1.1l0.2-1.1c4.5,0.7,7.4,1,8.8,1
			c2.9,0.3,4.4-1.6,4.5-5.6c0.2-3.7,0.3-9.1,0.3-16.5h-20.2c-0.5,0.5-0.8,1.4-0.8,2.8v21.3c0,1.3,0,4,0.1,8.2c0,2.6,0.1,4.2,0.1,4.6
			c0,0.7-0.1,1.1-0.4,1.3c-0.6,0.6-1.3,0.9-2.3,0.9c-0.5,0-0.8-0.3-0.7-0.8c0-0.3,0-1.4,0.1-3.5c0.1-5.2,0.2-8.7,0.2-10.3v-24.6
			h-6.1V429.6z M208.5,417.8c0,0.4,0,1.2,0.1,2.5c0,0.9,0.1,1.5,0.1,1.7c0,0.6-0.1,1-0.4,1.3c-0.5,0.5-1.2,0.8-2.1,1
			c-0.5,0-0.7-0.3-0.7-0.8c0.1-2.5,0.2-4.5,0.2-5.8v-2.3H195c-3.9,0-6.7,0.3-8.3,0.6l-1.9-2.5c2.5,0.2,5.1,0.3,7.7,0.3h13.2V410
			c0-1.2-0.1-3-0.2-5.6c1.9,0.4,3.4,0.8,4.3,1.2c0.6,0.2,0.9,0.5,0.9,0.7c0,0.3-0.1,0.5-0.6,0.7l-1,0.5c-0.5,0-0.7,1.2-0.6,3.5v2.7
			h16v-3.5c0-1.2-0.1-3.1-0.2-5.6c2.1,0.4,3.6,0.7,4.5,1.1c0.6,0.2,0.9,0.5,1,0.8c0.1,0.2-0.1,0.5-0.6,0.7c-0.2,0.1-0.5,0.3-0.8,0.4
			c-0.1,0.1-0.2,0.1-0.3,0.1c-0.5,0-0.8,1.2-0.7,3.4v2.5h13.3c0,0,0.2-0.2,0.6-0.7c1.6-2,2.5-3,2.7-3c0.8,0.2,2.3,1.5,4.4,3.7
			c0.4,0.5,0.6,0.9,0.4,1.2c-0.1,0.2-0.6,0.4-1.4,0.4h-20v2.5c0,0.4,0,1.1,0.1,2.3c0,0.8,0.1,1.3,0.1,1.5c0,0.6-0.1,1-0.4,1.3
			c-0.6,0.7-1.3,1-2.1,1c-0.4-0.1-0.6-0.4-0.6-0.8c0.1-1.5,0.1-3.2,0.1-5v-2.7h-16L208.5,417.8L208.5,417.8z M265.3,420.8
			c-2.7,0.1-4.7,0.4-6,0.8l-2.2-2.3c2.6,0.1,4.8,0.2,6.5,0.1l13.7-0.2c1.5-1.5,2.5-2.3,2.7-2.3c1.1,0.4,2.4,1.3,3.9,2.7
			c0.5,0.6,0.4,1-0.1,1.3c-0.6,0.2-1.2,0.3-1.8,0.5c-0.4,0.1-0.8,0.5-1.2,1.1c-2.3,3.9-4.5,7.2-6.7,9.8v0.2c1.2,0.5,3.3,1.6,6.4,3.2
			c3.4,1.9,5.1,3.5,5.1,4.9c0.2,1.5-0.1,2.5-1.1,2.9c-1,0.3-1.9-0.4-2.8-2.1c-0.7-1.4-1.7-2.7-3.1-4.2c-1.4-1.3-2.9-2.5-4.6-3.7
			c0,1.2-0.1,2.6-0.1,4.3c0,0.8,0,1.7,0,2.7c0,0.8,0,2.3,0,4.2c0,1.4,0,4.5,0,9.4c0,5.7,0.1,9.4,0.1,11.2c0,0.7-0.2,1.3-0.5,1.5
			c-0.7,0.5-1.4,0.8-2.2,0.8c-0.5,0-0.8-0.3-0.7-0.8c0-0.5,0-1.5,0.1-3.2c0.2-8.7,0.3-15,0.3-18.7c0.1-3.1,0.1-6.2,0.1-9.3
			c-3.8,4.6-8.7,9-14.6,13.1l-0.6-0.8c6.2-5.5,11.1-10.6,14.5-15.3c3-4.2,5.6-8.3,7.5-12.2C270.9,420.6,266.6,420.7,265.3,420.8
			L265.3,420.8z M297.3,415.5v40.6c-0.3,4,1.6,5.9,5.8,5.6c1.8,0.1,4.6,0.1,8.4-0.1c3,0.1,4.6-1.2,4.7-3.9c0.3-2.1,0.6-5.6,1-10.5
			l1.3,0.1c-0.1,3.9-0.2,6.9-0.1,8.8c0,1.7,0.2,2.9,0.6,3.4c0.1,0.3,0.4,0.6,0.8,1c0.6,0.7,0.8,1.3,0.6,1.7c-0.2,1.3-2.4,2-6.8,2.1
			c-2.3,0.1-4.6,0.1-7,0.1c-2.2,0-3.8,0-4.9-0.1c-5.1,0-7.5-2.4-7.2-7.3v-45.1c0-1.6,0-3.7-0.1-6.3c2.7,0.5,4.6,0.9,5.7,1.3
			c0.5,0.2,0.8,0.5,0.9,0.8s-0.1,0.5-0.5,0.8c-0.2,0-0.5,0.2-0.9,0.3c-0.5,0.1-0.8,0.3-1.1,0.3C297.6,409.3,297.3,411.4,297.3,415.5
			L297.3,415.5z M267.9,404.6c2,1.2,3.9,2.5,5.8,3.7c2.3,1.5,3.3,3.1,3.2,4.7c-0.1,1.5-0.6,2.4-1.5,2.5c-0.8,0.1-1.5-0.5-1.8-1.7
			c-0.5-1.5-1.2-2.9-2.3-4.3c-1-1.4-2.3-2.9-3.9-4.4L267.9,404.6L267.9,404.6z M390.4,463.2h-48.3c-4.4,0.1-8.4,0.4-12.2,0.9
			l-2.3-2.6c2.9,0.2,5.4,0.4,7.5,0.4h3.9v-11.5c0-1.2,0-3.2-0.1-6c1.7,1.1,3,2.1,3.9,2.8h33.9c1.3-1.5,2-2.3,2.2-2.3
			c1.1,0.4,2.3,1.3,3.6,2.5c0.7,0.6,0.6,1-0.1,1.4c-0.1,0.1-0.2,0.1-0.4,0.1c-0.5,0.2-0.8,0.4-1,0.5c-0.4,0.2-0.6,1.1-0.6,2.8v9.6
			h3.4c1.8-2.5,2.9-3.8,3.2-3.8c0.5,0.1,1.9,1.3,4.3,3.7c0.4,0.5,0.5,0.9,0.3,1.1C391.7,463.1,391.3,463.2,390.4,463.2L390.4,463.2z
			 M374.5,434.2v2.6c0,0.6,0,1.5,0.1,2.6c0,0.6,0.1,0.9,0.1,1.1c0,0.7-0.1,1.1-0.4,1.3c-0.4,0.4-1,0.7-1.8,0.7
			c-0.4,0-0.6-0.3-0.6-0.8V440h-24.3v1.1c0,0.6-0.1,1-0.4,1.2c-0.6,0.4-1.2,0.5-1.9,0.5c-0.4-0.1-0.6-0.3-0.6-0.8c0-0.3,0-1,0.1-2.1
			c0.1-1.6,0.1-2.8,0.1-3.4v-3.9c0-1.1,0-2.7-0.1-4.8c1.5,0.9,2.7,1.6,3.5,2.3h22.5c1.2-1.4,1.9-2.1,2.1-2.1
			c1.1,0.4,2.3,1.2,3.4,2.4c0.6,0.6,0.6,1-0.1,1.3c-0.1,0-0.3,0.1-0.6,0.3c-0.4,0.1-0.6,0.3-0.7,0.3
			C374.6,432.5,374.5,433.2,374.5,434.2L374.5,434.2z M360.1,404.4c-2.5,3.3-5.1,6.3-7.9,9c-7,6.6-14.6,12.1-22.7,16.5l0.6,0.7
			c8-3.3,15.6-8,22.9-14.1c2.4-2.1,4.7-4.2,6.8-6.5c0.7-0.7,1.1-1.1,1.3-1.3c2.6,3.8,5.3,7,8.2,9.6c3.4,3.1,6.8,5.5,10.3,7.1
			c3.1,1.7,5.3,2.6,6.5,2.6c0.4,0,0.8-0.2,1.1-0.6c0.4-0.5,1-0.8,1.8-1s2-0.2,3.6-0.1l0.1-0.9c-6.2-0.8-12.1-2.8-17.7-5.9
			c-5.4-3.1-9.7-6.9-12.9-11.5c0.5-0.2,0.9-0.3,1.3-0.3c1.4,0,2.1-0.2,2.2-0.7c0.1-0.4-0.5-0.8-1.8-1.3
			C362.8,405.2,361.6,404.8,360.1,404.4L360.1,404.4z M347.6,433.1v5.6h24.3v-3v-4.3h-23.6C347.7,431.6,347.5,432.2,347.6,433.1
			L347.6,433.1z M354.6,448.7v13.2h10.5v-13.2H354.6L354.6,448.7z M341.8,450.5v11.4h10.1v-13.2h-9.6
			C341.9,448.8,341.8,449.4,341.8,450.5L341.8,450.5z M377.8,448.7h-9.9v13.2h9.9V448.7L377.8,448.7z M371.5,424.3h-16.2
			c-3.2,0-5.5,0.2-6.8,0.6l-2-2.1c2.1,0.2,4.4,0.3,6.6,0.3H366c1.6-2,2.4-3,2.7-3c1,0.4,2.2,1.4,3.8,3c0.4,0.5,0.6,0.8,0.4,1
			C372.7,424.2,372.2,424.3,371.5,424.3L371.5,424.3z M2.7,506.8c1.7,0.2,2.7,1.1,2.9,2.8c-0.2,1.7-1.1,2.6-2.9,2.8
			c-1.6-0.1-2.5-1.1-2.7-2.8C0.1,507.9,1,507,2.7,506.8L2.7,506.8z M61.2,494.3c1.4,0.5,2.7,1.1,3.9,1.8c1.1,0.6,1.6,1.1,1.5,1.6
			c0,0.4-0.6,0.6-1.9,0.7c-0.6-0.2-1.8,1.2-3.9,4.4c-0.1,0.1-0.3,0.4-0.5,0.7c-0.3,0.5-0.5,0.9-0.7,1.1h34.9
			c2.3-2.8,3.6-4.2,3.8-4.2c0.8,0.3,2.3,1.7,4.6,4.2c0.4,0.5,0.6,0.9,0.4,1.1s-0.6,0.4-1.3,0.4H79.1c-0.3,0.2-0.4,1-0.4,2.3V520
			h11.5c2.2-2.8,3.4-4.2,3.6-4.2c0.8,0.3,2.3,1.7,4.6,4.2c0.4,0.4,0.5,0.8,0.4,1.1c-0.2,0.2-0.7,0.4-1.4,0.4H78.8v14.9h18.7
			c2.3-2.8,3.6-4.2,3.9-4.2c0.7,0.3,2.3,1.7,4.6,4.2c0.4,0.5,0.5,0.9,0.4,1.1c-0.1,0.2-0.6,0.4-1.3,0.4H78.8v0.8
			c0,6.1,0.1,12.3,0.1,18.4c0,0.6-0.1,1.1-0.6,1.4c-0.7,0.5-1.4,0.8-2.2,0.8c-0.6,0-0.8-0.3-0.8-0.8c0.3-8.1,0.4-14.6,0.5-19.5v-0.9
			H55.7c-4.8,0-8.8,0.3-11.8,0.8l-2.3-2.6c3.8,0.2,6.9,0.3,9.1,0.3h5.6V523c0-1.2,0-3.2-0.1-5.9c1.9,1.1,3.4,2.1,4.4,2.8h15.3v-12.5
			c0-0.6,0-1.1-0.1-1.4h-17c-5.3,7.8-10.3,13.8-14.7,18.1l-0.6-0.8c6.2-7.6,11.5-15.8,15.8-24.3C60.2,496.9,60.9,495.3,61.2,494.3
			L61.2,494.3z M59.1,524v12.2h16.6v-14.9H60C59.4,521.6,59.1,522.5,59.1,524z"/>
		<path class="st0" d="M170.1,499.6c0.9,0.8,1.3,1.3,1,1.6c-0.2,0.4-0.8,0.4-1.8,0.1c-0.2-0.4-1.7,0.3-4.4,2.1
			c-1.3,0.8-2.4,1.5-3.4,2.1c-4.1,2.6-7.8,4.5-11,5.9v2.3c0,2.2,0.3,3.6,1.1,4.1c0.7,0.7,2.4,1.1,5.1,1.2c3.3,0.1,7.1,0.1,11.3-0.1
			c1.8-0.1,3-0.5,3.7-1c0.6-0.5,1-1.5,1.1-3.2c0.2-2.2,0.4-4.6,0.5-7.2l1.3,0.1c0,1.6,0.1,3.4,0.1,5.5c0.1,1.8,0.3,3.1,0.7,3.8
			c0.2,0.3,0.5,0.7,0.9,1.2c0.6,0.5,0.8,0.9,0.6,1.3c0,1.1-2.5,1.8-7.5,2c-1.5,0.1-3.7,0.2-6.7,0.2s-5.5,0-7.4-0.1
			c-5.5,0-8.1-2.3-7.7-7v-2c-3.7,1.4-8.3,2.9-14,4.4l-0.3-1c6.5-2.3,11.3-4.2,14.3-5.6v-9.8c0-1.5,0-3.4-0.1-5.8
			c2.7,0.4,4.5,0.9,5.5,1.3c0.6,0.3,0.9,0.6,0.9,0.8c0,0.3-0.2,0.5-0.5,0.7c-0.2,0.1-0.5,0.2-0.9,0.4c-0.3,0.1-0.6,0.2-0.8,0.3
			c-0.8,0.1-1.2,1.2-1.1,3.2v7.4c3.5-1.7,7.5-4.3,12-7.6c1.9-1.4,3.4-2.7,4.6-3.8C168.3,498.3,169.2,498.9,170.1,499.6L170.1,499.6z
			 M163.8,531.6v4.4c0,0.6,0,1.6,0.1,2.9c0,2.4,0.1,4.4,0.1,5.9c0,0.5-0.1,0.9-0.5,1.3c-0.7,0.5-1.3,0.7-1.9,0.7
			c-0.5,0-0.7-0.3-0.6-0.6v-17.4h-30c-0.7,0.4-1,0.9-0.9,1.7v6.3c0,5.4,0,8.4,0.1,8.9c0,0.5-0.1,0.9-0.4,1.1
			c-0.5,0.5-1.1,0.7-1.9,0.7c-0.6,0-0.9-0.3-0.9-0.9c0.2-3,0.3-6.3,0.3-10v-6.1c0-1.1,0-2.8-0.1-5.1c1.7,0.9,3.1,1.7,3.9,2.2h28.7
			c1.4-1.4,2.1-2.1,2.3-2.2c0.9,0.3,2.1,1.1,3.7,2.5c0.7,0.6,0.6,1.1-0.1,1.5c-0.7,0.3-0.8,0.3-0.5,0.2c-0.3,0.1-0.6,0.3-0.9,0.4
			C163.9,530,163.7,530.5,163.8,531.6L163.8,531.6z M131,515.1c0-2.6,0-6.3-0.1-11c0.7-0.7,1.5-1.7,2.5-2.8c1.6-1.9,2.9-2.9,3.9-2.9
			c1.3,0,1.9-0.2,1.9-0.6c0.1-0.4-0.3-0.9-1.5-1.6c-0.9-0.5-2-1-3.2-1.4c-0.1,0-0.3-0.1-0.3-0.1c-1.2,1.9-2.5,3.9-4,5.8
			c-5.2,6.9-10.6,12.7-16.1,17.6l0.6,0.7c4.5-3.2,9.2-7.3,13.9-12.2v8.7c0,0.6-0.1,2.1-0.1,4.5c0,1.9-0.1,3-0.1,3.3
			c0,0.4,0.2,0.6,0.6,0.8c0.7,0,1.4-0.3,2-0.8c0.3-0.4,0.4-0.9,0.3-1.5c0-0.2,0-0.9-0.1-2.3C131.1,517.1,131,515.7,131,515.1
			L131,515.1z M146.9,536.8c0.1-0.8,0.7-1.3,1.8-1.4c0.7-0.1,1-0.3,1.1-0.6c0.1-0.5-0.4-0.9-1.6-1.3c-1.3-0.4-2.6-0.7-4-1
			c-0.2,1.7-0.4,3.4-0.6,4.8c-0.4,4.1-1.9,7.6-4.6,10.5c-3.8,3.8-11.6,7-23.5,9.5l0.2,1.2c12.5-1.8,20.8-4.7,25.1-8.5
			C144,547.5,146.1,543.1,146.9,536.8L146.9,536.8z M169.4,553.1c-1-1.5-3.9-2.9-8.7-4.4c-3.6-1.2-8.3-2.7-14.1-4.6l-0.6,1
			c6,2.2,10.2,4.1,12.7,5.6c2.6,1.5,4.8,3.1,6.6,4.8c1.4,1.6,2.7,2.2,3.7,1.8C170.5,556.6,170.6,555.2,169.4,553.1L169.4,553.1z
			 M193.9,510.8c-2.7,0.1-4.7,0.4-6,0.8l-2.2-2.3c2.6,0.1,4.8,0.2,6.5,0.1l13.7-0.2c1.5-1.5,2.5-2.3,2.7-2.3
			c1.1,0.4,2.4,1.3,3.9,2.7c0.5,0.6,0.4,1-0.1,1.3c-0.6,0.2-1.2,0.3-1.8,0.5c-0.4,0.1-0.8,0.5-1.2,1.1c-2.3,3.9-4.5,7.2-6.7,9.8v0.2
			c1.2,0.5,3.3,1.6,6.4,3.2c3.4,1.9,5.1,3.5,5.1,4.9c0.2,1.5-0.1,2.5-1.1,2.9c-1,0.3-1.9-0.4-2.8-2.1c-0.7-1.4-1.7-2.7-3.1-4.2
			c-1.4-1.3-2.9-2.5-4.6-3.7c0,1.2-0.1,2.6-0.1,4.3c0,0.8,0,1.7,0,2.7c0,0.8,0,2.3,0,4.2c0,1.4,0,4.5,0,9.4c0,5.7,0.1,9.4,0.1,11.2
			c0,0.7-0.2,1.3-0.5,1.5c-0.7,0.5-1.4,0.8-2.2,0.8c-0.5,0-0.8-0.3-0.7-0.8c0-0.5,0-1.5,0.1-3.2c0.2-8.7,0.3-15,0.3-18.7
			c0.1-3.1,0.1-6.2,0.1-9.3c-3.8,4.6-8.7,9-14.6,13.1l-0.6-0.8c6.2-5.5,11.1-10.6,14.5-15.3c3-4.2,5.6-8.3,7.5-12.2
			C199.5,510.6,195.2,510.7,193.9,510.8L193.9,510.8z M225.9,505.4V546c-0.3,4,1.6,5.9,5.8,5.6c1.8,0.1,4.6,0.1,8.4-0.1
			c3,0.1,4.6-1.2,4.7-3.9c0.3-2.1,0.6-5.6,1-10.5l1.3,0.1c-0.1,3.9-0.2,6.9-0.1,8.8c0,1.7,0.2,2.9,0.6,3.4c0.1,0.3,0.4,0.6,0.8,1
			c0.6,0.7,0.8,1.3,0.6,1.7c-0.2,1.3-2.4,2-6.8,2.1c-2.3,0.1-4.6,0.1-7,0.1c-2.2,0-3.8,0-4.9-0.1c-5.1,0-7.5-2.4-7.2-7.3v-45.1
			c0-1.6,0-3.7-0.1-6.3c2.7,0.5,4.6,0.9,5.7,1.3c0.5,0.2,0.8,0.5,0.9,0.8c0.1,0.3-0.1,0.5-0.5,0.8c-0.2,0-0.5,0.2-0.9,0.3
			c-0.5,0.1-0.8,0.3-1.1,0.3C226.2,499.3,225.9,501.4,225.9,505.4L225.9,505.4z M196.5,494.5c2,1.2,3.9,2.5,5.8,3.7
			c2.3,1.5,3.3,3.1,3.2,4.7c-0.1,1.5-0.6,2.4-1.5,2.5c-0.8,0.1-1.5-0.5-1.8-1.7c-0.5-1.5-1.2-2.9-2.3-4.3c-1-1.4-2.3-2.9-3.9-4.4
			L196.5,494.5L196.5,494.5z M319,553.2h-48.3c-4.4,0.1-8.4,0.4-12.2,0.9l-2.3-2.6c2.9,0.2,5.4,0.4,7.5,0.4h3.9v-11.5
			c0-1.2,0-3.2-0.1-6c1.7,1.1,3,2.1,3.9,2.8h33.9c1.3-1.5,2-2.3,2.2-2.3c1.1,0.4,2.3,1.3,3.6,2.5c0.7,0.6,0.6,1-0.1,1.4
			c-0.1,0.1-0.2,0.1-0.4,0.1c-0.5,0.2-0.8,0.4-1,0.5c-0.4,0.2-0.6,1.1-0.6,2.8v9.6h3.4c1.8-2.5,2.9-3.8,3.2-3.8
			c0.5,0.1,1.9,1.3,4.3,3.7c0.4,0.5,0.5,0.9,0.3,1.1C320.3,553.1,319.9,553.2,319,553.2L319,553.2z M303.1,524.2v2.6
			c0,0.6,0,1.5,0.1,2.6c0,0.6,0.1,0.9,0.1,1.1c0,0.7-0.1,1.1-0.4,1.3c-0.4,0.4-1,0.7-1.8,0.7c-0.4,0-0.6-0.3-0.6-0.8V530h-24.3v1.1
			c0,0.6-0.1,1-0.4,1.2c-0.6,0.4-1.2,0.5-1.9,0.5c-0.4-0.1-0.6-0.3-0.6-0.8c0-0.3,0-1,0.1-2.1c0.1-1.6,0.1-2.8,0.1-3.4v-3.9
			c0-1.1,0-2.7-0.1-4.8c1.5,0.9,2.7,1.6,3.5,2.3h22.5c1.2-1.4,1.9-2.1,2.1-2.1c1.1,0.4,2.3,1.2,3.4,2.4c0.6,0.6,0.6,1-0.1,1.3
			c-0.1,0-0.3,0.1-0.6,0.3c-0.4,0.1-0.6,0.3-0.7,0.3C303.2,522.5,303.1,523.1,303.1,524.2L303.1,524.2z M288.7,494.3
			c-2.5,3.3-5.1,6.3-7.9,9c-7,6.6-14.6,12.1-22.7,16.5l0.6,0.7c8-3.3,15.6-8,22.9-14.1c2.4-2.1,4.7-4.2,6.8-6.5
			c0.7-0.7,1.1-1.1,1.3-1.3c2.6,3.8,5.3,7,8.2,9.6c3.4,3.1,6.8,5.5,10.3,7.1c3.1,1.7,5.3,2.6,6.5,2.6c0.4,0,0.8-0.2,1.1-0.6
			c0.4-0.5,1-0.8,1.8-1s2-0.2,3.6-0.1l0.1-0.9c-6.2-0.8-12.1-2.8-17.7-5.9c-5.4-3.1-9.7-6.9-12.9-11.5c0.5-0.2,0.9-0.3,1.3-0.3
			c1.4,0,2.1-0.2,2.2-0.7c0.1-0.4-0.5-0.8-1.8-1.3C291.4,495.2,290.2,494.8,288.7,494.3L288.7,494.3z M276.2,523v5.6h24.3v-3v-4.3
			h-23.6C276.3,521.6,276.1,522.1,276.2,523L276.2,523z M283.3,538.6v13.2h10.5v-13.2H283.3L283.3,538.6z M270.4,540.4v11.4h10.1
			v-13.2h-9.6C270.5,538.8,270.4,539.4,270.4,540.4L270.4,540.4z M306.4,538.6h-9.9v13.2h9.9V538.6L306.4,538.6z M300.1,514.2h-16.2
			c-3.2,0-5.5,0.2-6.8,0.6l-2-2.1c2.1,0.2,4.4,0.3,6.6,0.3h12.9c1.6-2,2.4-3,2.7-3c1,0.4,2.2,1.4,3.8,3c0.4,0.5,0.6,0.8,0.4,1
			C301.3,514.1,300.8,514.2,300.1,514.2L300.1,514.2z M2.7,596.8c1.7,0.2,2.7,1.1,2.9,2.8c-0.2,1.7-1.1,2.6-2.9,2.8
			c-1.6-0.1-2.5-1.1-2.7-2.8C0.1,597.9,1,596.9,2.7,596.8L2.7,596.8z M102.3,611.3H83.5v12.4h13.7c2.3-2.7,3.6-4.2,4-4.3
			c0.7,0.1,2.4,1.5,5.1,4.2c0.4,0.5,0.6,0.9,0.4,1.1c-0.1,0.2-0.6,0.3-1.3,0.3H83.5v6.6c0,4.9,0.1,9.8,0.2,14.7
			c0,0.8-0.1,1.3-0.4,1.4c-0.7,0.5-1.5,0.8-2.3,0.8c-0.5,0-0.8-0.3-0.8-0.8c0.3-5.9,0.4-11.1,0.4-15.5V625h-8.4
			c-4.1,0.1-8,0.4-11.5,0.9l-2.2-2.7c2.8,0.3,5.3,0.4,7.5,0.4h14.6v-12.4h-5c-4.4,0-8,0.3-10.8,0.8l-2.1-2.5
			c2.7,0.2,5.1,0.3,7.1,0.3h10.8c0-3,0-6.6,0.1-11c0-1.4,0-2.2,0-2.5c0-4.8-0.1-8.9-0.3-12.2c2.4,0.5,4.2,0.9,5.4,1.3
			c0.5,0.2,0.8,0.4,0.8,0.7s-0.1,0.6-0.5,0.7c-0.4,0.2-0.9,0.4-1.6,0.7c-0.3,0.1-0.5,0.5-0.6,1.1c-0.1,0.5-0.2,2-0.3,4.5
			c-0.1,3.1-0.1,8.7-0.1,16.7h12.3c1.8-2.4,2.9-3.6,3.4-3.7c0.7,0.2,2.1,1.4,4.1,3.6c0.4,0.4,0.5,0.8,0.4,1.1
			C103.5,611.2,103.1,611.3,102.3,611.3L102.3,611.3z M57,584.3c-0.7,2.9-1.5,6-2.6,9.1c-3.5,10-8,19.3-13.4,27.8l1,0.7
			c3.7-4.7,7.2-10.4,10.7-17.1c0,3.2,0,9.9-0.1,20.1c-0.1,5.5-0.2,13.1-0.6,22.9c0,0.5,0.3,0.7,0.8,0.8c0.8,0,1.5-0.3,2.2-0.8
			c0.3-0.2,0.5-0.7,0.4-1.5c0-1.7,0-5.6-0.1-11.6c0-5.3,0-8.6,0-9.9c0-6,0.1-14.5,0.1-25.6c0.5-1.2,1.2-2.7,2-4.5
			c1.7-4.3,2.9-6.3,3.7-6c1.4-0.2,2.1-0.6,2.2-1.1c0.1-0.5-0.6-1.1-2.2-1.8C59.5,585.1,58.2,584.6,57,584.3L57,584.3z M97.8,589.9
			c-1,2.2-1.9,4-2.7,5.6c-2.8,5.2-5.2,9-7,11.5l1,0.6c2-2,4.8-5.5,8.6-10.5c1.7-2.5,2.9-3.5,3.6-3.2c0.9,0,1.4-0.2,1.4-0.6
			c0.1-0.3-0.2-0.7-1-1.3c-0.1-0.1-0.3-0.2-0.4-0.3C100.2,591.1,99,590.5,97.8,589.9L97.8,589.9z M65.6,590.9l-0.8,0.5
			c1.9,2.8,3.2,5,3.9,6.7c1,2.1,1.7,4,2.1,5.7c0.3,1.6,1,2.5,2.1,2.5c1.2-0.3,1.7-1.4,1.5-3.2c-0.3-1.7-1.2-3.5-2.7-5.4
			S68.2,593.6,65.6,590.9L65.6,590.9z M144.6,598.2c0-2.4,0-4-0.1-4.7c-5.2,0.4-14.3,0.9-27.1,1.6l-0.2-1.2
			c15.7-1.6,26.2-2.7,31.4-3.5c6.2-0.9,12.3-1.9,18.1-2.9c1.3,0.8,2.5,1.8,3.6,2.7c1.4,1.1,1.8,1.7,1.3,2c0,0.1-0.6,0.1-1.5,0
			c-1.8-0.4-3.4-0.5-4.6-0.4c-3.6,0.2-9.1,0.6-16.5,1.3c-0.8,0.1-1.1,1.4-1.1,3.9v9.4h14.9c2.1-2.6,3.2-4,3.4-4
			c1.1,0.5,2.7,1.8,4.7,3.9c0.4,0.6,0.6,1,0.5,1.2c-0.1,0.3-0.6,0.4-1.4,0.4h-22.2v7.9v4.2h20.8c2.2-2.9,3.4-4.4,3.7-4.4
			c0.9,0.4,2.5,1.8,4.7,4.4c0.4,0.6,0.6,1,0.4,1.3c0,0.2-0.5,0.4-1.3,0.4h-28.3c0,3.6,0.1,8.3,0.1,14.1c0.1,3.4,0.1,5.5,0.1,6.3
			c0.1,2.7-1.2,4.5-4.2,5.6c-1.5,0.6-2.5,0.7-2.9,0.3c-0.2-0.2-0.4-0.5-0.5-0.9c-0.1-0.3-0.2-0.6-0.4-0.9c-0.5-0.6-1.3-1.1-2.2-1.5
			c-1.5-0.4-4-0.9-7.6-1.3l0.3-1.5c4.9,0.7,8.9,1.1,12,1.1c1.4,0,2.1-0.8,2-2.7c0-1.2,0-4.5,0-9.7c0-3.8,0-6.7,0-8.7h-15.4
			c-3.9,0-8,0.3-12.3,1.1l-3-3c3.9,0.3,7.2,0.4,9.7,0.4h21v-5.5v-6.6h-10.8c-4.8,0-9,0.3-12.7,1l-2.7-2.9c3.9,0.3,7.1,0.4,9.7,0.4
			h16.4v-8.6H144.6z M193.9,600.7c-2.7,0.1-4.7,0.4-6,0.8l-2.2-2.3c2.6,0.1,4.8,0.2,6.5,0.1l13.7-0.2c1.5-1.5,2.5-2.3,2.7-2.3
			c1.1,0.4,2.4,1.3,3.9,2.7c0.5,0.6,0.4,1-0.1,1.3c-0.6,0.2-1.2,0.3-1.8,0.5c-0.4,0.1-0.8,0.5-1.2,1.1c-2.3,3.9-4.5,7.2-6.7,9.8v0.2
			c1.2,0.5,3.3,1.6,6.4,3.2c3.4,1.9,5.1,3.5,5.1,4.9c0.2,1.5-0.1,2.5-1.1,2.9c-1,0.3-1.9-0.4-2.8-2.1c-0.7-1.4-1.7-2.7-3.1-4.2
			c-1.4-1.3-2.9-2.5-4.6-3.7c0,1.2-0.1,2.6-0.1,4.3c0,0.8,0,1.7,0,2.7c0,0.8,0,2.3,0,4.2c0,1.4,0,4.5,0,9.4c0,5.7,0.1,9.4,0.1,11.2
			c0,0.7-0.2,1.3-0.5,1.5c-0.7,0.5-1.4,0.8-2.2,0.8c-0.5,0-0.8-0.3-0.7-0.8c0-0.5,0-1.5,0.1-3.2c0.2-8.7,0.3-15,0.3-18.7
			c0.1-3.1,0.1-6.2,0.1-9.3c-3.8,4.6-8.7,9-14.6,13.1l-0.6-0.8c6.2-5.5,11.1-10.6,14.5-15.3c3-4.2,5.6-8.3,7.5-12.2
			C199.5,600.5,195.2,600.6,193.9,600.7L193.9,600.7z M225.9,595.4V636c-0.3,4,1.6,5.9,5.8,5.6c1.8,0.1,4.6,0.1,8.4-0.1
			c3,0.1,4.6-1.2,4.7-3.9c0.3-2.1,0.6-5.6,1-10.5l1.3,0.1c-0.1,3.9-0.2,6.9-0.1,8.8c0,1.7,0.2,2.9,0.6,3.4c0.1,0.3,0.4,0.6,0.8,1
			c0.6,0.7,0.8,1.3,0.6,1.7c-0.2,1.3-2.4,2-6.8,2.1c-2.3,0.1-4.6,0.1-7,0.1c-2.2,0-3.8,0-4.9-0.1c-5.1,0-7.5-2.4-7.2-7.3v-45.1
			c0-1.6,0-3.7-0.1-6.3c2.7,0.5,4.6,0.9,5.7,1.3c0.5,0.2,0.8,0.5,0.9,0.8c0.1,0.3-0.1,0.5-0.5,0.8c-0.2,0-0.5,0.2-0.9,0.3
			c-0.5,0.1-0.8,0.3-1.1,0.3C226.2,589.2,225.9,591.4,225.9,595.4L225.9,595.4z M196.5,584.5c2,1.2,3.9,2.5,5.8,3.7
			c2.3,1.5,3.3,3.1,3.2,4.7c-0.1,1.5-0.6,2.4-1.5,2.5c-0.8,0.1-1.5-0.5-1.8-1.7c-0.5-1.5-1.2-2.9-2.3-4.3c-1-1.4-2.3-2.9-3.9-4.4
			L196.5,584.5L196.5,584.5z M319,643.1h-48.3c-4.4,0.1-8.4,0.4-12.2,0.9l-2.3-2.6c2.9,0.2,5.4,0.4,7.5,0.4h3.9v-11.5
			c0-1.2,0-3.2-0.1-6c1.7,1.1,3,2.1,3.9,2.8h33.9c1.3-1.5,2-2.3,2.2-2.3c1.1,0.4,2.3,1.3,3.6,2.5c0.7,0.6,0.6,1-0.1,1.4
			c-0.1,0.1-0.2,0.1-0.4,0.1c-0.5,0.2-0.8,0.4-1,0.5c-0.4,0.2-0.6,1.1-0.6,2.8v9.6h3.4c1.8-2.5,2.9-3.8,3.2-3.8
			c0.5,0.1,1.9,1.3,4.3,3.7c0.4,0.5,0.5,0.9,0.3,1.1C320.3,643.1,319.9,643.1,319,643.1L319,643.1z M303.1,614.2v2.6
			c0,0.6,0,1.5,0.1,2.6c0,0.6,0.1,0.9,0.1,1.1c0,0.7-0.1,1.1-0.4,1.3c-0.4,0.4-1,0.7-1.8,0.7c-0.4,0-0.6-0.3-0.6-0.8v-1.8h-24.3v1.1
			c0,0.6-0.1,1-0.4,1.2c-0.6,0.4-1.2,0.5-1.9,0.5c-0.4-0.1-0.6-0.3-0.6-0.8c0-0.3,0-1,0.1-2.1c0.1-1.6,0.1-2.8,0.1-3.4v-3.9
			c0-1.1,0-2.7-0.1-4.8c1.5,0.9,2.7,1.6,3.5,2.3h22.5c1.2-1.4,1.9-2.1,2.1-2.1c1.1,0.4,2.3,1.2,3.4,2.4c0.6,0.6,0.6,1-0.1,1.3
			c-0.1,0-0.3,0.1-0.6,0.3c-0.4,0.1-0.6,0.3-0.7,0.3C303.2,612.4,303.1,613.1,303.1,614.2L303.1,614.2z M288.7,584.3
			c-2.5,3.3-5.1,6.3-7.9,9c-7,6.6-14.6,12.1-22.7,16.5l0.6,0.7c8-3.3,15.6-8,22.9-14.1c2.4-2.1,4.7-4.2,6.8-6.5
			c0.7-0.7,1.1-1.1,1.3-1.3c2.6,3.8,5.3,7,8.2,9.6c3.4,3.1,6.8,5.5,10.3,7.1c3.1,1.7,5.3,2.6,6.5,2.6c0.4,0,0.8-0.2,1.1-0.6
			c0.4-0.5,1-0.8,1.8-1s2-0.2,3.6-0.1l0.1-0.9c-6.2-0.8-12.1-2.8-17.7-5.9c-5.4-3.1-9.7-6.9-12.9-11.5c0.5-0.2,0.9-0.3,1.3-0.3
			c1.4,0,2.1-0.2,2.2-0.7c0.1-0.4-0.5-0.8-1.8-1.3C291.4,585.1,290.2,584.7,288.7,584.3L288.7,584.3z M276.2,613v5.6h24.3v-3v-4.3
			h-23.6C276.3,611.5,276.1,612.1,276.2,613L276.2,613z M283.3,628.6v13.2h10.5v-13.2H283.3L283.3,628.6z M270.4,630.4v11.4h10.1
			v-13.2h-9.6C270.5,628.7,270.4,629.4,270.4,630.4L270.4,630.4z M306.4,628.6h-9.9v13.2h9.9V628.6L306.4,628.6z M300.1,604.2h-16.2
			c-3.2,0-5.5,0.2-6.8,0.6l-2-2.1c2.1,0.2,4.4,0.3,6.6,0.3h12.9c1.6-2,2.4-3,2.7-3c1,0.4,2.2,1.4,3.8,3c0.4,0.5,0.6,0.8,0.4,1
			C301.3,604.1,300.8,604.2,300.1,604.2z"/>
	</g>
</g>
</svg>
