<?xml version="1.0" encoding="utf-8"?>
<!-- Generator: Adobe Illustrator 21.0.0, SVG Export Plug-In . SVG Version: 6.00 Build 0)  -->
<svg version="1.1" id="图层_1" xmlns="http://www.w3.org/2000/svg" xmlns:xlink="http://www.w3.org/1999/xlink" x="0px" y="0px"
	 viewBox="0 0 119.5 31.9" style="enable-background:new 0 0 119.5 31.9;" xml:space="preserve">
<style type="text/css">
	.st0{fill:#3E3A39;}
	.st1{fill:none;stroke:#898989;stroke-width:0.1417;stroke-miterlimit:22.9256;}
</style>
<g>
	<g>
		<path class="st0" d="M4.7,6.8h-3V6.6c0.4,0,0.8,0,0.9-0.1C2.8,6.4,2.9,6.2,2.9,6V1.3c0-0.1,0-0.3-0.1-0.4C2.7,0.8,2.5,0.8,2.4,0.8
			H1.6V0.6C2,0.6,2.4,0.5,2.6,0.4C2.9,0.3,3.1,0.2,3.4,0v5.9c0,0.3,0.1,0.4,0.3,0.5c0.2,0.1,0.5,0.1,1,0.1V6.8z"/>
		<path class="st0" d="M6.7,6C7,6,7.2,6.2,7.2,6.4c0,0.3-0.2,0.4-0.5,0.4c-0.3,0-0.4-0.2-0.5-0.4C6.3,6.2,6.5,6,6.7,6z"/>
		<path class="st0" d="M13,3.5c0,2.2-0.8,3.3-2.2,3.4c-1.5,0-2.2-1.2-2.2-3.4c0-2.2,0.8-3.4,2.2-3.4C12.2,0.1,13,1.2,13,3.5z
			 M12.5,3.5c-0.1-2.1-0.6-3.1-1.7-3.2C9.7,0.3,9.1,1.4,9.1,3.5c0,2.1,0.6,3.1,1.7,3.2C11.9,6.6,12.4,5.5,12.5,3.5z"/>
	</g>
	<g>
		<path class="st0" d="M27.4,6.8h-3V6.6c0.4,0,0.8,0,0.9-0.1c0.2-0.1,0.3-0.2,0.3-0.5V1.3c0-0.1,0-0.3-0.1-0.4
			c-0.1-0.1-0.2-0.1-0.4-0.1h-0.8V0.6c0.5-0.1,0.8-0.1,1.1-0.2c0.3-0.1,0.5-0.2,0.8-0.4v5.9c0,0.3,0.1,0.4,0.3,0.5
			c0.2,0.1,0.5,0.1,1,0.1V6.8z"/>
		<path class="st0" d="M29.5,6c0.3,0,0.4,0.2,0.5,0.4c0,0.3-0.2,0.4-0.5,0.4c-0.3,0-0.4-0.2-0.5-0.4C29.1,6.2,29.2,6,29.5,6z"/>
		<path class="st0" d="M31.7,3.7l-0.1-0.1l0.2-3.5H35l-0.1,0.4H32l-0.1,2.6c0.4-0.3,0.8-0.5,1.4-0.5c1.3,0.1,1.9,0.8,2,2.1
			c-0.1,1.3-0.7,2.1-2,2.1c-1.2-0.1-1.9-0.6-2-1.5c0-0.3,0.1-0.4,0.3-0.4c0.3,0,0.4,0.2,0.3,0.6c0,0.7,0.4,1,1.3,1.1
			c1-0.1,1.5-0.7,1.6-2c-0.1-1.2-0.6-1.8-1.6-1.9C32.6,2.8,32.1,3.1,31.7,3.7z"/>
	</g>
	<g>
		<path class="st0" d="M52.8,5l-0.4,1.7h-3.6c0-1,0.8-2.1,2.2-3.2c0.8-0.6,1.2-1.3,1.2-2c-0.1-0.9-0.5-1.4-1.4-1.4
			c-0.8,0-1.3,0.3-1.4,0.9c0,0.2,0,0.4,0.1,0.5c0.1,0.1,0.1,0.3,0.1,0.4c0,0.2-0.1,0.3-0.3,0.3c-0.2,0-0.4-0.3-0.4-0.7
			c0.1-1,0.7-1.5,1.9-1.6c1.2,0,1.9,0.6,1.9,1.7c0.1,0.8-0.5,1.6-1.8,2.5c-1,0.7-1.7,1.4-1.8,2.1h2.1c0.4,0,0.7-0.1,0.9-0.2
			c0.2-0.2,0.4-0.6,0.5-1.1L52.8,5z"/>
	</g>
	<g>
		<path class="st0" d="M54.2,6.8V5.8h0.9v0.9H54.2z"/>
	</g>
	<g>
		<path class="st0" d="M61,3.5c0,2.2-0.8,3.3-2.2,3.4c-1.5,0-2.2-1.2-2.2-3.4c0-2.2,0.8-3.4,2.2-3.4C60.3,0.1,61,1.2,61,3.5z
			 M60.5,3.5c-0.1-2.1-0.6-3.1-1.7-3.2c-1.1,0.1-1.7,1.2-1.7,3.2c0,2.1,0.6,3.1,1.7,3.2C59.9,6.6,60.5,5.5,60.5,3.5z"/>
	</g>
	<g>
		<path class="st0" d="M80.7,5l-0.4,1.7h-3.6c0-1,0.8-2.1,2.2-3.2c0.8-0.6,1.2-1.3,1.2-2c-0.1-0.9-0.5-1.4-1.4-1.4
			c-0.8,0-1.3,0.3-1.4,0.9c0,0.2,0,0.4,0.1,0.5c0.1,0.1,0.1,0.3,0.1,0.4c0,0.2-0.1,0.3-0.3,0.3c-0.2,0-0.4-0.3-0.4-0.7
			c0.1-1,0.7-1.5,1.9-1.6c1.2,0,1.9,0.6,1.9,1.7c0.1,0.8-0.5,1.6-1.8,2.5c-1,0.7-1.7,1.4-1.8,2.1h2.1c0.4,0,0.7-0.1,0.9-0.2
			c0.2-0.2,0.4-0.6,0.5-1.1L80.7,5z"/>
	</g>
	<g>
		<path class="st0" d="M82,6.8V5.8H83v0.9H82z"/>
	</g>
	<g>
		<path class="st0" d="M84.8,3.7l-0.1-0.1l0.2-3.5h3.2L88,0.6h-2.9L85,3.1c0.4-0.3,0.8-0.5,1.4-0.5c1.3,0.1,1.9,0.8,2,2.1
			c-0.1,1.3-0.7,2.1-2,2.1c-1.2-0.1-1.9-0.6-2-1.5c0-0.3,0.1-0.4,0.3-0.4C85,5,85.1,5.2,85,5.6c0,0.7,0.4,1,1.3,1.1
			c1-0.1,1.5-0.7,1.6-2c-0.1-1.2-0.6-1.8-1.6-1.9C85.7,2.8,85.2,3.1,84.8,3.7z"/>
	</g>
	<g>
		<path class="st0" d="M105.7,3.3h-0.4V3.1h0.4c1.1,0,1.7-0.5,1.7-1.5c-0.1-0.9-0.5-1.3-1.3-1.4c-0.8,0-1.2,0.3-1.1,0.9
			c0.1,0.4,0,0.6-0.3,0.6c-0.2,0-0.4-0.2-0.4-0.5c0.1-0.8,0.7-1.2,1.8-1.3c1.2,0,1.8,0.6,1.8,1.6c0,0.8-0.5,1.3-1.5,1.6
			c1,0.3,1.6,0.8,1.6,1.7c0,1.3-0.8,2-2.1,2c-1.1-0.1-1.8-0.5-1.9-1.4c0-0.3,0.1-0.5,0.4-0.5c0.3,0,0.3,0.2,0.3,0.6
			c-0.1,0.7,0.3,1.1,1.2,1.2c1-0.1,1.6-0.7,1.6-1.8C107.5,3.9,106.9,3.4,105.7,3.3z"/>
	</g>
	<g>
		<path class="st0" d="M109.3,6.8V5.8h0.9v0.9H109.3z"/>
	</g>
	<g>
		<path class="st0" d="M116.1,3.5c0,2.2-0.8,3.3-2.2,3.4c-1.5,0-2.2-1.2-2.2-3.4c0-2.2,0.8-3.4,2.2-3.4
			C115.4,0.1,116.1,1.2,116.1,3.5z M115.6,3.5c-0.1-2.1-0.6-3.1-1.7-3.2c-1.1,0.1-1.7,1.2-1.7,3.2c0,2.1,0.6,3.1,1.7,3.2
			C115,6.6,115.6,5.5,115.6,3.5z"/>
	</g>
	<path class="st0" d="M4,29.8c-0.1,1.3-0.7,2.1-2,2.1c-1.3,0-2-1-2-3.1c0-2.5,0.8-3.7,2.3-3.8c0.8,0,1.3,0.3,1.4,0.8
		c0.1,0.3,0,0.5-0.3,0.6c-0.3,0-0.4-0.2-0.4-0.5c0-0.4-0.3-0.6-0.9-0.6c-1,0.1-1.6,1.2-1.6,3.5c0.3-0.7,0.9-1.1,1.8-1.1
		C3.4,27.7,3.9,28.4,4,29.8z M3.5,29.6c0-1.1-0.5-1.6-1.4-1.7c-0.9,0.1-1.4,0.5-1.6,1.3c0,1.7,0.5,2.5,1.5,2.5
		C3,31.7,3.5,31,3.5,29.6z"/>
	<path class="st0" d="M5.5,28.7l-0.1-0.1l0.2-3.5h3.2l-0.1,0.4H5.8l-0.1,2.6c0.4-0.3,0.8-0.5,1.4-0.5c1.3,0.1,1.9,0.8,2,2.1
		c-0.1,1.3-0.7,2.1-2,2.1c-1.2-0.1-1.9-0.6-2-1.5c0-0.3,0.1-0.4,0.3-0.4c0.3,0,0.4,0.2,0.3,0.6c0,0.7,0.4,1,1.3,1.1
		c1-0.1,1.5-0.7,1.6-2c-0.1-1.2-0.6-1.8-1.6-1.9C6.4,27.8,5.9,28.1,5.5,28.7z"/>
	<path class="st0" d="M14.6,28.5c0,2.2-0.8,3.3-2.2,3.4c-1.5,0-2.2-1.2-2.2-3.4c0-2.2,0.8-3.4,2.2-3.4
		C13.8,25.1,14.5,26.2,14.6,28.5z M14.1,28.5c-0.1-2.1-0.6-3.1-1.7-3.2c-1.1,0.1-1.7,1.2-1.7,3.2c0,2.1,0.6,3.1,1.7,3.2
		C13.5,31.6,14,30.5,14.1,28.5z"/>
	<g>
		<path class="st0" d="M26.5,28.1c0,2.5-0.8,3.8-2.4,3.8c-0.8,0-1.3-0.3-1.4-0.9c0-0.3,0.1-0.5,0.3-0.5c0.3,0,0.4,0.2,0.4,0.5
			c0,0.4,0.3,0.6,0.9,0.6c1.1-0.1,1.7-1.3,1.7-3.5c-0.4,0.8-1.1,1.2-1.9,1.2c-1.1,0-1.6-0.8-1.7-2.2c0.1-1.4,0.7-2.1,2-2.1
			C25.8,25,26.5,26.1,26.5,28.1z M26,27.8c0-1.7-0.5-2.6-1.6-2.6c-1,0-1.5,0.7-1.5,2c0,1.1,0.5,1.7,1.4,1.8
			C25.1,29,25.6,28.6,26,27.8z"/>
		<path class="st0" d="M28,28.7l-0.1-0.1l0.2-3.5h3.2l-0.1,0.4h-2.9l-0.1,2.6c0.4-0.3,0.8-0.5,1.4-0.5c1.3,0.1,1.9,0.8,2,2.1
			c-0.1,1.3-0.7,2.1-2,2.1c-1.2-0.1-1.9-0.6-2-1.5c0-0.3,0.1-0.4,0.3-0.4c0.3,0,0.4,0.2,0.3,0.6c0,0.7,0.4,1,1.3,1.1
			c1-0.1,1.5-0.7,1.6-2c-0.1-1.2-0.6-1.8-1.6-1.9C28.9,27.8,28.4,28.1,28,28.7z"/>
		<path class="st0" d="M37.1,28.5c0,2.2-0.8,3.3-2.2,3.4c-1.5,0-2.2-1.2-2.2-3.4c0-2.2,0.8-3.4,2.2-3.4
			C36.3,25.1,37.1,26.2,37.1,28.5z M36.6,28.5c-0.1-2.1-0.6-3.1-1.7-3.2c-1.1,0.1-1.7,1.2-1.7,3.2c0,2.1,0.6,3.1,1.7,3.2
			C36,31.6,36.5,30.5,36.6,28.5z"/>
	</g>
	<g>
		<path class="st0" d="M48.4,31.8h-3v-0.2c0.4,0,0.8,0,0.9-0.1c0.2-0.1,0.3-0.2,0.3-0.5v-4.7c0-0.1,0-0.3-0.1-0.4
			c-0.1-0.1-0.2-0.1-0.4-0.1h-0.8v-0.2c0.5-0.1,0.8-0.1,1.1-0.2c0.3-0.1,0.5-0.2,0.8-0.4V31c0,0.3,0.1,0.4,0.3,0.5
			c0.2,0.1,0.5,0.1,1,0.1V31.8z"/>
		<path class="st0" d="M53.8,30.1l-0.4,1.7h-3.6c0-1,0.8-2.1,2.2-3.2c0.8-0.6,1.2-1.3,1.2-2c-0.1-0.9-0.5-1.4-1.4-1.4
			c-0.8,0-1.3,0.3-1.4,0.9c0,0.2,0,0.4,0.1,0.5c0.1,0.1,0.1,0.3,0.1,0.4c0,0.2-0.1,0.3-0.3,0.3c-0.2,0-0.4-0.3-0.4-0.7
			c0.1-1,0.7-1.5,1.9-1.6c1.2,0,1.9,0.6,1.9,1.7c0.1,0.8-0.5,1.6-1.8,2.5c-1,0.7-1.7,1.4-1.8,2.1h2.1c0.4,0,0.7-0.1,0.9-0.2
			c0.2-0.2,0.4-0.6,0.5-1.1L53.8,30.1z"/>
		<path class="st0" d="M55.3,28.7l-0.1-0.1l0.2-3.5h3.2l-0.1,0.4h-2.9l-0.1,2.6c0.4-0.3,0.8-0.5,1.4-0.5c1.3,0.1,1.9,0.8,2,2.1
			c-0.1,1.3-0.7,2.1-2,2.1c-1.2-0.1-1.9-0.6-2-1.5c0-0.3,0.1-0.4,0.3-0.4c0.3,0,0.4,0.2,0.3,0.6c0,0.7,0.4,1,1.3,1.1
			c1-0.1,1.5-0.7,1.6-2c-0.1-1.2-0.6-1.8-1.6-1.9C56.2,27.8,55.7,28.1,55.3,28.7z"/>
		<path class="st0" d="M64.4,28.5c0,2.2-0.8,3.3-2.2,3.4c-1.5,0-2.2-1.2-2.2-3.4c0-2.2,0.8-3.4,2.2-3.4
			C63.6,25.1,64.3,26.2,64.4,28.5z M63.9,28.5c-0.1-2.1-0.6-3.1-1.7-3.2c-1.1,0.1-1.7,1.2-1.7,3.2c0,2.1,0.6,3.1,1.7,3.2
			C63.3,31.6,63.8,30.5,63.9,28.5z"/>
	</g>
	<g>
		<path class="st0" d="M75.9,31.8h-3v-0.2c0.4,0,0.8,0,0.9-0.1c0.2-0.1,0.3-0.2,0.3-0.5v-4.7c0-0.1,0-0.3-0.1-0.4
			c-0.1-0.1-0.2-0.1-0.4-0.1h-0.8v-0.2c0.5-0.1,0.8-0.1,1.1-0.2c0.3-0.1,0.5-0.2,0.8-0.4V31c0,0.3,0.1,0.4,0.3,0.5
			c0.2,0.1,0.5,0.1,1,0.1V31.8z"/>
		<path class="st0" d="M77.8,28.7l-0.1-0.1l0.2-3.5h3.2l-0.1,0.4h-2.9L78,28.2c0.4-0.3,0.8-0.5,1.4-0.5c1.3,0.1,1.9,0.8,2,2.1
			c-0.1,1.3-0.7,2.1-2,2.1c-1.2-0.1-1.9-0.6-2-1.5c0-0.3,0.1-0.4,0.3-0.4c0.3,0,0.4,0.2,0.3,0.6c0,0.7,0.4,1,1.3,1.1
			c1-0.1,1.5-0.7,1.6-2c-0.1-1.2-0.6-1.8-1.6-1.9C78.7,27.8,78.2,28.1,77.8,28.7z"/>
		<path class="st0" d="M82.9,28.7l-0.1-0.1l0.2-3.5h3.2l-0.1,0.4h-2.9L83,28.2c0.4-0.3,0.8-0.5,1.4-0.5c1.3,0.1,1.9,0.8,2,2.1
			c-0.1,1.3-0.7,2.1-2,2.1c-1.2-0.1-1.9-0.6-2-1.5c0-0.3,0.1-0.4,0.3-0.4c0.3,0,0.4,0.2,0.3,0.6c0,0.7,0.4,1,1.3,1.1
			c1-0.1,1.5-0.7,1.6-2c-0.1-1.2-0.6-1.8-1.6-1.9C83.8,27.8,83.3,28.1,82.9,28.7z"/>
		<path class="st0" d="M92,28.5c0,2.2-0.8,3.3-2.2,3.4c-1.5,0-2.2-1.2-2.2-3.4c0-2.2,0.8-3.4,2.2-3.4C91.2,25.1,91.9,26.2,92,28.5z
			 M91.5,28.5c-0.1-2.1-0.6-3.1-1.7-3.2c-1.1,0.1-1.7,1.2-1.7,3.2c0,2.1,0.6,3.1,1.7,3.2C90.8,31.6,91.4,30.5,91.5,28.5z"/>
	</g>
	<g>
		<path class="st0" d="M103.5,31.8h-3v-0.2c0.5,0,0.8,0,0.9-0.1c0.2-0.1,0.3-0.2,0.3-0.5v-4.7c0-0.1,0-0.3-0.1-0.4
			c-0.1-0.1-0.2-0.1-0.4-0.1h-0.8v-0.2c0.5-0.1,0.8-0.1,1.1-0.2c0.3-0.1,0.5-0.2,0.8-0.4V31c0,0.3,0.1,0.4,0.3,0.5
			c0.2,0.1,0.5,0.1,1,0.1V31.8z"/>
		<path class="st0" d="M109,30.2c0,1.1-0.7,1.7-2.1,1.7c-1.2-0.1-1.9-0.6-2-1.6c0-0.9,0.5-1.5,1.5-1.9c-0.8-0.4-1.2-0.9-1.2-1.7
			c0.1-1,0.6-1.6,1.7-1.6c1.1,0,1.6,0.6,1.7,1.6c0,0.8-0.4,1.3-1.3,1.6C108.5,28.6,109,29.2,109,30.2z M108.6,30.2
			c0-0.8-0.6-1.4-1.9-1.8c-0.9,0.4-1.3,1-1.3,1.8c0.1,0.9,0.6,1.4,1.5,1.5C108,31.7,108.5,31.2,108.6,30.2z M108.2,26.6
			c0-0.9-0.5-1.3-1.3-1.4c-0.9,0-1.4,0.5-1.4,1.4c0,0.6,0.5,1.1,1.6,1.5C107.8,27.8,108.2,27.3,108.2,26.6z"/>
		<path class="st0" d="M110.4,28.7l-0.1-0.1l0.2-3.5h3.2l-0.1,0.4h-2.9l-0.1,2.6c0.4-0.3,0.8-0.5,1.4-0.5c1.3,0.1,1.9,0.8,2,2.1
			c-0.1,1.3-0.7,2.1-2,2.1c-1.2-0.1-1.9-0.6-2-1.5c0-0.3,0.1-0.4,0.3-0.4c0.3,0,0.4,0.2,0.3,0.6c0,0.7,0.4,1,1.3,1.1
			c1-0.1,1.5-0.7,1.6-2c-0.1-1.2-0.6-1.8-1.6-1.9C111.3,27.8,110.8,28.1,110.4,28.7z"/>
		<path class="st0" d="M119.5,28.5c0,2.2-0.8,3.3-2.2,3.4c-1.5,0-2.2-1.2-2.2-3.4c0-2.2,0.8-3.4,2.2-3.4
			C118.7,25.1,119.5,26.2,119.5,28.5z M119,28.5c-0.1-2.1-0.6-3.1-1.7-3.2c-1.1,0.1-1.7,1.2-1.7,3.2c0,2.1,0.6,3.1,1.7,3.2
			C118.4,31.6,119,30.5,119,28.5z"/>
	</g>
	<line class="st1" x1="7.3" y1="9.6" x2="7.3" y2="22.2"/>
	<line class="st1" x1="29.8" y1="9.6" x2="29.8" y2="22.2"/>
	<line class="st1" x1="54.8" y1="9.6" x2="54.8" y2="22.2"/>
	<line class="st1" x1="82.4" y1="9.6" x2="82.4" y2="22.2"/>
	<line class="st1" x1="110" y1="9.6" x2="110" y2="22.2"/>
</g>
</svg>
