<?xml version="1.0" encoding="utf-8"?>
<!-- Generator: Adobe Illustrator 21.0.0, SVG Export Plug-In . SVG Version: 6.00 Build 0)  -->
<svg version="1.1" id="图层_1" xmlns="http://www.w3.org/2000/svg" xmlns:xlink="http://www.w3.org/1999/xlink" x="0px" y="0px"
	 viewBox="0 0 50 50" style="enable-background:new 0 0 50 50;" xml:space="preserve">
<style type="text/css">
	.st0{fill:#6EA082;}
</style>
<g>
	<g id="图层_x0020_1">
		<g id="_381022048">
			<g>
				<path id="_381022240" class="st0" d="M27.6,13.1v-2.6h-5.1v2.6H27.6z M24,4.6h2v3h4.4l0-2.6H29v1.4h-2V4.6h2l0,0h1.4l0,0h1.2
					c0.4,0,0.8,0.5,0.8,0.9l0,2.6H17.6l0-2.6c0-0.4,0.4-0.9,0.8-0.9h1.2l0,0H21l0,0h2v1.9h-2V5.1h-1.4l0,2.6H24L24,4.6L24,4.6z
					 M17.6,8.8l0,4.8c0,0.4,0.4,0.9,0.8,0.9h1.2l0-5.2h10.8l0,5.2h1.2c0.4,0,0.8-0.5,0.8-0.9l0-4.8H17.6L17.6,8.8z M20.4,10.1
					L20.4,10.1h9.1v3.5h-0.3l0,0h-8.8l0,0h0V10.1z"/>
				<path id="_381022192" class="st0" d="M30.4,15.5H19.6V18h10.8V15.5L30.4,15.5z M32.4,15.9v2.6H17.6v-2.6c0-0.4,0.4-0.9,0.8-0.9
					h13.2C32,15,32.4,15.5,32.4,15.9z M18.4,24.8c-0.4,0-0.8-0.4-0.8-0.9v-4.8c1.7,0,3.5,0,5.2,0v3.9h-2v-3.4h-1.2v4.8h4.2v-5.2
					c2.8,0,5.7,0,8.5,0v0.4l0,0V24c0,0.4-0.4,0.9-0.8,0.9h-4.4v-3.9h2v3.5h1.2l0-4.8h-4.6v5.2H18.4L18.4,24.8z"/>
			</g>
			<path id="_381022120" class="st0" d="M19,26.5H31c0.7,0,1.3,0.6,1.3,1.3v20.8C42.4,45.5,49.7,36.1,49.7,25
				C49.7,11.3,38.7,0.3,25,0.3C11.3,0.3,0.3,11.3,0.3,25c0,11.1,7.3,20.5,17.4,23.6V27.8C17.6,27.1,18.2,26.5,19,26.5z M32.4,48.9
				L32.1,49V27.8c0-0.6-0.5-1.1-1.1-1.1H19c-0.6,0-1.1,0.5-1.1,1.1V49l-0.3-0.1C7.4,45.7,0,36.2,0,25C0,11.2,11.2,0,25,0
				c13.8,0,25,11.2,25,25C50,36.2,42.6,45.7,32.4,48.9z"/>
			<path id="_381022072" class="st0" d="M19.9,27.7c0.2-0.1,0.3-0.1,0.3,0.2L20,28.4h3.6c0.5,0,0.7,0.2,0.7,0.7c0,0.6,0,1.4-0.1,2.4
				c0,1.2-0.7,1.5-2.2,1c-0.1-0.2-0.1-0.3,0.1-0.3c1.2,0.4,1.7,0.2,1.7-0.7c0.1-1,0.1-1.8,0.1-2.3c0-0.3-0.1-0.4-0.4-0.4h-3.7
				c-0.3,0.6-0.7,1-1.2,1.4c-0.2,0.1-0.3,0-0.2-0.2C19.1,29.3,19.6,28.6,19.9,27.7L19.9,27.7z M20,29.6h2.2c0.4,0,0.6,0.2,0.6,0.6
				v0.9c0,0.4-0.2,0.6-0.6,0.6h-2.5v1.5c0,0.3,0.1,0.5,0.4,0.4h3.7c0.5,0.1,0.8-0.3,0.7-1.2c0.1-0.1,0.2-0.1,0.3,0
				c0.1,1.1-0.3,1.6-1,1.5H20c-0.4,0-0.7-0.2-0.7-0.7v-3.1C19.3,29.9,19.5,29.6,20,29.6L20,29.6z M22,30h-1.9
				c-0.3,0-0.4,0.1-0.4,0.4v1H22c0.3,0,0.5-0.1,0.4-0.4v-0.6C22.5,30.1,22.3,30,22,30L22,30z M27.3,27.8c0.1-0.1,0.3-0.1,0.3,0V31
				c-0.1,0.2-0.3,0.2-0.3,0V27.8z M29.6,27.8v0.9h1.5c0.1,0.1,0.1,0.2,0,0.3h-1.5v1.1h1.3c0.2,0.1,0.2,0.2,0,0.3h-2.8
				c-0.2-0.1-0.2-0.2,0-0.3h1.1V29H28c-0.1-0.1-0.1-0.2,0-0.3h1.3v-0.9C29.4,27.7,29.5,27.7,29.6,27.8L29.6,27.8z M25.8,28
				c0.3,0.2,0.6,0.5,0.8,0.8c0,0.2-0.1,0.3-0.3,0.2c-0.2-0.3-0.5-0.5-0.8-0.7C25.5,28.1,25.6,28,25.8,28L25.8,28z M26.8,29.4
				c0.2-0.1,0.3,0,0.3,0.2c-0.2,0.4-0.6,0.8-1.1,1.3c-0.2,0.1-0.3,0-0.3-0.2C26.1,30.2,26.5,29.8,26.8,29.4z M28.2,30.7
				c0.2,0.2,0.4,0.4,0.4,0.6h2.7c0.2,0.1,0.2,0.2,0,0.3h-2.6c0.1,0.4,0.3,0.8,0.6,1c0.5-0.3,1-0.5,1.3-0.8c0.2,0,0.3,0.1,0.2,0.3
				c-0.3,0.3-0.8,0.6-1.3,0.8c0.6,0.5,1.2,0.8,1.9,0.9c0.1,0.1,0.1,0.3-0.1,0.3c-1.5-0.2-2.6-1.1-3-2.5H28c-0.4,0.4-0.7,0.6-0.9,0.8
				v1.1c0,0.3,0.5,0.3,1.5-0.2c0.2,0,0.3,0.1,0.1,0.3c-0.4,0.2-0.8,0.3-1.3,0.4c-0.4,0.1-0.6-0.1-0.6-0.4v-1
				c-0.7,0.3-1.1,0.5-1.4,0.6c-0.2,0-0.2-0.1-0.1-0.3c1-0.3,1.7-0.7,2.2-1.2h-2.2c-0.1-0.1-0.1-0.2,0-0.3h3
				c-0.1-0.1-0.2-0.3-0.3-0.4C28,30.7,28.1,30.6,28.2,30.7z M19.6,34.8c0,0.3-0.1,0.5-0.2,0.8h1v-0.9c0.1-0.1,0.2-0.1,0.3,0v0.9h1.7
				c0.2,0.1,0.2,0.2,0,0.3h-1.7v0.9h2.1c0.1,0.1,0.1,0.2,0,0.3h-2.1v0.9h1.1c0.4,0,0.6,0.2,0.6,0.6v1.6c0,0.5-0.2,0.7-0.6,0.7
				c-0.3,0-0.5-0.1-0.8-0.2c-0.1-0.1-0.1-0.3,0.1-0.3c0.3,0.1,0.5,0.2,0.6,0.2c0.3,0,0.4-0.1,0.3-0.4v-1.5c0-0.2-0.1-0.3-0.3-0.3h-1
				v2.6c-0.1,0.1-0.2,0.1-0.3,0v-2.6h-1c-0.2,0-0.3,0.1-0.3,0.3v2.2c-0.1,0.1-0.2,0.1-0.3,0v-2.3c0-0.4,0.2-0.6,0.6-0.6h1.1v-0.9
				h-1.9c-0.1-0.1-0.1-0.2,0-0.3h1.9V36h-1.1c-0.1,0.3-0.2,0.5-0.4,0.7c-0.2,0.1-0.3,0-0.3-0.2c0.4-0.6,0.6-1.2,0.7-1.8
				C19.4,34.6,19.5,34.6,19.6,34.8L19.6,34.8z M24.6,35v5.4c0,0.5-0.2,0.8-0.6,0.8c-0.2,0-0.5-0.1-0.9-0.2c-0.1-0.2-0.1-0.3,0.1-0.3
				c0.7,0.3,1.1,0.2,1-0.3V35C24.3,34.8,24.5,34.8,24.6,35z M23.5,35.3v4.4c-0.1,0.2-0.2,0.2-0.3,0v-4.4
				C23.2,35.1,23.4,35.1,23.5,35.3z M27.8,34.8c0.1-0.2,0.3-0.2,0.3,0.1c0,0.1-0.1,0.4-0.2,0.7h3.5c0.2,0.1,0.2,0.2,0,0.3h-2.8v1.5
				H31c0.1,0.1,0.1,0.2,0,0.3h-2.3v1.7h2.4c0.2,0.1,0.2,0.2,0,0.3h-2.4v1.4c-0.1,0.2-0.2,0.2-0.3,0v-5.3h-0.5
				c-0.3,0.8-0.6,1.5-0.9,2c-0.2,0.1-0.3,0.1-0.3-0.2C27.2,37,27.6,36,27.8,34.8L27.8,34.8z M26.8,34.9c-0.1,0.7-0.3,1.3-0.5,1.7
				v4.5c-0.1,0.2-0.2,0.2-0.3,0v-3.8c-0.2,0.4-0.4,0.7-0.6,0.9c-0.2,0.1-0.3,0-0.2-0.2c0.7-0.8,1.1-1.9,1.3-3.1
				C26.7,34.6,26.8,34.6,26.8,34.9L26.8,34.9z M18.9,42.1h5.5c0.2,0.1,0.2,0.2,0,0.3h-2.5v5.2h3c0.2,0.1,0.2,0.2,0,0.3h-6.3
				c-0.2-0.1-0.2-0.2,0-0.3h3v-5.2h-2.6C18.8,42.3,18.8,42.2,18.9,42.1L18.9,42.1z M26.3,42.2h5c0.2,0.1,0.2,0.2,0,0.3h-4.9
				c-0.2,0-0.3,0.1-0.3,0.3v1.3c0,1.7-0.1,3-0.6,3.9c-0.2,0.1-0.3,0.1-0.3-0.1c0.4-1,0.6-2.2,0.6-3.8v-1.4
				C25.8,42.4,25.9,42.2,26.3,42.2L26.3,42.2z"/>
		</g>
	</g>
</g>
</svg>
