<?xml version="1.0" encoding="utf-8"?>
<!-- Generator: Adobe Illustrator 21.0.0, SVG Export Plug-In . SVG Version: 6.00 Build 0)  -->
<svg version="1.1" id="sp" xmlns="http://www.w3.org/2000/svg" xmlns:xlink="http://www.w3.org/1999/xlink" x="0px" y="0px"
	 viewBox="0 0 92.7 14.2" style="enable-background:new 0 0 92.7 14.2;" xml:space="preserve">
<style type="text/css">
	.st0{fill:#332C2B;}
</style>
<path id="baozhuang" class="st0" d="M4.1,7.9L4.1,7.9h13.1v5h-0.4l0,0H4.1l0,0l0,0V7.9z M0,6v6.9c0,0.6,0.6,1.2,1.1,1.2h1.7l0-7.5
	h15.5v7.5h1.7c0.7,0,1.1-0.8,1.1-1.2V6H0z M9.2,0H12v4.3h6.3V0.7h-2v2h-2.9V0h2.9l0,0h2l0,0h1.7c0.6,0,1.1,0.7,1.1,1.2V5H0V1.3
	C0,0.7,0.6,0,1.1,0h1.7l0,0h2l0,0h2.9v2.7H4.8v-2h-2l0,3.7h6.3V0z M14.3,12.2V8.6H6.9v3.7H14.3z M45.2,1.3V5H24V1.3
	C24,0.7,24.5,0,25.1,0h19C44.6,0,45.2,0.7,45.2,1.3z M25.1,14.1c-0.5,0-1.1-0.6-1.1-1.2V6c2.5,0,5,0,7.5,0v5.6h-2.9v-5h-1.8v6.9h6V6
	C37,6,41,6,45.2,6v0.6l0,0v6.3c0,0.6-0.6,1.2-1.1,1.2h-6.4V8.5h2.9v5h1.8V6.6h-6.6v7.5H25.1z M42.3,0.7H26.8v3.7h15.5V0.7z"/>
<path id="shangping" class="st0" d="M53.6,11.5v-0.7l0,0v-0.7l0,0V8.5c0-0.6,0.6-1.3,1.1-1.3h1.4h0.3h2.8v-3h-5.5h-3.4v2.9l0,0v3.5
	l0,0v2.9h0.6h2.8h14.9v0.7H53.9h-2.8h-2.4c-0.6,0-1.1-0.7-1.1-1.3v-1.4v-0.9V7.1V6.8V4.8c0-0.6,0.6-1.3,1.1-1.3h2.8h2.4h5.5h2.9v2.7
	c0,1-0.5,1.5-1.3,1.5h-1h-0.6h-2.8v2.3v0.7h9.4V1.4H47.6V0.8L48.3,0h2.9l-0.7,0.7h17.2c0.6,0,1.1,0.7,1.1,1.3v9.5H56.5H53.6z
	 M92.7,6.2h-4.5h-2.9h-3.7V5.5h3.7V3h-3.7V2.4h3.7V0h2.9v2.4h4.5V3h-4.5v2.5h4.5V6.2z M87.1,11v2.5h5.7v0.7h-7.4
	c-0.6,0-1.1-0.7-1.1-1.3V11h-8.9v2.5h8.1v0.7h-9.9c-0.6,0-1.1-0.7-1.1-1.3V8.4h-0.9V7.7h21.2v0.7H75.3v2h17.4V11H87.1z M77.6,6.2
	L77.6,6.2V4.5h-4v2.4h-2.2V5.1c0-0.6,0.5-1.3,1.1-1.3h5V3h-5c-0.6,0-1.1-0.7-1.1-1.3V0h2.2v2.4h4V0h2.9v6.1l1.2,1.2h-2.9L77.6,6.2
	L77.6,6.2z"/>
</svg>
