<?xml version="1.0" encoding="utf-8"?>
<!-- Generator: Adobe Illustrator 21.0.0, SVG Export Plug-In . SVG Version: 6.00 Build 0)  -->
<svg version="1.1" id="sp" xmlns="http://www.w3.org/2000/svg" xmlns:xlink="http://www.w3.org/1999/xlink" x="0px" y="0px"
	 viewBox="0 0 115.5 14.2" style="enable-background:new 0 0 115.5 14.2;" xml:space="preserve">
<style type="text/css">
	.st0{fill:#332C2B;}
	.st1{fill-rule:evenodd;clip-rule:evenodd;fill:#332C2B;}
</style>
<path id="shangping" class="st0" d="M76.3,11.5v-0.7l0,0v-0.7l0,0V8.5c0-0.6,0.6-1.3,1.1-1.3h1.4h0.3h2.8v-3h-5.5H73v2.9l0,0v3.5
	l0,0v2.9h0.6h2.8h14.9v0.7H76.6h-2.8h-2.4c-0.6,0-1.1-0.7-1.1-1.3v-1.4v-0.9V7.1V6.8v-2c0-0.6,0.6-1.3,1.1-1.3h2.8h2.4h5.5H85v2.7
	c0,1-0.5,1.5-1.3,1.5h-1h-0.6h-2.8V10v0.7h9.4V1.4H70.3V0.8L71,0h2.9l-0.7,0.7h17.2c0.6,0,1.1,0.7,1.1,1.3v9.5H79.2H76.3z
	 M115.4,6.2h-4.5H108h-3.7V5.5h3.7V3h-3.7V2.4h3.7V0h2.9v2.4h4.5V3h-4.5v2.5h4.5V6.2z M109.8,11v2.5h5.7v0.7h-7.4
	c-0.6,0-1.1-0.7-1.1-1.3V11h-8.9v2.5h8.1v0.7h-9.9c-0.6,0-1.1-0.7-1.1-1.3V8.4h-0.9V7.7h21.2v0.7H98v2h17.4V11H109.8z M100.3,6.2
	L100.3,6.2V4.5h-4v2.4h-2.2V5.1c0-0.6,0.5-1.3,1.1-1.3h5V3h-5c-0.6,0-1.1-0.7-1.1-1.3V0h2.2v2.4h4V0h2.9v6.1l1.2,1.2h-2.9L100.3,6.2
	L100.3,6.2z"/>
<g>
	<path class="st1" d="M4,7.9L4,7.9h13.1v5h-0.4H4h0V7.9z M0,6l0,6.9c0,0.6,0.6,1.3,1.1,1.3h1.7l0-7.5h15.4l0,7.5H20
		c0.6,0,1.1-0.8,1.1-1.3l0-6.9H0z M9.1,0.1H12v4.3h6.3l0-3.7h-2v2h-2.9V0.1h2.9h2H20c0.6,0,1.1,0.7,1.1,1.3l0,3.7H0l0-3.7
		c0-0.6,0.6-1.3,1.1-1.3h1.7h2h2.9v2.7H4.8v-2h-2l0,3.7h6.3V0.1z M14.3,12.2V8.6H6.9v3.7H14.3z"/>
	<path class="st1" d="M64.7,0.7H49.3v3.7h15.4V0.7z M47.6,14.1c-0.5,0-1.1-0.6-1.1-1.3V6c2.5,0,5,0,7.5,0v5.6h-2.9V6.7h-1.8v6.9h6V6
		c4.1,0,8.2,0,12.3,0v0.6v6.2c0,0.6-0.6,1.3-1.1,1.3h-6.4V8.5h2.9v5h1.8l0-6.9h-6.5v7.5H47.6z M67.6,1.3V5H46.4V1.3
		c0-0.6,0.6-1.3,1.1-1.3h18.9C67,0.1,67.6,0.7,67.6,1.3z"/>
	<path class="st1" d="M28.8,8.5l0-1.9h12.7l0,1.9H28.8z M28.8,11l0-1.9h12.7l0,1.9H28.8z M44.4,2.6v0.6H33.2
		c0.3-0.2,0.6-0.4,0.9-0.6H44.4z M25.9,7.5l0,5.5c0,0.4,0.5,1.1,1.1,1.1h1.7l0-2.5h12.7l0,1.9h-3.3v0.6h3.3h0h1.7
		c0.6,0,1.1-0.8,1.1-1.3l0-6.2h0V6h0h-2.9H29.4c1.4-0.7,2.8-1.5,4.2-2.5h-1.4c0.6-0.4,1.1-0.8,1.7-1.2h1.4c0.9-0.7,1.8-1.5,2.7-2.3
		h-6.1c-1,0.9-2,1.8-3.1,2.6h-5.5v0.6h4.6c-1.5,1-3,1.9-4.6,2.6v2.6C24.1,8.2,25,7.9,25.9,7.5z"/>
</g>
</svg>
