<?xml version="1.0" encoding="utf-8"?>
<!-- Generator: Adobe Illustrator 21.0.0, SVG Export Plug-In . SVG Version: 6.00 Build 0)  -->
<svg version="1.1" id="图层_1" xmlns="http://www.w3.org/2000/svg" xmlns:xlink="http://www.w3.org/1999/xlink" x="0px" y="0px"
	 viewBox="0 0 50 50" style="enable-background:new 0 0 50 50;" xml:space="preserve">
<style type="text/css">
	.st0{fill-rule:evenodd;clip-rule:evenodd;fill:#FFFFFF;}
</style>
<g>
	<path class="st0" d="M16,4.2L22.7,8l-3,1.7L13,5.9L16,4.2L16,4.2z M30,27.4l-6.7-3.8v-7.4L30,20V27.4L30,27.4z M30.6,27.4l6.7-3.8
		v-7.4L30.6,20V27.4L30.6,27.4z M16,27.4l6.7-3.8v-7.4L16,20V27.4L16,27.4z M15.7,12.2l3.1,1.8l3.1,1.8l-3.1,1.8l-3.1,1.8l-3.1-1.8
		l-3.1-1.8l3.1-1.8L15.7,12.2L15.7,12.2z M15.4,27.4V20l-6.7-3.8v7.4L15.4,27.4L15.4,27.4z M19.7,10.4L16,8.3v3.3l6.7,3.8V8.7
		L19.7,10.4z"/>
	<path class="st0" d="M11.2,35.1L11.2,35.1h7.9v3h-0.3l0,0h-7.7l0,0h0V35.1L11.2,35.1z M24,38.9c-0.3,0-0.7-0.4-0.7-0.8V34
		c1.5,0,3,0,4.6,0v3.4h-1.7v-3H25v4.2h3.7V34c2.5,0,5,0,7.5,0v0.4h0l0,3.8c0,0.3-0.3,0.8-0.7,0.8h-3.9v-3.4h1.7v3h1.1l0-4.2h-4v4.6
		H24L24,38.9z M36.2,31.1v2.2H23.3v-2.2c0-0.3,0.3-0.8,0.7-0.8h11.5C35.8,30.4,36.2,30.8,36.2,31.1L36.2,31.1z M34.4,30.8H25V33h9.4
		V30.8L34.4,30.8z M8.7,34l0,4.2c0,0.4,0.4,0.8,0.7,0.8h1.1l0-4.6h9.4l0,4.6h1.1c0.4,0,0.7-0.5,0.7-0.8l0-4.2H8.7L8.7,34z
		 M14.3,30.4H16V33h3.8l0-2.2h-1.2V32h-1.7v-1.6h1.7l0,0h1.2l0,0h1.1c0.3,0,0.7,0.4,0.7,0.8l0,2.2H8.7l0-2.2c0-0.3,0.3-0.8,0.7-0.8
		h1.1l0,0h1.2l0,0h1.7V32h-1.7v-1.2h-1.2l0,2.2h3.8V30.4L14.3,30.4z M17.4,37.8v-2.2h-4.5v2.2H17.4L17.4,37.8z M41.1,36.2h1.6
		c0.1,0,0.1,0.1,0,0.1h-1.6c-0.1,0-0.1,0-0.1,0.1v0.5c0,0.6-0.3,1.7-0.5,2c-0.1,0-0.1,0-0.1,0c0.2-0.4,0.5-1.4,0.5-1.9v-0.5
		C40.9,36.2,40.9,36.2,41.1,36.2L41.1,36.2z M38.2,36.1c-0.1,0-0.1,0.1,0,0.1h1v1.9H38c-0.1,0-0.1,0.1,0,0.1h2.3
		c0.1,0,0.1-0.1,0-0.1h-1.1v-1.9h0.9c0.1,0,0.1-0.1,0-0.1H38.2L38.2,36.1z M41.1,33.5C41,33.7,41,34,40.9,34.1v1.6
		c0,0.1-0.1,0.1-0.1,0v-1.4c-0.1,0.1-0.1,0.2-0.2,0.3c-0.1,0-0.1,0-0.1-0.1c0.2-0.3,0.4-0.7,0.5-1.2C41,33.4,41.1,33.4,41.1,33.5
		L41.1,33.5z M41.4,33.4c-0.1,0.4-0.2,0.8-0.4,1.1c0,0.1,0,0.1,0.1,0.1c0.1-0.2,0.2-0.4,0.3-0.7h0.2v1.9c0,0.1,0.1,0.1,0.1,0v-0.5
		h0.9c0.1,0,0.1-0.1,0-0.1h-0.9v-0.6h0.8c0.1,0,0.1-0.1,0-0.1h-0.8v-0.6h1c0.1,0,0.1-0.1,0-0.1h-1.3c0-0.1,0-0.2,0.1-0.2
		C41.5,33.4,41.5,33.4,41.4,33.4L41.4,33.4z M39.8,33.6v1.6c0,0.1-0.1,0.1-0.1,0v-1.6C39.8,33.6,39.8,33.6,39.8,33.6L39.8,33.6z
		 M40.3,33.5c0-0.1-0.1-0.1-0.1,0v2c0,0.2-0.1,0.2-0.4,0.1c-0.1,0-0.1,0.1,0,0.1c0.1,0,0.2,0.1,0.3,0.1c0.2,0,0.2-0.1,0.2-0.3V33.5
		L40.3,33.5z M38.4,33.5c0,0.1,0,0.2-0.1,0.3h0.4v-0.3c0-0.1,0.1-0.1,0.1,0v0.3h0.6c0.1,0,0.1,0.1,0,0.1h-0.6v0.3h0.8
		c0.1,0,0.1,0.1,0,0.1h-0.8v0.3h0.4c0.1,0,0.2,0.1,0.2,0.2v0.6c0,0.2-0.1,0.3-0.2,0.3c-0.1,0-0.2,0-0.3-0.1c0-0.1,0-0.1,0-0.1
		c0.1,0.1,0.2,0.1,0.2,0.1c0.1,0,0.1,0,0.1-0.1v-0.5c0-0.1,0-0.1-0.1-0.1h-0.4v1c0,0.1-0.1,0.1-0.1,0v-1h-0.4c-0.1,0-0.1,0-0.1,0.1
		v0.8c0,0.1-0.1,0.1-0.1,0v-0.8c0-0.1,0.1-0.2,0.2-0.2h0.4v-0.3H38c-0.1,0-0.1-0.1,0-0.1h0.7v-0.3h-0.4c0,0.1-0.1,0.2-0.1,0.3
		c-0.1,0-0.1,0-0.1-0.1c0.1-0.2,0.2-0.4,0.2-0.6C38.4,33.4,38.4,33.4,38.4,33.5L38.4,33.5z M41.6,31.9c0.1,0.1,0.1,0.1,0.2,0.2h1
		c0.1,0,0.1,0.1,0,0.1h-1c0.1,0.1,0.1,0.3,0.2,0.4c0.2-0.1,0.4-0.2,0.5-0.3c0.1,0,0.1,0,0.1,0.1c-0.1,0.1-0.3,0.2-0.5,0.3
		c0.2,0.2,0.4,0.3,0.7,0.3c0.1,0.1,0,0.1,0,0.1c-0.6-0.1-0.9-0.4-1.1-0.9h-0.1c-0.1,0.1-0.2,0.2-0.3,0.3V33c0,0.1,0.2,0.1,0.5-0.1
		c0.1,0,0.1,0.1,0,0.1c-0.1,0.1-0.3,0.1-0.5,0.2c-0.1,0-0.2,0-0.2-0.2v-0.4c-0.2,0.1-0.4,0.2-0.5,0.2c-0.1,0-0.1-0.1,0-0.1
		c0.4-0.1,0.6-0.3,0.8-0.4h-0.8c-0.1,0-0.1-0.1,0-0.1h1.1c0-0.1-0.1-0.1-0.1-0.2C41.5,31.9,41.5,31.9,41.6,31.9L41.6,31.9z
		 M41.1,31.5c-0.1,0.2-0.2,0.3-0.4,0.5c0,0.1,0,0.1,0.1,0.1c0.2-0.2,0.3-0.4,0.4-0.5C41.2,31.5,41.1,31.4,41.1,31.5L41.1,31.5z
		 M40.7,31c0.1,0.1,0.2,0.2,0.3,0.3c0,0.1,0,0.1-0.1,0.1c-0.1-0.1-0.2-0.2-0.3-0.3C40.6,31,40.6,31,40.7,31L40.7,31z M42.1,30.9v0.3
		h0.6c0.1,0,0.1,0.1,0,0.1h-0.6v0.4h0.5c0.1,0,0.1,0.1,0,0.1h-1c-0.1,0-0.1-0.1,0-0.1H42v-0.4h-0.5c-0.1,0-0.1-0.1,0-0.1H42v-0.3
		C42,30.8,42.1,30.8,42.1,30.9L42.1,30.9z M41.2,30.9v1.2c0,0.1,0.1,0.1,0.1,0v-1.2C41.3,30.8,41.3,30.8,41.2,30.9L41.2,30.9z
		 M39.3,31.7h-0.7c-0.1,0-0.2,0.1-0.2,0.2v0.4h0.8c0.1,0,0.2,0,0.2-0.2v-0.2C39.5,31.7,39.4,31.7,39.3,31.7L39.3,31.7z M38.6,31.6
		h0.8c0.2,0,0.2,0.1,0.2,0.2v0.3c0,0.2-0.1,0.2-0.2,0.2h-0.9v0.6c0,0.1,0.1,0.2,0.2,0.2H40c0.2,0,0.3-0.1,0.3-0.4
		c0-0.1,0.1-0.1,0.1,0c0,0.4-0.1,0.6-0.4,0.6h-1.4c-0.2,0-0.2-0.1-0.2-0.2v-1.1C38.3,31.6,38.4,31.6,38.6,31.6L38.6,31.6z
		 M38.6,30.8c0.1,0,0.1,0,0.1,0.1l-0.1,0.2h1.3c0.2,0,0.3,0.1,0.2,0.2c0,0.2,0,0.5,0,0.9c0,0.4-0.2,0.6-0.8,0.4
		c-0.1-0.1,0-0.1,0-0.1c0.4,0.2,0.6,0.1,0.6-0.3c0-0.4,0-0.7,0-0.8c0-0.1,0-0.2-0.2-0.2h-1.4c-0.1,0.2-0.3,0.4-0.4,0.5
		c-0.1,0-0.1,0-0.1-0.1C38.2,31.4,38.4,31.2,38.6,30.8L38.6,30.8z M38.2,38.9h2l0.1-0.1L38.2,38.9c-0.2-0.1-0.4-0.3-0.4-0.5
		c0-2.5,0-5,0-7.5c0-0.2,0.2-0.4,0.4-0.4h4.4c0.2,0,0.4,0.2,0.4,0.4c0,2.5,0,5,0,7.5c0,0.2-0.2,0.4-0.4,0.4h-1.9l-0.1,0.1h1.9
		c0.3,0,0.5-0.2,0.5-0.5c0-2.5,0-5,0-7.5c0-0.3-0.2-0.5-0.5-0.5h-4.4c-0.3,0-0.5,0.2-0.5,0.5c0,2.5,0,5,0,7.5
		C37.7,38.7,37.9,38.9,38.2,38.9z"/>
	<path class="st0" d="M8.8,40.5C8.8,40.6,8.8,40.6,8.8,40.5c0,0.1,0,0.1,0,0.1v0.8c0,0,0,0,0,0c0,0,0,0,0,0c0,0,0,0,0,0c0,0,0,0,0,0
		c0,0,0,0,0,0c0,0,0,0,0,0l0.1,0c0,0,0.1-0.1,0.1-0.2l0.3-0.3c0,0,0,0,0,0c0,0,0,0,0,0L9,41.3l-0.2,0.2v-0.7c0-0.1,0-0.1,0-0.1
		c0,0,0,0,0,0L8.8,40.5C8.8,40.5,8.8,40.5,8.8,40.5L8.8,40.5z M8.9,41.7C8.9,41.7,8.9,41.7,8.9,41.7c0.1-0.1,0.2-0.1,0.3-0.2
		c0.1-0.1,0.1-0.2,0.2-0.3c0-0.1,0-0.1,0-0.2c0,0,0-0.1,0-0.1l0-0.2c0,0,0-0.1,0-0.1l0-0.1c0,0,0-0.1,0-0.1c0,0,0,0,0-0.1
		c0,0,0,0,0,0l0.1,0.1c0,0,0,0,0,0c0,0,0,0,0,0.1l0,0.2c0,0.1,0,0.2,0,0.2c0,0.1,0,0.1,0,0.2c0,0,0,0,0,0l0.2,0.2c0,0,0,0,0,0
		c0,0,0,0,0,0c0,0,0,0,0,0.1c0,0,0,0,0,0c0,0,0,0,0,0c0,0,0,0,0,0c0-0.1-0.1-0.2-0.1-0.2l-0.1-0.1c0,0,0,0,0,0c0,0,0,0,0,0
		c0,0.1-0.1,0.2-0.2,0.3C9.2,41.6,9.1,41.7,8.9,41.7C8.9,41.8,8.9,41.8,8.9,41.7C8.9,41.8,8.9,41.7,8.9,41.7L8.9,41.7z M9,40.5
		l0.2,0.3c0,0,0,0,0,0c0,0,0,0.1,0,0.1c0,0,0,0,0,0c0,0,0,0,0,0c0,0,0,0,0,0c0-0.1,0-0.1-0.1-0.2C9.1,40.7,9.1,40.6,9,40.5
		C9,40.5,9,40.5,9,40.5L9,40.5z M10.4,41.2c0,0,0,0.1,0,0.2c0,0.1-0.1,0.1-0.1,0.2c0,0-0.1,0.1-0.2,0.1c-0.1,0-0.1,0.1-0.2,0.1
		c0,0,0,0,0,0c0.1,0,0.2-0.1,0.2-0.1c0.1-0.1,0.2-0.2,0.3-0.3C10.5,41.3,10.5,41.3,10.4,41.2L10.4,41.2l0.2,0c0,0,0,0.1,0,0.1
		c0,0.1,0,0.2,0,0.3c0,0,0,0,0,0c0,0,0,0.1,0,0.1c0,0,0,0.1,0.1,0.1c0.1,0,0.1,0,0.2,0c0.1,0,0.1,0,0.2,0c0,0,0.1,0,0.1,0
		c0,0,0,0,0,0c0-0.1,0-0.1,0-0.1c0-0.1,0-0.2,0-0.2c0,0,0,0,0,0h0l0,0.1l0,0.1c0,0,0,0,0,0c0,0-0.1,0-0.1,0c-0.1,0-0.1,0-0.2,0
		c0,0,0,0-0.1,0c0,0,0-0.1,0-0.1c0-0.1,0-0.2,0-0.2c0,0,0-0.1,0-0.1l-0.1-0.1l0.2,0c0.1,0,0.2,0,0.2,0h0c0,0,0,0,0,0c0,0,0,0,0,0
		L11,41c0,0,0,0-0.1,0c0,0-0.1,0-0.1,0L10.4,41.2c-0.2,0-0.3,0-0.3,0h0c0,0,0,0,0,0c0,0,0,0,0,0c0,0,0,0,0.1,0c0,0,0,0,0.1,0
		C10.3,41.2,10.3,41.2,10.4,41.2C10.4,41.2,10.4,41.2,10.4,41.2L10.4,41.2z M10.5,40.9c-0.1,0-0.1,0-0.2,0h0c0,0,0,0,0,0
		c0,0,0,0,0.1,0.1c0,0,0,0,0,0C10.4,40.9,10.5,40.9,10.5,40.9c0,0,0.1,0,0.3,0c0,0,0,0,0,0l0,0c0,0,0,0,0,0l-0.1,0c0,0-0.1,0-0.2,0
		L10.5,40.9L10.5,40.9z M10.2,40.7C10.2,40.7,10.2,40.7,10.2,40.7c0.1,0,0.2,0,0.3,0c0.3,0,0.4,0,0.5,0c0,0,0-0.1,0.1-0.1
		c0,0,0,0,0,0c0,0,0.1,0.1,0.1,0.1c0,0,0,0,0,0c0,0,0,0,0,0c0,0-0.1,0.1-0.2,0.2c0,0,0,0,0,0c0,0,0,0,0,0c0,0,0.1-0.1,0.1-0.1
		l-0.1,0l-0.3,0l-0.2,0L10.2,40.7c0,0.1,0,0.1,0,0.2c0,0,0,0.1,0,0.1c0,0,0,0,0,0c0-0.1,0-0.1,0-0.1c0,0,0,0,0,0
		C10.1,40.8,10.1,40.7,10.2,40.7c0,0,0-0.1,0-0.1l0,0C10.2,40.6,10.2,40.7,10.2,40.7L10.2,40.7z M10.5,40.4
		C10.5,40.4,10.5,40.4,10.5,40.4c0.1,0.1,0.1,0.2,0.1,0.2c0,0,0,0,0,0c0,0,0,0,0,0c0,0,0,0,0,0c0,0,0,0,0,0c0,0,0,0,0,0
		c0,0,0,0-0.1-0.1C10.6,40.4,10.6,40.4,10.5,40.4C10.5,40.4,10.5,40.3,10.5,40.4C10.5,40.3,10.5,40.3,10.5,40.4L10.5,40.4z
		 M11.3,41.3C11.3,41.3,11.3,41.3,11.3,41.3C11.3,41.3,11.3,41.3,11.3,41.3c0.1,0,0.1,0,0.1,0c0,0,0.1,0,0.1-0.1
		c0.1,0,0.1-0.1,0.2-0.2l0,0.1c0,0,0,0,0,0c0,0,0,0,0,0c0,0,0,0,0,0.1c0,0,0,0,0,0c0,0,0,0,0,0l0,0c0,0,0,0,0-0.1l0-0.2
		c0.1,0,0.1,0.1,0.1,0.1c0,0,0,0,0,0c0,0,0,0,0,0c0,0,0,0,0,0c0,0,0,0,0,0l-0.1,0c0,0-0.1,0-0.1,0c0,0,0,0,0,0l0.2,0h0c0,0,0,0,0,0
		c0,0,0,0,0,0l0-0.1c0,0,0,0,0,0l0,0c0,0,0,0,0,0c0,0,0,0,0,0c0,0,0,0,0,0c0,0,0,0,0,0l0,0c0,0-0.1,0-0.1,0v-0.1c0.1,0,0.2,0,0.3,0
		c0,0,0,0,0,0c0,0,0,0,0,0c0,0,0,0,0,0c0,0,0,0-0.1,0c0,0-0.1,0-0.1,0c0-0.1,0-0.1,0-0.1c0,0,0,0,0,0c0,0,0,0-0.1-0.1c0,0,0,0,0,0
		c0,0,0,0,0,0.1c0,0,0,0.1,0,0.1c-0.2,0-0.3,0-0.3,0c0,0,0,0,0,0c0,0,0,0,0.1,0c0,0,0.1,0,0.1,0l0.1,0v0.1l-0.2,0l0-0.1c0,0,0,0,0,0
		c0,0,0,0,0,0l0,0c0,0,0,0.1,0,0.1c0,0,0,0,0,0.1c0,0,0,0,0,0l0,0.1c0,0,0,0,0,0c0,0,0,0,0,0c0,0,0,0,0,0l0,0c0,0,0.1,0,0.1,0
		c0,0,0,0.1-0.1,0.1c0,0-0.1,0.1-0.1,0.1C11.5,41.2,11.4,41.2,11.3,41.3C11.3,41.3,11.3,41.3,11.3,41.3L11.3,41.3z M11.7,40.9
		l-0.1,0c0,0,0-0.1,0-0.1l0.1,0V40.9L11.7,40.9z M11.8,40.9v-0.1c0,0,0.1,0,0.1,0l0,0.1C11.8,40.9,11.8,40.9,11.8,40.9L11.8,40.9z
		 M11.6,41.4C11.6,41.4,11.6,41.4,11.6,41.4L11.6,41.4c0.1,0,0.1,0,0.1,0.1C11.7,41.5,11.7,41.5,11.6,41.4c0.1,0.1,0.1,0.1,0.1,0.1
		l0,0.1l0.2,0v-0.3l-0.2,0C11.7,41.3,11.6,41.3,11.6,41.4C11.6,41.3,11.5,41.3,11.6,41.4C11.5,41.3,11.5,41.3,11.6,41.4
		c-0.1-0.1-0.1-0.1-0.1-0.1l0.1,0l0.2,0l0.3,0c0,0,0.1,0,0.1,0c0,0,0.1,0,0.1,0.1c0,0,0,0,0,0c0,0-0.1,0-0.1,0l-0.3,0v0.1l0.2,0
		c0,0,0.1,0,0.1,0c0,0,0,0,0,0c0,0,0,0,0.1,0c0,0,0,0,0,0c0,0,0,0,0,0c-0.1,0-0.2,0-0.3,0v0.2l0.3,0c0.1,0,0.1,0,0.2,0
		c0,0,0.1,0,0.1,0.1c0,0,0,0,0,0c0,0-0.1,0-0.1,0c-0.1,0-0.2,0-0.3,0l-0.1,0c-0.2,0-0.4,0-0.5,0c0,0-0.1,0-0.1,0c0,0,0,0-0.1,0
		c0,0,0,0-0.1,0c0,0,0,0,0,0c0,0,0,0,0,0c0,0,0.1,0,0.1,0l0.2,0v-0.1C11.6,41.5,11.6,41.5,11.6,41.4C11.6,41.4,11.6,41.4,11.6,41.4
		L11.6,41.4z M11.9,41.2C11.9,41.2,11.9,41.2,11.9,41.2c0.1-0.1,0.1-0.1,0.2-0.1c0,0,0.1-0.1,0.1-0.1c0,0-0.1-0.1-0.1-0.1
		c0,0,0,0,0,0c0,0,0,0,0,0.1c0,0,0,0,0,0c0,0,0,0,0,0c0,0,0,0,0,0l0,0l0,0c0,0,0-0.1,0-0.1c0,0,0,0,0,0c0,0,0-0.1,0.1-0.1
		c0,0,0-0.1,0-0.1c0,0,0-0.1,0-0.1c0,0,0,0,0-0.1c0,0,0,0,0,0l0.1,0.1c0,0,0,0,0,0c0,0,0,0,0,0c0,0,0,0,0,0.1c0,0,0,0.1,0,0.1
		c0,0,0.1,0,0.1,0c0.1,0,0.1,0,0.2,0c0,0,0.1,0,0.1,0l0.1,0c0,0,0,0,0,0c0,0,0,0,0,0l0,0c0,0-0.1,0-0.1,0c0,0.1-0.1,0.2-0.1,0.3
		c0.1,0.1,0.1,0.1,0.2,0.1c0.1,0,0.1,0,0.2,0v0l-0.2,0L12.2,41c-0.1,0.1-0.1,0.1-0.2,0.1C12,41.2,11.9,41.2,11.9,41.2
		C11.9,41.2,11.9,41.2,11.9,41.2C11.9,41.2,11.9,41.2,11.9,41.2L11.9,41.2z M12,40.8C12.1,40.8,12.1,40.8,12,40.8
		C12.1,40.8,12.1,40.8,12,40.8C12.1,40.9,12.1,40.9,12,40.8l0.1,0.1c0.1-0.1,0.1-0.2,0.1-0.2L12,40.8L12,40.8L12,40.8z M12.6,41.1
		C12.6,41.1,12.6,41.1,12.6,41.1C12.7,41.1,12.7,41.1,12.6,41.1c0.1,0,0.1,0,0.1-0.1l0.1-0.1l0.1-0.2l0,0.7c0,0,0,0.1,0,0.1l0,0.1
		c0,0,0,0.1,0,0.1c0,0,0,0,0,0c0,0,0,0,0,0c0,0,0,0,0,0c0,0,0-0.1,0-0.2l0-0.9l0.1-0.1c0,0,0,0,0.1-0.1l-0.1-0.1c0,0,0,0,0,0
		c0,0.1,0,0.1-0.1,0.2c0,0.1-0.1,0.2-0.1,0.2C12.8,40.9,12.7,41,12.6,41.1C12.7,41.1,12.7,41.1,12.6,41.1
		C12.6,41.1,12.6,41.1,12.6,41.1L12.6,41.1z M13,41.1c0,0,0.1-0.1,0.1-0.1c0,0,0,0,0-0.1c0-0.1,0.1-0.1,0.1-0.2
		c0-0.1,0.1-0.2,0.1-0.2c0,0,0-0.1,0-0.1c0,0,0-0.1,0-0.1c0,0,0,0,0,0l0.1,0.1c0,0,0,0,0,0c0,0,0,0,0,0.1c0,0,0,0,0,0.1
		c0,0,0,0.1-0.1,0.1l0.4-0.1c0,0,0.1,0,0.1,0c0,0,0,0,0.1,0l0.1,0c0,0,0,0,0,0c0,0,0,0,0,0l-0.2,0l-0.2,0V41c0,0,0.1,0,0.1,0
		c0,0,0,0,0.1,0l0.1,0c0,0,0,0,0.1,0c0,0,0.1,0,0.1,0.1c0,0,0,0,0,0l-0.1,0c-0.1,0-0.2,0-0.2,0c0,0,0,0,0,0v0.2c0,0,0,0,0.1,0
		c0,0,0.1,0,0.1,0c0.1,0,0.1,0,0.2,0l0.1,0c0,0,0,0,0,0c0,0,0,0,0,0c-0.1,0-0.1,0-0.1,0c-0.1,0-0.1,0-0.1,0c-0.1,0-0.1,0-0.1,0
		c0,0,0,0,0,0c0,0,0,0,0,0v0.3c0,0,0,0.1,0,0.1c0,0,0,0.1,0,0.1c0,0,0,0,0,0c0,0,0,0,0,0c0,0,0,0,0-0.1c0,0,0,0,0,0c0,0,0,0,0,0
		c0,0,0-0.1,0-0.1c0,0,0,0,0,0l0-0.7l-0.1,0C13.2,40.9,13.2,41,13,41.1L13,41.1L13,41.1L13,41.1z M14.5,41.6l-0.3,0l-0.1,0
		c0,0,0,0,0,0c0,0,0,0,0,0l0.1,0.1c0.1,0,0.1,0,0.1,0l0.5,0l0.4,0c0,0,0,0,0.1,0c0,0,0,0,0,0c0,0,0,0,0,0c0,0-0.1,0-0.1-0.1
		c0,0-0.1,0-0.1,0c0,0-0.1,0-0.1,0l-0.2,0l0-0.2c0,0,0,0,0,0c0,0,0.1-0.1,0.1-0.1c0.1-0.1,0.1-0.2,0.2-0.3c0,0,0,0,0,0c0,0,0,0,0,0
		c0,0,0,0,0,0c0,0,0-0.1-0.1-0.1c0,0,0,0,0,0c0,0.1,0,0.1,0,0.2c0,0.1-0.1,0.1-0.1,0.2c0,0.1-0.1,0.1-0.1,0.1c0,0,0,0,0,0l0-0.6
		c0-0.1,0-0.1,0-0.2l-0.1-0.1c0,0,0,0,0,0c0,0,0,0.1,0,0.1l0,0.1l0,1L14.5,41.6l0.1-0.9c0-0.1,0-0.1,0-0.1l-0.1-0.1c0,0,0,0,0,0
		c0,0,0,0.1,0,0.1c0,0,0,0.1,0,0.1L14.5,41.6L14.5,41.6z M14.2,40.9C14.2,40.9,14.2,40.9,14.2,40.9l0.2,0.3c0,0,0,0,0,0.1
		c0,0,0,0,0,0.1c0,0,0,0,0,0c0,0,0,0,0,0c0,0,0,0,0,0c0-0.1,0-0.1,0-0.2c0-0.1,0-0.1-0.1-0.2C14.2,41,14.2,40.9,14.2,40.9
		C14.2,40.9,14.2,40.9,14.2,40.9L14.2,40.9z M15.6,41.8C15.6,41.8,15.6,41.8,15.6,41.8C15.6,41.8,15.6,41.8,15.6,41.8
		c0.1,0,0.1,0,0.2-0.1c0,0,0.1,0,0.1-0.1c0.1-0.1,0.2-0.1,0.3-0.2l0.1,0.1c0,0,0.1,0.1,0.1,0.1l0.3,0v0c0,0,0,0-0.1,0
		c-0.1,0-0.1,0-0.1,0c0,0-0.1,0-0.1-0.1c0,0-0.1-0.1-0.1-0.1c0.1-0.1,0.1-0.1,0.1-0.2c0,0,0-0.1,0.1-0.1c0,0,0,0,0,0c0,0,0,0,0,0
		l0,0c0,0,0,0,0,0c0,0,0,0,0,0c0,0,0,0,0,0l-0.4,0.1c0,0,0,0,0,0c0,0,0,0,0,0l0.1,0c0,0,0.1,0,0.1,0l0.2,0c0,0.1-0.1,0.2-0.1,0.3
		c0,0-0.1-0.1-0.1-0.1c0,0,0,0,0-0.1c0,0-0.1,0-0.1,0c0,0,0,0,0,0c0,0,0.1,0,0.1,0.1c0.1,0.1,0.1,0.1,0.1,0.1c0,0,0,0,0,0
		c0,0-0.1,0.1-0.1,0.1c0,0-0.1,0.1-0.1,0.1C15.8,41.7,15.7,41.7,15.6,41.8C15.6,41.8,15.6,41.8,15.6,41.8L15.6,41.8z M16,40.5
		l0.1,0.1l0.2,0l0,0c0,0,0,0,0,0c0,0,0,0,0,0l0,0c0,0,0,0,0,0c0,0,0,0,0,0c0,0,0,0,0,0c0,0,0,0,0,0v0.2c0,0,0,0.1,0,0.1
		c0,0,0,0,0.1,0c0,0,0.1,0,0.1,0c0,0,0,0,0,0c0,0,0,0,0.1,0c0,0,0,0,0,0c0,0,0,0,0,0c-0.1,0-0.1,0-0.2,0c-0.1,0-0.1,0-0.1,0
		c0,0,0-0.1,0-0.1v-0.2l-0.2,0c0,0.1,0,0.1,0,0.2c0,0,0,0.1,0,0.1c0,0,0,0.1-0.1,0.1c0,0,0,0,0,0c0,0,0,0-0.1,0c0,0,0,0,0,0
		c0,0,0,0,0,0c0,0,0,0,0,0c0,0,0,0,0,0c0,0,0,0,0,0c0,0,0.1-0.1,0.1-0.1c0-0.1,0-0.1,0-0.2C16,40.6,16,40.5,16,40.5
		C15.9,40.5,15.9,40.5,16,40.5L16,40.5z M15.6,40.9C15.6,40.9,15.6,40.9,15.6,40.9C15.6,40.9,15.6,40.9,15.6,40.9
		C15.6,40.9,15.6,40.9,15.6,40.9l0.1,0c0,0,0,0,0,0c0,0,0,0,0,0c0,0,0,0,0,0.1l0,0.5l0.2-0.2c0,0,0,0,0,0c0,0,0,0,0,0
		c-0.1,0.1-0.2,0.2-0.2,0.3l0,0.1l-0.1,0c0,0,0,0,0,0c0,0,0,0,0,0c0,0,0-0.1,0-0.1L15.6,40.9C15.6,41,15.5,41,15.6,40.9
		C15.5,41,15.5,41,15.5,41c0,0,0,0-0.1,0l-0.1,0c0,0,0,0,0,0c0,0,0,0,0,0L15.6,40.9L15.6,40.9z M15.5,40.5
		C15.5,40.5,15.5,40.5,15.5,40.5c0,0.1,0.1,0.1,0.1,0.2c0,0,0,0.1,0.1,0.1c0,0,0,0,0,0c0,0,0,0,0,0c0,0,0-0.1,0-0.1c0,0,0,0,0,0
		L15.5,40.5z"/>
	<path class="st0" d="M16.7,41.3C16.7,41.3,16.7,41.3,16.7,41.3C16.7,41.3,16.7,41.3,16.7,41.3c0.1,0,0.1,0,0.2,0
		c0,0,0.1-0.1,0.2-0.1c0,0,0,0.1,0,0.1l0,0.3c0,0,0,0,0,0.1c0,0,0,0,0,0.1c0,0,0,0,0,0c0,0,0,0,0,0c0,0,0,0,0,0c0,0,0-0.1,0-0.1
		l0.1,0l0.3,0l0.1,0.1c0,0,0,0,0,0c0,0,0,0,0,0l0-0.1c0,0,0,0,0-0.1l0-0.4c0,0,0,0,0,0c0,0,0,0,0,0l0.1,0.1l0.1,0c0,0,0.1,0,0.1,0
		c0,0,0,0,0,0c-0.1,0-0.1,0-0.2,0c0,0,0,0-0.1,0c0,0-0.1,0-0.1-0.1l-0.3-0.2c0,0,0.1-0.1,0.1-0.1c0,0,0-0.1,0.1-0.1
		c0,0,0-0.1,0.1-0.1c0,0,0,0,0,0c0,0,0,0,0,0c0,0,0,0,0,0l-0.1-0.1c0,0,0,0,0,0c0,0,0,0,0,0c0,0,0,0,0,0.1l-0.1,0
		c-0.1,0-0.2,0-0.2,0l0.1-0.1c0,0,0,0,0.1-0.1l-0.1-0.1c0,0,0,0,0,0c0,0,0,0.1,0,0.1c0,0,0,0,0,0.1c0,0,0,0,0,0.1
		c-0.1,0.1-0.2,0.2-0.3,0.3c0,0,0,0,0,0c0,0,0,0,0,0c0,0,0,0,0,0c0,0,0,0,0.1,0c0,0,0,0,0.1-0.1c0,0,0.1,0,0.1-0.1
		c0,0,0.1-0.1,0.1-0.1l0,0c0,0,0,0,0,0c0,0,0,0,0.1,0c0,0,0.1,0,0.1,0c0,0,0.1,0,0.1,0c0,0.1-0.1,0.2-0.2,0.2l-0.1-0.1
		c0,0,0,0,0-0.1c0,0-0.1,0-0.1,0c0,0,0,0,0,0c0,0,0,0,0.1,0c0,0,0,0,0.1,0.1c-0.1,0.1-0.2,0.1-0.3,0.2
		C16.9,41.1,16.8,41.2,16.7,41.3L16.7,41.3L16.7,41.3z M17.6,41.1C17.6,41.1,17.6,41.1,17.6,41.1C17.6,41.1,17.5,41.1,17.6,41.1
		l-0.5,0.1l0,0c0.1-0.1,0.2-0.1,0.3-0.2l0.1,0.1L17.6,41.1L17.6,41.1z M17.1,41.6l0-0.4l0.2,0l0,0.2l-0.2,0c0,0,0,0,0,0c0,0,0,0,0,0
		c0,0,0.1,0,0.1,0c0,0,0,0,0.1,0l0,0.2L17.1,41.6L17.1,41.6z M17.3,41.6l0-0.2l0.1,0c0,0,0.1,0,0.1,0c0,0,0,0,0,0c0,0,0,0-0.1,0
		c0,0-0.1,0-0.1,0c0,0,0,0,0,0l0-0.2l0.2,0l0,0.4c0,0,0,0.1,0,0.1l-0.1,0C17.5,41.6,17.4,41.6,17.3,41.6
		C17.4,41.6,17.4,41.6,17.3,41.6L17.3,41.6z M18,41.6C18,41.6,18,41.7,18,41.6C18.1,41.7,18.1,41.6,18,41.6c0.2-0.1,0.2-0.2,0.3-0.3
		c0-0.1,0.1-0.1,0.1-0.2c0-0.1,0-0.1,0.1-0.2c0,0,0.1,0.1,0.1,0.1l0.1,0.2c-0.1,0.1-0.1,0.1-0.2,0.2c-0.1,0.1-0.2,0.1-0.3,0.2
		c0,0,0,0,0,0c0,0,0,0,0,0l0,0c0.1,0,0.2-0.1,0.3-0.1c0.1-0.1,0.2-0.1,0.3-0.2l0.2,0.3l0.3,0c0,0,0,0,0,0l-0.1,0c0,0-0.1,0-0.1-0.1
		c0,0-0.1-0.1-0.1-0.1c0,0-0.1-0.1-0.1-0.1c0,0,0.1-0.1,0.1-0.1L19,41c0-0.1,0-0.1,0-0.1c0,0,0,0,0,0c0,0,0,0,0,0c0,0,0,0-0.1-0.1
		c0,0,0,0,0,0c0,0,0,0,0,0c0,0,0,0,0,0l-0.2,0c0,0,0,0,0-0.1c0-0.1,0.1-0.1,0.1-0.2c0,0,0,0,0,0c0,0,0-0.1,0-0.1c0,0,0,0,0,0
		c0,0,0,0,0,0c0,0,0,0-0.1-0.1c0,0,0,0,0,0c0,0,0,0,0,0c0,0,0,0,0,0l-0.6,0.1l-0.1,0c0,0,0,0,0,0c0,0,0,0,0,0l0.1,0c0,0,0,0,0,0
		c0,0,0,0,0.1,0c0,0,0.1,0,0.2,0c0,0.1,0,0.2-0.1,0.3c-0.1,0.2-0.1,0.3-0.2,0.5c0,0.1-0.1,0.1-0.1,0.1C18.1,41.5,18.1,41.6,18,41.6
		C18,41.6,18,41.6,18,41.6L18,41.6z M18.5,40.9c0-0.1,0.1-0.2,0.1-0.2c0,0,0,0,0,0l0,0c0,0,0,0-0.1-0.1l0.4,0l-0.2,0.3c0,0,0,0,0,0
		c0,0,0,0,0,0c0,0,0,0,0,0c0,0,0,0,0,0l0,0c0,0,0,0,0,0c0,0,0,0,0,0c0,0,0,0,0,0l0.2,0c0,0.1-0.1,0.1-0.1,0.2c0,0-0.1,0.1-0.1,0.1
		L18.6,41C18.6,41,18.6,41,18.5,40.9C18.6,41,18.6,40.9,18.5,40.9L18.5,40.9L18.5,40.9z M19.7,41.1L19.7,41.1l-0.1,0.1
		c-0.1,0-0.1,0.1-0.2,0.1c0,0,0,0,0,0c0,0,0,0,0.1,0c0,0,0,0,0,0c0,0,0,0,0,0c0,0,0,0,0,0C19.6,41.2,19.6,41.2,19.7,41.1l0,0.5
		c0,0,0,0,0,0c0,0,0,0,0,0c-0.1,0-0.1-0.1-0.1-0.1l0,0c0,0,0,0,0,0c0,0,0.1,0.1,0.2,0.2c0,0,0,0,0,0c0,0,0,0,0,0c0,0,0,0,0-0.1
		c0-0.1,0-0.1,0-0.2L19.7,41.1c0.2-0.1,0.2-0.1,0.2-0.1c0,0,0,0,0,0l0,0L19.7,41.1l0.1-0.2l0.1,0c0,0,0,0,0,0l0,0c0,0,0,0,0,0
		c0,0,0,0,0,0l0.1,0l0.1,0l0,0.2l-0.2,0c0,0,0,0,0,0l0.1,0c0,0,0.1,0,0.1,0c0.1,0,0.2,0,0.2,0c0,0,0,0,0,0c0,0.1-0.1,0.2-0.1,0.3
		c-0.1-0.1-0.1-0.1-0.1-0.2c0,0,0,0,0,0c0,0,0,0,0,0c0,0,0,0,0,0l-0.1,0c0,0,0,0,0,0c0,0,0.1,0,0.1,0.1c0,0,0,0.1,0.1,0.1l0.1,0.1
		c0,0.1-0.1,0.1-0.1,0.2c-0.1,0.1-0.2,0.1-0.2,0.2c0,0,0,0,0,0c0,0,0,0,0,0c0,0,0,0,0,0c0.1,0,0.2-0.1,0.2-0.2c0,0,0.1-0.1,0.1-0.1
		c0,0,0.1-0.1,0.1-0.1c0,0,0,0,0,0.1l0.1,0.2l0,0.1l0.3,0c0,0,0,0,0,0c-0.1,0-0.2,0-0.2-0.1c-0.1,0-0.1-0.1-0.2-0.2
		c0-0.1,0.1-0.2,0.1-0.3c0,0,0-0.1,0-0.1c0,0,0,0,0,0c0,0,0,0,0,0c0,0,0,0,0,0c0,0,0,0-0.1,0c0,0,0,0,0,0c0,0,0,0,0,0c0,0,0,0,0,0
		c0,0-0.1,0-0.1,0l0-0.2c0.2,0,0.3-0.1,0.3-0.1c0,0,0,0,0,0c0,0,0,0,0,0l-0.1,0c0,0,0,0-0.1,0c0,0-0.1,0-0.1,0c0,0-0.1,0-0.1,0
		l0-0.1c0-0.1,0-0.1,0-0.1c0,0,0,0,0-0.1l-0.1-0.1c0,0,0,0,0,0c0,0,0,0.1,0,0.1v0l0,0.2l-0.2,0c0,0,0,0-0.1,0l0,0c0,0,0,0,0,0
		c0,0-0.1,0-0.1,0v-0.3c0,0,0-0.1,0-0.1c0,0,0,0,0,0l-0.1-0.1c0,0,0,0,0,0c0,0,0,0,0,0.1c0,0,0,0.1,0,0.1v0.3c0,0-0.1,0-0.1,0
		c0,0-0.1,0-0.2,0c0,0,0,0,0,0c0,0,0,0,0,0c0,0,0.1,0,0.1,0c0.1,0,0.1,0,0.1,0l0.1,0V41.1L19.7,41.1z M21.3,41.5c0,0-0.1,0-0.2,0
		l-0.2,0l-0.1,0c0,0,0,0,0,0c0,0,0,0,0.1,0.1c0,0,0,0,0,0c0,0,0,0,0.1,0l0.1,0c0,0,0,0,0.1,0c0,0,0.1,0,0.2,0c0,0,0.1,0,0.4,0
		c0.1,0,0.2,0,0.4,0h0c0,0,0,0,0,0c0,0,0,0,0,0c0,0,0,0-0.1-0.1c0,0-0.1,0-0.1,0c-0.1,0-0.1,0-0.2,0L21.3,41.5l0.1-0.6
		c0-0.1,0-0.1,0-0.1c0,0,0,0,0-0.1l-0.1-0.1l0.4,0c0,0,0,0,0,0c0,0,0,0,0,0l-0.1-0.1c0,0-0.1,0-0.1,0c-0.1,0-0.1,0-0.2,0
		c0,0-0.2,0-0.5,0l-0.1,0c0,0,0,0,0,0c0,0,0,0,0.1,0.1c0,0,0,0,0,0c0,0,0.1,0,0.1,0l0.2,0c0,0,0,0,0,0.1l0,0.1L21.3,41.5L21.3,41.5z
		 M22.1,41.8c0.1,0,0.1-0.1,0.1-0.1c0,0,0.1-0.1,0.1-0.1c0,0,0-0.1,0-0.1c0,0-0.1,0-0.1,0c-0.1,0-0.1,0-0.1,0.1c0,0,0,0,0,0.1
		c0,0,0.1,0,0.1,0c0,0,0,0,0,0.1C22.3,41.6,22.2,41.7,22.1,41.8C22.1,41.8,22.1,41.8,22.1,41.8L22.1,41.8L22.1,41.8z M23.3,41.7
		C23.3,41.7,23.3,41.7,23.3,41.7c0.1-0.1,0.1-0.1,0.1-0.1c0,0,0-0.1,0.1-0.1c0,0,0,0,0-0.1c0,0,0,0,0-0.1l0.5,0.3l0.3-0.1l0,0
		c-0.1,0-0.2,0-0.2,0c0,0-0.1,0-0.1,0c0,0-0.1,0-0.1-0.1v-0.2c0.2,0,0.3,0,0.3,0h0c0,0,0,0,0,0c0,0,0,0-0.1-0.1c0,0-0.1,0-0.2,0.1
		v-0.2c0.2,0,0.3,0,0.4,0c0,0,0,0,0,0c0,0,0,0,0,0L24,41c0,0-0.1,0-0.1,0c0,0-0.1,0-0.3,0c-0.2,0-0.3,0-0.3,0c0,0,0,0,0,0
		c0,0,0,0,0,0l0.1,0c0,0,0.1,0,0.1,0l0.2,0l0,0.4l-0.2-0.1c0,0,0-0.1,0-0.1c0,0,0,0,0,0l-0.1-0.1c0,0,0,0,0,0c0,0,0,0,0,0
		c0,0,0,0,0,0.1c0,0,0,0.1-0.1,0.1c0,0,0,0.1-0.1,0.1C23.3,41.6,23.3,41.7,23.3,41.7C23.2,41.7,23.2,41.7,23.3,41.7L23.3,41.7z
		 M23.6,40.5l0.3,0c0,0,0,0,0,0c0,0,0,0,0,0c0,0,0,0,0,0c0,0,0,0,0,0c0,0,0,0,0,0c0,0,0,0,0,0c0,0,0,0,0,0c0,0,0,0,0,0.1l0,0.2
		c0,0,0,0,0,0c0,0,0,0,0,0c0,0,0,0,0,0c0,0,0,0-0.1,0c0,0-0.1,0-0.1,0l-0.1,0c0,0-0.1,0-0.1,0c0,0,0,0,0,0.1c0,0,0,0,0,0
		c0,0,0,0,0,0c0,0,0,0,0,0c0,0,0,0,0,0c0,0,0,0,0,0c0,0,0,0,0,0c0,0,0-0.1,0-0.1L23.6,40.5C23.5,40.6,23.5,40.5,23.6,40.5
		C23.5,40.5,23.5,40.5,23.6,40.5C23.5,40.4,23.5,40.4,23.6,40.5L23.6,40.5L23.6,40.5z M23.6,40.6l0,0.1c0.1,0,0.2,0,0.2,0
		c0,0,0,0,0,0c0,0,0,0,0,0c0,0,0,0,0,0c-0.1,0-0.1,0-0.2,0l0,0.1l0.1,0c0.1,0,0.2,0,0.2,0l0-0.3L23.6,40.6L23.6,40.6z M23.2,41.1
		l0-0.2c0,0-0.1,0-0.1,0c0,0,0,0,0,0c0,0,0,0,0,0c0,0,0,0,0,0c0,0-0.1,0-0.1,0c0,0,0,0,0,0l0.1,0l0.1,0c0,0,0.1,0,0.1,0v-0.2
		c0-0.1,0-0.1,0-0.1c0,0,0-0.1,0-0.1c0,0,0,0,0,0l0.1,0.1c0,0,0,0,0,0.1c0,0,0,0.1,0,0.1l0,0.2c0.1,0,0.1,0,0.1,0l0.1,0c0,0,0,0,0,0
		c0,0,0,0,0,0c0,0,0,0-0.1,0c0,0-0.1,0-0.1,0L23.2,41.1c0.1,0,0.1-0.1,0.2-0.1c0,0,0,0,0,0L23.2,41.1l0.1,0.6c0,0,0,0,0,0.1
		c0,0,0,0,0,0c0,0,0,0,0,0c0,0,0,0,0,0c0,0,0,0-0.1-0.1c0,0-0.1-0.1-0.1-0.1c0,0,0,0,0,0l0.1,0.1c0,0,0,0,0,0c0,0,0,0,0-0.1
		L23.2,41.1C23.2,41.1,23.1,41.1,23.2,41.1c-0.1,0.1-0.1,0.1-0.1,0.1c0,0-0.1,0-0.1,0.1c0,0,0,0-0.1,0c0,0,0,0,0,0c0,0,0,0,0,0
		c0.1,0,0.1,0,0.1,0C23.1,41.1,23.2,41.1,23.2,41.1L23.2,41.1z M24.2,41.1C24.2,41.1,24.2,41.1,24.2,41.1
		C24.2,41.1,24.3,41.1,24.2,41.1C24.3,41.1,24.3,41.1,24.2,41.1c0.1-0.1,0.1-0.1,0.2-0.1l0.1-0.2l0,0.7c0,0.1,0,0.1,0,0.1
		c0,0,0,0,0,0c0,0,0,0.1,0,0.1c0,0,0,0,0,0c0,0,0,0,0,0c0,0,0,0,0-0.1c0,0,0-0.1,0-0.1l0-0.9c0-0.1,0.1-0.1,0.1-0.1c0,0,0-0.1,0-0.1
		c0,0,0,0,0.1,0l-0.1-0.1h0c0,0,0,0.1,0,0.1c0,0,0,0.1,0,0.1c0,0,0,0.1-0.1,0.1C24.4,40.8,24.4,41,24.2,41.1
		C24.2,41.1,24.2,41.1,24.2,41.1L24.2,41.1z M24.6,41.8C24.6,41.8,24.6,41.7,24.6,41.8c0.1-0.1,0.1-0.1,0.2-0.2
		c0-0.1,0.1-0.1,0.1-0.2c0,0,0,0,0-0.1l0-0.1c0,0,0,0,0,0l0.1,0.1c0,0,0,0,0,0c0,0,0,0,0,0c0,0,0,0,0,0
		C24.8,41.6,24.7,41.7,24.6,41.8C24.6,41.8,24.6,41.8,24.6,41.8C24.6,41.8,24.6,41.8,24.6,41.8L24.6,41.8z M24.9,41.2l0-0.3
		c0,0-0.1,0-0.1,0l-0.1,0c0,0,0,0,0,0c0,0,0,0,0,0c0,0,0,0,0,0c0,0,0.1,0,0.1,0c0,0,0.1,0,0.1,0l0-0.2c0,0,0-0.1,0-0.1
		c0,0,0-0.1,0-0.1c0,0,0,0,0,0l0.1,0.1c0,0,0,0,0,0.1c0,0,0,0.1,0,0.1v0.1l0.2,0c0,0,0-0.1,0-0.1c0,0,0-0.1,0-0.1l0-0.1
		c0,0,0-0.1,0-0.1c0,0,0,0,0-0.1c0,0,0,0,0,0l0.1,0.1c0,0,0,0.1,0,0.1c0,0,0,0,0,0.1l0,0.2c0.1,0,0.1,0,0.2,0c0,0,0,0,0.1,0
		c0,0,0,0,0,0c0,0,0,0,0,0c-0.1,0-0.2,0-0.2,0l0,0.3c0,0,0.1,0,0.2,0c0,0,0.1,0,0.1,0c0,0,0,0,0.1,0c0,0,0,0,0,0c0,0,0,0,0,0
		c-0.1,0-0.1,0-0.1,0c-0.2,0-0.3,0-0.3,0C25,41.2,24.9,41.2,24.9,41.2c-0.1,0.1-0.1,0.1-0.2,0.1l-0.1,0c0,0,0,0,0,0c0,0,0,0,0,0
		C24.6,41.2,24.7,41.2,24.9,41.2L24.9,41.2z M25.1,41.2l0-0.3l-0.2,0l0,0.3L25.1,41.2L25.1,41.2z M25.1,41.3L25.1,41.3
		c0.1,0.1,0.2,0.2,0.2,0.3l0,0.1c0,0,0,0,0,0c0,0,0,0,0,0c0,0,0,0,0,0c0-0.1,0-0.1,0-0.1c0,0,0,0-0.1-0.1c0,0,0,0,0,0
		C25.2,41.4,25.1,41.3,25.1,41.3C25.1,41.3,25.1,41.3,25.1,41.3z"/>
	<path class="st0" d="M25.6,41.4c0,0,0.1-0.1,0.1-0.1c0,0,0,0,0.1-0.1c0,0,0-0.1,0.1-0.1c0,0,0-0.1,0.1-0.1l0,0.5c0,0,0,0,0,0.1
		c0,0,0,0,0,0c0,0,0,0,0,0c0,0,0,0,0,0.1c0,0,0,0,0,0c0,0,0,0,0,0c0,0,0,0,0-0.1c0,0,0-0.1,0-0.1l0-0.6l0.1,0.1c0,0,0,0,0.1,0.1
		c0,0,0,0,0,0c0,0,0,0,0,0c0,0,0,0,0,0c0,0,0-0.1,0-0.1c0,0,0,0,0,0C26.1,41.1,26,41,26,41c0,0,0,0,0,0l0,0v-0.1l0.2,0c0,0,0,0,0,0
		c0,0,0,0,0,0c0,0,0,0-0.1,0c0,0,0,0,0,0c0,0,0,0,0,0c0,0,0,0-0.1,0l0-0.3c0,0,0-0.1,0-0.1c0,0,0,0,0-0.1l-0.1-0.1c0,0,0,0,0,0
		c0,0.1,0,0.1,0,0.2l0,0.4l-0.2,0c-0.1,0-0.1,0-0.2,0c0,0,0,0,0,0c0,0,0,0,0,0c0,0,0,0,0.1,0c0,0,0.1,0,0.2,0c0,0.1-0.1,0.1-0.1,0.2
		c0,0-0.1,0.1-0.1,0.1C25.7,41.3,25.6,41.4,25.6,41.4C25.6,41.4,25.6,41.4,25.6,41.4L25.6,41.4z M25.7,40.6L25.7,40.6L25.7,40.6
		c0.1,0.1,0.1,0.2,0.1,0.2c0,0,0,0,0,0c0,0,0,0,0,0c0,0,0,0.1,0,0.1c0,0,0,0,0,0c0,0,0,0,0,0c0,0,0,0,0,0l0-0.1L25.7,40.6
		C25.7,40.6,25.7,40.6,25.7,40.6L25.7,40.6z M26,40.9C26,40.8,26,40.8,26,40.9c0-0.1,0-0.1,0-0.1c0-0.1,0-0.1,0-0.1c0,0,0-0.1,0-0.1
		l0,0l0.1,0.1c0,0,0,0,0,0c0,0,0,0,0.1,0l0.1,0c0,0,0.1,0,0.1,0l0-0.1c0,0,0-0.1,0-0.1c0,0,0-0.1,0-0.1c0,0,0,0,0,0l0.1,0.1
		c0,0,0,0.1,0,0.1c0,0,0,0.1,0,0.1c0.1,0,0.1,0,0.2,0c0,0,0,0,0,0c0,0,0,0,0.1,0c0,0,0,0,0,0c0,0,0,0,0,0l-0.3,0c0,0,0,0.1,0,0.1
		c0.1,0,0.1,0,0.2,0l0,0c0,0,0,0,0,0c0,0,0,0,0,0c0,0-0.1,0-0.2,0c0,0,0,0.1,0,0.1c0.2,0,0.3,0,0.4-0.1c0,0,0,0,0,0c0,0,0,0,0,0
		c0,0,0,0,0,0l-0.1,0c0,0-0.2,0-0.4,0c-0.1,0-0.1,0-0.2,0l-0.1,0l0,0l0.2,0l0.2,0l0-0.1c-0.1,0-0.1,0-0.2,0l0,0c0,0,0,0,0,0
		c0,0,0,0,0,0l0.2,0l0-0.1l-0.1,0c0,0,0,0-0.1,0c0,0,0,0,0,0l0,0c0,0,0,0,0,0C26.1,40.7,26.1,40.8,26,40.9C26,40.9,26,40.9,26,40.9
		L26,40.9z M26.7,41.1C26.7,41.1,26.7,41.1,26.7,41.1C26.7,41.1,26.7,41.1,26.7,41.1L26.7,41.1C26.7,41,26.7,41,26.7,41.1
		C26.7,41,26.7,41,26.7,41.1L26.7,41.1l-0.4,0l0-0.1c0,0,0,0,0,0l0,0.2l0,0.3c0,0.1,0,0.1,0,0.1c0,0,0,0,0,0c0,0,0,0,0,0
		c0,0,0,0,0,0.1c0,0,0,0,0,0c0,0,0,0,0,0c0,0,0,0,0-0.1l0-0.2c0.2,0,0.3,0,0.3,0l0,0c0,0,0,0,0,0l0,0c0,0-0.1,0-0.1,0
		c0,0-0.1,0-0.1,0c0,0,0-0.1,0-0.1l0.3,0c0,0,0,0,0,0c0,0,0,0,0,0c0,0,0,0,0,0c0,0-0.1,0-0.1,0c0,0-0.1,0-0.1,0c0,0,0-0.1,0-0.1
		l0.2,0L26.7,41.1l-0.1,0.4c0,0,0,0.1,0,0.1c0,0,0,0,0,0c0,0,0,0,0,0l-0.1-0.1c0,0,0,0,0,0c0.1,0.1,0.2,0.2,0.2,0.2c0,0,0,0,0,0
		c0,0,0,0,0-0.1c0,0,0-0.1,0-0.2L26.7,41.1L26.7,41.1z M26.9,41.7C26.9,41.7,26.9,41.7,26.9,41.7C27,41.7,27,41.7,26.9,41.7
		c0.1,0,0.2-0.1,0.3-0.1c0,0,0.1-0.1,0.2-0.1l0,0.2c0,0,0,0.1,0,0.1c0,0,0,0,0,0c0,0,0,0,0,0c0,0,0,0,0.1,0.1c0,0,0.1-0.1,0.1-0.1
		c0,0,0.1-0.1,0.1-0.1c0,0,0.1-0.1,0.1-0.1l0,0l-0.2,0.2l0-0.3c0.1,0,0.1-0.1,0.1-0.1c0,0,0,0,0,0.1l0.1,0.1c0,0,0.1,0.1,0.3,0.3
		l0.3,0v0c-0.1,0-0.1,0-0.2,0c0,0-0.1,0-0.1,0c0,0-0.1-0.1-0.2-0.2c0.1-0.1,0.1-0.1,0.1-0.1c0,0,0,0,0,0l0,0c0,0,0-0.1,0-0.1
		c0.1,0,0.1,0,0.2,0c0,0,0,0,0,0c0,0,0,0,0,0l-0.1,0l-0.1,0c0,0,0,0-0.1,0c0,0-0.1,0-0.1,0l-0.2,0c0,0,0,0,0-0.1c0,0,0,0,0,0
		c0,0,0,0,0,0L27.5,41c0,0,0,0,0,0c0,0,0,0,0,0c0,0,0,0.1,0,0.1c0,0,0,0,0,0.1c0,0,0,0,0,0c-0.3,0-0.4,0-0.4,0c0,0-0.1,0-0.1,0
		c0,0,0,0,0,0c0,0,0,0,0,0l0.1,0l0.2,0l0.2,0c-0.1,0.1-0.2,0.2-0.3,0.3c0,0-0.1,0-0.1,0.1C27,41.6,27,41.7,26.9,41.7
		C27,41.7,26.9,41.7,26.9,41.7L26.9,41.7z M27.9,41.2C27.9,41.2,27.9,41.3,27.9,41.2c0,0.1-0.1,0.1-0.1,0.2c0,0,0,0,0,0l-0.1-0.1
		c0,0,0,0-0.1-0.1L27.9,41.2L27.9,41.2z M27.4,40.8v-0.2c0-0.1,0-0.1,0-0.2c0,0,0,0,0,0l0.1,0.1c0,0,0,0,0,0c0,0,0,0,0,0
		c0,0,0,0,0,0l0,0.6c0,0,0,0,0,0c0,0,0,0,0,0c0,0,0-0.1,0-0.1c0,0,0,0,0,0c0,0,0,0,0,0C27.4,40.9,27.4,40.9,27.4,40.8
		c-0.1,0.1-0.2,0.2-0.3,0.2l-0.1,0c0,0,0,0,0,0c0,0,0,0,0,0c0,0,0,0,0.1,0c0,0,0,0,0.1,0c0,0,0.1,0,0.1,0L27.4,40.8L27.4,40.8z
		 M27.1,40.5C27.1,40.5,27.1,40.5,27.1,40.5C27.1,40.6,27.1,40.6,27.1,40.5c0.1,0.1,0.1,0.1,0.1,0.2c0,0,0,0,0,0h0c0,0,0,0,0,0
		c0,0,0,0,0-0.1c0,0,0,0,0,0c0,0,0,0,0,0L27.1,40.5C27.1,40.6,27.1,40.5,27.1,40.5L27.1,40.5z M27.7,40.7c-0.1,0-0.2,0-0.3,0
		c0,0,0,0,0,0c0,0,0,0,0.1,0C27.5,40.7,27.6,40.7,27.7,40.7v0.3l-0.1,0c0,0-0.1,0-0.1,0c0,0,0,0,0,0c0,0,0,0,0,0c0,0,0,0,0.1,0
		c0,0,0,0,0,0c0,0,0,0,0,0c0.1,0,0.2,0,0.3,0c0.1,0,0.1,0,0.1,0c0,0,0,0,0,0c0,0,0,0,0,0c0,0,0,0,0,0c0,0,0,0,0,0c0,0,0,0-0.1,0
		c-0.1,0-0.1,0-0.2,0L27.7,40.7l0.3,0c0,0,0.1,0,0.1,0c0,0,0,0,0,0c0,0,0,0,0,0c0,0,0,0-0.1,0c0,0-0.1,0-0.1,0
		C27.9,40.6,27.9,40.6,27.7,40.7l0.1-0.1c0,0,0-0.1,0-0.1l0,0c0,0,0,0,0,0l-0.1-0.1c0,0,0,0,0,0c0,0,0,0,0,0.1c0,0,0,0.1,0,0.1V40.7
		L27.7,40.7z M28.9,41.5c0,0-0.1,0-0.2,0l-0.2,0l-0.1,0c0,0,0,0,0,0c0,0,0,0,0.1,0.1c0,0,0,0,0,0c0,0,0,0,0.1,0l0.1,0c0,0,0,0,0.1,0
		c0,0,0.1,0,0.2,0c0,0,0.1,0,0.4,0c0.1,0,0.2,0,0.4,0h0c0,0,0,0,0,0c0,0,0,0,0,0c0,0,0,0-0.1-0.1c0,0-0.1,0-0.1,0
		c-0.1,0-0.1,0-0.2,0L28.9,41.5l0.1-0.6c0-0.1,0-0.1,0-0.1c0,0,0,0,0-0.1L29,40.7l0.4,0c0,0,0,0,0,0c0,0,0,0,0,0l-0.1-0.1
		c0,0-0.1,0-0.1,0c-0.1,0-0.1,0-0.2,0c0,0-0.2,0-0.5,0l-0.1,0c0,0,0,0,0,0c0,0,0,0,0.1,0.1c0,0,0,0,0,0c0,0,0.1,0,0.1,0l0.2,0
		c0,0,0,0,0,0.1l0,0.1L28.9,41.5L28.9,41.5z M30.2,40.7L30.2,40.7c0-0.1,0-0.1,0-0.1c0,0,0,0,0,0l-0.1-0.1c0,0,0,0,0,0
		c0,0,0,0.1,0,0.1c0,0,0,0,0,0.1L30.2,40.7l-0.2,0l-0.2,0c0,0,0,0,0,0c0,0,0,0,0,0l0,0c0,0,0,0,0,0c0,0,0.1,0,0.1,0c0,0,0,0,0.1,0
		L30.2,40.7c-0.1,0.1-0.1,0.1-0.1,0.1c0,0,0,0,0,0c0,0,0,0,0,0l0,0.1l0,0c0,0,0,0,0,0c0,0,0,0,0,0c0,0,0,0,0-0.1V40.7l0.2,0
		c0,0.1,0,0.1-0.1,0.2c0,0,0,0,0,0c0,0,0,0,0,0c0,0,0,0,0,0l0.1-0.2c0.1,0,0.2,0,0.3,0c0,0,0.1,0,0.1,0c0,0,0,0,0,0c0,0,0,0,0,0
		l-0.1,0c-0.1,0-0.1,0-0.2,0l-0.1,0c0-0.1,0-0.1,0-0.1c0,0,0,0,0-0.1l-0.1-0.1c0,0,0,0,0,0c0,0,0,0,0,0.1c0,0,0,0.1,0,0.1
		c0,0,0,0.1,0,0.1l-0.1,0L30.2,40.7L30.2,40.7z M30.4,41c-0.2,0-0.3,0-0.3,0c0,0-0.1,0-0.1,0c0,0,0,0-0.1,0c0,0,0,0,0,0c0,0,0,0,0,0
		l0.1,0L30.4,41C30.4,41,30.4,41,30.4,41C30.4,40.9,30.4,40.9,30.4,41c0.1-0.1,0.1-0.1,0.1-0.1c0,0,0,0,0,0c0,0,0.1,0.1,0.1,0.1
		c0,0,0,0,0,0C30.5,41,30.5,41,30.4,41C30.4,41.1,30.4,41.1,30.4,41l-0.1,0.2c0,0-0.1,0.1-0.1,0.1c-0.1,0.1-0.1,0.1-0.2,0.2
		c0,0,0,0.1,0,0.1c0,0,0,0,0,0c0,0,0.1,0,0.1,0c0.1,0,0.1,0,0.2,0c0,0,0.1,0,0.3,0c0.1,0,0.1,0,0.1,0c0,0,0,0,0,0l0-0.3h0l0,0.1
		c0,0,0,0.1,0,0.1c0,0.1,0,0.1,0,0.1c0,0,0,0,0,0c0,0,0,0,0,0c0,0,0,0-0.1,0c-0.1,0-0.2,0-0.2,0l-0.1,0c-0.1,0-0.1,0-0.2,0
		c-0.1,0-0.1,0-0.2,0c0,0-0.1-0.1-0.1-0.1c0,0,0-0.1,0-0.1c0,0,0,0,0-0.1c0,0,0.1-0.1,0.1-0.1l0.1-0.1C30.2,41.2,30.3,41.2,30.4,41
		L30.4,41L30.4,41z M31,41.8C31,41.8,31,41.8,31,41.8C31,41.8,31,41.8,31,41.8c0.1-0.1,0.1-0.1,0.2-0.2c0-0.1,0.1-0.2,0.1-0.3
		c0,0,0,0,0,0c0,0,0.1,0,0.1,0c0,0.1,0,0.1,0,0.2c0,0,0,0,0,0c0,0,0,0.1,0,0.1c0,0,0,0,0,0c0,0.1,0,0.1,0,0.1c0,0,0,0,0,0
		c0,0,0,0,0,0c0,0,0,0,0-0.1c0.1,0.1,0.2,0.2,0.2,0.2c0,0,0,0,0-0.1c0,0,0-0.1,0-0.1l0-0.7c0,0,0,0,0-0.1c0,0,0,0,0,0c0,0,0,0,0,0
		c0,0,0,0,0,0c0,0,0,0,0,0c0,0,0,0,0,0c0,0,0,0,0,0c0,0-0.1,0-0.1,0l0.1-0.1c0,0,0.1-0.1,0.1-0.1c0,0,0,0,0,0c0,0,0,0,0,0
		c0,0,0,0,0,0c0,0,0,0,0,0c0,0,0,0,0,0l-0.2,0l0-0.1c0,0,0,0,0,0c0,0,0-0.1,0.1-0.1l-0.1-0.1c0,0,0,0,0,0c0,0,0,0.1,0,0.2
		c0,0.1,0,0.1-0.1,0.2c-0.1,0.1-0.1,0.2-0.2,0.3c0,0,0,0,0,0l0,0c0,0,0,0,0,0l0.1-0.1c0,0,0,0,0-0.1l0,0c0,0.1,0,0.1,0,0.1
		c0,0,0,0.1,0,0.1c0,0.1,0,0.1,0,0.2c0,0.1,0,0.2,0,0.3C31.1,41.6,31.1,41.7,31,41.8C31,41.8,31,41.8,31,41.8L31,41.8z M31.5,40.7
		C31.5,40.7,31.5,40.7,31.5,40.7c-0.1,0.1-0.1,0.2-0.1,0.2l-0.2,0c0,0,0,0,0-0.1c0-0.1,0.1-0.1,0.1-0.1c0,0,0,0,0,0c0,0,0,0,0,0
		c0,0,0,0,0,0L31.5,40.7C31.4,40.7,31.5,40.7,31.5,40.7L31.5,40.7z M31.2,41.1L31.2,41.1c0.1,0,0.1,0,0.1,0l0,0.1c0,0-0.1,0-0.1,0
		L31.2,41.1L31.2,41.1z M31.2,40.9l0.1,0v0.1l-0.1,0L31.2,40.9L31.2,40.9z M31.4,41.6l0-0.3c0.1,0,0.1,0,0.1,0l0,0.2v0.2
		c0,0,0,0,0,0C31.5,41.6,31.5,41.6,31.4,41.6L31.4,41.6C31.4,41.6,31.4,41.6,31.4,41.6L31.4,41.6z M31.6,41.3L31.6,41.3
		c-0.1,0-0.1,0-0.1,0v-0.1c0,0,0.1,0,0.1,0V41.3L31.6,41.3z M31.6,41.1C31.5,41,31.5,41,31.6,41.1c-0.1,0-0.1,0-0.1,0v-0.1
		c0,0,0.1,0,0.1,0V41.1L31.6,41.1z M31.6,41C31.6,41,31.6,41,31.6,41C31.7,40.9,31.7,40.9,31.6,41c0.1-0.1,0.1-0.1,0.1-0.2
		c0,0,0-0.1,0-0.1c0,0,0-0.1,0-0.1c0,0,0,0,0,0l-0.1,0c0,0,0,0,0,0l-0.1,0c0,0,0,0,0,0c0,0,0,0,0,0c0,0,0.1,0,0.3,0l0.2,0
		c0,0,0,0,0,0c0,0,0,0,0,0c0,0,0,0,0,0l0,0c0,0,0,0,0,0c0,0,0,0,0,0c0,0,0,0,0,0.1l0,0.1c0,0,0,0.1,0,0.1c0,0,0,0,0,0c0,0,0,0,0,0
		c0,0,0,0,0,0l-0.1-0.1c0,0,0,0,0,0c0.1,0,0.1,0.1,0.1,0.1c0,0,0,0,0-0.1c0-0.1,0-0.1,0-0.2l-0.2,0l0,0c0,0,0,0-0.1,0.1
		C31.8,40.8,31.7,40.9,31.6,41C31.6,41,31.6,41,31.6,41C31.6,41,31.6,41,31.6,41L31.6,41z M31.9,41.3v-0.2c0,0-0.1,0-0.1,0
		c0,0,0,0,0,0c0,0,0,0,0,0c0,0,0,0,0,0c0,0.1-0.1,0.1-0.1,0.1c0,0,0,0,0,0c0,0,0,0,0,0c0,0,0,0,0,0c0,0,0,0,0,0c0,0,0-0.1,0-0.1
		c0,0,0-0.1,0-0.1c0,0,0-0.1,0-0.1c0,0,0,0,0,0l0.1,0.1c0,0,0,0,0,0l0,0.1l0.2,0V41c0,0,0,0,0-0.1c0,0,0,0,0-0.1c0,0,0,0,0,0
		l0.1,0.1c0,0,0,0,0,0c0,0,0,0,0,0c0,0,0,0,0,0.1v0c0,0,0.1,0,0.1,0c0,0,0,0,0.1,0l0.1,0c0,0,0,0,0,0c0,0,0,0,0,0l-0.1,0l-0.1,0
		L31.9,41.3c0.1,0,0.2,0,0.2,0c0,0,0.1,0,0.1,0l0.1,0c0,0,0,0,0,0c0,0,0,0,0,0L31.9,41.3l0.1,0.2c0,0,0,0.1,0,0.1c0,0,0,0.1,0,0.1
		c0,0,0,0,0,0c0,0,0,0,0,0c0,0,0,0,0,0c0,0,0,0,0-0.1c0,0,0,0,0,0c0,0,0,0,0,0c0,0,0,0,0-0.1c0,0,0-0.1,0-0.1V41.3l-0.1,0.1l-0.1,0
		l-0.1,0c0,0,0,0,0,0c0,0,0,0,0,0l0,0c0,0,0.1,0,0.1,0L31.9,41.3z"/>
	<path class="st0" d="M32.7,40.9c0,0,0,0.1-0.1,0.2c-0.1,0.1-0.1,0.2-0.1,0.3c0,0,0,0,0,0.1c0,0,0,0,0,0c0,0-0.1-0.1-0.1-0.1
		c0,0,0,0,0,0c0,0,0,0,0,0l0.1,0.2c0,0,0,0,0,0c0,0,0,0,0,0c0,0,0,0,0-0.1c0-0.1,0.1-0.1,0.1-0.2C32.6,41.2,32.7,41.1,32.7,40.9
		C32.8,40.9,32.8,40.9,32.7,40.9C32.8,40.9,32.8,40.9,32.7,40.9L32.7,40.9z M32.6,41.8C32.6,41.8,32.6,41.8,32.6,41.8
		c0.1-0.1,0.2-0.2,0.3-0.3c0-0.1,0.1-0.1,0.1-0.2c0,0,0-0.1,0-0.1c0,0-0.1,0-0.1,0c-0.1,0-0.1,0-0.2,0c0,0,0,0,0,0c0,0-0.1,0-0.1,0
		c0,0,0,0,0,0c0,0,0,0,0.1,0c0.1,0,0.2,0,0.2,0c0,0,0-0.1,0-0.2c0-0.1,0-0.2,0-0.2l-0.1,0c0,0-0.1,0-0.1,0c0,0,0,0,0,0
		c0,0,0,0-0.1,0c0,0,0,0,0,0l0.2,0c0-0.1,0-0.1,0-0.2c0,0,0-0.1,0-0.1c0,0,0-0.1,0-0.1c0,0,0,0,0,0l0.1,0.1c0,0,0,0.1,0,0.1l0,0.2
		l0.2,0c0,0,0,0,0,0c0,0,0,0,0,0c0,0,0,0,0.1,0.1c0,0,0,0,0,0c0,0,0,0,0,0c0,0,0,0,0,0c0,0,0,0,0,0.1l0,0.2c0.1,0,0.2,0,0.2,0
		c0,0,0.1,0.1,0.1,0.1c0,0,0,0,0,0c0,0-0.1,0-0.1,0c-0.2,0-0.3,0-0.4,0l0,0l0.1,0.2c0,0.1,0.1,0.1,0.1,0.1c0,0.1,0.1,0.1,0.1,0.1
		c0,0,0.1,0,0.2,0c0,0,0,0,0,0l-0.1,0l-0.1,0l0-0.1l-0.1-0.2l-0.1-0.3c0,0,0,0,0,0c0,0.1-0.1,0.2-0.1,0.3c-0.1,0.1-0.1,0.1-0.2,0.2
		l-0.1,0C32.7,41.8,32.6,41.8,32.6,41.8C32.6,41.8,32.6,41.8,32.6,41.8C32.6,41.8,32.6,41.8,32.6,41.8L32.6,41.8z M33.1,41.2l0.2,0
		l0-0.2l0-0.1l-0.1,0c0,0-0.1,0-0.1,0l0,0.1c0,0,0,0.1,0,0.1C33.1,41,33.1,41.1,33.1,41.2L33.1,41.2z M32.5,40.6
		C32.5,40.6,32.5,40.6,32.5,40.6C32.5,40.6,32.5,40.7,32.5,40.6c0.1,0.1,0.2,0.1,0.2,0.1c0,0,0,0,0,0c0,0,0,0,0,0c0,0,0,0,0,0.1
		c0,0,0,0,0,0c0,0,0,0,0,0c0,0,0,0,0,0C32.6,40.8,32.5,40.7,32.5,40.6C32.5,40.6,32.5,40.6,32.5,40.6C32.5,40.6,32.5,40.6,32.5,40.6
		L32.5,40.6z M33.7,41.8C33.7,41.8,33.8,41.8,33.7,41.8c0.1-0.1,0.2-0.1,0.2-0.1c0.1-0.1,0.2-0.1,0.2-0.2c0.1-0.1,0.1-0.2,0.2-0.3
		l0,0l0,0c0,0,0,0,0,0c0,0,0.1,0,0.1,0c0,0.1,0,0.2-0.1,0.3c0,0.1,0,0.2-0.1,0.2c0,0,0,0,0,0c0,0,0,0-0.1,0l-0.1-0.1c0,0,0,0,0,0
		c0.1,0.1,0.1,0.1,0.1,0.2c0,0,0,0,0,0c0,0,0,0,0,0c0,0,0,0,0,0c0,0,0-0.1,0.1-0.2c0,0,0-0.1,0-0.1c0-0.1,0-0.1,0-0.2
		c0,0,0-0.1,0-0.1c0,0,0,0,0,0c0,0,0,0,0,0c0,0,0,0,0,0c0,0,0,0-0.1-0.1c0,0,0,0,0,0c0,0,0,0,0,0c0,0,0,0,0,0.1c-0.1,0-0.2,0-0.3,0
		c0-0.1,0-0.1,0-0.1c0,0,0,0,0-0.1l0-0.1l0.4,0l0.2,0c0,0,0,0,0,0c0,0,0,0,0,0c0,0,0,0,0,0l-0.1-0.1c-0.1,0-0.2,0-0.4,0.1l-0.2,0
		l-0.3,0c-0.2,0-0.2,0-0.2,0c0,0,0,0,0,0c0,0,0,0,0,0l0.1,0.1l0.1,0l0.2,0l0.1,0c0,0,0,0,0,0c0,0,0,0.1,0,0.2l0,0.1
		c0,0.1-0.1,0.2-0.1,0.3c-0.1,0.1-0.1,0.2-0.2,0.2C33.8,41.7,33.8,41.7,33.7,41.8C33.7,41.8,33.7,41.8,33.7,41.8L33.7,41.8z
		 M34.3,40.4C34.3,40.4,34.3,40.4,34.3,40.4C34.3,40.4,34.3,40.4,34.3,40.4c0.1,0.1,0.2,0.1,0.2,0.2c0,0,0,0,0,0.1c0,0,0,0,0,0
		c0,0,0,0,0,0c0,0,0,0,0,0c0,0,0,0,0,0c0,0,0,0,0,0l0,0c0,0,0-0.1,0-0.1C34.3,40.5,34.3,40.4,34.3,40.4L34.3,40.4z M35.1,41.7
		C35.1,41.7,35.1,41.7,35.1,41.7L35.1,41.7c0.3-0.1,0.4-0.2,0.6-0.4c0,0.2,0,0.3,0,0.3c0,0,0,0,0,0c0,0,0,0,0,0c0,0,0,0,0,0l0,0.1
		c0,0,0,0,0,0c0,0,0,0,0,0c0,0,0,0,0,0l0-0.2v-0.3c0,0,0.1,0.1,0.1,0.1l0.2,0.2l0.3,0c0,0,0,0,0,0c-0.1,0-0.1,0-0.2,0
		c0,0-0.1,0-0.1-0.1c0,0-0.1,0-0.1-0.1l-0.1-0.1c0,0,0.1,0,0.3,0c0,0,0.1,0,0.2,0c0,0,0,0,0,0c0,0,0,0,0,0l-0.1,0c0,0,0,0-0.1,0
		c0,0-0.1,0-0.2,0l-0.2,0v0c0,0,0-0.1,0-0.1c0,0,0,0-0.1-0.1c0,0,0,0,0.1,0c0,0,0,0,0.1,0c0,0,0,0,0,0c0,0,0.1,0,0.2,0.1
		c0,0,0.1,0,0.1,0c0,0,0,0,0,0c0,0,0,0,0,0c0,0,0,0,0,0c0,0,0,0,0,0c0,0,0,0,0,0c0,0-0.1,0-0.2,0c0,0,0,0-0.1,0
		c0.1,0,0.1-0.1,0.1-0.2l0.3,0c0,0,0,0,0.1,0c0,0,0,0,0,0c0,0,0,0-0.1-0.1c0,0-0.1,0-0.1,0c-0.1,0-0.1,0-0.1,0c0,0-0.2,0-0.4,0
		l0.1-0.1c0,0,0,0,0,0c0,0,0,0-0.1-0.1l0.4,0c0,0.1-0.1,0.1-0.1,0.1l0,0c0,0,0,0,0,0c0,0,0,0,0.1-0.1c0,0,0,0,0.1-0.1c0,0,0,0,0,0
		c0,0,0,0,0,0c0,0,0,0,0,0c0,0,0,0-0.1,0c0,0,0,0,0,0c0,0,0,0,0,0c0,0,0,0,0,0l-0.5,0l-0.3,0c0,0,0-0.1,0-0.1c0,0,0,0,0,0
		c0,0,0,0,0,0c0,0.1,0,0.1-0.1,0.1c0,0,0,0,0,0c0,0,0,0,0,0l0,0.1c0,0,0,0,0,0c0,0,0,0,0,0c0,0,0,0,0,0l0-0.1l0.3,0c0,0,0,0.1,0,0.1
		c0,0,0,0.1-0.1,0.1l-0.1,0l-0.1,0l-0.1,0c0,0,0,0,0,0c0,0,0,0,0,0c0,0,0,0,0,0c0,0,0.1,0,0.1,0c0,0,0,0,0.1,0l0.1,0c0,0,0,0,0,0.1
		c0,0,0,0,0,0.1c0,0,0,0,0,0c0,0,0,0,0,0c0.1,0,0.1,0,0.1,0l0.1,0c-0.1,0.1-0.3,0.1-0.5,0.2c0,0,0,0,0,0c0,0,0,0,0,0c0,0,0,0,0,0
		c0.1,0,0.3-0.1,0.4-0.1c0,0,0,0.1,0,0.1v0.1l-0.4,0c0,0-0.1,0-0.1,0c0,0,0,0,0,0c0,0,0,0,0,0c0,0,0,0,0.1,0c0,0,0,0,0,0
		c0.2,0,0.2,0,0.3,0l0.1,0c0,0-0.1,0.1-0.1,0.1c0,0,0,0,0,0c0,0,0,0-0.1,0C35.3,41.6,35.2,41.6,35.1,41.7
		C35.1,41.7,35.1,41.7,35.1,41.7L35.1,41.7z M35.5,41l0.1-0.1l0.3,0c0,0.1-0.1,0.1-0.1,0.2L35.5,41L35.5,41z M35.6,40.4
		C35.6,40.4,35.6,40.4,35.6,40.4C35.7,40.4,35.7,40.4,35.6,40.4l0.1,0.1c0,0,0,0,0,0c0,0,0,0,0,0c0,0,0,0,0,0.1c0,0,0,0,0,0
		c0,0,0,0,0,0c0,0,0,0,0,0c0,0,0-0.1,0-0.1C35.7,40.5,35.7,40.5,35.6,40.4C35.7,40.4,35.6,40.4,35.6,40.4z"/>
</g>
</svg>
