<?xml version="1.0" encoding="utf-8"?>
<!-- Generator: Adobe Illustrator 21.0.0, SVG Export Plug-In . SVG Version: 6.00 Build 0)  -->
<svg version="1.1" id="图层_1" xmlns="http://www.w3.org/2000/svg" xmlns:xlink="http://www.w3.org/1999/xlink" x="0px" y="0px"
	 viewBox="0 0 50 50" style="enable-background:new 0 0 50 50;" xml:space="preserve">
<style type="text/css">
	.st0{fill-rule:evenodd;clip-rule:evenodd;fill:#6EA082;}
</style>
<g>
	<path class="st0" d="M35.7,36.8c0.2-0.2,0.3-0.2,0.3,0.1c0,0.1-0.1,0.3-0.2,0.6h3.6c0.2,0.1,0.2,0.2,0,0.3h-2.8v1.4H39
		c0.2,0.1,0.2,0.2,0,0.3h-2.3v1.5h2.4c0.2,0.1,0.2,0.2,0,0.3h-2.4v1.3c-0.1,0.2-0.2,0.2-0.3,0v-4.9h-0.5c-0.3,0.8-0.6,1.4-1,1.9
		c-0.2,0.1-0.3,0.1-0.3-0.2C35.1,38.9,35.5,38,35.7,36.8 M26.9,36.9c0,0.2-0.1,0.5-0.2,0.8h1v-0.8c0.1-0.1,0.2-0.1,0.3,0v0.8h1.8
		c0.2,0.1,0.2,0.2,0,0.3H28v0.8h2.2c0.2,0.1,0.2,0.2,0,0.3H28v0.8h1.1c0.4,0,0.6,0.2,0.6,0.5V42c0,0.4-0.2,0.7-0.6,0.7
		c-0.3,0-0.5-0.1-0.8-0.2c-0.1-0.1-0.1-0.2,0.1-0.3c0.3,0.1,0.5,0.2,0.6,0.2c0.3,0,0.4-0.1,0.3-0.4v-1.4c0-0.2-0.1-0.3-0.3-0.3h-1
		v2.5c-0.1,0.1-0.2,0.1-0.3,0v-2.5h-1c-0.2,0-0.3,0.1-0.3,0.3v2.1c-0.1,0.1-0.2,0.1-0.3,0v-2.2c0-0.3,0.2-0.5,0.6-0.5h1.1v-0.8h-1.9
		c-0.2-0.1-0.2-0.2,0-0.3h1.9V38h-1.1c-0.1,0.2-0.2,0.5-0.4,0.7c-0.2,0.1-0.3,0-0.3-0.2c0.4-0.6,0.6-1.1,0.7-1.7
		C26.7,36.7,26.8,36.7,26.9,36.9z M32,37v5.1c0,0.5-0.2,0.7-0.6,0.7c-0.2,0-0.5-0.1-0.9-0.2c-0.2-0.2-0.1-0.3,0.1-0.3
		c0.8,0.2,1.1,0.2,1.1-0.3V37C31.7,36.9,31.9,36.9,32,37z M20.1,36.8c0.2-0.1,0.3-0.1,0.3,0v3c-0.2,0.2-0.3,0.2-0.3,0V36.8z
		 M22.6,36.8v0.8h1.6c0.2,0.1,0.2,0.2,0,0.3h-1.6v1h1.4c0.2,0.1,0.2,0.2,0,0.3h-2.8c-0.2-0.1-0.2-0.2,0-0.3h1.1v-1h-1.4
		c-0.2-0.1-0.2-0.2,0-0.3h1.4v-0.8C22.3,36.7,22.4,36.7,22.6,36.8z M18.6,37c0.3,0.2,0.6,0.5,0.9,0.7c0,0.2-0.1,0.3-0.3,0.2
		c-0.2-0.2-0.5-0.5-0.8-0.7C18.3,37.1,18.4,37,18.6,37z M19.6,38.3c0.2-0.1,0.3,0,0.3,0.2c-0.2,0.3-0.6,0.8-1.1,1.3
		c-0.2,0.1-0.3,0-0.3-0.2C18.9,39.1,19.3,38.7,19.6,38.3z M11.9,36.8c0.2-0.1,0.3-0.1,0.3,0.2L12,37.5h3.8c0.5,0,0.7,0.2,0.7,0.6
		c0,0.6,0,1.3-0.1,2.3c0,1.1-0.7,1.5-2.2,1C14,41.2,14,41.1,14.2,41c1.2,0.4,1.8,0.2,1.8-0.7c0.1-1,0.1-1.7,0.1-2.2
		c0-0.3-0.1-0.4-0.5-0.4h-3.8c-0.3,0.5-0.7,1-1.3,1.4c-0.2,0.1-0.3,0-0.2-0.2C11,38.3,11.6,37.6,11.9,36.8z M12,38.6h2.2
		c0.5,0,0.7,0.2,0.6,0.6V40c0,0.4-0.2,0.6-0.6,0.6h-2.6v1.5c0,0.3,0.2,0.5,0.5,0.4h3.8c0.5,0.1,0.8-0.3,0.7-1.2
		c0.1-0.1,0.2-0.1,0.3,0c0.1,1.1-0.3,1.5-1.1,1.5H12c-0.5,0-0.7-0.2-0.7-0.6v-2.9C11.3,38.8,11.5,38.6,12,38.6z M19.5,43.7h4.9
		c0.2,0.1,0.2,0.2,0,0.3h-2.3v4.3h2.7c0.2,0.1,0.2,0.2,0,0.3h-5.7c-0.2-0.1-0.2-0.2,0-0.3h2.7V44h-2.3
		C19.4,43.9,19.4,43.8,19.5,43.7z M14,38.9h-1.9c-0.3,0-0.5,0.1-0.5,0.4v0.9H14c0.3,0,0.5-0.1,0.5-0.4v-0.5
		C14.5,39.1,14.3,38.9,14,38.9z M21.1,39.6c0.2,0.2,0.4,0.4,0.5,0.6h2.8c0.2,0.1,0.2,0.2,0,0.3h-2.7c0.2,0.4,0.4,0.7,0.6,1
		c0.5-0.2,1-0.5,1.4-0.8c0.2,0,0.3,0.1,0.2,0.3c-0.3,0.3-0.8,0.5-1.4,0.8c0.6,0.5,1.2,0.8,2,0.8c0.2,0.1,0.1,0.2-0.1,0.3
		c-1.6-0.2-2.6-1-3.1-2.4h-0.4c-0.4,0.3-0.7,0.6-0.9,0.7v1c0,0.3,0.5,0.2,1.5-0.2c0.2,0,0.3,0.1,0.1,0.3c-0.4,0.2-0.8,0.3-1.4,0.4
		c-0.4,0.1-0.6-0.1-0.6-0.4v-1c-0.7,0.3-1.2,0.5-1.5,0.6c-0.2,0-0.2-0.1-0.1-0.3c1-0.3,1.7-0.7,2.3-1.2h-2.3c-0.2-0.1-0.2-0.2,0-0.3
		h3.1c-0.1-0.1-0.2-0.3-0.3-0.4C20.8,39.5,20.9,39.5,21.1,39.6z M30.8,37.4v4.1c-0.1,0.2-0.2,0.2-0.3,0v-4.1
		C30.6,37.1,30.7,37.1,30.8,37.4z M26.4,43.7h4.5c0.2,0.1,0.2,0.2,0,0.3h-4.4c-0.2,0-0.3,0.1-0.3,0.3v1.1c0,1.4-0.1,2.5-0.5,3.3
		c-0.2,0.1-0.3,0.1-0.3-0.1c0.4-0.8,0.5-1.9,0.5-3.2v-1.2C25.9,43.8,26.1,43.7,26.4,43.7z M21.7,18.6l0-1.2h8.4l0,1.2H21.7z
		 M21.7,20.3l0-1.2h8.4l0,1.2H21.7z M31.9,14.7v0.4h-7.3c0.2-0.1,0.4-0.3,0.6-0.4H31.9z M19.8,18l0,3.6c0,0.3,0.3,0.7,0.7,0.7h1.1
		l0-1.6h8.4l0,1.2h-2.2v0.4h2.2h0h1.1c0.4,0,0.7-0.5,0.7-0.8l0-4.1h0V17h0h-1.9h-7.9c0.9-0.5,1.9-1,2.7-1.6H24
		c0.4-0.3,0.7-0.5,1.1-0.8H26c0.6-0.5,1.2-1,1.8-1.5h-4c-0.6,0.6-1.3,1.2-2,1.7h-3.6v0.4h3c-1,0.6-2,1.2-3,1.7v1.7
		C18.7,18.4,19.3,18.2,19.8,18z M30.1,23.6H19.9V26h10.1V23.6z M31.9,24v2.4H18.1V24c0-0.4,0.4-0.8,0.7-0.8h12.4
		C31.6,23.2,31.9,23.6,31.9,24z M18.8,32.4c-0.3,0-0.7-0.4-0.7-0.8v-4.5c1.6,0,3.3,0,4.9,0v3.7h-1.9v-3.3h-1.2V32h4v-4.9
		c2.7,0,5.4,0,8.1,0v0.4v4.1c0,0.4-0.4,0.8-0.7,0.8H27v-3.7h1.9V32h1.2l0-4.5h-4.3v4.9H18.8z M20.7,9L20.7,9h8.6v3.3H29h-8.3h0V9z
		 M18.1,7.7l0,4.5c0,0.4,0.4,0.8,0.7,0.8h1.1l0-4.9h2.2h5.6h2.2l0,4.9h1.1c0.4,0,0.7-0.5,0.7-0.8l0-4.5h-4.1h-5.6H18.1z M24.1,3.8
		h1.9v2.8h4.1l0-2.4h-1.3v1.3h-1.9V3.8h1.9h1.3h1.1c0.4,0,0.7,0.5,0.7,0.8l0,2.4H18.1l0-2.4c0-0.4,0.4-0.8,0.7-0.8h1.1h1.3h1.9v1.7
		h-1.9V4.2h-1.3l0,2.4h4.1V3.8z M27.4,11.8V9.4h-4.8v2.4H27.4z M34.7,36.9c-0.2,0.7-0.3,1.2-0.5,1.6v4.1c-0.1,0.2-0.2,0.2-0.3,0
		v-3.5c-0.2,0.3-0.4,0.6-0.6,0.8C33,40,32.9,40,33,39.8c0.7-0.8,1.1-1.8,1.4-2.9C34.6,36.7,34.7,36.7,34.7,36.9z"/>
	<path class="st0" d="M19.2,34c-0.8,0-1.1,0.2-1.1,1v1.1c0,0.1,0.3,0.1,0.3,0v-1.2c0-0.5,0.3-0.6,0.6-0.6c4.1,0,8.1,0,12.2,0
		c0.3,0,0.6,0,0.6,0.6v1.2c0,0.1,0.3,0.1,0.3,0V35c0-0.8-0.3-1-1.1-1C26.9,34,23.1,34,19.2,34 M18.4,43.7v4.5v0.6v0.3v0l0,0
		C7.8,46.2,0,36.5,0,25C0,11.2,11.2,0,25,0c13.8,0,25,11.2,25,25c0,11.5-7.8,21.2-18.4,24.1l0,0v0v-0.3v-5.1c0-0.1,0.3-0.1,0.3,0v5
		c10.3-3,17.7-12.5,17.7-23.7C49.7,11.4,38.6,0.3,25,0.3C11.4,0.3,0.3,11.4,0.3,25c0,11.2,7.5,20.7,17.7,23.7v-5
		C18.1,43.6,18.4,43.6,18.4,43.7z"/>
</g>
</svg>
